<svg width="257" height="984" viewBox="0 0 257 984" fill="none" xmlns="http://www.w3.org/2000/svg">
<path opacity="0.4" d="M43.4613 0.155343C43.4613 0.155343 22.2822 9.08404 31.8323 22.3023C31.8323 22.3023 32.6117 25.0863 35.4922 25.1015C35.4922 25.1015 35.0003 24.0123 37.2524 23.3521C38.0514 23.1099 38.819 22.7742 39.5392 22.3518C40.5153 21.7864 41.2796 20.917 41.7153 19.8765C41.7153 19.8765 46.3161 14.6276 43.863 4.05312C43.863 4.05312 44.5073 1.16821 44.177 0.672607L41.4415 3.87091C41.4415 3.87091 43.866 5.78581 43.9603 8.32936C43.9603 8.32936 41.6248 3.89183 41.0126 4.32968C40.8848 4.41583 39.6384 6.08581 39.6384 6.08581C39.6384 6.08581 43.8661 9.4696 43.8936 13.4016C43.8936 13.4016 41.8249 7.73946 39.1893 6.7474L37.4406 9.35535C37.4406 9.35535 42.0555 12.6815 42.26 17.1583C42.26 17.1583 39.8828 11.3144 37.1017 9.95556L35.7463 12.7996C35.7463 12.7996 40.1844 16.1276 40.3237 19.8499C40.3237 19.8499 36.897 13.3734 35.4785 13.4581C35.4785 13.4581 34.3864 16.1227 34.4356 16.9752C34.4356 16.9752 37.5656 19.4399 37.4535 21.6097C37.4535 21.6097 34.7082 17.5269 34.2188 17.7421C34.2188 17.7421 33.7254 21.593 34.5048 23.6777C34.5048 23.6777 33.1457 20.677 33.6142 17.6951C33.6142 17.6951 31.9091 18.9361 31.4156 20.6891C31.4156 20.6891 30.7068 18.4904 33.7299 16.7654C33.7299 16.7654 34.2374 13.782 34.5958 13.4372C34.5958 13.4372 31.3557 14.7177 29.8821 16.4878C29.8821 16.4878 30.5658 13.7392 34.9322 12.6752L36.2441 9.83387C36.2441 9.83387 31.8659 11.3003 30.4311 12.7784C30.4311 12.7784 31.5875 10.0805 36.6289 9.1367L38.3067 6.53934C38.3067 6.53934 34.4411 7.51292 32.4925 8.81443C32.4925 8.81443 34.1017 6.54224 38.8155 5.81127L40.1387 4.20283C40.1387 4.20283 37.3312 4.9693 36.5339 5.2439C35.7366 5.51849 35.6029 5.34536 35.6029 5.34536C37.0959 4.26687 38.8593 3.62458 40.6962 3.49022C40.6962 3.49022 43.636 0.351122 43.4613 0.155343Z" fill="#145196"/>
<path d="M131.059 96.6503C131.059 96.6503 174.47 110.039 176.804 77.8921C176.804 77.8921 179.161 72.6866 174.819 69.004C174.819 69.004 174.18 71.278 169.931 69.4165C168.413 68.768 166.825 68.3011 165.198 68.0257C163.001 67.6417 160.74 67.987 158.758 69.0089C158.758 69.0089 145.123 71.111 135.403 90.2383C135.403 90.2383 130.762 93.7878 130.633 94.9578L138.838 93.5907C138.838 93.5907 137.6 87.6111 140.688 83.64C140.688 83.64 138.587 93.3261 140.07 93.441C140.373 93.4729 144.382 92.5279 144.382 92.5279C144.382 92.5279 142.28 82.0333 147.234 76.0451C147.234 76.0451 143.172 87.2462 145.903 92.0968L151.863 90.3698C151.863 90.3698 149.102 79.4706 154.48 72.4325C154.48 72.4325 150.655 84.3008 153.139 89.8915L158.805 87.3074C158.805 87.3074 156.313 76.6301 160.831 70.817C160.831 70.817 157.791 84.9766 160.047 86.6507C160.047 86.6507 165.086 84.0037 166.094 82.6503C166.094 82.6503 164.486 74.942 167.413 71.7992C167.413 71.7992 166.382 81.4687 167.397 81.7647C167.397 81.7647 173.036 76.5608 174.505 72.4142C174.505 72.4142 172.75 78.6843 168.252 82.6039C168.252 82.6039 172.411 82.8912 175.385 80.8641C175.385 80.8641 173.665 85.0935 166.896 83.8647C166.896 83.8647 162.337 87.7369 161.357 87.8037C161.357 87.8037 167.889 89.9814 172.369 89.1734C172.369 89.1734 167.842 92.4664 159.879 88.53L154.283 91.1653C154.283 91.1653 162.775 94.5075 166.825 94.0923C166.825 94.0923 161.647 96.7081 152.815 91.7321L146.974 93.5331C146.974 93.5331 154.064 96.9701 158.668 97.4752C158.668 97.4752 153.345 98.8711 145.279 93.9891L141.232 94.7433C141.232 94.7433 146.457 97.1496 148.013 97.7468C149.569 98.344 149.551 98.776 149.551 98.776C145.921 98.5121 142.435 97.2442 139.483 95.1139C139.483 95.1139 131.043 96.1319 131.059 96.6503Z" fill="#145196"/>
<path opacity="0.8" d="M63.1653 363.088C63.1653 363.088 66.5589 393.538 87.0687 386.336C87.0687 386.336 90.9221 386.394 92.032 382.718C92.032 382.718 90.4537 382.934 90.4624 379.806C90.4555 378.693 90.3169 377.585 90.0498 376.505C89.6966 375.043 88.8749 373.737 87.7099 372.786C87.7099 372.786 82.7431 364.919 68.2992 364.051C68.2992 364.051 64.8559 362.135 64.0974 362.369L67.1495 367.077C67.1495 367.077 70.5148 364.703 73.8015 365.545C73.8015 365.545 67.2457 366.85 67.5735 367.799C67.6352 367.994 69.2978 370.22 69.2978 370.22C69.2978 370.22 75.2231 366.097 80.259 367.551C80.259 367.551 72.2391 368.051 69.9733 371.044L72.6445 374.267C72.6445 374.267 78.6428 369.627 84.442 371.061C84.442 371.061 76.0729 371.887 73.2833 374.927L76.4051 377.736C76.4051 377.736 82.3388 373.324 87.1491 374.555C87.1491 374.555 77.5742 376.482 77.1453 378.328C77.1453 378.328 80.1375 380.732 81.2458 380.992C81.2458 380.992 85.5809 377.925 88.3116 378.889C88.3116 378.889 82.0541 380.852 82.1439 381.559C82.1439 381.559 86.8789 383.648 89.8384 383.441C89.8384 383.441 85.4887 384.042 81.8549 382.314C81.8549 382.314 82.7955 384.963 84.8491 386.258C84.8491 386.258 81.7707 386.331 80.7104 381.815C80.7104 381.815 77.0895 380.036 76.7845 379.448C76.7845 379.448 77.1944 384.074 78.8989 386.627C78.8989 386.627 75.6448 384.713 75.9379 378.729L72.8031 375.977C72.8031 375.977 73.0197 382.128 74.3657 384.521C74.3657 384.521 71.3553 382.022 72.0577 375.221L69.3732 372.093C69.3732 372.093 69.1541 377.403 70.0798 380.386C70.0798 380.386 67.785 377.469 68.6353 371.168L67.0805 368.867C67.0805 368.867 66.9973 372.746 67.0464 373.869C67.0955 374.992 66.8236 375.097 66.8236 375.097C66.0104 372.781 65.8571 370.284 66.3808 367.885C66.3808 367.885 63.4817 362.939 63.1653 363.088Z" fill="#145196"/>
<path opacity="0.3" d="M206.865 311.741C206.865 311.741 222.075 307.132 216.464 297.351C216.464 297.351 216.129 295.381 214.149 295.162C214.149 295.162 214.409 295.946 212.812 296.238C212.245 296.346 211.693 296.522 211.167 296.76C210.455 297.078 209.867 297.621 209.492 298.305C209.492 298.305 205.948 301.582 206.871 309.031C206.871 309.031 206.219 310.969 206.41 311.333L208.523 309.332C208.523 309.332 206.994 307.84 207.113 306.084C207.113 306.084 208.398 309.304 208.851 309.047C208.945 308.997 209.923 307.939 209.923 307.939C209.923 307.939 207.26 305.306 207.526 302.6C207.526 302.6 208.539 306.644 210.28 307.516L211.671 305.849C211.671 305.849 208.738 303.228 208.921 300.135C208.921 300.135 210.133 304.326 211.947 305.461L213.085 303.603C213.085 303.603 210.273 300.994 210.447 298.424C210.447 298.424 212.335 303.126 213.317 303.17C213.317 303.17 214.26 301.416 214.288 300.827C214.288 300.827 212.314 298.905 212.548 297.421C212.548 297.421 214.141 300.428 214.493 300.315C214.493 300.315 215.11 297.702 214.725 296.212C214.725 296.212 215.443 298.374 214.905 300.391C214.905 300.391 216.167 299.661 216.633 298.491C216.633 298.491 216.962 300.054 214.758 301.022C214.758 301.022 214.194 303.037 213.922 303.248C213.922 303.248 216.243 302.602 217.384 301.491C217.384 301.491 216.715 303.332 213.636 303.748L212.528 305.607C212.528 305.607 215.645 304.915 216.738 304.002C216.738 304.002 215.748 305.774 212.213 306.058L210.871 307.723C210.871 307.723 213.6 307.333 215.034 306.579C215.034 306.579 213.763 308.025 210.469 308.187L209.443 309.198C209.443 309.198 211.429 308.874 211.997 308.742C212.565 308.611 212.645 308.74 212.645 308.74C211.54 309.374 210.281 309.688 209.008 309.647C209.008 309.647 206.759 311.594 206.865 311.741Z" fill="#145196"/>
<path opacity="0.3" d="M185.227 964.548C185.227 964.548 188.879 949.081 177.603 949.022C177.603 949.022 175.731 948.322 174.548 949.924C174.548 949.924 175.356 950.094 174.807 951.62C174.616 952.165 174.49 952.731 174.432 953.305C174.35 954.081 174.524 954.862 174.927 955.53C174.927 955.53 175.981 960.24 182.886 963.183C182.886 963.183 184.234 964.719 184.646 964.737L183.976 961.905C183.976 961.905 181.918 962.478 180.459 961.493C180.459 961.493 183.889 961.999 183.895 961.479C183.899 961.372 183.474 959.995 183.474 959.995C183.474 959.995 179.861 960.975 177.654 959.387C177.654 959.387 181.659 960.541 183.288 959.474L182.545 957.434C182.545 957.434 178.806 958.654 176.223 956.943C176.223 956.943 180.455 957.999 182.348 957L181.313 955.083C181.313 955.083 177.645 956.204 175.509 954.764C175.509 954.764 180.523 955.492 181.055 954.665C181.055 954.665 180.012 952.969 179.516 952.648C179.516 952.648 176.863 953.391 175.697 952.443C175.697 952.443 179.097 952.576 179.176 952.215C179.176 952.215 177.227 950.368 175.745 949.953C175.745 949.953 177.975 950.418 179.449 951.896C179.449 951.896 179.452 950.438 178.674 949.447C178.674 949.447 180.191 949.948 179.921 952.34C179.921 952.34 181.38 953.84 181.426 954.181C181.426 954.181 182.033 951.849 181.645 950.305C181.645 950.305 182.901 951.807 181.715 954.68L182.766 956.571C182.766 956.571 183.733 953.528 183.493 952.124C183.493 952.124 184.528 953.87 182.998 957.07L183.764 959.066C183.764 959.066 184.797 956.511 184.865 954.892C184.865 954.892 185.478 956.717 183.963 959.647L184.322 961.042C184.322 961.042 185.039 959.162 185.211 958.605C185.383 958.048 185.534 958.044 185.534 958.044C185.527 959.317 185.166 960.564 184.492 961.644C184.492 961.644 185.046 964.566 185.227 964.548Z" fill="#145196"/>
<path opacity="0.1" d="M139.348 227.002C139.348 227.002 153.296 221.01 155.215 231.608C155.215 231.608 156.183 233.254 154.871 234.632C154.871 234.632 154.578 233.899 153.232 234.668C152.751 234.938 152.24 235.15 151.709 235.299C150.993 235.505 150.229 235.47 149.535 235.201C149.535 235.201 144.929 234.988 141.02 228.978C141.02 228.978 139.351 227.964 139.267 227.58L142.042 227.742C142.042 227.742 141.843 229.773 143.01 230.982C143.01 230.982 141.968 227.839 142.456 227.748C142.556 227.727 143.922 227.898 143.922 227.898C143.922 227.898 143.596 231.46 145.455 233.273C145.455 233.273 143.707 229.696 144.442 227.987L146.484 228.349C146.484 228.349 145.954 232.069 147.991 234.216C147.991 234.216 146.298 230.408 146.925 228.463L148.899 229.12C148.899 229.12 148.451 232.756 150.159 234.527C150.159 234.527 148.646 229.93 149.335 229.294C149.335 229.294 151.104 229.994 151.487 230.408C151.487 230.408 151.227 233.026 152.311 233.966C152.311 233.966 151.625 230.79 151.951 230.656C151.951 230.656 154.01 232.184 154.645 233.51C154.645 233.51 153.84 231.489 152.206 230.346C152.206 230.346 153.577 230.103 154.637 230.671C154.637 230.671 153.916 229.327 151.71 229.976C151.71 229.976 150.058 228.851 149.73 228.864C149.73 228.864 151.823 227.908 153.34 228.017C153.34 228.017 151.719 227.084 149.213 228.675L147.26 227.999C147.26 227.999 149.962 226.586 151.323 226.58C151.323 226.58 149.509 225.895 146.752 227.863L144.747 227.472C144.747 227.472 146.981 226.078 148.492 225.746C148.492 225.746 146.674 225.472 144.168 227.381L142.796 227.274C142.796 227.274 144.447 226.289 144.942 226.035C145.438 225.781 145.417 225.638 145.417 225.638C144.22 225.855 143.107 226.4 142.202 227.213C142.202 227.213 139.361 227.175 139.348 227.002Z" fill="#145196"/>
<path opacity="0.9" d="M97.6288 267.14C97.6288 267.14 98.3295 296.713 118.663 291.513C118.663 291.513 122.364 291.893 123.741 288.451C123.741 288.451 122.205 288.526 122.477 285.517C122.564 284.446 122.524 283.369 122.358 282.307C122.141 280.872 121.461 279.546 120.42 278.534C120.42 278.534 116.305 270.548 102.486 268.497C102.486 268.497 99.3351 266.365 98.5859 266.527L101.125 271.311C101.125 271.311 104.562 269.311 107.652 270.398C107.652 270.398 101.237 271.101 101.472 272.041C101.515 272.235 102.927 274.515 102.927 274.515C102.927 274.515 108.973 271.049 113.695 272.871C113.695 272.871 105.939 272.677 103.507 275.365L105.805 278.689C105.805 278.689 111.965 274.732 117.422 276.599C117.422 276.599 109.303 276.689 106.364 279.378L109.13 282.343C109.13 282.343 115.209 278.598 119.732 280.188C119.732 280.188 110.36 281.236 109.792 282.974C109.792 282.974 112.468 285.539 113.512 285.882C113.512 285.882 117.94 283.297 120.485 284.455C120.485 284.455 114.301 285.816 114.328 286.504C114.328 286.504 118.707 288.911 121.571 288.961C121.571 288.961 117.336 289.173 113.987 287.205C113.987 287.205 114.668 289.833 116.535 291.25C116.535 291.25 113.567 291.062 112.928 286.628C112.928 286.628 109.595 284.613 109.351 284.021C109.351 284.021 109.356 288.505 110.78 291.105C110.78 291.105 107.812 288.99 108.597 283.259L105.814 280.348C105.814 280.348 105.504 286.282 106.597 288.698C106.597 288.698 103.912 286.04 105.16 279.558L102.842 276.324C102.842 276.324 102.184 281.412 102.823 284.359C102.823 284.359 100.862 281.36 102.21 275.371L100.908 273.028C100.908 273.028 100.502 276.751 100.454 277.835C100.407 278.92 100.136 278.998 100.136 278.998C99.5494 276.702 99.6121 274.287 100.318 272.024C100.318 272.024 97.9457 267.023 97.6288 267.14Z" fill="#145196"/>
<path opacity="0.6" d="M119.631 577.532C119.631 577.532 116.214 555.61 101.604 561.468C101.604 561.468 98.8146 561.548 98.1278 564.242C98.1278 564.242 99.2628 564.036 99.3552 566.3C99.3954 567.105 99.5307 567.902 99.7581 568.675C100.06 569.721 100.695 570.64 101.568 571.291C101.568 571.291 105.41 576.826 115.887 576.998C115.887 576.998 118.438 578.275 118.98 578.081L116.623 574.772C116.623 574.772 114.263 576.596 111.859 576.09C111.859 576.09 116.561 574.939 116.294 574.263C116.243 574.124 114.97 572.566 114.97 572.566C114.97 572.566 110.813 575.736 107.124 574.843C107.124 574.843 112.91 574.228 114.455 571.991L112.421 569.744C112.421 569.744 108.228 573.29 103.987 572.436C103.987 572.436 110.015 571.574 111.938 569.287L109.59 567.353C109.59 567.353 105.437 570.733 101.918 569.994C101.918 569.994 108.784 568.297 109.036 566.949C109.036 566.949 106.796 565.304 105.986 565.151C105.986 565.151 102.946 567.506 100.94 566.895C100.94 566.895 105.405 565.277 105.318 564.768C105.318 564.768 101.826 563.407 99.6919 563.65C99.6919 563.65 102.82 563.078 105.503 564.213C105.503 564.213 104.739 562.326 103.212 561.455C103.212 561.455 105.437 561.304 106.347 564.539C106.347 564.539 109.023 565.711 109.262 566.127C109.262 566.127 108.819 562.793 107.505 561C107.505 561 109.92 562.282 109.897 566.62L112.252 568.512C112.252 568.512 111.901 564.069 110.851 562.38C110.851 562.38 113.108 564.093 112.815 569.035L114.856 571.213C114.856 571.213 114.847 567.365 114.083 565.236C114.083 565.236 115.835 567.274 115.419 571.86L116.616 573.475C116.616 573.475 116.554 570.666 116.483 569.855C116.412 569.044 116.605 568.96 116.605 568.96C117.267 570.61 117.457 572.411 117.154 574.163C117.154 574.163 119.407 577.65 119.631 577.532Z" fill="#145196"/>
<path opacity="0.6" d="M163.205 827.995C163.205 827.995 151.776 808.979 140.452 819.913C140.452 819.913 137.899 821.039 138.278 823.793C138.278 823.793 139.252 823.174 140.191 825.236C140.532 825.966 140.957 826.654 141.46 827.284C142.133 828.139 143.069 828.751 144.123 829.025C144.123 829.025 149.768 832.703 159.536 828.912C159.536 828.912 162.381 829.133 162.809 828.749L159.379 826.573C159.379 826.573 157.881 829.152 155.463 829.59C155.463 829.59 159.384 826.751 158.882 826.226C158.782 826.116 157.016 825.153 157.016 825.153C157.016 825.153 154.361 829.656 150.608 830.22C150.608 830.22 155.735 827.469 156.322 824.815L153.591 823.501C153.591 823.501 151.044 828.365 146.794 829.173C146.794 829.173 152.053 826.102 152.971 823.259L150.068 822.353C150.068 822.353 147.495 827.049 143.957 827.691C143.957 827.691 149.677 823.531 149.402 822.187C149.402 822.187 146.707 821.508 145.899 821.672C145.899 821.672 143.972 825 141.883 825.19C141.883 825.19 145.409 822.008 145.136 821.57C145.136 821.57 141.389 821.625 139.504 822.655C139.504 822.655 142.185 820.946 145.098 820.985C145.098 820.985 143.679 819.526 141.937 819.294C141.937 819.294 143.941 818.316 146.003 820.969C146.003 820.969 148.923 821.046 149.301 821.341C149.301 821.341 147.634 818.42 145.741 817.254C145.741 817.254 148.461 817.531 150.075 821.558L152.97 822.423C152.97 822.423 150.97 818.44 149.361 817.271C149.361 817.271 152.097 818.007 153.689 822.695L156.4 823.943C156.4 823.943 154.941 820.382 153.431 818.698C153.431 818.698 155.822 819.925 157.165 824.329L158.883 825.374C158.883 825.374 157.767 822.796 157.395 822.072C157.024 821.347 157.171 821.196 157.171 821.196C158.406 822.475 159.261 824.072 159.641 825.809C159.641 825.809 163.042 828.188 163.205 827.995Z" fill="#145196"/>
<path opacity="0.6" d="M217.121 173.43C217.121 173.43 196.189 180.783 204.611 194.082C204.611 194.082 205.197 196.81 207.972 196.995C207.972 196.995 207.562 195.916 209.771 195.413C210.555 195.227 211.314 194.948 212.033 194.584C213.007 194.097 213.794 193.304 214.276 192.327C214.276 192.327 219.018 187.541 217.278 177.209C217.278 177.209 218.069 174.467 217.78 173.97L214.956 176.89C214.956 176.89 217.179 178.878 217.12 181.334C217.12 181.334 215.131 176.921 214.515 177.307C214.387 177.383 213.088 178.918 213.088 178.918C213.088 178.918 216.962 182.427 216.756 186.217C216.756 186.217 215.097 180.64 212.616 179.529L210.777 181.939C210.777 181.939 215.028 185.415 214.961 189.741C214.961 189.741 213.015 183.97 210.416 182.497L208.942 185.157C208.942 185.157 213.022 188.625 212.936 192.22C212.936 192.22 210.017 185.778 208.645 185.776C208.645 185.776 207.436 188.279 207.433 189.103C207.433 189.103 210.303 191.662 210.067 193.746C210.067 193.746 207.663 189.65 207.179 189.829C207.179 189.829 206.476 193.51 207.104 195.565C207.104 195.565 205.972 192.593 206.599 189.748C206.599 189.748 204.883 190.843 204.304 192.503C204.304 192.503 203.751 190.343 206.765 188.859C206.765 188.859 207.43 186.015 207.796 185.704C207.796 185.704 204.599 186.746 203.075 188.365C203.075 188.365 203.895 185.757 208.165 184.989L209.597 182.329C209.597 182.329 205.292 183.484 203.822 184.823C203.822 184.823 205.095 182.292 210.008 181.68L211.778 179.276C211.778 179.276 207.996 179.987 206.042 181.126C206.042 181.126 207.726 179.031 212.311 178.605L213.681 177.133C213.681 177.133 210.931 177.706 210.146 177.924C209.362 178.141 209.243 177.967 209.243 177.967C210.745 177.016 212.482 176.501 214.26 176.48C214.26 176.48 217.277 173.629 217.121 173.43Z" fill="#145196"/>
<path d="M251.743 173.274C251.743 173.274 236.684 168.34 235.674 179.538C235.674 179.538 234.82 181.34 236.312 182.65C236.312 182.65 236.549 181.861 238.02 182.536C238.545 182.772 239.096 182.944 239.662 183.05C240.426 183.198 241.217 183.091 241.914 182.747C241.914 182.747 246.683 182.096 250.189 175.484C250.189 175.484 251.829 174.275 251.882 173.867L249.012 174.294C249.012 174.294 249.407 176.387 248.306 177.753C248.306 177.753 249.098 174.388 248.581 174.339C248.475 174.326 247.072 174.631 247.072 174.631C247.072 174.631 247.741 178.304 245.977 180.363C245.977 180.363 247.461 176.481 246.539 174.772L244.449 175.338C244.449 175.338 245.346 179.156 243.427 181.578C243.427 181.578 244.834 177.462 244.001 175.497L242.009 176.364C242.009 176.364 242.813 180.103 241.202 182.103C241.202 182.103 242.349 177.183 241.572 176.586C241.572 176.586 239.799 177.478 239.439 177.944C239.439 177.944 239.952 180.642 238.913 181.721C238.913 181.721 239.331 178.354 238.979 178.245C238.979 178.245 236.98 180.026 236.443 181.463C236.443 181.463 237.093 179.287 238.685 177.947C238.685 177.947 237.237 177.821 236.187 178.51C236.187 178.51 236.813 177.046 239.166 177.516C239.166 177.516 240.78 176.193 241.122 176.175C241.122 176.175 238.857 175.376 237.29 175.631C237.29 175.631 238.889 174.51 241.642 175.931L243.61 175.046C243.61 175.046 240.668 173.829 239.253 173.949C239.253 173.949 241.075 173.068 244.125 174.857L246.173 174.265C246.173 174.265 243.722 173.023 242.119 172.818C242.119 172.818 243.984 172.364 246.767 174.116L248.184 173.877C248.184 173.877 246.376 173.006 245.837 172.789C245.298 172.571 245.307 172.42 245.307 172.42C246.571 172.534 247.779 172.998 248.796 173.759C248.796 173.759 251.746 173.455 251.743 173.274Z" fill="#145196"/>
<path d="M93.9156 862.46C93.9156 862.46 82.0863 873.006 91.263 879.502C91.263 879.502 92.3919 881.145 94.2747 880.513C94.2747 880.513 93.7111 879.912 95.0334 878.979C95.5008 878.643 95.9268 878.253 96.3026 877.817C96.8135 877.231 97.1185 876.493 97.1709 875.717C97.1709 875.717 99.0032 871.267 95.0463 864.914C95.0463 864.914 94.8238 862.888 94.4979 862.638L93.4257 865.335C93.4257 865.335 95.4343 866.044 96.0627 867.683C96.0627 867.683 93.55 865.308 93.248 865.73C93.1839 865.814 92.7428 867.182 92.7428 867.182C92.7428 867.182 96.2552 868.448 97.1493 871.007C97.1493 871.007 94.5379 867.774 92.5971 867.714L92.0373 869.805C92.0373 869.805 95.7896 870.947 96.9206 873.822C96.9206 873.822 94.0673 870.539 91.9499 870.272L91.6993 872.43C91.6993 872.43 95.3366 873.612 96.257 876.01C96.257 876.01 92.578 872.548 91.6713 872.919C91.6713 872.919 91.5525 874.901 91.7746 875.446C91.7746 875.446 94.366 876.357 94.7763 877.798C94.7763 877.798 92.0753 875.745 91.804 875.995C91.804 875.995 92.3402 878.618 93.3132 879.804C93.3132 879.804 91.7578 878.149 91.399 876.099C91.399 876.099 90.563 877.289 90.6316 878.542C90.6316 878.542 89.6792 877.266 91.2673 875.467C91.2673 875.467 90.9337 873.407 91.0907 873.102C91.0907 873.102 89.2619 874.66 88.6949 876.143C88.6949 876.143 88.5285 874.197 91.1404 872.53L91.3633 870.384C91.3633 870.384 88.8333 872.316 88.2265 873.6C88.2265 873.6 88.3798 871.582 91.4589 869.843L91.9749 867.774C91.9749 867.774 89.6696 869.271 88.6882 870.555C88.6882 870.555 89.2319 868.713 92.1446 867.186L92.6496 865.842C92.6496 865.842 90.9886 866.967 90.5295 867.324C90.0705 867.681 89.9447 867.598 89.9447 867.598C90.6785 866.562 91.686 865.75 92.8546 865.253C92.8546 865.253 94.0732 862.549 93.9156 862.46Z" fill="#145196"/>
<path opacity="0.3" d="M256.104 60.2957C256.104 60.2957 244.079 49.9743 238.861 59.9336C238.861 59.9336 237.383 61.271 238.26 63.053C238.26 63.053 238.781 62.4145 239.881 63.601C240.276 64.0195 240.719 64.3898 241.201 64.7043C241.851 65.1326 242.622 65.3368 243.398 65.2855C243.398 65.2855 248.052 66.5096 253.823 61.7427C253.823 61.7427 255.801 61.2528 256.005 60.8965L253.19 60.1925C253.19 60.1925 252.754 62.2776 251.214 63.1184C251.214 63.1184 253.234 60.3121 252.775 60.069C252.683 60.0166 251.269 59.7614 251.269 59.7614C251.269 59.7614 250.481 63.411 248.064 64.6376C248.064 64.6376 250.921 61.6193 250.722 59.6877L248.575 59.4111C248.575 59.4111 247.943 63.2819 245.243 64.7853C245.243 64.7853 248.118 61.5207 248.101 59.3866L245.929 59.4252C245.929 59.4252 245.241 63.1875 242.987 64.4187C242.987 64.4187 245.929 60.3118 245.44 59.4626C245.44 59.4626 243.46 59.6084 242.949 59.9011C242.949 59.9011 242.391 62.5906 241.018 63.189C241.018 63.189 242.692 60.239 242.409 60.0032C242.409 60.0032 239.881 60.8835 238.835 62.0058C238.835 62.0058 240.268 60.244 242.252 59.6157C242.252 59.6157 240.962 58.9454 239.728 59.1802C239.728 59.1802 240.867 58.0664 242.861 59.401C242.861 59.401 244.858 58.7964 245.181 58.9115C245.181 58.9115 243.394 57.3061 241.849 56.9415C241.849 56.9415 243.755 56.5178 245.755 58.8847L247.912 58.82C247.912 58.82 245.66 56.5696 244.307 56.1391C244.307 56.1391 246.327 56.0226 248.46 58.8429L250.579 59.0792C250.579 59.0792 248.789 56.9935 247.387 56.1915C247.387 56.1915 249.284 56.4854 251.185 59.1691L252.585 59.4908C252.585 59.4908 251.248 57.9943 250.833 57.5868C250.418 57.1792 250.484 57.0435 250.484 57.0435C251.609 57.6329 252.548 58.5234 253.196 59.6156C253.196 59.6156 256.037 60.4638 256.104 60.2957Z" fill="#145196"/>
<path opacity="0.6" d="M89.8329 170.719C89.8329 170.719 97.3501 178.142 101.284 171.762C101.284 171.762 102.329 170.941 101.828 169.715C101.828 169.715 101.452 170.115 100.776 169.275C100.533 168.978 100.255 168.711 99.9489 168.48C99.5371 168.165 99.0334 167.993 98.5149 167.991C98.5149 167.991 95.4766 166.961 91.4175 169.863C91.4175 169.863 90.0791 170.096 89.9267 170.324L91.7661 170.923C91.7661 170.923 92.1528 169.557 93.2164 169.069C93.2164 169.069 91.7427 170.841 92.0364 171.024C92.0954 171.064 93.0238 171.299 93.0238 171.299C93.0238 171.299 93.7172 168.908 95.3821 168.205C95.3821 168.205 93.3415 170.08 93.3838 171.373L94.7989 171.657C94.7989 171.657 95.3996 169.112 97.2648 168.238C97.2648 168.238 95.2013 170.276 95.1134 171.696L96.5596 171.771C96.5596 171.771 97.1922 169.301 98.7484 168.587C98.7484 168.587 96.6009 171.181 96.8863 171.769C96.8863 171.769 98.21 171.764 98.5634 171.593C98.5634 171.593 99.0595 169.83 100.001 169.496C100.001 169.496 98.7497 171.38 98.9272 171.55C98.9272 171.55 100.649 171.082 101.398 170.385C101.398 170.385 100.362 171.49 99.0135 171.815C99.0135 171.815 99.8405 172.321 100.672 172.222C100.672 172.222 99.8627 172.91 98.5984 171.93C98.5984 171.93 97.2422 172.239 97.0327 172.147C97.0327 172.147 98.1464 173.298 99.1573 173.612C99.1573 173.612 97.8699 173.806 96.6499 172.138L95.2126 172.081C95.2126 172.081 96.6054 173.683 97.4855 174.032C97.4855 174.032 96.1364 174.015 94.8488 172.04L93.4507 171.785C93.4507 171.785 94.5441 173.255 95.4396 173.854C95.4396 173.854 94.1916 173.57 93.052 171.697L92.1362 171.418C92.1362 171.418 92.9555 172.475 93.2124 172.766C93.4693 173.056 93.4193 173.143 93.4193 173.143C92.6986 172.699 92.1157 172.063 91.7355 171.306C91.7355 171.306 89.8854 170.61 89.8329 170.719Z" fill="#145196"/>
<path opacity="0.2" d="M119.734 203.828C119.734 203.828 123.582 213.667 129.771 209.438C129.771 209.438 131.06 209.113 131.101 207.79C131.101 207.79 130.595 208.003 130.319 206.96C130.217 206.59 130.072 206.233 129.886 205.897C129.638 205.442 129.248 205.08 128.775 204.868C128.775 204.868 126.419 202.69 121.53 203.69C121.53 203.69 120.212 203.36 119.981 203.505L121.417 204.801C121.417 204.801 122.327 203.71 123.496 203.697C123.496 203.697 121.429 204.717 121.623 205.003C121.661 205.063 122.413 205.656 122.413 205.656C122.413 205.656 124.019 203.754 125.826 203.789C125.826 203.789 123.2 204.671 122.712 205.87L123.889 206.705C123.889 206.705 125.473 204.625 127.533 204.585C127.533 204.585 124.819 205.607 124.161 206.868L125.452 207.525C125.452 207.525 127.034 205.526 128.746 205.507C128.746 205.507 125.729 207.003 125.751 207.656C125.751 207.656 126.962 208.19 127.355 208.178C127.355 208.178 128.525 206.769 129.52 206.847C129.52 206.847 127.611 208.059 127.704 208.286C127.704 208.286 129.468 208.56 130.435 208.226C130.435 208.226 129.04 208.815 127.675 208.564C127.675 208.564 128.225 209.362 129.025 209.61C129.025 209.61 128.006 209.909 127.25 208.499C127.25 208.499 125.885 208.23 125.731 208.061C125.731 208.061 126.28 209.566 127.076 210.264C127.076 210.264 125.821 209.917 125.385 207.898L124.095 207.261C124.095 207.261 124.716 209.29 125.378 209.967C125.378 209.967 124.152 209.403 123.779 207.076L122.606 206.273C122.606 206.273 123.007 208.061 123.581 208.972C123.581 208.972 122.557 208.206 122.277 206.031L121.554 205.403C121.554 205.403 121.873 206.703 121.989 207.072C122.106 207.442 122.025 207.501 122.025 207.501C121.547 206.802 121.273 205.984 121.234 205.139C121.234 205.139 119.827 203.75 119.734 203.828Z" fill="#145196"/>
<path opacity="0.1" d="M25.0009 983.004C25.0009 983.004 26.8232 967.933 36.9517 971.596C36.9517 971.596 38.8611 971.585 39.394 973.412C39.394 973.412 38.613 973.297 38.6029 974.847C38.5943 975.399 38.5205 975.947 38.3831 976.481C38.2014 977.204 37.7882 977.847 37.2066 978.313C37.2066 978.313 34.7094 982.188 27.549 982.551C27.549 982.551 25.8341 983.484 25.4594 983.364L26.9934 981.046C26.9934 981.046 28.6498 982.238 30.2821 981.836C30.2821 981.836 27.04 981.159 27.2068 980.691C27.2383 980.594 28.0723 979.499 28.0723 979.499C28.0723 979.499 30.989 981.569 33.4908 980.872C33.4908 980.872 29.5196 980.587 28.4108 979.094L29.7492 977.509C29.7492 977.509 32.6996 979.836 35.5795 979.152C35.5795 979.152 31.4368 978.704 30.0688 977.185L31.6285 975.808C31.6285 975.808 34.548 978.021 36.937 977.434C36.937 977.434 32.2019 976.434 31.998 975.518C31.998 975.518 33.4916 974.341 34.0419 974.217C34.0419 974.217 36.1756 975.757 37.533 975.291C37.533 975.291 34.4417 974.29 34.4895 973.94C34.4895 973.94 36.8452 972.927 38.3105 973.043C38.3105 973.043 36.1582 972.725 34.3498 973.565C34.3498 973.565 34.8281 972.256 35.8516 971.625C35.8516 971.625 34.3267 971.574 33.7804 973.807C33.7804 973.807 31.9782 974.671 31.8244 974.961C31.8244 974.961 32.0489 972.671 32.9052 971.414C32.9052 971.414 31.2841 972.348 31.4016 975.314L29.8357 976.663C29.8357 976.663 29.9715 973.616 30.6495 972.437C30.6495 972.437 29.1464 973.661 29.4629 977.034L28.1184 978.571C28.1184 978.571 28.0344 975.939 28.5068 974.466C28.5068 974.466 27.3563 975.9 27.7485 979.026L26.9675 980.159C26.9675 980.159 26.9442 978.237 26.9737 977.681C27.0033 977.124 26.869 977.071 26.869 977.071C26.4554 978.215 26.3679 979.451 26.6163 980.642C26.6163 980.642 25.157 983.079 25.0009 983.004Z" fill="#145196"/>
<path opacity="0.2" d="M0.247943 937.704C0.247943 937.704 10.6888 939.317 10.1393 931.842C10.1393 931.842 10.5057 930.564 9.38219 929.864C9.38219 929.864 9.312 930.409 8.27151 930.124C7.90045 930.026 7.51911 929.972 7.13543 929.964C6.61711 929.95 6.10841 930.105 5.68699 930.408C5.68699 930.408 2.62084 931.352 1.0307 936.082C1.0307 936.082 0.0828755 937.055 0.0926013 937.329L1.93432 936.737C1.93432 936.737 1.44738 935.403 2.02384 934.385C2.02384 934.385 1.86763 936.684 2.21281 936.661C2.28359 936.658 3.17402 936.305 3.17402 936.305C3.17402 936.305 2.33569 933.961 3.27315 932.416C3.27315 932.416 2.71719 935.131 3.50933 936.154L4.82252 935.556C4.82252 935.556 3.81877 933.141 4.81834 931.34C4.81834 931.34 4.3393 934.2 5.09986 935.402L6.31611 934.616C6.31611 934.616 5.38197 932.244 6.22512 930.754C6.22512 930.754 6.00421 934.114 6.57971 934.423C6.57971 934.423 7.64963 933.644 7.83596 933.298C7.83596 933.298 7.20555 931.579 7.77266 930.757C7.77266 930.757 7.86233 933.017 8.10575 933.051C8.10575 933.051 9.22747 931.663 9.42522 930.659C9.42522 930.659 9.23342 932.161 8.33098 933.215C8.33098 933.215 9.29749 933.14 9.91334 932.573C9.91334 932.573 9.66051 933.605 8.06153 933.551C8.06153 933.551 7.14349 934.596 6.92007 934.644C6.92007 934.644 8.49678 934.925 9.50024 934.587C9.50024 934.587 8.56989 935.498 6.60466 934.861L5.4061 935.657C5.4061 935.657 7.473 936.139 8.39088 935.906C8.39088 935.906 7.28779 936.683 5.08743 935.837L3.80451 936.449C3.80451 936.449 5.55194 937 6.62835 936.96C6.62835 936.96 5.45069 937.462 3.42984 936.611L2.52417 936.921C2.52417 936.921 3.8076 937.298 4.18583 937.383C4.56405 937.468 4.57463 937.568 4.57463 937.568C3.7303 937.63 2.88536 937.456 2.13415 937.066C2.13415 937.066 0.226778 937.585 0.247943 937.704Z" fill="#145196"/>
</svg>
