<svg width="48" height="57" viewBox="0 0 48 57" fill="none" xmlns="http://www.w3.org/2000/svg">
<path d="M42.2339 0.999989C42.2339 0.999989 34.6999 15.0332 23.357 19.0765C18.5882 20.7407 14.4615 23.9865 11.5961 28.3266C10.2509 30.3979 9.08962 32.5948 8.12678 34.8895" stroke="#145196" stroke-width="2" stroke-miterlimit="10"/>
<path d="M0.989604 37.4849C2.28234 36.1634 8.30405 34.8009 8.30405 34.8009C8.30405 34.8009 6.82794 41.0888 5.53521 42.4071C4.91448 43.041 4.07972 43.3896 3.21457 43.3762C2.34942 43.3629 1.52473 42.9887 0.921949 42.336C0.319165 41.6832 -0.0123491 40.8055 0.000336647 39.8957C0.0130224 38.9859 0.368879 38.1187 0.989604 37.4849Z" fill="#00B8F2"/>
<path d="M4.3958 26.1072C6.16354 25.7373 11.9117 28.0324 11.9117 28.0324C11.9117 28.0324 7.42019 32.4583 5.65546 32.8376C4.8067 33.015 3.92571 32.8305 3.20631 32.3248C2.4869 31.8191 1.98799 31.0336 1.81935 30.141C1.65072 29.2485 1.82616 28.3221 2.30708 27.5656C2.788 26.8091 3.53502 26.2845 4.38378 26.1072H4.3958Z" fill="#00B8F2"/>
<path d="M16.797 13.797C18.5016 14.4293 22.3708 19.4558 22.3708 19.4558C22.3708 19.4558 16.3581 20.8974 14.6625 20.2778C14.249 20.1379 13.8662 19.9125 13.5366 19.6149C13.207 19.3172 12.9373 18.9534 12.7432 18.5447C12.5492 18.136 12.4348 17.6906 12.4066 17.2347C12.3785 16.7789 12.4372 16.3217 12.5794 15.8901C12.7216 15.4584 12.9443 15.0609 13.2345 14.721C13.5248 14.3811 13.8767 14.1056 14.2695 13.9106C14.6624 13.7156 15.0884 13.6052 15.5224 13.5857C15.9564 13.5662 16.3898 13.638 16.797 13.797Z" fill="#00B8F2"/>
<path d="M28.1761 6.70296C29.9529 7.01909 34.5766 11.2901 34.5766 11.2901C34.5766 11.2901 28.8916 13.7812 27.1149 13.4714C26.689 13.4018 26.2805 13.2443 25.913 13.0078C25.5454 12.7713 25.2261 12.4605 24.9733 12.0935C24.7206 11.7264 24.5396 11.3104 24.4407 10.8694C24.3417 10.4283 24.3269 9.97106 24.397 9.52396C24.4671 9.07687 24.6208 8.6488 24.8491 8.2645C25.0774 7.88021 25.3759 7.5473 25.7273 7.285C26.0787 7.0227 26.476 6.8362 26.8963 6.7363C27.3166 6.6364 27.7516 6.62507 28.1761 6.70296Z" fill="#00B8F2"/>
<path d="M16.9443 32.9452C16.9443 31.0484 13.6854 25.5571 13.6854 25.5571C13.6854 25.5571 10.4205 31.0484 10.4205 32.942C10.4205 33.8517 10.7642 34.7242 11.3759 35.3674C11.9876 36.0107 12.8173 36.3721 13.6824 36.3721C14.5475 36.3721 15.3772 36.0107 15.9889 35.3674C16.6007 34.7242 16.9443 33.8517 16.9443 32.942V32.9452Z" fill="#00B8F2"/>
<path d="M30.1513 24.4728C29.6101 22.6645 24.9382 18.4473 24.9382 18.4473C24.9382 18.4473 23.387 24.7162 23.9251 26.5245C24.1838 27.3927 24.7599 28.1173 25.5267 28.5388C26.2935 28.9603 27.1881 29.0443 28.0137 28.7722C28.8394 28.5001 29.5284 27.8943 29.9293 27.088C30.3301 26.2817 30.41 25.341 30.1513 24.4728Z" fill="#00B8F2"/>
<path d="M41.9121 14.3881C41.6716 12.5103 37.7423 7.52168 37.7423 7.52168C37.7423 7.52168 35.2049 13.4239 35.4454 15.3017C35.5606 16.2035 36.0118 17.0202 36.6996 17.5721C37.3874 18.1241 38.2556 18.3661 39.1132 18.2449C39.9707 18.1238 40.7473 17.6494 41.2722 16.9261C41.7971 16.2028 42.0273 15.2899 41.9121 14.3881Z" fill="#00B8F2"/>
<path opacity="0.25" d="M0.989604 37.4849C2.28234 36.1634 8.30405 34.8009 8.30405 34.8009C8.30405 34.8009 6.82794 41.0888 5.53521 42.4071C4.91448 43.041 4.07972 43.3896 3.21457 43.3762C2.34942 43.3629 1.52473 42.9887 0.921949 42.336C0.319165 41.6832 -0.0123491 40.8055 0.000336647 39.8957C0.0130224 38.9859 0.368879 38.1187 0.989604 37.4849Z" fill="black"/>
<path opacity="0.25" d="M4.54598 26.2604C6.31371 25.8905 12.0619 28.1856 12.0619 28.1856C12.0619 28.1856 7.57037 32.6115 5.80564 32.9908C4.95688 33.1682 4.07589 32.9837 3.35648 32.478C2.63707 31.9723 2.13817 31.1868 1.96953 30.2942C1.80089 29.4017 1.97633 28.4753 2.45726 27.7188C2.93818 26.9623 3.6852 26.4377 4.53396 26.2604H4.54598Z" fill="black"/>
<path opacity="0.25" d="M16.797 13.797C18.5016 14.4293 22.3708 19.4558 22.3708 19.4558C22.3708 19.4558 16.3581 20.8974 14.6625 20.2778C14.249 20.1379 13.8662 19.9125 13.5366 19.6149C13.207 19.3172 12.9373 18.9534 12.7432 18.5447C12.5492 18.136 12.4348 17.6906 12.4066 17.2347C12.3785 16.7789 12.4372 16.3217 12.5794 15.8901C12.7216 15.4584 12.9443 15.0609 13.2345 14.721C13.5248 14.3811 13.8767 14.1056 14.2695 13.9106C14.6624 13.7156 15.0884 13.6052 15.5224 13.5857C15.9564 13.5662 16.3898 13.638 16.797 13.797Z" fill="black"/>
<path opacity="0.25" d="M28.1761 6.70296C29.9529 7.01909 34.5766 11.2901 34.5766 11.2901C34.5766 11.2901 28.8916 13.7812 27.1149 13.4714C26.689 13.4018 26.2805 13.2443 25.913 13.0078C25.5454 12.7713 25.2261 12.4605 24.9733 12.0935C24.7206 11.7264 24.5396 11.3104 24.4407 10.8694C24.3417 10.4283 24.3269 9.97106 24.397 9.52396C24.4671 9.07687 24.6208 8.6488 24.8491 8.2645C25.0774 7.88021 25.3759 7.5473 25.7273 7.285C26.0787 7.0227 26.476 6.8362 26.8963 6.7363C27.3166 6.6364 27.7516 6.62507 28.1761 6.70296Z" fill="#401817"/>
<path opacity="0.25" d="M16.9443 32.9452C16.9443 31.0484 13.6854 25.5571 13.6854 25.5571C13.6854 25.5571 10.4205 31.0484 10.4205 32.942C10.4205 33.8517 10.7642 34.7242 11.3759 35.3674C11.9876 36.0107 12.8173 36.3721 13.6824 36.3721C14.5475 36.3721 15.3772 36.0107 15.9889 35.3674C16.6007 34.7242 16.9443 33.8517 16.9443 32.942V32.9452Z" fill="black"/>
<path d="M41.801 1.28449C41.801 1.28449 40.3218 17.3251 31.5072 25.8544C27.7892 29.4088 25.268 34.1355 24.322 39.3249C23.8893 41.7931 23.6739 44.298 23.6787 46.8077" stroke="#145196" stroke-width="2" stroke-miterlimit="10"/>
<path d="M18.1559 52.2073C18.8293 50.4496 23.8079 46.637 23.8079 46.637C23.8079 46.637 24.8781 53.0166 24.2047 54.7711C24.0523 55.1999 23.8197 55.5922 23.5208 55.9251C23.2219 56.2579 22.8627 56.5244 22.4643 56.7089C22.0659 56.8935 21.6364 56.9923 21.2012 56.9996C20.7659 57.0068 20.3336 56.9224 19.9299 56.7513C19.5261 56.5801 19.159 56.3257 18.8502 56.0031C18.5414 55.6804 18.2971 55.296 18.1318 54.8726C17.9665 54.4491 17.8835 53.9951 17.8876 53.5373C17.8917 53.0796 17.983 52.6274 18.1559 52.2073Z" fill="#00B8F2"/>
<path d="M16.8843 40.3553C18.3574 39.2647 24.5084 38.9106 24.5084 38.9106C24.5084 38.9106 22.1033 44.876 20.6392 45.9667C20.2888 46.226 19.8933 46.4101 19.4752 46.5086C19.0572 46.6072 18.6248 46.6181 18.2027 46.5409C17.7806 46.4637 17.3771 46.2998 17.0152 46.0587C16.6533 45.8175 16.3402 45.5037 16.0936 45.1353C15.8471 44.7668 15.6719 44.3509 15.5782 43.9113C15.4845 43.4717 15.4741 43.0169 15.5475 42.5731C15.6209 42.1292 15.7768 41.7049 16.0061 41.3244C16.2355 40.9439 16.5339 40.6146 16.8843 40.3553Z" fill="#00B8F2"/>
<path d="M23.4772 23.8152C25.281 23.6572 30.7525 26.6162 30.7525 26.6162C30.7525 26.6162 25.8191 30.492 24.0363 30.6532C23.174 30.7295 22.3182 30.4425 21.6571 29.8552C20.9961 29.268 20.5839 28.4287 20.5114 27.5219C20.4388 26.6151 20.7118 25.7152 21.2702 25.02C21.8287 24.3249 22.6269 23.8915 23.4892 23.8152H23.4772Z" fill="#00B8F2"/>
<path d="M31.1464 12.4819C32.8901 12.0077 38.7645 13.9488 38.7645 13.9488C38.7645 13.9488 34.5285 18.6497 32.7849 19.1239C32.3672 19.2473 31.9303 19.2818 31.4998 19.2255C31.0693 19.1691 30.6538 19.023 30.2776 18.7958C29.9015 18.5685 29.5722 18.2646 29.3091 17.9019C29.046 17.5391 28.8543 17.1249 28.7453 16.6833C28.6363 16.2417 28.6122 15.7817 28.6744 15.3302C28.7365 14.8787 28.8837 14.4448 29.1073 14.0539C29.3309 13.6629 29.6264 13.3228 29.9765 13.0534C30.3267 12.784 30.7244 12.5908 31.1464 12.4851V12.4819Z" fill="#00B8F2"/>
<path d="M30.9901 41.2628C30.2625 39.5304 25.1638 35.8885 25.1638 35.8885C25.1638 35.8885 24.2949 42.2997 25.0255 44.0321C25.3862 44.8463 26.0362 45.4792 26.8359 45.7949C27.6356 46.1105 28.5212 46.0838 29.3023 45.7203C30.0834 45.3568 30.6978 44.6856 31.0133 43.8509C31.3289 43.0162 31.3206 42.0847 30.9901 41.2564V41.2628Z" fill="#00B8F2"/>
<path d="M39.7986 27.8872C38.6111 26.4646 32.7127 24.5994 32.7127 24.5994C32.7127 24.5994 33.7078 30.9916 34.8983 32.4142C35.1785 32.7614 35.5216 33.0464 35.9077 33.2527C36.2938 33.459 36.7151 33.5823 37.147 33.6156C37.5788 33.6489 38.0127 33.5914 38.4233 33.4464C38.8338 33.3015 39.2128 33.0721 39.5381 32.7716C39.8635 32.471 40.1286 32.1054 40.3182 31.6959C40.5077 31.2865 40.6178 30.8414 40.642 30.3868C40.6663 29.9321 40.6042 29.4769 40.4594 29.0478C40.3146 28.6186 40.09 28.2241 39.7986 27.8872Z" fill="#00B8F2"/>
<path d="M46.6652 13.6548C45.7212 12.0393 40.2075 9.1562 40.2075 9.1562C40.2075 9.1562 40.1624 15.6306 41.1094 17.2461C41.3337 17.6299 41.6276 17.9635 41.9745 18.2278C42.3213 18.4922 42.7143 18.6821 43.131 18.7868C43.5476 18.8914 43.9798 18.9087 44.4028 18.8378C44.8259 18.7668 45.2314 18.6089 45.5964 18.3731C45.9614 18.1373 46.2787 17.8282 46.5301 17.4634C46.7815 17.0987 46.9621 16.6855 47.0616 16.2473C47.1611 15.8092 47.1776 15.3548 47.1101 14.9099C47.0426 14.4651 46.8925 14.0386 46.6682 13.6548H46.6652Z" fill="#00B8F2"/>
</svg>
