<svg width="74" height="85" viewBox="0 0 74 85" fill="none" xmlns="http://www.w3.org/2000/svg">
<path d="M59.1352 75.8871L25.5905 55.2197L12.5524 10.2552L50.4592 33.0507L54.7797 54.3811L54.9339 55.1456L59.1352 75.8871Z" fill="#3D3D3D"/>
<path d="M25.426 28.2979L8.20816 36.565C8.20816 36.565 27.473 51.2716 33.2656 71.8692L47.7878 57.8909C47.7878 57.8909 34.7458 33.967 25.426 28.2979Z" fill="#374785"/>
<path d="M25.6293 28.2352L8.4114 36.5023C8.4114 36.5023 27.6763 51.2088 33.4688 71.8064L47.991 57.8281C47.991 57.8281 34.949 33.9043 25.6293 28.2352Z" fill="#4F4F4F"/>
<circle cx="27.4029" cy="35.7986" r="3.49809" transform="rotate(1.9657 27.4029 35.7986)" fill="#00B8F2"/>
<path d="M27.6551 33.4231L27.3047 20.3369L26.5853 19.6083L26.9557 33.4418L27.6551 33.4231Z" fill="#00B8F2"/>
</svg>
