<svg width="88" height="64" viewBox="0 0 88 64" fill="none" xmlns="http://www.w3.org/2000/svg">
<path d="M73.688 57.2756C71.6071 59.5757 70.2145 61.6904 70.5775 61.9989C70.9404 62.3073 72.9216 60.6928 75.0025 58.3927C77.0834 56.0925 78.4761 53.9779 78.1131 53.6694C77.7501 53.3609 75.7689 54.9755 73.688 57.2756Z" fill="#E0E0E0"/>
<path d="M12.7874 5.48428C10.7065 7.78442 9.21949 9.81896 9.46612 10.0285C9.71276 10.2381 11.5996 8.5434 13.6805 6.24326C15.7614 3.94312 17.2484 1.90859 17.0018 1.699C16.7551 1.48942 14.8683 3.18414 12.7874 5.48428Z" fill="#E0E0E0"/>
<path d="M46.6875 28.8871L48.7329 31.6314L58.0656 25.2158L56.0202 22.4715L46.6875 28.8871Z" fill="#F55F44"/>
<path opacity="0.05" d="M55.0231 21.498L51.5637 19.6903L46.2208 29.4964L49.6802 31.3041L55.0231 21.498Z" fill="black"/>
<path d="M54.6383 21.297L51.5637 19.6903L46.2208 29.4964L49.2954 31.103L54.6383 21.297Z" fill="#F55F44"/>
<path d="M16.9888 1.72656C18.191 2.72153 78.9901 54.4143 78.1137 53.6696C72.7467 58.317 70.5781 61.9991 70.5781 61.9991L9.45316 10.0561C9.45316 10.0561 13.0102 6.55954 16.9888 1.72656Z" fill="#FFF1A9"/>
<path opacity="0.05" d="M38.8103 35.0034L43.8493 39.2855L51.3849 30.9559L46.346 26.6738L38.8103 35.0034Z" fill="black"/>
<path d="M39.0291 35.1896L43.6299 39.0993L51.1656 30.7698L46.5647 26.8601L39.0291 35.1896Z" fill="#F55F44"/>
<path opacity="0.05" d="M39.9056 35.9344L42.9728 38.5409L50.5084 30.2113L47.4412 27.6049L39.9056 35.9344Z" fill="black"/>
<path d="M40.1248 36.1204L42.7538 38.3546L50.2895 30.025L47.6605 27.7909L40.1248 36.1204Z" fill="#F55F44"/>
</svg>
