<svg width="300" height="264" viewBox="0 0 300 264" fill="none" xmlns="http://www.w3.org/2000/svg">
<path d="M112.173 53.515H110.937V19.6184C110.937 17.0421 110.43 14.491 109.445 12.1108C108.46 9.73056 107.017 7.56785 105.197 5.74611C103.377 3.92437 101.216 2.47929 98.8387 1.49337C96.4609 0.50745 93.9124 2.43814e-06 91.3388 0H19.5982C17.0246 -6.09518e-06 14.4761 0.507434 12.0983 1.49335C9.72057 2.47926 7.56008 3.92433 5.74021 5.74607C3.92034 7.5678 2.47674 9.73051 1.49184 12.1107C0.506929 14.4909 5.27709e-06 17.042 0 19.6184V205.577C-4.91887e-06 210.781 2.06479 215.771 5.74016 219.45C9.41553 223.129 14.4004 225.196 19.5982 225.196H91.3387C96.5364 225.196 101.521 223.129 105.197 219.45C108.872 215.771 110.937 210.781 110.937 205.578V77.6431H112.173L112.173 53.515Z" fill="#3F3D56"/>
<path d="M92.1294 5.104H82.7649C83.1956 6.16091 83.36 7.3076 83.2436 8.44308C83.1273 9.57856 82.7337 10.668 82.0977 11.6154C81.4617 12.5627 80.6027 13.339 79.5964 13.8758C78.59 14.4125 77.4673 14.6933 76.327 14.6934H35.2278C34.0876 14.6933 32.9648 14.4125 31.9585 13.8758C30.9522 13.339 30.0932 12.5627 29.4571 11.6154C28.8211 10.668 28.4276 9.57858 28.3112 8.44309C28.1949 7.30761 28.3593 6.16091 28.7899 5.10401H20.0434C16.1618 5.10401 12.4392 6.64757 9.69443 9.39512C6.9497 12.1427 5.40772 15.8692 5.40771 19.7548V205.441C5.40771 207.365 5.78628 209.27 6.52179 211.048C7.2573 212.825 8.33536 214.44 9.69442 215.801C11.0535 217.161 12.6669 218.24 14.4426 218.977C16.2183 219.713 18.1214 220.092 20.0434 220.092H92.1294C94.0514 220.092 95.9546 219.713 97.7303 218.977C99.506 218.24 101.119 217.161 102.478 215.801C103.838 214.44 104.916 212.825 105.651 211.048C106.387 209.27 106.765 207.365 106.765 205.441V19.7548C106.765 17.8308 106.387 15.9257 105.651 14.1482C104.916 12.3707 103.838 10.7556 102.478 9.39511C101.119 8.03466 99.506 6.95549 97.7303 6.21922C95.9546 5.48295 94.0514 5.104 92.1294 5.104Z" fill="white"/>
<path d="M97.595 41.6146H14.578V183.581H97.595V41.6146Z" fill="#E6E6E6"/>
<path d="M36.2484 190.916C35.405 191.461 34.4411 191.767 33.5708 192.246C32.7006 192.725 31.8538 193.446 31.6062 194.438C31.5137 194.746 31.5291 195.078 31.6497 195.376C31.8662 195.735 32.1976 196.006 32.5868 196.141C34.3547 196.949 36.2641 197.378 38.1983 197.401C40.1325 197.423 42.0509 197.039 43.836 196.272C44.4642 195.961 45.1129 195.696 45.7773 195.479C46.5957 195.307 47.4288 195.22 48.2641 195.217C49.1421 195.164 50.0155 195.049 50.878 194.873C51.3117 194.823 51.7226 194.647 52.0629 194.366C52.3733 193.998 52.56 193.536 52.595 193.049C52.9911 190.364 52.3939 187.624 50.9216 185.37C50.7361 185.055 50.4873 184.783 50.1919 184.574C49.8317 184.383 49.4355 184.273 49.0305 184.254C47.357 184.043 45.6032 183.657 43.913 183.616C42.7014 183.589 42.0922 184.181 41.2354 185.04C39.4649 186.863 38.4306 189.513 36.2484 190.916Z" fill="#374785"/>
<path d="M60.9123 190.661C60.9123 192.35 61.1097 194.139 62.1038 195.486C62.5584 196.069 63.109 196.565 63.7304 196.951C65.8323 198.33 68.617 198.836 70.8327 197.668C71.1906 197.502 71.4966 197.238 71.7163 196.903C72.051 196.303 71.8736 195.555 71.6862 194.893L68.4798 183.451C66.408 183.778 63.3623 184.009 61.5214 185.091C60.186 185.874 60.9123 189.151 60.9123 190.661Z" fill="#374785"/>
<path d="M34.3674 120.203C34.1732 120.833 33.4704 121.126 33.0855 121.657C32.6336 122.281 32.6805 123.146 32.8445 123.904C33.0471 125.022 33.5571 126.057 34.3138 126.885C34.6979 127.296 35.1717 127.606 35.6957 127.789C36.2197 127.973 36.7787 128.024 37.3261 127.94C38.4038 127.73 39.3343 126.748 39.3711 125.621C39.3517 125.108 39.2452 124.603 39.0565 124.128L36.7738 117.332C36.7645 117.284 36.7454 117.238 36.7177 117.198C36.69 117.158 36.6544 117.125 36.6132 117.101C36.527 117.081 36.4368 117.097 36.3622 117.145C35.8233 117.407 34.7422 117.683 34.4276 118.259C34.113 118.834 34.595 119.579 34.3674 120.203Z" fill="#FBB3B2"/>
<path d="M33.2998 119.861C34.1332 119.727 34.8628 119.224 35.6427 118.893C36.4225 118.562 37.3999 118.434 38.0559 118.986C38.2433 119.144 38.424 119.362 38.6684 119.358C38.336 117.673 37.8335 116.028 37.1689 114.45C37.1455 114.375 37.0999 114.308 37.0384 114.261C36.9472 114.223 36.8451 114.223 36.7539 114.261L34.5014 114.867C33.668 115.091 33.5709 115.022 33.6345 115.867C33.6512 116.242 33.8387 119.861 33.2998 119.861Z" fill="#182144"/>
<path d="M33.0528 70.782C32.7181 71.3127 32.7181 71.9745 32.7181 72.5983C32.7181 75.6485 32.7482 78.716 33.1866 81.7352C33.2904 82.459 33.4209 83.1828 33.4879 83.9134C33.5637 84.9306 33.5794 85.9515 33.5347 86.9706L33.2 100.24C33.1599 101.863 33.0795 103.607 32.1056 104.882C31.8102 105.31 31.6715 105.831 31.714 106.354C31.9684 109.684 32.5039 112.985 33.036 116.277C33.8929 115.879 34.8291 115.695 35.768 115.741C36.7069 115.788 37.6219 116.062 38.438 116.542C40.1267 111.074 41.0607 105.389 41.2127 99.654C41.2896 96.8312 41.1725 93.9912 41.5942 91.203C42.3004 86.5087 42.0126 81.6938 41.4938 76.972C41.3298 75.4762 40.9817 73.9356 40.0513 72.7775C39.1704 71.7643 37.9974 71.0685 36.7043 70.7923C35.4659 70.458 34.3581 70.8027 33.0528 70.782Z" fill="#145196"/>
<path d="M33.0528 70.782C32.7181 71.3127 32.7181 71.9745 32.7181 72.5983C32.7181 75.6485 32.7482 78.716 33.1866 81.7352C33.2904 82.459 33.4209 83.1828 33.4879 83.9134C33.5637 84.9306 33.5794 85.9515 33.5347 86.9706L33.2 100.24C33.1599 101.863 33.0795 103.607 32.1056 104.882C31.8102 105.31 31.6715 105.831 31.714 106.354C31.9684 109.684 32.5039 112.985 33.036 116.277C33.8929 115.879 34.8291 115.695 35.768 115.741C36.7069 115.788 37.6219 116.062 38.438 116.542C40.1267 111.074 41.0607 105.389 41.2127 99.654C41.2896 96.8312 41.1725 93.9912 41.5942 91.2029C42.3004 86.5087 42.0126 81.6938 41.4938 76.972C41.3298 75.4762 40.9817 73.9356 40.0513 72.7775C39.1704 71.7643 37.9974 71.0685 36.7043 70.7923C35.4659 70.458 34.3581 70.8027 33.0528 70.782Z" fill="#2C396B" style="mix-blend-mode:darken"/>
<path d="M37.1421 109.263C34.8974 121.109 36.123 133.374 40.6631 144.501C41.0554 145.325 41.3304 146.202 41.4798 147.107C41.6639 148.795 40.9075 150.419 40.4757 152.052C39.4716 155.768 40.0506 159.724 40.6933 163.526C40.961 165.111 41.2366 166.696 41.52 168.279C41.7978 169.823 42.0655 171.501 41.3693 172.901C41.9684 175.472 42.3232 178.019 42.9223 180.59C42.9859 180.793 43.0053 181.009 42.9792 181.221C42.8585 181.557 42.6458 181.851 42.3667 182.065C41.9202 182.531 41.5993 183.109 41.4355 183.742C41.2718 184.375 41.2709 185.041 41.4329 185.674C42.9625 184.543 45.0945 184.94 46.8417 185.674C48.5888 186.408 50.3091 187.397 52.1968 187.397C51.9224 185.115 51.6579 182.72 52.4746 180.58C52.9499 179.339 53.7866 178.167 53.7632 176.84C53.7398 175.651 53.0336 174.59 52.8629 173.414C52.7994 172.683 52.8264 171.946 52.9432 171.222C53.3917 167.004 52.8829 162.744 52.3742 158.532C52.3167 157.701 52.1267 156.886 51.8119 156.119C51.5743 155.623 51.2195 155.147 51.2262 154.593C51.2262 153.948 51.7316 153.424 51.919 152.811C52.2537 151.68 51.6379 150.143 52.565 149.443C55.0083 147.596 54.0711 143.184 54.0176 140.065C53.9752 137.375 53.8636 134.686 53.6829 132C55.2212 136.454 55.8502 141.188 55.5304 145.904C55.4233 147.448 55.2258 149.071 55.8115 150.498C56.26 151.594 57.1503 152.497 57.3913 153.658C57.5419 154.375 57.4348 155.116 57.4683 155.847C57.5018 156.578 57.7427 157.374 58.3552 157.743C58.4021 161.065 58.69 164.619 58.7402 167.941C58.7076 169.64 58.8422 171.337 59.1418 173.008C59.292 173.539 59.3753 174.088 59.3895 174.641C59.314 175.335 59.1356 176.013 58.8606 176.651C58.2773 178.429 58.1248 180.328 58.4165 182.181C58.7082 184.034 59.4351 185.786 60.5341 187.283C61.324 185.839 62.9707 185.074 64.5773 184.953C66.1838 184.833 67.7703 185.25 69.3266 185.67C69.0887 183.657 69.4778 181.617 70.4378 179.846C70.6952 179.446 70.8927 179.01 71.0236 178.55C71.2043 177.674 70.7826 176.802 70.555 175.937C70.1835 174.559 70.314 173.073 70.401 171.632C70.6931 166.807 70.4855 161.964 69.7818 157.184C69.6732 156.243 69.4586 155.318 69.1426 154.427C69.0221 154.11 68.8748 153.807 68.7744 153.486C68.6164 152.911 68.5265 152.319 68.5066 151.722L68.1217 146.207C67.8506 142.343 69.0823 138.528 69.9425 134.757C70.3274 133.069 70.7458 131.383 71.0035 129.667C71.3549 127.33 71.4118 124.942 71.9272 122.636C72.3891 120.568 73.2225 118.552 73.3966 116.432C73.6643 113.147 72.3389 109.973 71.0537 106.961C70.5182 105.72 68.4932 105.844 67.1913 105.624C57.957 104.062 48.2307 104.052 39.5218 107.571C38.6212 107.955 37.81 108.532 37.1421 109.263Z" fill="#182040"/>
<path d="M43.7992 48.0898L44.8233 52.1912C45.1018 53.1318 45.256 54.1068 45.2819 55.0898C45.2925 55.4483 45.2153 55.8039 45.0576 56.1237C44.8891 56.3864 44.6732 56.6134 44.4217 56.7924C43.7222 57.3404 43.2369 58.6191 42.437 58.9982C42.8486 59.7358 43.4176 59.2567 44.1606 59.6255C45.4693 60.2803 46.6675 61.2212 48.0866 61.5452C49.4254 61.8485 50.8312 61.5624 52.1599 61.2006C54.0442 60.6732 55.9186 59.946 57.4347 58.6742C58.9509 57.4024 59.8144 56.2788 59.8077 54.2695C58.1343 54.4728 56.6448 52.7323 55.9052 51.1676C55.6487 50.5728 55.46 49.9494 55.3429 49.3099L54.4459 45.2463C53.4686 45.4669 52.672 46.1873 51.7382 46.5629C50.8044 46.9386 49.6999 46.9731 48.6623 47.0213C46.8206 47.1076 44.989 47.352 43.1867 47.752C42.939 47.8037 42.6277 47.9657 42.688 48.2138" fill="#FBB3B2"/>
<path opacity="0.1" d="M43.7992 48.0898L44.8233 52.1912C45.1018 53.1318 45.256 54.1068 45.2819 55.0898C45.2925 55.4483 45.2153 55.8039 45.0576 56.1237C44.8891 56.3864 44.6732 56.6134 44.4217 56.7924C43.7222 57.3404 43.2369 58.6191 42.437 58.9982C42.8486 59.7358 43.4176 59.2567 44.1606 59.6255C45.4693 60.2803 46.6675 61.2212 48.0866 61.5452C49.4254 61.8485 50.8312 61.5624 52.1599 61.2006C54.0442 60.6732 55.9186 59.946 57.4347 58.6742C58.9509 57.4024 59.8144 56.2788 59.8077 54.2695C58.1343 54.4728 56.6448 52.7323 55.9052 51.1676C55.6487 50.5728 55.46 49.9494 55.3429 49.3099L54.4459 45.2463C53.4686 45.4669 52.672 46.1873 51.7382 46.5629C50.8044 46.9386 49.6999 46.9731 48.6623 47.0213C46.8206 47.1076 44.989 47.352 43.1867 47.752C42.939 47.8037 42.6277 47.9657 42.688 48.2138" fill="black"/>
<path d="M48.1971 52.3393C53.0919 52.3393 57.0599 46.2647 57.0599 41.2243C57.0599 36.1838 53.0919 32.0977 48.1971 32.0977C43.3023 32.0977 39.3344 36.1838 39.3344 41.2243C39.3344 46.2647 43.3023 52.3393 48.1971 52.3393Z" fill="#FBB3B2"/>
<path d="M50.6371 56.2684C51.111 55.2143 51.7953 54.2748 52.6452 53.5111C53.8937 52.3841 55.6006 51.4708 55.8952 49.7888L58.5995 53.0321C58.7465 53.1824 58.8606 53.3634 58.9342 53.5628C58.9683 53.7498 58.9633 53.9422 58.9194 54.127C58.8755 54.3119 58.7939 54.485 58.6799 54.6347C58.0105 55.7342 56.9562 56.52 55.9588 57.3162C53.6727 59.1809 51.484 61.1689 49.402 63.2718C49.3103 63.3816 49.1873 63.4587 49.0506 63.4924C48.9212 63.4961 48.7939 63.4588 48.6858 63.3856C46.8894 62.4143 45.2997 61.0831 44.01 59.4703C43.913 59.3496 43.7925 59.2118 43.6352 59.2221C43.5403 59.2401 43.4529 59.2869 43.3842 59.3565C42.4838 60.1148 41.4998 61.0212 40.3451 60.904C41.8412 59.7977 42.688 57.9503 43.0026 56.0788C43.0648 55.4383 43.1927 54.8063 43.3842 54.1936C43.4833 53.887 43.6543 53.6103 43.882 53.3879C44.1096 53.1654 44.387 53.0042 44.6895 52.9183C43.9598 54.066 44.4585 55.6928 45.4392 56.6199C46.392 57.4528 47.5343 58.0231 48.7594 58.2778C49.8974 58.4983 50.2321 57.1714 50.6371 56.2684Z" fill="#182144"/>
<path d="M39.1067 110.201C40.3686 110.521 41.5634 111.066 42.7884 111.469C45.0211 112.189 47.3707 112.443 49.6999 112.217C50.4169 112.201 51.1141 111.972 51.7081 111.558C51.8654 111.427 52.0094 111.272 52.1767 111.152C52.4566 110.979 52.7601 110.85 53.0771 110.769C56.1462 109.78 58.7167 107.647 61.2102 105.558C61.2905 105.489 61.3809 105.403 61.3742 105.293C61.3627 105.217 61.3274 105.148 61.2738 105.096L59.9618 103.545C56.5211 104.148 52.9967 103.921 49.5058 103.831C48.7891 103.798 48.0711 103.818 47.3571 103.89C46.6676 103.973 45.9881 104.152 45.3087 104.303C42.7282 104.882 40.0908 105.103 37.4768 105.482C37.2939 105.496 37.1165 105.553 36.958 105.648C36.8478 105.735 36.7537 105.843 36.6802 105.965L35.7631 107.292C35.4072 107.738 35.145 108.256 34.9933 108.812C34.7791 109.846 35.2276 110.19 36.0811 110.056C37.0893 109.904 38.1165 109.953 39.1067 110.201Z" fill="#24305E"/>
<path d="M49.3652 61.6934C48.3414 60.613 47.1807 59.6798 45.9145 58.9189C45.403 58.5843 44.8355 58.3506 44.241 58.2296C43.9419 58.1688 43.6335 58.1761 43.3375 58.2512C43.0414 58.3262 42.7649 58.4671 42.5274 58.6639C42.2295 58.9361 42.0421 59.3153 41.7542 59.6013C41.392 59.9147 40.9767 60.1566 40.5292 60.3148C39.0056 60.9851 37.5615 61.8328 36.225 62.8411C35.4965 63.3659 34.8401 63.9896 34.2737 64.6954C32.7575 66.6944 32.5299 69.4137 32.5701 71.9504C32.6002 73.7151 34.2436 75.0248 35.3749 76.3448C36.4359 77.6438 37.3961 79.0267 38.2466 80.4807C38.8557 81.4733 39.4917 82.5487 39.4147 83.7308C39.3511 84.6993 38.8022 85.6092 38.8892 86.5743C38.9193 86.9189 39.0264 87.236 39.0566 87.5703C39.1168 88.2596 38.8524 88.9489 38.7855 89.6383C38.6951 90.6136 39.003 91.5821 39.0197 92.5644C39.0075 93.2369 38.9244 93.906 38.7721 94.56C38.1294 97.7102 37.3228 100.878 37.4868 104.093L35.6326 104.438C35.8082 104.615 35.9409 104.833 36.0198 105.072C36.0987 105.312 36.1216 105.568 36.0868 105.819C36.0519 106.069 35.9602 106.308 35.8191 106.515C35.6779 106.723 35.4914 106.893 35.2745 107.012C38.1696 108.009 41.299 107.505 44.3682 107.502C46.9086 107.502 49.4389 107.847 51.9759 107.798C54.5129 107.75 57.1302 107.278 59.2221 105.799C59.7911 105.399 60.3132 104.931 60.9123 104.583C61.7148 104.154 62.5796 103.863 63.4728 103.721C65.1273 103.396 66.809 103.241 68.4932 103.259C69.3166 103.259 70.2136 103.294 70.8696 102.784C71.5925 102.218 71.7766 101.195 71.8737 100.268C71.9707 99.2887 72.031 98.3064 72.0477 97.3241C72.0758 96.5592 72.0366 95.7933 71.9306 95.0356C71.8301 94.4816 71.6994 93.9339 71.539 93.395L70.2772 88.818C69.755 86.9293 70.4813 84.8579 70.6353 82.9002C70.6721 82.4384 70.6788 81.9007 70.3341 81.6043C70.2102 81.4974 70.0396 81.4251 69.9994 81.2596C69.9814 81.1811 69.9792 81.0996 69.993 81.0201C70.0068 80.9407 70.0363 80.865 70.0797 80.7978C70.7491 79.4192 71.7532 78.2025 72.6703 76.9583C74.2106 74.7758 75.6405 72.513 76.9544 70.1789C76.5429 65.2945 74.5456 60.6953 71.2846 57.1232C70.6152 56.3753 69.8488 55.6584 68.9116 55.3207C68.2992 55.1281 67.6641 55.0225 67.0239 55.007C64.3999 54.8244 61.6687 54.6624 59.3828 53.3044C59.2187 53.1874 59.033 53.1064 58.8372 53.0666C58.3318 53.008 57.9636 53.5216 57.6356 53.9283C56.7922 54.9622 55.5505 55.555 54.4593 56.3167C52.4244 57.7402 50.8346 59.6978 49.3652 61.6934Z" fill="#145196"/>
<path d="M77.1819 71.5886C77.704 73.2912 77.6539 75.111 77.8246 76.886C77.9256 77.9571 78.108 79.0185 78.3701 80.0603C78.4897 80.6329 78.7049 81.1798 79.006 81.6767C79.3072 82.1317 79.739 82.5005 79.9298 83.014C80.0341 83.3619 80.0805 83.7255 80.067 84.0893L80.1072 86.4675C80.1931 87.7277 80.0068 88.9919 79.5616 90.1691L78.1191 94.6876C77.3392 97.1346 76.5393 99.6196 75.1336 101.75C74.9355 102.11 74.6355 102.4 74.2734 102.58C73.99 102.657 73.6994 102.704 73.4066 102.718C72.8963 102.812 72.4337 103.086 72.0983 103.493C71.7629 103.9 71.5758 104.414 71.5691 104.948C71.2341 104.444 70.8162 104.004 70.334 103.649L67.3987 101.236C66.3947 100.395 65.347 99.5404 64.1288 99.0544C65.7673 98.5274 67.2221 97.522 68.3165 96.1601C69.4109 94.7982 70.0978 93.1384 70.2939 91.3823C70.2928 90.8595 70.4073 90.3432 70.6286 89.8727C70.8729 89.466 71.3247 89.1558 71.3582 88.6767C71.3984 88.0736 70.7357 87.6186 70.7357 87.0155C70.7357 86.6157 71.0235 86.2848 71.1507 85.9091C71.2696 85.4449 71.2696 84.9568 71.1507 84.4926L70.7457 82.1765C70.7218 81.9444 70.6536 81.7195 70.5449 81.5147C70.3934 81.3184 70.2254 81.1362 70.0429 80.9702C69.3467 80.1671 69.6546 78.9022 70.0429 77.9131C70.9344 75.7174 72.0831 73.6421 73.4634 71.7333C73.9548 71.0924 74.4096 70.4226 74.8257 69.7274C75.1804 69.0933 75.2608 68.2144 75.6356 67.6595C76.1176 68.9623 76.7702 70.2479 77.1819 71.5886Z" fill="#145196"/>
<path d="M64.0249 99.1958C63.8755 99.3099 63.7464 99.4499 63.6434 99.6093C63.249 100.119 62.7238 100.505 62.1272 100.723C62.4619 100.971 62.7665 101.215 63.0811 101.467C65.4089 103.318 67.5405 105.417 69.4403 107.729C69.6512 106.954 70.913 107.009 71.2209 106.268C71.2935 106.056 71.3164 105.829 71.2879 105.606C71.2239 104.445 71.0627 103.292 70.8059 102.16C70.7046 101.577 70.4757 101.025 70.1365 100.547C69.6679 99.9643 68.9383 99.6852 68.2421 99.4439C67.1878 99.0648 65.096 98.5306 64.0249 99.1958Z" fill="#182144"/>
<path d="M59.8413 101.905C58.8372 102.67 57.9569 103.628 56.829 104.152C56.0324 104.524 55.1254 104.686 54.4292 105.241C54.8074 106.099 55.7914 106.544 56.7051 106.509C57.6197 106.417 58.4963 106.086 59.2522 105.548C59.8513 105.169 60.5542 104.728 61.2068 104.993C61.3072 105.517 60.8721 106.01 60.8721 106.54C60.8721 107.071 61.3005 107.457 61.7223 107.736C63.7305 109.07 66.3143 108.96 68.7074 108.805C68.8447 108.81 68.9799 108.769 69.0923 108.688C69.1442 108.625 69.1836 108.553 69.2083 108.475C69.233 108.397 69.2425 108.315 69.2362 108.233C69.2664 107.688 69.2798 107.147 69.2831 106.602C69.3508 106.163 69.2954 105.714 69.1234 105.306C68.9515 104.898 68.6702 104.549 68.3125 104.3C67.0138 103.151 65.6131 102.129 64.1287 101.25C62.6561 100.371 61.1633 100.891 59.8413 101.905Z" fill="#FBB3B2"/>
<path d="M51.3098 37.4088C49.8237 37.5915 48.7427 38.7875 48.8933 40.0868C49.0439 41.3862 50.3693 42.2823 51.8553 42.0962C53.3414 41.9101 54.4224 40.7175 54.2718 39.4216C54.1212 38.1257 52.7958 37.2261 51.3098 37.4088ZM51.8152 41.7377C50.5567 41.8928 49.4355 41.1311 49.305 40.0351C49.1744 38.9391 50.0948 37.9258 51.3499 37.7707C52.6051 37.6156 53.7296 38.3773 53.8602 39.4733C53.9907 40.5693 53.0703 41.5826 51.8152 41.7377Z" fill="#3C354C"/>
<path d="M44.067 38.3049C42.5809 38.4876 41.4998 39.6836 41.6504 40.9795C41.801 42.2754 43.1264 43.175 44.6125 42.9923C46.0986 42.8096 47.1797 41.6137 47.0291 40.3143C46.8784 39.015 45.553 38.1223 44.067 38.3049ZM44.5724 42.6304C43.3139 42.7855 42.1926 42.0238 42.0654 40.9312C41.9383 39.8387 42.852 38.8219 44.1105 38.6634C45.3689 38.5049 46.4902 39.27 46.6174 40.366C46.7446 41.462 45.8275 42.4753 44.5724 42.6304Z" fill="#3C354C"/>
<path d="M38.6884 38.9702L41.9182 39.6802L41.6003 40.5556L38.5545 39.6353L38.6884 38.9702Z" fill="#3C354C"/>
<path d="M56.6917 36.7437L53.7129 38.2223L54.225 38.9943L56.9729 37.3572L56.6917 36.7437Z" fill="#3C354C"/>
<path d="M46.7312 39.4595L48.9971 39.1804L48.8799 39.7594L46.9354 39.8938L46.7312 39.4595Z" fill="#3C354C"/>
<path d="M42.3365 38.6772C42.5497 38.205 42.6638 37.6917 42.6712 37.171C42.6791 36.8594 42.731 36.5505 42.8252 36.2542C42.9897 35.8779 43.24 35.548 43.5548 35.2926C44.5991 34.3827 46.0952 33.914 47.5712 33.8485C49.1806 33.7723 50.7816 34.1286 52.2168 34.8825C52.6552 35.094 53.0478 35.394 53.3715 35.7648C53.84 36.3542 53.9405 37.1159 54.4124 37.6983C54.7345 38.0518 55.1397 38.3136 55.5888 38.4585C56.0379 38.6034 56.5158 38.6265 56.9761 38.5255C57.1401 37.9258 56.926 37.2916 57.0096 36.6782C57.1415 36.1525 57.3196 35.6403 57.5418 35.1479C58.0606 33.5728 57.3041 31.7461 55.7445 30.8052C55.1989 30.4605 54.553 30.2365 54.1446 29.7712C53.7363 29.3059 53.6392 28.8234 53.3581 28.3581C52.6117 27.1277 50.6805 26.5521 49.2112 27.1208C48.7493 27.3 48.341 27.5723 47.8724 27.7653C47.0022 28.1341 46.0115 28.1996 45.0542 28.3236C44.1107 28.4135 43.188 28.6627 42.3231 29.0612C41.4964 29.4817 40.8036 30.1572 40.6128 30.9637C40.5224 31.336 40.5425 31.722 40.4522 32.0908C39.9903 33.9622 37.0081 34.8721 36.8408 36.7816C36.7805 37.4709 37.1453 38.1326 37.6005 38.6944C37.9152 39.077 38.6682 40.1006 39.2004 40.2488C39.7326 40.397 40.1376 39.8766 40.6463 39.6974C41.4496 39.4389 41.9349 39.3837 42.3365 38.6772Z" fill="#CBCEDA"/>
<path d="M197.914 236.495L95.8722 236.001L85.733 212.404L121.585 209.822L115.337 183.951L186.248 174.831L118.345 151.409L124.343 149.995L233.531 167.669L227.517 208.044L218.923 230.233L197.914 236.495Z" fill="#00B8F2"/>
<path d="M97.4373 226.118C97.4373 226.118 103.698 225.124 107.454 229.514C107.454 229.514 104.7 231.667 98.7729 228.686L97.4373 226.118Z" fill="#00B8F2"/>
<path d="M96.7815 226.02C96.7815 226.02 92.7866 230.898 94.7542 236.329C94.7542 236.329 98.0098 235.037 98.3645 228.452L96.7815 226.02Z" fill="#00B8F2"/>
<path d="M93.1921 218.001C93.1921 218.001 95.6963 213.443 105.713 219.823C105.713 219.823 104.378 222.888 99.9535 222.639C95.5294 222.391 94.3608 220.403 93.1921 218.001Z" fill="#00B8F2"/>
<path d="M92.5451 217.673C92.5451 217.673 87.3488 217.081 86.845 228.884C86.845 228.884 90.1393 229.561 92.4795 225.828C94.8198 222.095 93.8598 220.001 92.5451 217.673Z" fill="#00B8F2"/>
<path d="M89.5192 208.257C89.5192 208.257 92.4408 200.223 103.042 205.938C103.042 205.938 100.621 213.31 90.6044 210.99L89.5192 208.257Z" fill="#00B8F2"/>
<path d="M86.2637 196.247C86.2637 196.247 91.773 188.13 101.54 195.656C101.54 195.656 98.1171 203.276 87.0984 199.135L86.2637 196.247Z" fill="#00B8F2"/>
<path d="M85.095 184.817C85.095 184.817 91.5226 177.36 101.194 184.817C101.194 184.817 95.1001 191.361 85.095 186.722V184.817Z" fill="#00B8F2"/>
<path d="M84.0934 173.716C84.0934 173.716 90.6044 165.93 99.87 173.302C99.87 173.302 92.5243 180.176 84.0934 175.538V173.716Z" fill="#00B8F2"/>
<path d="M84.6777 163.859C84.6777 163.859 91.5345 153.837 100.204 160.629C100.204 160.629 92.8582 169.243 84.6777 165.764V163.859Z" fill="#00B8F2"/>
<path d="M86.2637 152.347C86.2637 152.347 93.526 142.407 101.957 150.027C101.957 150.027 93.359 158.641 86.2637 154.169V152.347Z" fill="#00B8F2"/>
<path d="M88.6844 142.055C88.6844 142.055 97.2823 132.714 104.783 136.435C104.783 136.435 95.8245 146.356 88.3088 144.534L88.6844 142.055Z" fill="#00B8F2"/>
<path d="M91.6895 132.3C91.6895 132.3 101.611 120.858 107.383 124.68C107.383 124.68 100.073 133.554 90.986 134.441L91.6895 132.3Z" fill="#00B8F2"/>
<path d="M96.0272 120.985C96.0272 120.985 104.712 111.643 111.056 113.963C111.056 113.963 103.626 123.653 94.8615 123.902L96.0272 120.985Z" fill="#00B8F2"/>
<path d="M99.9535 110.401C99.9535 110.401 109.553 101.456 113.727 103.029C113.727 103.029 106.798 112.969 99.5361 112.389L99.9535 110.401Z" fill="#00B8F2"/>
<path d="M103.793 100.627C103.793 100.627 112.057 89.9399 116.568 90.7682C116.568 90.7682 111.556 100.296 103.793 101.713V100.627Z" fill="#00B8F2"/>
<path d="M107.961 87.4493C107.961 87.4493 115.265 79.2583 119.212 79.2761C119.212 79.2761 113.447 90.221 107.66 90.1204L107.961 87.4493Z" fill="#00B8F2"/>
<path d="M110.43 78.6756L117.486 61.6133C117.486 61.6133 117.838 77.0368 109.532 81.8407L110.43 78.6756Z" fill="#00B8F2"/>
<path d="M113.295 59.8592C113.295 59.8592 114.463 45.6101 113.712 44.4506C113.712 44.4506 118.756 56.2977 113.247 66.154L113.295 59.8592Z" fill="#00B8F2"/>
<path d="M89.2449 208.068C89.2449 208.068 81.929 203.569 77.1918 214.576C77.1918 214.576 83.7028 218.865 90.1065 210.875L89.2449 208.068Z" fill="#00B8F2"/>
<path d="M86.0281 195.789C86.0281 195.789 77.0546 191.727 72.702 203.22C72.702 203.22 79.6334 207.953 86.845 198.694L86.0281 195.789Z" fill="#00B8F2"/>
<path d="M84.6777 185.501C84.6777 185.501 78.2501 178.043 68.579 185.501C68.579 185.501 74.6727 192.044 84.6777 187.406V185.501Z" fill="#00B8F2"/>
<path d="M83.8727 173.716C83.8727 173.716 77.3617 165.93 68.096 173.302C68.096 173.302 75.4418 180.176 83.8727 175.538V173.716Z" fill="#00B8F2"/>
<path d="M84.6776 164.143C84.6776 164.143 80.1104 152.917 70.1829 157.745C70.1829 157.745 75.5491 167.699 84.2722 166.007L84.6776 164.143Z" fill="#00B8F2"/>
<path d="M86.8391 152.29C86.8391 152.29 82.2986 140.869 72.231 146.164C72.231 146.164 78.3962 156.633 86.3919 154.053L86.8391 152.29Z" fill="#00B8F2"/>
<path d="M89.6533 142.112C89.6533 142.112 87.8646 129.59 79.5171 128.469C79.5171 128.469 81.288 141.674 88.5294 144.369L89.6533 142.112Z" fill="#00B8F2"/>
<path d="M91.9012 132.323C91.9012 132.323 91.2036 117.237 84.302 116.711C84.302 116.711 84.5346 128.161 91.1231 134.459L91.9012 132.323Z" fill="#00B8F2"/>
<path d="M96.7427 120.562C96.7427 120.562 94.6857 108.017 88.0971 106.484C88.0971 106.484 88.914 118.633 96.0898 123.641L96.7427 120.562Z" fill="#00B8F2"/>
<path d="M100.735 110.504C100.735 110.504 100.666 97.4357 96.6413 95.5159C96.6413 95.5159 94.1461 107.348 99.5689 112.173L100.735 110.504Z" fill="#00B8F2"/>
<path d="M104.1 100.48C104.1 100.48 103.537 87.0233 99.3692 85.1271C99.3692 85.1271 97.9442 95.7762 103.477 101.361L104.1 100.48Z" fill="#00B8F2"/>
<path d="M108.542 88.523C108.542 88.523 108.519 77.5781 105.543 75.0105C105.543 75.0105 102.586 86.9996 106.989 90.7238L108.542 88.523Z" fill="#00B8F2"/>
<path d="M110.081 78.1372L107.186 59.9213C107.186 59.9213 103.254 74.8478 110.218 81.4266L110.081 78.1372Z" fill="#00B8F2"/>
<path d="M110.644 60.0308C110.644 60.0308 103.215 47.7844 103.367 46.4236C103.367 46.4236 104.157 59.2587 113.503 65.6512L110.644 60.0308Z" fill="#00B8F2"/>
<path d="M111.515 56.4131C111.515 56.4131 104.503 39.0196 101.331 37.6115C101.331 37.6115 111.348 42.6639 112.099 55.9161L111.515 56.4131Z" fill="#00B8F2"/>
<path d="M107.624 90.2239L107.144 90.079C113.062 70.9313 114.538 58.7233 111.303 55.6617L111.646 55.3008C115.077 58.5311 113.685 70.6059 107.624 90.2239Z" fill="#444053"/>
<path d="M91.3288 135.057L90.6192 134.805C91.2483 133.051 91.925 131.27 92.6345 129.516C98.8117 114.241 104.071 100.03 107.442 89.1205L108.059 88.8247C104.682 99.7548 99.5152 114.51 93.3322 129.806C92.6256 131.528 91.9518 133.299 91.3288 135.057Z" fill="#444053"/>
<path d="M106.259 240.447C106.163 240.343 96.5728 229.626 89.8859 211.331C85.9677 200.619 83.7872 189.359 83.4255 177.969C82.9664 163.732 85.9775 147.835 91.135 133.394L91.6955 134.045C80.1164 166.457 84.7164 194.23 90.819 210.955C97.4343 229.085 106.918 239.684 107.01 239.79L106.259 240.447Z" fill="#444053"/>
<path d="M256.131 217.693C256.131 217.693 249.373 225.878 254.739 238.252L200.779 261.473L195.6 262.55L193.215 252.197L194.81 239.131V231.99L256.131 217.693Z" fill="#D5D6DB"/>
<path d="M85.733 212.404L160.419 198.895L259.381 214.537L197.914 236.495L85.733 212.404Z" fill="#00B8F2"/>
<path d="M85.733 212.404L160.419 198.895L259.381 214.537L197.914 236.495L85.733 212.404Z" fill="#00B8F2"/>
<path d="M85.733 212.401C85.733 212.401 78.748 225.532 86.7973 237.66L197.55 261.473C197.55 261.473 190.675 251.013 197.905 236.495L85.733 212.401Z" fill="#00B8F2"/>
<path opacity="0.1" d="M85.733 212.401C85.733 212.401 78.748 225.532 86.7973 237.66L197.55 261.473C197.55 261.473 190.675 251.013 197.905 236.495L85.733 212.401Z" fill="black"/>
<path opacity="0.1" d="M89.0332 216.954C89.0332 216.954 85.0413 226.562 89.0332 232.78V216.954Z" fill="black"/>
<path d="M197.55 261.473L259.381 235.294C259.381 235.294 262.839 236.034 260.603 238.548C258.367 241.062 198.743 263.987 198.743 263.987L86.7973 237.661L197.55 261.473Z" fill="#00B8F2"/>
<path opacity="0.1" d="M197.55 261.473L259.381 235.294C259.381 235.294 262.839 236.034 260.603 238.548C258.367 241.062 198.743 263.987 198.743 263.987L86.7973 237.661L197.55 261.473Z" fill="black"/>
<path opacity="0.1" d="M192.482 239.14C192.482 239.14 186.52 246.239 192.482 256.888V239.14Z" fill="black"/>
<path opacity="0.1" d="M221.348 239.019L194.604 247.873L194.698 248.153L221.443 239.3L221.348 239.019Z" fill="black"/>
<path opacity="0.1" d="M226.705 238.138L194.596 250.254L194.702 250.53L226.811 238.415L226.705 238.138Z" fill="black"/>
<path opacity="0.1" d="M231.625 238.096L194.775 253.062L194.888 253.336L231.738 238.37L231.625 238.096Z" fill="black"/>
<path opacity="0.1" d="M236.975 236.814L195.205 255.536L195.328 255.806L237.097 237.084L236.975 236.814Z" fill="black"/>
<path opacity="0.1" d="M241.469 236.821L195.536 256.742L195.655 257.013L241.588 237.092L241.469 236.821Z" fill="black"/>
<path opacity="0.1" d="M251.3 235.164L196.228 258.765L196.347 259.037L251.418 235.436L251.3 235.164Z" fill="black"/>
<path opacity="0.3" d="M113.479 213.848L165.949 202.903L197.914 208.967L154.918 222.722L113.479 213.848Z" fill="white"/>
<path d="M259.381 214.537C259.381 214.537 262.094 215.623 260.502 217.3C258.91 218.977 197.905 236.495 197.905 236.495L259.381 214.537Z" fill="#00B8F2"/>
<path d="M285.732 189.243C285.732 189.243 278.977 197.425 284.343 209.801L230.382 233.022L225.204 234.105L222.819 223.752L224.438 210.689V203.539L285.732 189.243Z" fill="#D5D6DB"/>
<path d="M115.337 183.951L190.02 170.444L288.985 186.086L227.517 208.044L115.337 183.951Z" fill="#3A3768"/>
<path d="M115.325 183.951C115.325 183.951 108.337 197.082 116.386 209.21L227.139 233.022C227.139 233.022 220.267 222.554 227.506 208.041L115.325 183.951Z" fill="#3A3768"/>
<path opacity="0.1" d="M115.325 183.951C115.325 183.951 108.337 197.082 116.386 209.21L227.139 233.022C227.139 233.022 220.267 222.554 227.506 208.041L192.482 200.519L115.325 183.951Z" fill="black"/>
<path opacity="0.1" d="M118.634 188.503C118.634 188.503 114.645 198.108 118.634 204.329V188.503Z" fill="black"/>
<path d="M227.151 233.022L288.985 206.843C288.985 206.843 292.44 207.583 290.204 210.097C287.968 212.612 228.343 235.537 228.343 235.537L116.398 209.21L227.151 233.022Z" fill="#3A3768"/>
<path opacity="0.1" d="M227.151 233.022L288.985 206.843C288.985 206.843 292.44 207.583 290.204 210.097C287.968 212.612 228.343 235.537 228.343 235.537L116.398 209.21L227.151 233.022Z" fill="black"/>
<path opacity="0.1" d="M222.083 210.689C222.083 210.689 216.12 217.788 222.083 228.437V210.689Z" fill="black"/>
<path opacity="0.1" d="M250.951 210.572L224.207 219.425L224.301 219.706L251.046 210.852L250.951 210.572Z" fill="black"/>
<path opacity="0.1" d="M256.312 209.689L224.202 221.805L224.308 222.081L256.418 209.966L256.312 209.689Z" fill="black"/>
<path opacity="0.1" d="M261.227 209.643L224.377 224.609L224.49 224.883L261.34 209.917L261.227 209.643Z" fill="black"/>
<path opacity="0.1" d="M266.58 208.362L224.811 227.084L224.933 227.353L266.703 208.631L266.58 208.362Z" fill="black"/>
<path opacity="0.1" d="M271.07 208.364L225.137 228.286L225.257 228.557L271.19 208.635L271.07 208.364Z" fill="black"/>
<path opacity="0.1" d="M280.903 206.708L225.832 230.309L225.95 230.58L281.022 206.979L280.903 206.708Z" fill="black"/>
<path opacity="0.45" d="M143.083 185.397L195.553 174.452L227.517 180.516L184.522 194.271L143.083 185.397Z" fill="white"/>
<path d="M288.985 186.086C288.985 186.086 291.694 187.172 290.105 188.846C288.516 190.521 227.517 208.041 227.517 208.041L288.985 186.086Z" fill="#3A3768"/>
<path d="M288.534 156.695C288.534 156.695 281.776 171.388 287.142 183.761L233.182 200.474L228.015 201.56L225.63 191.207L227.225 178.141V170.991L288.534 156.695Z" fill="#D5D6DB"/>
<path d="M118.148 151.406L192.834 137.896L291.799 153.539L230.329 175.496L118.148 151.406Z" fill="#00B8F2"/>
<path d="M118.148 151.403C118.148 151.403 111.151 164.534 119.2 176.662L229.953 200.474C229.953 200.474 223.078 190.006 230.317 175.496L118.148 151.403Z" fill="#00B8F2"/>
<path opacity="0.1" d="M118.148 151.403C118.148 151.403 111.151 164.534 119.2 176.662L229.953 200.474C229.953 200.474 223.078 190.006 230.317 175.496L118.148 151.403Z" fill="black"/>
<path opacity="0.1" d="M121.448 155.955C121.448 155.955 117.456 165.563 121.448 171.781V155.955Z" fill="black"/>
<path d="M229.965 200.474L291.796 180.803C291.796 180.803 295.254 181.543 293.018 184.057C290.782 186.571 231.158 202.989 231.158 202.989L119.212 176.662L229.965 200.474Z" fill="#00B8F2"/>
<path opacity="0.1" d="M229.965 200.474L291.796 180.803C291.796 180.803 295.254 181.543 293.018 184.057C290.782 186.571 231.158 202.989 231.158 202.989L119.212 176.662L229.965 200.474Z" fill="black"/>
<path opacity="0.1" d="M224.897 178.141C224.897 178.141 218.934 185.24 224.897 195.889V178.141Z" fill="black"/>
<path opacity="0.1" d="M253.767 178.023L227.022 186.877L227.117 187.157L253.861 178.304L253.767 178.023Z" fill="black"/>
<path opacity="0.1" d="M259.125 177.143L227.016 189.258L227.121 189.534L259.231 177.419L259.125 177.143Z" fill="black"/>
<path opacity="0.1" d="M264.037 177.097L227.188 192.064L227.3 192.337L264.15 177.371L264.037 177.097Z" fill="black"/>
<path opacity="0.1" d="M269.395 175.814L227.625 194.536L227.748 194.805L269.517 176.083L269.395 175.814Z" fill="black"/>
<path opacity="0.1" d="M273.886 175.819L227.953 195.74L228.073 196.011L274.006 176.09L273.886 175.819Z" fill="black"/>
<path opacity="0.1" d="M283.718 174.164L228.647 197.766L228.765 198.037L283.837 174.436L283.718 174.164Z" fill="black"/>
<path opacity="0.3" d="M145.894 152.849L198.364 141.904L230.329 147.969L187.333 161.724L145.894 152.849Z" fill="white"/>
<path d="M291.796 153.539C291.796 153.539 294.509 154.624 292.917 156.301C291.325 157.979 230.329 175.496 230.329 175.496L291.796 153.539Z" fill="#00B8F2"/>
<path d="M160.64 63.7432C160.64 63.7432 149.311 63.0658 150.634 70.952C150.634 70.952 150.369 72.3453 151.642 72.9783C151.642 72.9783 151.663 72.3867 152.805 72.5908C153.212 72.6603 153.627 72.6801 154.039 72.65C154.595 72.6122 155.123 72.3963 155.545 72.0347C155.545 72.0347 158.732 70.7272 159.972 65.5565C159.972 65.5565 160.89 64.4295 160.866 64.1396L158.946 64.9501C158.946 64.9501 159.599 66.3197 159.086 67.4585C159.086 67.4585 159.024 65.0004 158.654 65.0566C158.579 65.0566 157.661 65.5328 157.661 65.5328C157.661 65.5328 158.785 67.92 157.936 69.6534C157.936 69.6534 158.257 66.7131 157.309 65.7044L155.962 66.4853C155.962 66.4853 157.277 68.9494 156.385 70.9609C156.385 70.9609 156.615 67.8756 155.679 66.6747L154.456 67.6212C154.456 67.6212 155.694 70.0498 154.939 71.7182C154.939 71.7182 154.841 68.1271 154.194 67.8549C154.194 67.8549 153.124 68.7897 152.963 69.1742C152.963 69.1742 153.81 70.9491 153.282 71.869C153.282 71.869 152.963 69.4759 152.686 69.4641C152.686 69.4641 151.621 71.0496 151.511 72.1264C151.563 71.1226 151.878 70.1496 152.426 69.3044C151.813 69.4195 151.247 69.7106 150.798 70.1415C150.798 70.1415 150.962 69.0204 152.692 68.9228C152.692 68.9228 153.571 67.7189 153.807 67.6479C153.807 67.6479 152.086 67.5029 151.046 67.9614C151.046 67.9614 151.964 66.9054 154.12 67.3698L155.312 66.3936C155.312 66.3936 153.052 66.0978 152.092 66.4262C152.092 66.4262 153.198 65.4914 155.637 66.1718L156.952 65.3938C156.952 65.3938 155.023 64.9826 153.875 65.1305C153.875 65.1305 155.085 64.4827 157.336 65.1838L158.272 64.7667C158.272 64.7667 156.862 64.4916 156.448 64.4472C156.034 64.4028 156.013 64.2904 156.013 64.2904C156.908 64.1446 157.826 64.247 158.666 64.5863C158.666 64.5863 160.678 63.8674 160.64 63.7432Z" fill="#00B8F2"/>
<path opacity="0.1" d="M272.946 106.581C272.946 106.581 261.617 105.904 262.941 113.79C262.941 113.79 262.675 115.183 263.948 115.816C263.948 115.816 263.969 115.225 265.111 115.429C265.519 115.497 265.933 115.517 266.345 115.488C266.896 115.448 267.419 115.232 267.836 114.873C267.836 114.873 271.026 113.565 272.263 108.395C272.263 108.395 273.181 107.268 273.157 106.978L271.243 107.788C271.243 107.788 271.896 109.158 271.383 110.297C271.383 110.297 271.321 107.839 270.954 107.895C270.88 107.895 269.958 108.371 269.958 108.371C269.958 108.371 271.082 110.758 270.236 112.492C270.236 112.492 270.558 109.551 269.607 108.543L268.259 109.323C268.259 109.323 269.574 111.788 268.682 113.799C268.682 113.799 268.912 110.714 267.976 109.513L266.757 110.459C266.757 110.459 267.991 112.888 267.237 114.556C267.237 114.556 267.138 110.965 266.491 110.693C266.491 110.693 265.424 111.628 265.26 112.012C265.26 112.012 266.107 113.787 265.582 114.707C265.582 114.707 265.26 112.314 264.986 112.302C264.986 112.302 263.921 113.888 263.811 114.965C263.863 113.96 264.179 112.987 264.729 112.143C264.115 112.258 263.548 112.549 263.099 112.98C263.099 112.98 263.266 111.859 264.992 111.761C264.992 111.761 265.871 110.557 266.107 110.483C266.107 110.483 264.389 110.341 263.346 110.8C263.346 110.8 264.264 109.744 266.42 110.208L267.612 109.232C267.612 109.232 265.349 108.936 264.392 109.264C264.392 109.264 265.495 108.33 267.937 109.01L269.249 108.232C269.249 108.232 267.32 107.821 266.172 107.969C266.172 107.969 267.383 107.321 269.633 108.022L270.572 107.605C270.572 107.605 269.159 107.33 268.745 107.285C268.331 107.241 268.31 107.129 268.31 107.129C269.205 106.981 270.123 107.083 270.963 107.424C270.963 107.424 272.981 106.706 272.946 106.581Z" fill="#00B8F2"/>
<path opacity="0.1" d="M178.292 111.773C178.292 111.773 174.381 103.684 169.404 107.671C169.404 107.671 168.33 108.029 168.382 109.153C168.382 109.153 168.795 108.939 169.09 109.806C169.2 110.112 169.346 110.405 169.524 110.678C169.766 111.047 170.122 111.329 170.537 111.479C170.537 111.479 172.679 113.171 176.761 112.016C176.761 112.016 177.902 112.212 178.088 112.075L176.785 111.069C176.785 111.069 176.077 112.051 175.09 112.139C175.09 112.139 176.78 111.142 176.599 110.911C176.561 110.864 175.89 110.409 175.89 110.409C175.89 110.409 174.66 112.113 173.125 112.2C173.125 112.2 175.298 111.281 175.633 110.232L174.57 109.606C174.57 109.606 173.359 111.472 171.614 111.637C171.614 111.637 173.852 110.598 174.327 109.485L173.198 109.014C173.198 109.014 171.982 110.81 170.528 110.939C170.528 110.939 172.993 109.476 172.932 108.922C172.932 108.922 171.867 108.55 171.536 108.585C171.536 108.585 170.634 109.855 169.784 109.855C169.784 109.855 171.326 108.703 171.232 108.517C171.232 108.517 169.716 108.399 168.918 108.753C169.637 108.396 170.437 108.234 171.239 108.281C170.921 107.903 170.499 107.625 170.025 107.483C170.025 107.483 170.87 107.162 171.605 108.314C171.605 108.314 172.785 108.453 172.925 108.588C172.925 108.588 172.36 107.348 171.64 106.809C171.64 106.809 172.731 107.028 173.229 108.694L174.374 109.146C174.374 109.146 173.716 107.469 173.109 106.938C173.109 106.938 174.185 107.337 174.655 109.295L175.704 109.898C175.704 109.898 175.248 108.406 174.7 107.674C174.7 107.674 175.619 108.258 175.999 110.082L176.653 110.567C176.653 110.567 176.299 109.485 176.181 109.184C176.063 108.882 176.122 108.821 176.122 108.821C176.571 109.38 176.855 110.053 176.943 110.765C176.943 110.765 178.207 111.844 178.292 111.773Z" fill="#00B8F2"/>
<path opacity="0.1" d="M288.797 83.7936C288.797 83.7936 292.659 76.7116 287.155 75.0983C287.155 75.0983 286.335 74.4917 285.541 75.1111C285.541 75.1111 285.912 75.3083 285.434 75.973C285.267 76.2139 285.13 76.4745 285.024 76.7491C284.881 77.1183 284.861 77.5259 284.969 77.9101C284.969 77.9101 284.853 80.3717 287.821 82.7898C287.821 82.7898 288.275 83.7329 288.473 83.8016L288.532 82.3207C288.532 82.3207 287.445 82.3078 286.868 81.6254C286.868 81.6254 288.477 82.3551 288.55 82.101C288.565 82.0487 288.547 81.3173 288.547 81.3173C288.547 81.3173 286.664 81.2931 285.799 80.2023C285.799 80.2023 287.603 81.333 288.541 81.0384L288.432 79.9184C288.432 79.9184 286.442 79.9912 285.409 78.7866C285.409 78.7866 287.336 79.901 288.396 79.6769L288.15 78.5967C288.15 78.5967 286.205 78.6301 285.355 77.6228C285.355 77.6228 287.706 78.6843 288.076 78.3531C288.076 78.3531 287.795 77.3735 287.595 77.1488C287.595 77.1488 286.2 77.1394 285.756 76.5094C285.756 76.5094 287.402 77.0533 287.488 76.887C287.488 76.887 286.784 75.7056 286.108 75.2973C286.744 75.6438 287.279 76.151 287.662 76.7684C287.773 76.3379 287.756 75.8826 287.613 75.459C287.613 75.459 288.288 75.9176 287.83 77.0577C287.83 77.0577 288.343 78.0035 288.318 78.1761C288.318 78.1761 288.929 77.1152 288.946 76.3015C288.946 76.3015 289.353 77.2226 288.391 78.4593L288.659 79.542C288.659 79.542 289.541 78.1841 289.611 77.4607C289.611 77.4607 289.882 78.4629 288.698 79.8236L288.806 80.9129C288.806 80.9129 289.653 79.8023 289.904 79.0163C289.904 79.0163 289.958 79.9999 288.825 81.2246L288.812 81.9597C288.812 81.9597 289.417 81.1389 289.574 80.8935C289.731 80.6482 289.806 80.663 289.806 80.663C289.631 81.2843 289.289 81.8428 288.816 82.2764C288.816 82.2764 288.704 83.7786 288.797 83.7936Z" fill="#00B8F2"/>
<path opacity="0.4" d="M138.061 142.401C138.061 142.401 135.075 136.739 131.264 139.528C131.264 139.528 130.445 139.779 130.483 140.566C130.483 140.566 130.801 140.417 131.024 141.022C131.108 141.238 131.219 141.443 131.356 141.634C131.54 141.892 131.812 142.088 132.129 142.193C132.129 142.193 133.767 143.379 136.887 142.571C136.887 142.571 137.757 142.707 137.901 142.61L136.905 141.906C136.905 141.906 136.364 142.595 135.609 142.656C135.609 142.656 136.899 141.957 136.76 141.796C136.732 141.763 136.219 141.444 136.219 141.444C136.219 141.444 135.281 142.637 134.106 142.699C134.106 142.699 135.768 142.054 136.024 141.322L135.211 140.884C135.211 140.884 134.287 142.19 132.951 142.305C132.951 142.305 134.662 141.576 135.026 140.798L134.162 140.468C134.162 140.468 133.233 141.725 132.123 141.815C132.123 141.815 134.007 140.791 133.96 140.404C133.96 140.404 133.146 140.142 132.894 140.168C132.894 140.168 132.204 141.055 131.553 141.055C131.553 141.055 132.733 140.249 132.661 140.119C132.661 140.119 131.503 140.036 130.891 140.284C131.441 140.034 132.053 139.92 132.666 139.954C132.424 139.688 132.101 139.494 131.739 139.395C131.739 139.395 132.385 139.169 132.946 139.977C132.946 139.977 133.848 140.074 133.955 140.168C133.955 140.168 133.523 139.301 132.973 138.922C132.973 138.922 133.807 139.077 134.187 140.249L135.063 140.566C135.063 140.566 134.559 139.39 134.095 139.021C134.095 139.021 134.918 139.298 135.275 140.669L136.078 141.09C136.078 141.09 135.728 140.048 135.31 139.533C135.31 139.533 136.013 139.942 136.304 141.22L136.804 141.55C136.804 141.55 136.533 140.793 136.443 140.582C136.353 140.371 136.398 140.33 136.398 140.33C136.741 140.721 136.958 141.192 137.024 141.69C137.024 141.69 138.005 142.45 138.061 142.401Z" fill="#00B8F2"/>
<path opacity="0.6" d="M139.471 88.424C139.471 88.424 129.853 93.5099 134.822 99.5006C134.822 99.5006 135.29 100.801 136.641 100.71C136.641 100.71 136.372 100.205 137.404 99.8023C137.771 99.6571 138.119 99.4676 138.443 99.238C138.879 98.929 139.206 98.4826 139.372 97.9665C139.372 97.9665 141.339 95.2728 139.814 90.2883C139.814 90.2883 140.013 88.879 139.84 88.6502L138.671 90.2909C138.671 90.2909 139.878 91.1203 140.018 92.3398C140.018 92.3398 138.747 90.2935 138.493 90.5197C138.438 90.5665 137.914 91.4167 137.914 91.4167C137.914 91.4167 140.007 92.8702 140.162 94.7579C140.162 94.7579 138.984 92.1136 137.711 91.7366L136.982 93.0678C136.982 93.0678 139.268 94.4927 139.522 96.6353C139.522 96.6353 138.194 93.9181 136.837 93.3694L136.301 94.7761C136.301 94.7761 138.506 96.2114 138.709 97.9951C138.709 97.9951 136.865 95.0128 136.202 95.1064C136.202 95.1064 135.785 96.4272 135.841 96.8355C135.841 96.8355 137.398 97.9015 137.426 98.9494C137.426 98.9494 135.989 97.0903 135.768 97.2125C135.768 97.2125 135.676 99.082 136.118 100.054C136.118 100.054 135.356 98.666 135.48 97.2125C135.035 97.6158 134.714 98.1436 134.558 98.731C134.558 98.731 134.144 97.7039 135.508 96.7575C135.508 96.7575 135.638 95.304 135.795 95.1246C135.795 95.1246 134.319 95.863 133.692 96.7679C133.692 96.7679 133.923 95.4184 135.925 94.7475L136.433 93.3226C136.433 93.3226 134.431 94.1911 133.814 94.9556C133.814 94.9556 134.259 93.6165 136.591 92.9742L137.282 91.6742C137.282 91.6742 135.503 92.2878 134.635 92.9742C134.635 92.9742 135.308 91.8224 137.495 91.2919L138.056 90.4729C138.056 90.4729 136.766 90.9435 136.405 91.1125C136.044 91.2815 135.973 91.1983 135.973 91.1983C136.633 90.6274 137.434 90.2548 138.288 90.1218C138.288 90.1218 139.56 88.5124 139.471 88.424Z" fill="#00B8F2"/>
<path d="M281.242 143.845C279.293 138.589 268.56 138.095 263.903 139.435C260.594 140.39 253.618 141.467 249.892 142.008L249.65 141.78C250.133 141.638 250.145 141.289 250.085 140.772C250.051 140.089 250.061 139.406 250.115 138.725C252.399 139.429 254.432 137.763 254.432 137.763C257.115 136.58 256.394 131.516 256.906 130.131C257.291 129.096 257.705 122.996 257.89 119.956H257.929L257.95 118.935C257.977 118.494 257.989 118.237 257.989 118.237C257.989 118.237 258.251 110.8 258.764 109.295C259.241 107.91 259.628 100.935 259.688 99.8288C259.688 99.7341 259.688 99.6839 259.688 99.6839L259.649 99.039C259.676 98.5687 259.688 98.0451 259.685 97.4949C259.685 94.9657 259.42 91.7799 259.387 91.2652C259.387 91.1912 259.387 91.1025 259.387 90.996C259.408 89.9163 259.271 84.5089 254.635 82.4649C252.926 81.7076 250.872 80.8054 248.884 79.9268C248.371 75.5341 247.2 71.165 247.301 66.7397C247.301 66.0742 247.361 65.4086 247.426 64.746C247.426 64.9383 247.405 65.1335 247.402 65.3376C247.402 65.7665 247.402 66.1984 247.402 66.6273C247.578 61.0928 249.686 55.5286 249.489 50.1124C249.471 50.6419 249.432 51.1743 249.382 51.7068C249.485 49.8748 249.291 48.0383 248.809 46.2669C248.631 45.6427 248.389 44.9978 247.873 44.5808C247.386 44.2448 246.827 44.0252 246.24 43.9389C244.829 43.5806 243.396 43.3157 241.95 43.1461C241.73 42.4787 241.404 41.8505 240.984 41.2855C237.961 37.1678 233.483 33.2986 228.188 32.4112C225.532 31.9675 222.476 32.3373 220.67 34.2216C220.481 34.3871 220.304 34.565 220.139 34.754C219.167 35.9047 218.75 37.4163 217.754 38.564C217.688 38.6409 217.614 38.7119 217.542 38.7859C215.592 40.5164 212.555 40.8772 210.387 42.4302C210.005 42.709 209.647 43.0187 209.317 43.3561C208.444 44.2148 207.661 45.1594 206.98 46.1752C206.005 47.5359 205.003 48.9528 204.693 50.5768C204.07 53.8307 206.303 56.916 206.717 60.1905C207.642 67.5177 199.47 74.0196 201.017 81.2491C201.43 83.0252 202.342 84.6488 203.647 85.9317C200.46 88.7952 197.747 91.5728 197.747 91.5728V91.7385H197.243L197.294 92.3301H197.243L197.52 95.5396L197.243 100.213C197.243 100.213 197.243 100.264 197.243 100.358V100.382V100.509C197.243 100.509 197.243 100.559 197.243 100.654H197.261C197.353 102.367 197.72 108.526 198.155 109.824C198.668 111.33 198.927 118.766 198.927 118.766C198.927 118.766 199.494 129.276 200.013 130.667C200.531 132.057 199.795 137.107 202.487 138.299C203.275 138.898 204.207 139.282 205.191 139.411C205.054 140.517 205.14 141.319 205.585 141.57C205.775 141.681 205.99 141.742 206.211 141.748C206.028 142.017 205.865 142.298 205.725 142.591C204.656 142.48 203.606 142.235 202.6 141.86C199.708 140.677 190.112 138.015 187.324 139.887C184.537 141.76 177.829 143.458 180.927 150.995C184.024 158.532 185.467 158.721 185.467 158.721C186.421 159.408 187.257 160.242 187.945 161.191C188.875 162.579 197.541 165.753 199.708 165.753C200.63 165.738 201.551 165.784 202.466 165.889C202.466 165.889 200.114 167.936 200.427 169.125C200.74 170.314 199.711 179.833 199.711 179.833C199.711 179.833 202.096 182.217 203.116 179.091L203.152 179.138C203.343 179.395 204.374 180.558 206.315 179.091C207.109 178.493 207.953 177.962 208.837 177.505L218.234 176.186C219.214 176.125 220.196 176.118 221.176 176.165C222.667 176.286 224.131 175.411 225.052 174.733C226.999 175.467 229.187 176.269 230.227 176.561C232.338 177.153 242.039 179.735 244.308 178.928C244.779 178.742 245.199 178.445 245.53 178.064L247.694 178.132L246.681 178.333C246.681 178.333 248.654 178.366 251.337 178.401L251.224 178.466L254.59 178.437C259.515 178.481 265.048 178.496 265.776 178.333C266.914 178.082 272.832 178.259 274.576 178.333H275.062C275.062 178.333 281.564 177.047 278.881 170.5C276.818 165.472 270.477 164.01 267.663 163.608C268.456 163.451 269.138 163.33 269.592 163.259C271.556 162.963 275.372 161.188 275.682 160.582C275.992 159.975 279.191 158.215 280.017 157.213C280.843 156.21 283.201 149.102 281.242 143.845ZM227.386 158.556L227.067 158.659L226.853 158.73L226.441 159.132C226.113 158.913 225.761 158.683 225.395 158.446C226.042 158.485 226.707 158.523 227.386 158.556Z" fill="url(#paint0_linear)"/>
<path d="M246.395 127.366C246.395 127.366 250.956 139.198 253.55 138.015C256.143 136.831 255.44 131.803 255.935 130.424C256.429 129.046 256.978 118.592 256.978 118.592C256.978 118.592 257.228 111.197 257.723 109.7C258.182 108.324 258.555 101.388 258.618 100.296C258.618 100.201 258.618 100.151 258.618 100.151L258.126 91.5728L255.341 90.8835L248.884 93.25L247.99 98.3172L247.641 100.296L247.492 101.139L246.395 127.366Z" fill="#ECBCB4"/>
<path opacity="0.1" d="M247.897 125.384C247.897 125.384 252.25 128.919 253.562 129.229C254.873 129.54 255.678 132.297 255.678 132.297" fill="black"/>
<path d="M210.724 127.883C210.724 127.883 206.163 139.716 203.569 138.532C200.976 137.349 201.679 132.32 201.184 130.942C200.689 129.563 200.141 119.11 200.141 119.11C200.141 119.11 199.89 111.714 199.396 110.218C198.936 108.842 198.564 101.905 198.501 100.814C198.501 100.719 198.501 100.669 198.501 100.669L198.996 92.0904L201.781 91.4012L208.238 93.7676L209.132 98.8348L209.481 100.814L209.63 101.657L210.724 127.883Z" fill="#BE6F72"/>
<path d="M240.426 64.5626H230.245V80.3084H240.426V64.5626Z" fill="#3E373A"/>
<path opacity="0.1" d="M240.426 64.5626H230.245V80.3084H240.426V64.5626Z" fill="black"/>
<path d="M208.935 139.668C208.935 139.668 205.456 143.463 206.747 144.153C208.038 144.842 216.389 157.76 216.389 157.76C216.389 157.76 243.816 161.111 248.988 156.083C254.161 151.054 254.056 142.07 254.056 142.07C254.056 142.07 249.901 142.958 249.447 142.475C248.994 141.993 246.505 139.668 246.505 139.668C246.505 139.668 211.32 137.55 208.935 139.668Z" fill="#4B4B5B"/>
<path opacity="0.02" d="M208.935 139.668C208.935 139.668 205.456 143.463 206.747 144.153C208.038 144.842 216.389 157.76 216.389 157.76C216.389 157.76 243.816 161.111 248.988 156.083C254.161 151.054 254.056 142.07 254.056 142.07C254.056 142.07 249.901 142.958 249.447 142.475C248.994 141.993 246.505 139.668 246.505 139.668C246.505 139.668 211.32 137.55 208.935 139.668Z" fill="black"/>
<path d="M258.311 91.697L249.367 98.7964L246.663 98.9916L245.67 99.0626L228.996 100.275L211.705 99.0212L209.132 98.8349L205.853 98.5982L198.996 92.0905C198.996 92.0905 203.849 86.9316 208.101 83.4499C209.776 82.0744 211.359 80.9622 212.513 80.5244L212.71 80.4563C213.435 80.1755 214.083 79.7273 214.6 79.1489C217.957 75.7145 221.06 67.2396 221.06 67.2396C221.06 67.2396 235.868 59.6492 234.079 69.6061C232.29 79.563 240.736 77.1019 240.736 77.1019L243.521 78.362L244.621 78.8619L247.426 80.1369L253.755 83.018C258.722 85.2869 258.311 91.697 258.311 91.697Z" fill="#ECBCB4"/>
<path opacity="0.1" d="M228.302 75.3477C235.656 75.3477 241.619 69.4317 241.619 62.134C241.619 54.8362 235.656 48.9202 228.302 48.9202C220.947 48.9202 214.984 54.8362 214.984 62.134C214.984 69.4317 220.947 75.3477 228.302 75.3477Z" fill="black"/>
<path opacity="0.1" d="M258.332 101.11H198.501C198.501 101.015 198.501 100.965 198.501 100.965L198.996 92.3863C198.996 92.3863 203.85 87.2274 208.101 83.7457L245.664 82.2667L247.411 80.4386L253.74 83.3198C258.71 85.5857 258.311 91.9958 258.311 91.9958C258.311 91.9958 258.99 99.4235 258.332 101.11Z" fill="black"/>
<path d="M258.332 100.814H198.501C198.501 100.719 198.501 100.669 198.501 100.669L198.996 92.0905C198.996 92.0905 203.85 86.9316 208.101 83.4499L245.664 81.9709L247.411 80.1428L253.74 83.0239C258.71 85.2898 258.311 91.7 258.311 91.7C258.311 91.7 258.99 99.1277 258.332 100.814Z" fill="#E7C7CA"/>
<path opacity="0.1" d="M218.711 76.7587C218.711 76.7587 228.15 88.6916 240.721 76.5132C253.293 64.3348 242.114 103.677 242.114 103.677L214.984 106.872L218.711 76.7587Z" fill="black"/>
<path d="M218.711 77.3503C218.711 77.3503 228.15 89.2832 240.721 77.1048C253.293 64.9264 242.114 104.269 242.114 104.269L214.984 107.464L218.711 77.3503Z" fill="#E7C7CA"/>
<path opacity="0.1" d="M244.606 79.4446L245.605 94.5575L246.675 99.5862L247.492 103.432C247.492 103.432 249.579 133.012 248.982 134.492C248.386 135.971 249.281 137.154 249.406 137.941C249.531 138.728 249.281 140.704 249.379 141.591C249.477 142.478 249.379 142.872 247.095 142.555C244.812 142.239 241.628 141.689 241.628 141.689C241.628 141.689 233.578 142.28 230.797 141.295C228.015 140.31 222.748 140.307 222.748 140.307C222.748 140.307 214.797 140.505 212.215 140.21C209.633 139.914 208.238 143.366 206.551 142.378C204.863 141.39 208.536 131.829 209.728 129.066C210.921 126.304 208.14 119.305 208.14 119.305L211.717 99.6128L212.513 95.1491V81.1159L212.71 81.0479C213.435 80.7671 214.083 80.3189 214.6 79.7404L215.494 93.8623L243.518 94.8503V78.9565" fill="black"/>
<path d="M244.606 78.853L245.605 93.9658L246.675 98.9946L247.492 102.84C247.492 102.84 249.579 132.421 248.982 133.9C248.386 135.379 249.281 136.562 249.406 137.349C249.531 138.136 249.281 140.112 249.379 140.999C249.477 141.887 249.379 142.28 247.095 141.964C244.812 141.647 241.628 141.097 241.628 141.097C241.628 141.097 233.578 141.689 230.797 140.703C228.015 139.718 222.748 139.715 222.748 139.715C222.748 139.715 214.797 139.914 212.215 139.618C209.633 139.322 208.238 142.774 206.551 141.786C204.863 140.798 208.536 131.238 209.728 128.475C210.921 125.712 208.14 118.713 208.14 118.713L211.717 99.0212L212.513 94.5574V80.5243L212.71 80.4563C213.435 80.1755 214.083 79.7273 214.6 79.1488L215.494 93.2707L243.518 94.2587V78.3649" fill="#E7C7CA"/>
<path opacity="0.1" d="M247.829 47.314C247.659 46.6958 247.423 46.0539 246.934 45.6397C246.467 45.3071 245.928 45.0882 245.36 45.0008C244 44.646 242.618 44.3831 241.222 44.2139C241.023 43.5571 240.721 42.9353 240.328 42.3711C237.406 38.2771 233.084 34.4168 227.998 33.5441C225.335 33.0856 222.25 33.4968 220.544 35.5793C219.608 36.7241 219.206 38.2416 218.261 39.3656C216.439 41.5487 213.151 41.8179 210.855 43.507C209.63 44.3944 208.742 45.6811 207.874 46.9295C206.935 48.2813 205.969 49.6893 205.671 51.3045C205.075 54.5317 207.224 57.6081 207.621 60.865C208.515 68.1507 200.645 74.6141 202.132 81.8022C203 85.9939 206.902 88.946 210.939 90.4428C212.361 90.9723 213.986 91.4988 214.651 92.8536C214.949 93.4453 214.999 94.1286 215.28 94.7261C216.222 96.7198 219.319 96.7968 220.983 95.3443C222.646 93.8919 223.171 91.5432 223.368 89.3513C224.167 79.7789 220.303 70.3219 220.753 60.7259C220.887 57.8241 221.71 54.5317 224.331 53.2183C227.857 51.4435 232.1 54.4016 235.981 53.8366C237.818 58.2711 238.208 63.1654 237.096 67.8312C236.479 70.3841 235.412 72.86 235.334 75.4927C235.218 79.5009 237.397 83.163 239.281 86.7067C239.686 87.3694 239.956 88.1039 240.078 88.8691C240.107 89.6455 239.962 90.4187 239.651 91.132C238.587 93.9747 236.75 96.6133 236.542 99.6395C236.481 99.9927 236.561 100.356 236.765 100.651C236.975 100.848 237.246 100.969 237.534 100.994C240.754 101.542 243.539 98.7106 245.11 95.8679C246.861 92.7282 247.882 89.239 248.097 85.6566C248.422 79.634 246.246 73.7089 246.38 67.6804C246.535 60.8265 249.656 53.9253 247.829 47.314Z" fill="black"/>
<path d="M248.127 47.0182C247.957 46.4 247.721 45.7581 247.232 45.344C246.766 45.0113 246.226 44.7924 245.658 44.705C244.298 44.3502 242.916 44.0873 241.52 43.9182C241.321 43.2613 241.019 42.6395 240.626 42.0753C237.704 37.9813 233.382 34.121 228.296 33.2484C225.633 32.7899 222.548 33.201 220.842 35.2835C219.906 36.4283 219.504 37.9458 218.559 39.0699C216.737 41.2529 213.449 41.5221 211.153 43.2112C209.928 44.0986 209.04 45.3854 208.172 46.6337C207.233 47.9855 206.267 49.3936 205.969 51.0087C205.373 54.2359 207.522 57.3123 207.919 60.5692C208.813 67.8549 200.943 74.3183 202.43 81.5065C203.298 85.6981 207.2 88.6502 211.237 90.147C212.659 90.6765 214.284 91.2031 214.949 92.5579C215.247 93.1495 215.297 93.8328 215.578 94.4303C216.52 96.4241 219.617 96.501 221.281 95.0486C222.944 93.5961 223.469 91.2474 223.666 89.0555C224.465 79.4832 220.601 70.0262 221.051 60.4302C221.185 57.5283 222.008 54.2359 224.629 52.9226C228.155 51.1477 232.398 54.1058 236.279 53.5408C238.116 57.9754 238.506 62.8696 237.394 67.5355C236.777 70.0883 235.71 72.5642 235.632 75.1969C235.516 79.2051 237.695 82.8672 239.58 86.411C239.984 87.0737 240.254 87.8081 240.376 88.5733C240.405 89.3497 240.26 90.1229 239.949 90.8363C238.885 93.679 237.048 96.3176 236.84 99.3437C236.779 99.6969 236.859 100.06 237.063 100.355C237.273 100.553 237.545 100.673 237.833 100.698C241.052 101.246 243.837 98.4149 245.408 95.5721C247.16 92.4324 248.18 88.9432 248.395 85.3609C248.72 79.3382 246.544 73.4132 246.678 67.3846C246.833 60.5307 249.954 53.6295 248.127 47.0182Z" fill="#3E373A"/>
<path d="M241.541 177.993L253.368 178.369L251.671 169.666L242.611 170.521L241.541 177.993Z" fill="#C3C7D9"/>
<path d="M278.187 157.366C277.391 158.351 274.311 160.126 274.013 160.718C273.715 161.31 270.039 163.084 268.149 163.38C266.259 163.676 260.299 164.96 259.205 165.649C258.421 166.146 252.128 167.72 247.993 168.592C246.873 168.855 245.739 169.058 244.597 169.199C242.808 169.296 223.233 162.691 223.233 162.691L227.008 158.845L227.216 158.774C228.284 158.417 233.215 156.763 235.951 155.976C239.034 155.089 242.611 151.441 242.611 151.441C242.611 151.441 247.876 149.667 248.574 149.468C249.272 149.27 246.785 142.567 246.785 142.567C246.785 142.567 258.212 140.993 262.684 139.659C267.156 138.325 277.492 138.819 279.379 144.046C281.266 149.273 278.994 156.381 278.187 157.366Z" fill="#4B4B5B"/>
<path d="M226.113 174.029C226.113 174.029 223.83 176.396 221.543 176.201C219.256 176.005 211.261 176.792 211.261 176.792C209.812 177.366 208.455 178.146 207.233 179.108C205.364 180.57 204.371 179.404 204.186 179.156L204.154 179.108C203.158 182.217 200.874 179.848 200.874 179.848C200.874 179.848 201.867 170.382 201.563 169.199C201.259 168.015 203.527 165.983 203.527 165.983L206.211 165.306L213.008 163.578L222.748 166.93L226.113 174.029Z" fill="white"/>
<path opacity="0.1" d="M206.199 165.306L204.186 179.156L204.154 179.108C203.158 182.217 200.874 179.848 200.874 179.848C200.874 179.848 201.867 170.382 201.563 169.199C201.259 168.015 203.528 165.983 203.528 165.983L206.199 165.306Z" fill="black"/>
<path opacity="0.1" d="M220.264 125.91C220.264 125.91 225.529 127.685 230.102 125.91H220.264Z" fill="black"/>
<path opacity="0.1" d="M238.238 129.265C238.238 129.265 240.423 130.347 242.114 129.265H238.238Z" fill="black"/>
<path opacity="0.1" d="M238.238 131.832C238.238 131.832 241.914 132.32 242.612 131.335L238.238 131.832Z" fill="black"/>
<path opacity="0.1" d="M237.046 137.349C237.046 137.349 243.95 136.462 245.664 135.278L237.046 137.349Z" fill="black"/>
<path opacity="0.1" d="M215.977 135.278C215.977 135.278 219.853 137.447 222.736 137.349L215.977 135.278Z" fill="black"/>
<path opacity="0.1" d="M247.99 168.592C246.87 168.855 245.736 169.058 244.594 169.199C242.805 169.296 223.23 162.691 223.23 162.691L227.005 158.845L227.213 158.774C227.81 159.192 228.299 159.549 228.647 159.822C230.29 161.105 231.876 159.428 232.472 159.428C233.069 159.428 238.235 163.667 238.235 163.667C238.235 163.667 243.005 164.753 243.801 165.738C244.597 166.723 247.378 166.528 247.873 167.217C248.022 167.43 248.04 167.953 247.99 168.592Z" fill="black"/>
<path d="M211.261 142.969C211.261 142.969 206.437 143.244 203.656 142.082C200.874 140.919 191.632 138.236 188.949 140.121C186.266 142.005 179.806 143.67 182.787 151.166C185.768 158.662 187.16 158.857 187.16 158.857C188.083 159.544 188.888 160.373 189.545 161.312C190.44 162.694 198.787 165.847 200.874 165.847C202.961 165.847 206.637 165.847 211.803 169.397C216.97 172.947 221.641 173.343 221.641 173.343C221.641 173.343 228.2 176.005 230.242 176.597C232.284 177.188 241.616 179.75 243.804 178.963C245.992 178.176 247.381 173.242 247.381 173.242C247.381 173.242 248.374 168.805 247.876 168.116C247.378 167.427 244.597 167.622 243.804 166.637C243.011 165.652 238.238 164.566 238.238 164.566C238.238 164.566 233.083 160.324 232.487 160.324C231.891 160.324 230.305 161.999 228.662 160.718C225.39 158.313 221.952 156.138 218.374 154.21C214.6 152.237 211.261 142.969 211.261 142.969Z" fill="#4B4B5B"/>
<path opacity="0.1" d="M201.563 145.83C202.422 145.656 203.309 145.681 204.157 145.903C205.005 146.125 205.789 146.538 206.449 147.111C208.834 149.084 216.86 153.045 216.86 153.045" fill="black"/>
<path opacity="0.1" d="M261.194 145.706C261.194 145.706 250.559 147.303 248.574 149.471L261.194 145.706Z" fill="black"/>
<path d="M273.417 178.369H272.949C271.267 178.31 265.57 178.132 264.473 178.369C263.182 178.665 246.088 178.369 246.088 178.369L249.43 177.68C249.43 177.68 248.189 173.367 248.976 173.009C248.976 173.009 244.505 170.086 247.876 168.113C251.248 166.14 254.882 166.971 254.882 166.971L263.346 164.126L264.971 163.578C264.971 163.578 274.511 164.072 277.092 170.58C279.674 177.088 273.417 178.369 273.417 178.369Z" fill="white"/>
<path opacity="0.1" d="M273.417 178.369H272.949C275.724 176.097 282.003 169.181 263.346 164.14L264.971 163.593C264.971 163.593 274.511 164.087 277.092 170.595C279.674 177.103 273.417 178.369 273.417 178.369Z" fill="black"/>
<path d="M255.878 170.701C256.166 170.701 256.4 170.47 256.4 170.184C256.4 169.898 256.166 169.666 255.878 169.666C255.59 169.666 255.356 169.898 255.356 170.184C255.356 170.47 255.59 170.701 255.878 170.701Z" fill="#4B4B5B"/>
<path d="M252.846 171.556C253.134 171.556 253.368 171.325 253.368 171.039C253.368 170.753 253.134 170.521 252.846 170.521C252.558 170.521 252.324 170.753 252.324 171.039C252.324 171.325 252.558 171.556 252.846 171.556Z" fill="#4B4B5B"/>
<g opacity="0.1">
<path opacity="0.1" d="M238.074 61.6459C238.19 58.3923 237.606 55.1515 236.363 52.1387C232.487 52.7125 228.242 49.7456 224.712 51.5204C222.101 52.8338 221.281 56.1262 221.135 59.028C221.099 59.7942 221.093 60.5603 221.108 61.3265C221.108 61.0543 221.108 60.7792 221.135 60.5071C221.272 57.6052 222.092 54.3129 224.712 52.9995C228.242 51.2246 232.481 54.1827 236.363 53.6177C237.416 56.1697 237.996 58.8894 238.074 61.6459Z" fill="black"/>
<path opacity="0.1" d="M208.041 61.1046C208.092 60.46 208.079 59.8121 208.002 59.17C207.686 56.5669 206.252 54.0792 205.993 51.5411C205.659 54.6028 207.624 57.5431 208.002 60.6491C208.041 60.8088 208.041 60.9508 208.041 61.1046Z" fill="black"/>
<path opacity="0.1" d="M223.749 87.6504C223.564 89.8453 223.043 92.191 221.364 93.6464C219.686 95.1018 216.594 95.0219 215.661 93.0282C215.363 92.4366 215.318 91.7473 215.029 91.1557C214.367 89.8009 212.74 89.2744 211.317 88.7449C207.278 87.2451 203.381 84.3078 202.514 80.1043C202.436 79.7235 202.384 79.3382 202.356 78.9507C202.283 79.8312 202.336 80.7177 202.514 81.5834C203.381 85.775 207.284 88.7242 211.317 90.2239C212.74 90.7534 214.367 91.28 215.029 92.6348C215.327 93.2264 215.378 93.9097 215.661 94.5072C216.6 96.501 219.698 96.5779 221.364 95.1255C223.031 93.673 223.549 91.3243 223.749 89.1294C223.84 87.9742 223.871 86.8151 223.842 85.6567C223.842 86.3281 223.803 86.9907 223.749 87.6504Z" fill="black"/>
<path opacity="0.1" d="M246.776 65.9825C246.776 66.4114 246.776 66.8374 246.776 67.2633C246.943 61.7613 248.976 56.2297 248.777 50.843C248.622 55.8244 246.89 60.9182 246.776 65.9825Z" fill="black"/>
<path opacity="0.1" d="M240.378 88.239C240.452 87.8881 240.475 87.5286 240.447 87.1712C240.327 86.4056 240.057 85.6709 239.651 85.0088C237.928 81.7549 235.963 78.4241 235.731 74.8123C235.731 74.9661 235.71 75.1081 235.707 75.2738C235.588 79.279 237.767 82.9441 239.651 86.4879C239.971 87.0367 240.216 87.6257 240.378 88.239Z" fill="black"/>
<path opacity="0.1" d="M248.49 83.9587C248.268 87.5425 247.24 91.0315 245.482 94.17C243.908 97.0127 241.127 99.8436 237.904 99.2964C237.615 99.2717 237.344 99.1495 237.135 98.9503C237.074 98.8825 237.027 98.8043 236.995 98.7196C236.959 98.9503 236.929 99.184 236.911 99.4206C236.85 99.7729 236.93 100.135 237.135 100.429C237.344 100.629 237.615 100.751 237.904 100.775C241.127 101.323 243.908 98.4918 245.482 95.6491C247.24 92.5105 248.268 89.0216 248.49 85.4378C248.526 84.7456 248.529 84.0564 248.508 83.3671C248.502 83.5653 248.502 83.7606 248.49 83.9587Z" fill="black"/>
</g>
<path opacity="0.1" d="M248.976 173.009C248.976 173.009 256.522 176.15 261.498 169.199" stroke="black" stroke-miterlimit="10"/>
<path opacity="0.1" d="M250.461 178.499C250.461 178.499 256.623 174.523 264.473 178.369" stroke="black" stroke-miterlimit="10"/>
<path opacity="0.1" d="M209.213 177.597C209.213 177.597 211.8 171.805 218.711 176.221" stroke="black" stroke-miterlimit="10"/>
<path opacity="0.1" d="M200.824 91.9425L206.1 87.2096C206.1 87.2096 226.561 85.8785 227.407 92.7797C227.407 92.7797 234.661 84.5976 249.916 86.4198L256.37 91.5195L238.53 99.2875L221.194 105.254L208.426 99.5833L200.824 91.9425Z" fill="black"/>
<path d="M200.824 92.2383L206.1 87.5054C206.1 87.5054 226.561 86.1743 227.407 93.0755C227.407 93.0755 234.661 84.8934 249.916 86.7156L256.37 91.8153L238.53 99.5832L221.194 105.55L208.426 99.879L200.824 92.2383Z" fill="#D5D6DB"/>
<path opacity="0.1" d="M198.489 92.83L200.824 120.538L225.568 121.772L224.495 94.1818L224.474 93.7174L198.489 92.83Z" fill="black"/>
<path d="M198.489 92.2383L200.824 119.947L225.568 121.18L224.495 93.5902L224.474 93.1258L198.489 92.2383Z" fill="#00B8F2"/>
<path opacity="0.1" d="M257.503 92.2383L231.977 96.0365V123.869L256.921 120.293L257.503 92.2383Z" fill="black"/>
<path d="M257.503 91.6467L231.977 95.4449V123.277L256.921 119.701L257.503 91.6467Z" fill="#00B8F2"/>
<path opacity="0.3" d="M251.484 98.4385L237.695 99.9589L237.996 104.621L251.475 103.16L251.484 98.4385Z" fill="white"/>
<path d="M202.165 134.784L203.569 138.532C203.569 138.532 205.656 140.307 207.94 139.42C210.223 138.532 212.215 138.092 213.208 137.228C214.2 136.364 215.593 132.025 215.593 132.025C215.593 132.025 216.985 127.292 218.374 126.108C219.763 124.925 223.442 108.623 218.374 110.218C213.306 111.812 209.43 126.602 209.43 126.602C209.43 126.602 208.536 127.685 207.245 127.786C205.954 127.886 203.369 127.587 202.872 128.673C202.374 129.759 200.674 132.616 202.165 134.784Z" fill="#ECBCB4"/>
<path opacity="0.1" d="M231.977 96.0336C230.671 96.3258 229.313 96.3105 228.013 95.989C226.713 95.6674 225.507 95.0485 224.492 94.1818L225.568 121.769C225.568 121.769 228.102 124.49 231.977 123.869V96.0336Z" fill="black"/>
<path d="M231.977 95.442C230.671 95.7342 229.313 95.7189 228.013 95.3973C226.713 95.0758 225.507 94.4569 224.492 93.5902L225.568 121.177C225.568 121.177 228.102 123.899 231.977 123.278V95.442Z" fill="#00B8F2"/>
<path opacity="0.1" d="M231.977 95.442C230.671 95.7342 229.313 95.7189 228.013 95.3973C226.713 95.0758 225.507 94.4569 224.492 93.5902L225.568 121.177C225.568 121.177 228.102 123.899 231.977 123.278V95.442Z" fill="black"/>
<path opacity="0.1" d="M232.574 92.333C232.574 92.333 242.957 89.1827 245.664 89.6264L232.574 92.333Z" fill="black"/>
<path opacity="0.1" d="M220.959 90.9575C220.959 90.9575 210.894 88.591 209.213 89.2625L220.959 90.9575Z" fill="black"/>
<path opacity="0.1" d="M239.12 92.7264C239.12 92.7264 246.064 90.2002 248.574 91.4012L239.12 92.7264Z" fill="black"/>
<path opacity="0.1" d="M235.623 156.097C236.699 155.296 237.845 154.59 239.046 153.988C240.835 153.133 244.114 150.915 244.114 150.915" fill="black"/>
<path opacity="0.1" d="M209.213 125.91C209.213 125.91 204.857 129.445 203.548 129.756C202.24 130.066 201.432 132.823 201.432 132.823" fill="black"/>
<path d="M254.942 134.258L253.553 138.015C253.553 138.015 251.466 139.789 249.179 138.902C246.893 138.015 244.907 137.574 243.911 136.71C242.916 135.846 241.526 131.507 241.526 131.507C241.526 131.507 240.137 126.774 238.745 125.591C237.353 124.407 233.677 108.106 238.745 109.7C243.813 111.294 247.689 126.085 247.689 126.085C247.689 126.085 248.583 127.167 249.874 127.268C251.165 127.369 253.749 127.07 254.247 128.155C254.745 129.241 256.433 132.098 254.942 134.258Z" fill="#ECBCB4"/>
<path opacity="0.1" d="M252.506 127.348C252.506 127.348 255.353 129.164 255.341 131.335L252.506 127.348Z" fill="black"/>
<path d="M228.349 74.6999C235.704 74.6999 241.666 68.7839 241.666 61.4861C241.666 54.1884 235.704 48.2724 228.349 48.2724C220.994 48.2724 215.032 54.1884 215.032 61.4861C215.032 68.7839 220.994 74.6999 228.349 74.6999Z" fill="#ECBCB4"/>
<path d="M219.987 57.9394C221.603 57.688 223.019 56.7562 224.563 56.2208C228.018 55.0169 231.84 55.8422 235.337 56.9278C236.679 57.3449 238.041 57.8152 239.448 57.8152C240.855 57.8152 242.349 57.2443 243.068 56.0404C243.729 54.934 243.601 53.4964 243.044 52.3339C242.486 51.1714 241.553 50.2366 240.611 49.3551C237.511 46.4503 233.665 43.7348 229.411 44.0306C227.699 44.1518 226.063 44.7583 224.489 45.4297C222.506 46.2772 220.577 47.2413 218.711 48.3168C217.277 49.1421 214.621 50.2455 213.795 51.7541C211.917 55.1529 217.065 58.395 219.987 57.9394Z" fill="#3E373A"/>
<path opacity="0.1" d="M243.068 54.7979C242.349 56.0019 240.856 56.5728 239.448 56.5728C238.041 56.5728 236.679 56.1202 235.334 55.7031C231.837 54.6175 228.018 53.7892 224.56 54.9961C223.019 55.5315 221.6 56.4752 219.984 56.7118C217.629 57.0786 213.837 55.0435 213.425 52.4551C212.963 55.4458 217.36 58.0075 219.984 57.5992C221.6 57.3478 223.019 56.416 224.56 55.8836C228.018 54.6767 231.837 55.5049 235.334 56.5905C236.679 57.0076 238.038 57.478 239.448 57.4602C240.858 57.4425 242.349 56.8923 243.068 55.6854C243.44 55.0288 243.587 54.2696 243.485 53.523C243.438 53.9725 243.296 54.4071 243.068 54.7979Z" fill="black"/>
<path opacity="0.7" d="M299.049 107.483C299.049 107.483 288.328 88.0587 276.609 98.5676C276.609 98.5676 274.016 99.5983 274.294 102.365C274.294 102.365 275.289 101.782 276.152 103.877C276.465 104.619 276.865 105.322 277.344 105.971C277.986 106.85 278.898 107.496 279.941 107.808C279.941 107.808 285.446 111.692 295.348 108.264C295.348 108.264 298.183 108.589 298.625 108.222L295.277 105.921C295.277 105.921 293.685 108.443 291.253 108.791C291.253 108.791 295.276 106.099 294.793 105.556C294.698 105.442 292.968 104.415 292.968 104.415C292.968 104.415 290.149 108.817 286.377 109.242C286.377 109.242 291.603 106.682 292.287 104.051L289.606 102.637C289.606 102.637 286.882 107.405 282.605 108.055C282.605 108.055 287.974 105.18 288.996 102.373L286.128 101.36C286.128 101.36 283.384 105.958 279.825 106.47C279.825 106.47 285.694 102.523 285.469 101.17C285.469 101.17 282.8 100.392 281.987 100.526C281.987 100.526 279.939 103.781 277.845 103.893C277.845 103.893 281.485 100.844 281.229 100.396C281.229 100.396 277.482 100.313 275.56 101.273C275.56 101.273 278.303 99.6634 281.213 99.8105C281.213 99.8105 279.848 98.2997 278.116 98.0039C278.116 98.0039 280.154 97.1003 282.117 99.8271C282.117 99.8271 285.032 100.012 285.399 100.321C285.399 100.321 283.841 97.3403 281.993 96.1055C281.993 96.1055 284.701 96.4828 286.165 100.566L289.026 101.537C289.026 101.537 287.174 97.4831 285.609 96.256C285.609 96.256 288.316 97.0921 289.734 101.836L292.398 103.183C292.398 103.183 291.071 99.5708 289.624 97.8323C289.624 97.8323 291.968 99.1464 293.148 103.597L294.826 104.704C294.826 104.704 293.806 102.087 293.461 101.349C293.117 100.612 293.269 100.466 293.269 100.466C294.456 101.79 295.252 103.417 295.567 105.167C295.567 105.167 298.879 107.67 299.049 107.483Z" fill="#00B8F2"/>
<defs>
<linearGradient id="paint0_linear" x1="231.062" y1="180.712" x2="231.062" y2="32.2397" gradientUnits="userSpaceOnUse">
<stop stop-color="#808080" stop-opacity="0.25"/>
<stop offset="0.54" stop-color="#808080" stop-opacity="0.12"/>
<stop offset="1" stop-color="#808080" stop-opacity="0.1"/>
</linearGradient>
</defs>
</svg>
