<svg width="315" height="462" viewBox="0 0 315 462" fill="none" xmlns="http://www.w3.org/2000/svg">
<path opacity="0.4" d="M286.526 273.664C286.526 273.664 309.085 280.622 310.298 263.916C310.298 263.916 311.523 261.211 309.266 259.297C309.266 259.297 308.934 260.479 306.726 259.512C305.938 259.175 305.112 258.932 304.267 258.789C303.125 258.589 301.95 258.769 300.92 259.3C300.92 259.3 293.835 260.392 288.783 270.332C288.783 270.332 286.371 272.177 286.304 272.785L290.568 272.074C290.568 272.074 289.925 268.967 291.53 266.903C291.53 266.903 290.438 271.937 291.209 271.996C291.366 272.013 293.449 271.522 293.449 271.522C293.449 271.522 292.357 266.068 294.931 262.956C294.931 262.956 292.821 268.777 294.239 271.298L297.337 270.4C297.337 270.4 295.902 264.736 298.697 261.079C298.697 261.079 296.709 267.246 298 270.152L300.944 268.809C300.944 268.809 299.649 263.26 301.997 260.239C301.997 260.239 300.418 267.598 301.59 268.468C301.59 268.468 304.208 267.092 304.732 266.389C304.732 266.389 303.897 262.383 305.418 260.75C305.418 260.75 304.882 265.775 305.409 265.929C305.409 265.929 308.34 263.224 309.103 261.069C309.103 261.069 308.191 264.328 305.854 266.365C305.854 266.365 308.015 266.514 309.561 265.46C309.561 265.46 308.667 267.658 305.149 267.02C305.149 267.02 302.78 269.032 302.27 269.067C302.27 269.067 305.665 270.199 307.993 269.779C307.993 269.779 305.641 271.49 301.503 269.444L298.594 270.814C298.594 270.814 303.008 272.551 305.112 272.335C305.112 272.335 302.421 273.694 297.831 271.108L294.796 272.044C294.796 272.044 298.481 273.83 300.873 274.093C300.873 274.093 298.107 274.818 293.915 272.281L291.812 272.673C291.812 272.673 294.527 273.924 295.336 274.234C296.145 274.544 296.136 274.769 296.136 274.769C294.249 274.632 292.437 273.973 290.903 272.866C290.903 272.866 286.518 273.395 286.526 273.664Z" fill="#00B8F2"/>
<path opacity="0.6" d="M26 391.016C26 391.016 30.8432 432.439 58.3586 422.444C58.3586 422.444 63.5411 422.487 65 417.472C65 417.472 62.8795 417.781 62.8625 413.522C62.8429 412.007 62.6465 410.5 62.2773 409.031C61.789 407.045 60.6719 405.274 59.0965 403.991C59.0965 403.991 52.3449 393.326 32.9128 392.278C32.9128 392.278 28.2647 389.702 27.2469 390.029L31.3946 396.409C31.3946 396.409 35.8984 393.146 40.326 394.262C40.326 394.262 31.5218 396.099 31.9713 397.387C32.0561 397.654 34.3123 400.668 34.3123 400.668C34.3123 400.668 42.2429 395 49.0285 396.932C49.0285 396.932 38.2479 397.688 35.2284 401.784L38.8502 406.146C38.8502 406.146 46.8741 399.775 54.6859 401.672C54.6859 401.672 43.4389 402.874 39.7153 407.039L43.9393 410.834C43.9393 410.834 51.8784 404.772 58.3586 406.404C58.3586 406.404 45.5 409.117 44.9402 411.633C44.9402 411.633 48.9861 414.879 50.4789 415.222C50.4789 415.222 56.2806 411.006 59.9617 412.294C59.9617 412.294 51.5646 415.025 51.6918 415.987C51.6918 415.987 58.0787 418.786 62.0567 418.477C62.0567 418.477 56.2127 419.335 51.3101 417.017C51.3101 417.017 52.5994 420.615 55.373 422.358C55.373 422.358 51.2338 422.487 49.7664 416.347C49.7664 416.347 44.8808 413.96 44.4652 413.161C44.4652 413.161 45.0589 419.456 47.3745 422.916C47.3745 422.916 42.9809 420.34 43.3202 412.191L39.0792 408.473C39.0792 408.473 39.427 416.845 41.2591 420.091C41.2591 420.091 37.1877 416.716 38.0698 407.451L34.4311 403.218C34.4311 403.218 34.1851 410.448 35.4574 414.501C35.4574 414.501 32.3445 410.551 33.4302 401.964L31.3182 398.847C31.3182 398.847 31.2419 404.128 31.3182 405.657C31.3945 407.185 31.0298 407.331 31.0298 407.331C29.915 404.185 29.6859 400.787 30.3682 397.516C30.3682 397.516 26.4241 390.81 26 391.016Z" fill="#00B8F2"/>
<path opacity="0.4" d="M249.147 50.9394C249.147 50.9394 229.445 43.136 227.295 57.8547C227.295 57.8547 226.028 60.1635 227.921 62.0233C227.921 62.0233 228.293 61 230.203 62.0176C230.886 62.3735 231.608 62.6485 232.354 62.8367C233.36 63.0964 234.421 63.0226 235.375 62.6266C235.375 62.6266 241.772 62.1724 246.919 53.729C246.919 53.729 249.19 52.2691 249.289 51.735L245.436 52.0554C245.436 52.0554 245.812 54.8562 244.247 56.5688C244.247 56.5688 245.543 52.1867 244.859 52.0779C244.719 52.0517 242.828 52.3359 242.828 52.3359C242.828 52.3359 243.455 57.2489 240.957 59.8203C240.957 59.8203 243.214 54.8142 242.108 52.4771L239.284 53.0478C239.284 53.0478 240.204 58.1721 237.474 61.211C237.474 61.211 239.643 55.8887 238.676 53.22L235.961 54.1967C235.961 54.1967 236.763 59.2085 234.473 61.7156C234.473 61.7156 236.354 55.3084 235.363 54.4523C235.363 54.4523 232.936 55.4815 232.423 56.0669C232.423 56.0669 232.913 59.6779 231.451 61.0151C231.451 61.0151 232.25 56.6002 231.789 56.4257C231.789 56.4257 228.999 58.6099 228.18 60.4644C228.18 60.4644 229.202 57.6426 231.42 56.0068C231.42 56.0068 229.5 55.7177 228.052 56.5393C228.052 56.5393 228.991 54.6561 232.091 55.4773C232.091 55.4773 234.336 53.8656 234.793 53.8718C234.793 53.8718 231.833 52.6225 229.728 52.8257C229.728 52.8257 231.938 51.4797 235.503 53.593L238.187 52.5902C238.187 52.5902 234.357 50.7306 232.464 50.7692C232.464 50.7692 234.954 49.7596 238.888 52.3845L241.658 51.7751C241.658 51.7751 238.482 49.9248 236.362 49.5185C236.362 49.5185 238.879 49.0763 242.46 51.629L244.363 51.4342C244.363 51.4342 242.018 50.1289 241.316 49.7952C240.613 49.4614 240.636 49.2631 240.636 49.2631C242.312 49.5216 243.888 50.237 245.187 51.3295C245.187 51.3295 249.138 51.1788 249.147 50.9394Z" fill="#00B8F2"/>
<path opacity="0.6" d="M3.16614 447.298C3.16614 447.298 1.09677 460.077 12.8893 460.688C12.8893 460.688 14.9256 461.368 15.9814 460.084C15.9814 460.084 15.1168 459.902 15.519 458.65C15.6567 458.203 15.724 457.735 15.7196 457.257C15.7181 456.611 15.4482 455.948 14.9512 455.368C14.9512 455.368 13.3167 451.369 5.76662 448.559C5.76662 448.559 4.18389 447.204 3.75184 447.169L4.77241 449.575C4.77241 449.575 6.85885 449.198 8.49488 450.096C8.49488 450.096 4.85217 449.501 4.90552 449.937C4.91336 450.026 5.51234 451.201 5.51234 451.201C5.51234 451.201 9.17871 450.559 11.6648 452C11.6648 452 7.34784 450.833 5.76583 451.646L6.77306 453.393C6.77306 453.393 10.5438 452.557 13.4372 454.12C13.4372 454.12 8.89374 453.024 7.02797 453.766L8.32668 455.424C8.32668 455.424 12.0343 454.668 14.429 455.981C14.429 455.981 9.10598 455.121 8.64407 455.787C8.64407 455.787 9.92543 457.261 10.4802 457.554C10.4802 457.554 13.1691 457.064 14.4948 457.916C14.4948 457.916 10.9266 457.636 10.8844 457.935C10.8844 457.935 13.1303 459.579 14.7261 460C14.7261 460 12.3428 459.499 10.6352 458.188C10.6352 458.188 10.7974 459.41 11.7221 460.278C11.7221 460.278 10.0801 459.783 10.0917 457.792C10.0917 457.792 8.39733 456.463 8.31035 456.175C8.31035 456.175 7.93993 458.098 8.51942 459.412C8.51942 459.412 7.03688 458.09 7.95267 455.743L6.63986 454.105C6.63986 454.105 5.97313 456.607 6.38288 457.795C6.38288 457.795 5.10388 456.281 6.34055 453.676L5.31428 451.965C5.31428 451.965 4.52342 454.055 4.63529 455.408C4.63529 455.408 3.78887 453.848 5.04057 451.468L4.50825 450.281C4.50825 450.281 3.97128 451.821 3.85462 452.279C3.73796 452.738 3.58036 452.734 3.58036 452.734C3.44346 451.667 3.67945 450.64 4.262 449.768C4.262 449.768 3.35289 447.292 3.16614 447.298Z" fill="#00B8F2"/>
<path opacity="0.1" d="M186.298 369.234C186.298 369.234 170.714 380.734 181.086 389.524C181.086 389.524 182.263 391.623 184.621 391.055C184.621 391.055 184.007 390.272 185.721 389.283C186.327 388.926 186.889 388.499 187.396 388.012C188.085 387.357 188.541 386.499 188.695 385.568C188.695 385.568 191.439 380.388 187.382 372.312C187.382 372.312 187.349 369.844 186.983 369.509L185.367 372.652C185.367 372.652 187.721 373.716 188.291 375.758C188.291 375.758 185.521 372.632 185.105 373.11C185.018 373.206 184.323 374.81 184.323 374.81C184.323 374.81 188.435 376.701 189.22 379.882C189.22 379.882 186.431 375.71 184.084 375.437L183.16 377.902C183.16 377.902 187.578 379.669 188.613 383.255C188.613 383.255 185.536 378.998 182.999 378.457L182.443 381.034C182.443 381.034 186.717 382.838 187.552 385.827C187.552 385.827 183.495 381.268 182.351 381.622C182.351 381.622 181.975 384.001 182.181 384.682C182.181 384.682 185.218 386.05 185.547 387.831C185.547 387.831 182.511 385.075 182.152 385.347C182.152 385.347 182.496 388.568 183.537 390.1C183.537 390.1 181.844 387.942 181.649 385.431C181.649 385.431 180.496 386.78 180.432 388.3C180.432 388.3 179.426 386.661 181.563 384.654C181.563 384.654 181.399 382.134 181.626 381.783C181.626 381.783 179.225 383.473 178.363 385.204C178.363 385.204 178.389 382.839 181.753 381.098L182.274 378.531C182.274 378.531 178.979 380.601 178.093 382.087C178.093 382.087 178.515 379.668 182.454 377.888L183.322 375.446C183.322 375.446 180.35 377.013 179.009 378.46C179.009 378.46 179.884 376.295 183.596 374.753L184.366 373.183C184.366 373.183 182.22 374.37 181.621 374.753C181.022 375.136 180.88 375.022 180.88 375.022C181.891 373.848 183.208 372.972 184.684 372.493C184.684 372.493 186.479 369.358 186.298 369.234Z" fill="#00B8F2"/>
<path opacity="0.24" d="M68.9606 0.644221C68.9606 0.644221 67.0955 27.4968 85.9573 24.5043C85.9573 24.5043 89.2787 25.1615 90.8172 22.1593C90.8172 22.1593 89.419 22.0976 89.9195 19.3951C90.0889 18.4321 90.1438 17.4524 90.0831 16.4765C90.0082 15.1576 89.5038 13.8993 88.6467 12.894C88.6467 12.894 85.5936 5.31131 73.2463 2.28488C73.2463 2.28488 70.5721 0.0865317 69.8796 0.169689L71.7758 4.71908C71.7758 4.71908 75.0585 3.19771 77.7665 4.4437C77.7665 4.4437 71.8946 4.53854 72.0285 5.40985C72.0509 5.58894 73.1372 7.77419 73.1372 7.77419C73.1372 7.77419 78.9083 5.14495 83.0318 7.1948C83.0318 7.1948 76.0212 6.3634 73.5912 8.59332L75.3921 11.7993C75.3921 11.7993 81.3076 8.735 86.094 10.8878C86.094 10.8878 78.7304 10.2828 75.8403 12.4707L78.0958 15.3906C78.0958 15.3906 83.9197 12.512 87.8833 14.3342C87.8833 14.3342 79.3038 14.4915 78.6424 16.0186C78.6424 16.0186 80.8496 18.5684 81.7666 18.9677C81.7666 18.9677 85.9968 16.9997 88.205 18.2639C88.205 18.2639 82.4872 18.9744 82.4534 19.5997C82.4534 19.5997 86.2168 22.151 88.8074 22.4385C88.8074 22.4385 84.9531 22.2726 82.0846 20.2066C82.0846 20.2066 82.4801 22.6445 84.0511 24.0869C84.0511 24.0869 81.3788 23.6654 81.1742 19.5943C81.1742 19.5943 78.3248 17.4868 78.1539 16.93C78.1539 16.93 77.7793 20.9929 78.8501 23.4685C78.8501 23.4685 76.3392 21.3011 77.5355 16.1756L75.2597 13.3026C75.2597 13.3026 74.4777 18.6532 75.2639 20.9339C75.2639 20.9339 73.0558 18.2993 74.7345 12.532L72.9072 9.40561C72.9072 9.40561 71.8812 13.9599 72.2111 16.6843C72.2111 16.6843 70.6873 13.8015 72.4153 8.48906L71.4339 6.256C71.4339 6.256 70.7508 9.59503 70.6163 10.5734C70.4818 11.5518 70.2301 11.6 70.2301 11.6C69.8924 9.46963 70.1533 7.28729 70.984 5.29664C70.984 5.29664 69.2576 0.56511 68.9606 0.644221Z" fill="#00B8F2"/>
<path opacity="0.5" d="M310.596 140.347C310.596 140.347 314.181 155.097 303.411 155.224C303.411 155.224 301.627 155.905 300.487 154.382C300.487 154.382 301.259 154.215 300.724 152.76C300.538 152.24 300.415 151.701 300.356 151.153C300.272 150.412 300.433 149.665 300.814 149.025C300.814 149.025 301.792 144.52 308.369 141.665C308.369 141.665 309.647 140.189 310.04 140.17L309.417 142.879C309.417 142.879 307.448 142.345 306.061 143.295C306.061 143.295 309.334 142.79 309.342 143.287C309.347 143.389 308.95 144.707 308.95 144.707C308.95 144.707 305.493 143.793 303.395 145.324C303.395 145.324 307.213 144.196 308.776 145.205L308.079 147.158C308.079 147.158 304.5 146.016 302.043 147.667C302.043 147.667 306.079 146.632 307.894 147.574L306.917 149.411C306.917 149.411 303.406 148.364 301.375 149.753C301.375 149.753 306.16 149.026 306.673 149.812C306.673 149.812 305.687 151.439 305.216 151.748C305.216 151.748 302.677 151.056 301.57 151.968C301.57 151.968 304.816 151.821 304.894 152.165C304.894 152.165 303.044 153.94 301.631 154.346C301.631 154.346 303.758 153.888 305.156 152.467C305.156 152.467 305.168 153.86 304.431 154.811C304.431 154.811 305.877 154.323 305.604 152.04C305.604 152.04 306.988 150.598 307.031 150.273C307.031 150.273 307.624 152.496 307.264 153.974C307.264 153.974 308.454 152.53 307.303 149.795L308.295 147.981C308.295 147.981 309.238 150.882 309.017 152.224C309.017 152.224 309.995 150.55 308.514 147.503L309.233 145.592C309.233 145.592 310.236 148.026 310.311 149.572C310.311 149.572 310.884 147.825 309.42 145.036L309.753 143.701C309.753 143.701 310.45 145.492 310.618 146.024C310.785 146.555 310.93 146.558 310.93 146.558C310.915 145.341 310.563 144.153 309.912 143.125C309.912 143.125 310.423 140.331 310.596 140.347Z" fill="#00B8F2"/>
<path opacity="0.23" d="M61.4364 351.104C61.4364 351.104 41.9231 340.547 37.7362 355.721C37.7362 355.721 36.1104 357.989 37.8384 360.167C37.8384 360.167 38.3616 359.139 40.2188 360.436C40.8836 360.892 41.6 361.267 42.353 361.554C43.3682 361.948 44.4844 361.999 45.5311 361.698C45.5311 361.698 52.2621 361.993 58.7438 353.76C58.7438 353.76 61.3053 352.503 61.4791 351.955L57.4187 351.827C57.4187 351.827 57.4408 354.809 55.5823 356.416C55.5823 356.416 57.5136 351.977 56.8142 351.781C56.6721 351.736 54.6619 351.806 54.6619 351.806C54.6619 351.806 54.6668 357.033 51.7224 359.429C51.7224 359.429 54.737 354.452 53.8925 351.868L50.8726 352.126C50.8726 352.126 51.1547 357.61 47.907 360.467C47.907 360.467 50.8721 355.148 50.216 352.233L47.2558 352.93C47.2558 352.93 47.4297 358.282 44.7107 360.634C44.7107 360.634 47.5185 354.143 46.5982 353.126C46.5982 353.126 43.9321 353.912 43.3198 354.464C43.3198 354.464 43.3539 358.31 41.6523 359.536C41.6523 359.536 43.069 355.003 42.6114 354.764C42.6114 354.764 39.4136 356.718 38.3143 358.564C38.3143 358.564 39.7533 355.728 42.2817 354.28C42.2817 354.28 40.3175 353.746 38.6994 354.433C38.6994 354.433 39.927 352.571 43.0517 353.806C43.0517 353.806 45.6047 352.387 46.0809 352.448C46.0809 352.448 43.1599 350.782 40.9372 350.741C40.9372 350.741 43.4198 349.596 46.8579 352.242L49.7897 351.514C49.7897 351.514 46.0415 349.102 44.062 348.914C44.062 348.914 46.792 348.156 50.5471 351.382L53.5162 351.077C53.5162 351.077 50.4487 348.754 48.2919 348.073C48.2919 348.073 50.9747 347.913 54.3717 351.021L56.382 351.046C56.382 351.046 54.1094 349.395 53.4212 348.96C52.7329 348.526 52.7825 348.32 52.7825 348.32C54.4963 348.793 56.0449 349.733 57.2553 351.036C57.2553 351.036 61.3945 351.354 61.4364 351.104Z" fill="#00B8F2"/>
<path opacity="0.7" d="M238.047 450.24C238.047 450.24 235.377 460.461 242.869 460.677C242.869 460.677 244.103 461.172 244.914 460.126C244.914 460.126 244.379 460.001 244.769 458.995C244.904 458.636 244.996 458.262 245.044 457.881C245.111 457.367 245.008 456.845 244.75 456.395C244.75 456.395 244.123 453.248 239.581 451.184C239.581 451.184 238.709 450.142 238.436 450.123L238.837 452.016C238.837 452.016 240.214 451.668 241.167 452.345C241.167 452.345 238.896 451.955 238.884 452.301C238.88 452.371 239.14 453.293 239.14 453.293C239.14 453.293 241.557 452.698 242.998 453.789C242.998 453.789 240.355 452.959 239.256 453.642L239.717 455.009C239.717 455.009 242.222 454.257 243.911 455.435C243.911 455.435 241.115 454.667 239.841 455.301L240.499 456.591C240.499 456.591 242.955 455.904 244.351 456.895C244.351 456.895 241.03 456.332 240.664 456.873C240.664 456.873 241.33 458.017 241.655 458.237C241.655 458.237 243.43 457.786 244.19 458.434C244.19 458.434 241.933 458.292 241.874 458.531C241.874 458.531 243.14 459.789 244.119 460.088C244.119 460.088 242.644 459.744 241.688 458.738C241.688 458.738 241.663 459.708 242.164 460.378C242.164 460.378 241.164 460.021 241.381 458.436C241.381 458.436 240.435 457.416 240.41 457.189C240.41 457.189 239.97 458.729 240.203 459.762C240.203 459.762 239.392 458.743 240.226 456.853L239.557 455.58C239.557 455.58 238.867 457.587 239.004 458.523C239.004 458.523 238.344 457.347 239.41 455.244L238.933 453.906C238.933 453.906 238.206 455.588 238.135 456.663C238.135 456.663 237.757 455.44 238.81 453.516L238.593 452.584C238.593 452.584 238.087 453.822 237.964 454.19C237.841 454.557 237.741 454.558 237.741 454.558C237.765 453.711 238.024 452.889 238.489 452.181C238.489 452.181 238.167 450.231 238.047 450.24Z" fill="#00B8F2"/>
<path opacity="0.2" d="M28.2306 63.0441C28.2306 63.0441 18.1069 66.065 21.8098 72.5822C21.8098 72.5822 22.0267 73.8933 23.3421 74.0442C23.3421 74.0442 23.1718 73.5219 24.2339 73.3329C24.6111 73.2622 24.9786 73.1471 25.3288 72.9901C25.8031 72.7806 26.1957 72.4216 26.4468 71.9679C26.4468 71.9679 28.8115 69.7996 28.2193 64.8452C28.2193 64.8452 28.6579 63.5592 28.5318 63.3162L27.1219 64.6408C27.1219 64.6408 28.134 65.637 28.05 66.804C28.05 66.804 27.2047 64.6596 26.903 64.829C26.8403 64.862 26.1873 65.5627 26.1873 65.5627C26.1873 65.5627 27.9499 67.3203 27.7659 69.1182C27.7659 69.1182 27.1037 66.4277 25.949 65.8426L25.0196 66.9468C25.0196 66.9468 26.962 68.6973 26.8316 70.7531C26.8316 70.7531 26.0376 67.9641 24.8348 67.2041L24.0733 68.4359C24.0733 68.4359 25.9348 70.1784 25.8123 71.8862C25.8123 71.8862 24.5704 68.7556 23.918 68.7234C23.918 68.7234 23.2858 69.8863 23.2656 70.2783C23.2656 70.2783 24.5726 71.561 24.4129 72.5468C24.4129 72.5468 23.3626 70.544 23.1282 70.6179C23.1282 70.6179 22.7103 72.3528 22.9621 73.3443C22.9621 73.3443 22.4911 71.9052 22.8543 70.5661C22.8543 70.5661 22.0132 71.0479 21.7 71.8242C21.7 71.8242 21.4861 70.7842 22.9536 70.1471C22.9536 70.1471 23.3347 68.8093 23.5157 68.6697C23.5157 68.6697 21.9712 69.0928 21.2094 69.8279C21.2094 69.8279 21.6592 68.6062 23.7075 68.3383L24.449 67.1056C24.449 67.1056 22.3752 67.5568 21.6457 68.1604C21.6457 68.1604 22.3089 66.9855 24.6597 66.8063L25.5562 65.7034C25.5562 65.7034 23.7412 65.955 22.7857 66.4523C22.7857 66.4523 23.6346 65.4945 25.825 65.3962L26.5101 64.7274C26.5101 64.7274 25.1889 64.9372 24.8109 65.0228C24.4329 65.1085 24.3804 65.0227 24.3804 65.0227C25.1165 64.6045 25.9544 64.3992 26.8005 64.4296C26.8005 64.4296 28.3006 63.1423 28.2306 63.0441Z" fill="#00B8F2"/>
</svg>
