<svg width="17" height="19" viewBox="0 0 17 19" fill="none" xmlns="http://www.w3.org/2000/svg">
<mask id="path-1-inside-1" fill="white">
<path fill-rule="evenodd" clip-rule="evenodd" d="M16.5483 19C16.5483 13.9225 12.8439 9.80645 8.27415 9.80645C3.70444 9.80645 -4.72437e-05 13.9225 -4.76876e-05 19L16.5483 19Z"/>
</mask>
<path d="M16.5483 19L16.5483 21L18.5483 21L18.5483 19L16.5483 19ZM-4.76876e-05 19L-2.00005 19L-2.00005 21L-4.78624e-05 21L-4.76876e-05 19ZM8.27415 11.8065C11.5463 11.8065 14.5483 14.8237 14.5483 19L18.5483 19C18.5483 13.0214 14.1414 7.80645 8.27415 7.80645L8.27415 11.8065ZM1.99995 19C1.99995 14.8237 5.002 11.8065 8.27415 11.8065L8.27415 7.80645C2.40687 7.80645 -2.00005 13.0214 -2.00005 19L1.99995 19ZM-4.78624e-05 21L16.5483 21L16.5483 17L-4.75127e-05 17L-4.78624e-05 21Z" fill="white" mask="url(#path-1-inside-1)"/>
<circle cx="8.27426" cy="4.59677" r="3.59677" stroke="white" stroke-width="2"/>
</svg>
