<svg width="270" height="45" viewBox="0 0 270 45" fill="none" xmlns="http://www.w3.org/2000/svg">
<path fill-rule="evenodd" clip-rule="evenodd" d="M0 0V43H25L20.0688 38.3333H4.93119V23L20.6422 8.00002L12.2706 0H0ZM4.93112 4.33376V16.2226L13.9907 8.00046L10.2064 4.33376H4.93112Z" fill="#145196"/>
<path fill-rule="evenodd" clip-rule="evenodd" d="M15 0.111399L19.449 4.45596H41.286V27.1814L37.9128 23.9508L22.6747 38.544L27.235 43H46V0H15V0.111399ZM29.3486 38.5443L37.8019 30.3007L41.25 33.5313V38.5443H29.3486Z" fill="#00B8F2"/>
<path d="M65.1398 21.9999C64.5598 21.9999 64.0998 21.8399 63.7598 21.5199C63.4398 21.1999 63.2798 20.7499 63.2798 20.1699V2.67992C63.2798 2.09992 63.4398 1.64992 63.7598 1.32992C64.0998 1.00992 64.5598 0.849922 65.1398 0.849922H75.9698C76.5498 0.849922 76.9998 0.979922 77.3198 1.23992C77.6398 1.49992 77.7998 1.86992 77.7998 2.34992C77.7998 2.84992 77.6398 3.23992 77.3198 3.51992C76.9998 3.77992 76.5498 3.90992 75.9698 3.90992H67.0598V9.72992H75.3698C75.9498 9.72992 76.3998 9.85992 76.7198 10.1199C77.0398 10.3799 77.1998 10.7599 77.1998 11.2599C77.1998 11.7399 77.0398 12.1099 76.7198 12.3699C76.3998 12.6299 75.9498 12.7599 75.3698 12.7599H67.0598V18.9399H75.9698C76.5498 18.9399 76.9998 19.0799 77.3198 19.3599C77.6398 19.6199 77.7998 19.9999 77.7998 20.4999C77.7998 20.9799 77.6398 21.3499 77.3198 21.6099C76.9998 21.8699 76.5498 21.9999 75.9698 21.9999H65.1398ZM93.336 19.2399C93.696 19.5999 93.876 20.0099 93.876 20.4699C93.876 20.9099 93.706 21.3099 93.366 21.6699C93.026 22.0099 92.626 22.1799 92.166 22.1799C91.666 22.1799 91.236 21.9699 90.876 21.5499L86.6458 16.8699L82.4158 21.5499C82.0358 21.9499 81.6058 22.1499 81.1258 22.1499C80.6858 22.1499 80.2958 21.9799 79.9558 21.6399C79.6158 21.2999 79.4458 20.9099 79.4458 20.4699C79.4458 20.0099 79.6258 19.5999 79.9858 19.2399L84.3658 14.4699L80.2258 9.96992C79.8658 9.60992 79.6858 9.19992 79.6858 8.73992C79.6858 8.27992 79.8558 7.88992 80.1958 7.56992C80.5358 7.22992 80.9258 7.05992 81.3658 7.05992C81.8458 7.05992 82.2758 7.25992 82.6558 7.65992L86.6458 12.0399L90.636 7.65992C91.016 7.25992 91.446 7.05992 91.926 7.05992C92.386 7.05992 92.776 7.22992 93.096 7.56992C93.436 7.88992 93.606 8.27992 93.606 8.73992C93.606 9.19992 93.426 9.60992 93.066 9.96992L88.926 14.4699L93.336 19.2399ZM102.8 22.2399C101.34 22.2399 100.05 21.9299 98.93 21.3099C97.83 20.6899 96.98 19.8099 96.38 18.6699C95.78 17.5299 95.48 16.1999 95.48 14.6799C95.48 13.1599 95.79 11.8199 96.41 10.6599C97.05 9.47992 97.94 8.56992 99.08 7.92992C100.22 7.28992 101.53 6.96992 103.01 6.96992C103.79 6.96992 104.57 7.07992 105.35 7.29992C106.15 7.51992 106.85 7.81992 107.45 8.19992C108.09 8.61992 108.41 9.14992 108.41 9.78992C108.41 10.2299 108.3 10.5899 108.08 10.8699C107.88 11.1299 107.61 11.2599 107.27 11.2599C107.05 11.2599 106.82 11.2099 106.58 11.1099C106.34 11.0099 106.1 10.8899 105.86 10.7499C105.42 10.4899 105 10.2899 104.6 10.1499C104.2 9.98992 103.74 9.90992 103.22 9.90992C101.98 9.90992 101.02 10.3199 100.34 11.1399C99.68 11.9399 99.35 13.0999 99.35 14.6199C99.35 16.1199 99.68 17.2799 100.34 18.0999C101.02 18.8999 101.98 19.2999 103.22 19.2999C103.72 19.2999 104.16 19.2299 104.54 19.0899C104.94 18.9299 105.38 18.7199 105.86 18.4599C106.16 18.2799 106.42 18.1499 106.64 18.0699C106.86 17.9699 107.08 17.9199 107.3 17.9199C107.62 17.9199 107.89 18.0599 108.11 18.3399C108.33 18.6199 108.44 18.9699 108.44 19.3899C108.44 19.7299 108.36 20.0299 108.2 20.2899C108.06 20.5299 107.82 20.7499 107.48 20.9499C106.86 21.3499 106.14 21.6699 105.32 21.9099C104.5 22.1299 103.66 22.2399 102.8 22.2399ZM122.548 17.9799C122.888 17.9799 123.158 18.1099 123.358 18.3699C123.578 18.6299 123.688 18.9799 123.688 19.4199C123.688 20.0399 123.318 20.5599 122.578 20.9799C121.898 21.3599 121.128 21.6699 120.268 21.9099C119.408 22.1299 118.588 22.2399 117.808 22.2399C115.448 22.2399 113.578 21.5599 112.198 20.1999C110.818 18.8399 110.128 16.9799 110.128 14.6199C110.128 13.1199 110.428 11.7899 111.028 10.6299C111.628 9.46992 112.468 8.56992 113.548 7.92992C114.648 7.28992 115.888 6.96992 117.268 6.96992C118.588 6.96992 119.738 7.25992 120.718 7.83992C121.698 8.41992 122.458 9.23992 122.998 10.2999C123.538 11.3599 123.808 12.6099 123.808 14.0499C123.808 14.9099 123.428 15.3399 122.668 15.3399H113.818C113.938 16.7199 114.328 17.7399 114.988 18.3999C115.648 19.0399 116.608 19.3599 117.868 19.3599C118.508 19.3599 119.068 19.2799 119.548 19.1199C120.048 18.9599 120.608 18.7399 121.228 18.4599C121.828 18.1399 122.268 17.9799 122.548 17.9799ZM117.358 9.60992C116.338 9.60992 115.518 9.92992 114.898 10.5699C114.298 11.2099 113.938 12.1299 113.818 13.3299H120.598C120.558 12.1099 120.258 11.1899 119.698 10.5699C119.138 9.92992 118.358 9.60992 117.358 9.60992ZM128.736 22.1799C128.196 22.1799 127.746 22.0299 127.386 21.7299C127.046 21.4099 126.876 20.9599 126.876 20.3799V2.46992C126.876 1.88992 127.046 1.44992 127.386 1.14992C127.746 0.849921 128.196 0.699922 128.736 0.699922C129.276 0.699922 129.726 0.849921 130.086 1.14992C130.446 1.44992 130.626 1.88992 130.626 2.46992V20.3799C130.626 20.9599 130.446 21.4099 130.086 21.7299C129.726 22.0299 129.276 22.1799 128.736 22.1799ZM162.137 19.6899C162.257 19.9499 162.317 20.2099 162.317 20.4699C162.317 20.9299 162.127 21.3199 161.747 21.6399C161.387 21.9599 160.967 22.1199 160.487 22.1199C160.167 22.1199 159.867 22.0399 159.587 21.8799C159.307 21.6999 159.087 21.4299 158.927 21.0699L157.127 17.0499H146.567L144.767 21.0699C144.607 21.4299 144.387 21.6999 144.107 21.8799C143.827 22.0399 143.517 22.1199 143.177 22.1199C142.717 22.1199 142.297 21.9599 141.917 21.6399C141.537 21.3199 141.347 20.9299 141.347 20.4699C141.347 20.2099 141.407 19.9499 141.527 19.6899L149.807 1.89992C149.987 1.49992 150.257 1.19992 150.617 0.999922C150.997 0.779922 151.397 0.669922 151.817 0.669922C152.237 0.669922 152.627 0.779922 152.987 0.999922C153.367 1.19992 153.647 1.49992 153.827 1.89992L162.137 19.6899ZM155.807 14.0499L151.847 5.13992L147.887 14.0499H155.807ZM171.413 22.2399C169.953 22.2399 168.663 21.9299 167.543 21.3099C166.443 20.6899 165.593 19.8099 164.993 18.6699C164.393 17.5299 164.093 16.1999 164.093 14.6799C164.093 13.1599 164.403 11.8199 165.023 10.6599C165.663 9.47992 166.553 8.56992 167.693 7.92992C168.833 7.28992 170.143 6.96992 171.623 6.96992C172.403 6.96992 173.183 7.07992 173.963 7.29992C174.763 7.51992 175.463 7.81992 176.063 8.19992C176.703 8.61992 177.023 9.14992 177.023 9.78992C177.023 10.2299 176.913 10.5899 176.693 10.8699C176.493 11.1299 176.223 11.2599 175.883 11.2599C175.663 11.2599 175.433 11.2099 175.193 11.1099C174.953 11.0099 174.713 10.8899 174.473 10.7499C174.033 10.4899 173.613 10.2899 173.213 10.1499C172.813 9.98992 172.353 9.90992 171.833 9.90992C170.593 9.90992 169.633 10.3199 168.953 11.1399C168.293 11.9399 167.963 13.0999 167.963 14.6199C167.963 16.1199 168.293 17.2799 168.953 18.0999C169.633 18.8999 170.593 19.2999 171.833 19.2999C172.333 19.2999 172.773 19.2299 173.153 19.0899C173.553 18.9299 173.993 18.7199 174.473 18.4599C174.773 18.2799 175.033 18.1499 175.253 18.0699C175.473 17.9699 175.693 17.9199 175.913 17.9199C176.233 17.9199 176.503 18.0599 176.723 18.3399C176.943 18.6199 177.053 18.9699 177.053 19.3899C177.053 19.7299 176.973 20.0299 176.813 20.2899C176.673 20.5299 176.433 20.7499 176.093 20.9499C175.473 21.3499 174.753 21.6699 173.933 21.9099C173.113 22.1299 172.273 22.2399 171.413 22.2399ZM185.911 6.96992C187.951 6.96992 189.461 7.47992 190.441 8.49992C191.441 9.49992 191.941 11.0299 191.941 13.0899V20.4099C191.941 20.9499 191.781 21.3799 191.461 21.6999C191.141 21.9999 190.701 22.1499 190.141 22.1499C189.621 22.1499 189.191 21.9899 188.851 21.6699C188.531 21.3499 188.371 20.9299 188.371 20.4099V19.7499C188.031 20.5299 187.491 21.1399 186.751 21.5799C186.031 22.0199 185.191 22.2399 184.231 22.2399C183.251 22.2399 182.361 22.0399 181.561 21.6399C180.761 21.2399 180.131 20.6899 179.671 19.9899C179.211 19.2899 178.981 18.5099 178.981 17.6499C178.981 16.5699 179.251 15.7199 179.791 15.0999C180.351 14.4799 181.251 14.0299 182.491 13.7499C183.731 13.4699 185.441 13.3299 187.621 13.3299H188.371V12.6399C188.371 11.6599 188.161 10.9499 187.741 10.5099C187.321 10.0499 186.641 9.81992 185.701 9.81992C185.121 9.81992 184.531 9.90992 183.931 10.0899C183.331 10.2499 182.621 10.4899 181.801 10.8099C181.281 11.0699 180.901 11.1999 180.661 11.1999C180.301 11.1999 180.001 11.0699 179.761 10.8099C179.541 10.5499 179.431 10.2099 179.431 9.78992C179.431 9.44992 179.511 9.15992 179.671 8.91992C179.851 8.65992 180.141 8.41992 180.541 8.19992C181.241 7.81992 182.071 7.51992 183.031 7.29992C184.011 7.07992 184.971 6.96992 185.911 6.96992ZM184.981 19.5399C185.981 19.5399 186.791 19.2099 187.411 18.5499C188.051 17.8699 188.371 16.9999 188.371 15.9399V15.3099H187.831C186.491 15.3099 185.451 15.3699 184.711 15.4899C183.971 15.6099 183.441 15.8199 183.121 16.1199C182.801 16.4199 182.641 16.8299 182.641 17.3499C182.641 17.9899 182.861 18.5199 183.301 18.9399C183.761 19.3399 184.321 19.5399 184.981 19.5399ZM207.993 0.699922C208.553 0.699922 209.013 0.859922 209.373 1.17992C209.733 1.49992 209.913 1.91992 209.913 2.43992V20.3799C209.913 20.9199 209.743 21.3499 209.403 21.6699C209.063 21.9899 208.613 22.1499 208.053 22.1499C207.493 22.1499 207.043 21.9899 206.703 21.6699C206.363 21.3499 206.193 20.9199 206.193 20.3799V19.6299C205.753 20.4499 205.113 21.0899 204.273 21.5499C203.453 22.0099 202.513 22.2399 201.453 22.2399C200.193 22.2399 199.063 21.9199 198.063 21.2799C197.083 20.6399 196.313 19.7399 195.753 18.5799C195.213 17.3999 194.943 16.0499 194.943 14.5299C194.943 13.0099 195.213 11.6799 195.753 10.5399C196.313 9.39992 197.083 8.51992 198.063 7.89992C199.043 7.27992 200.173 6.96992 201.453 6.96992C202.513 6.96992 203.453 7.18992 204.273 7.62992C205.093 8.06992 205.723 8.68992 206.163 9.48992V2.37992C206.163 1.87992 206.323 1.47992 206.643 1.17992C206.983 0.859922 207.433 0.699922 207.993 0.699922ZM202.443 19.3299C203.643 19.3299 204.563 18.9199 205.203 18.0999C205.863 17.2799 206.193 16.1099 206.193 14.5899C206.193 13.0699 205.863 11.9099 205.203 11.1099C204.563 10.2899 203.653 9.87992 202.473 9.87992C201.273 9.87992 200.343 10.2799 199.683 11.0799C199.023 11.8799 198.693 13.0299 198.693 14.5299C198.693 16.0499 199.023 17.2299 199.683 18.0699C200.343 18.9099 201.263 19.3299 202.443 19.3299ZM225.38 17.9799C225.72 17.9799 225.99 18.1099 226.19 18.3699C226.41 18.6299 226.52 18.9799 226.52 19.4199C226.52 20.0399 226.15 20.5599 225.41 20.9799C224.73 21.3599 223.96 21.6699 223.1 21.9099C222.24 22.1299 221.42 22.2399 220.64 22.2399C218.28 22.2399 216.41 21.5599 215.03 20.1999C213.65 18.8399 212.96 16.9799 212.96 14.6199C212.96 13.1199 213.26 11.7899 213.86 10.6299C214.46 9.46992 215.3 8.56992 216.38 7.92992C217.48 7.28992 218.72 6.96992 220.1 6.96992C221.42 6.96992 222.57 7.25992 223.55 7.83992C224.53 8.41992 225.29 9.23992 225.83 10.2999C226.37 11.3599 226.64 12.6099 226.64 14.0499C226.64 14.9099 226.26 15.3399 225.5 15.3399H216.65C216.77 16.7199 217.16 17.7399 217.82 18.3999C218.48 19.0399 219.44 19.3599 220.7 19.3599C221.34 19.3599 221.9 19.2799 222.38 19.1199C222.88 18.9599 223.44 18.7399 224.06 18.4599C224.66 18.1399 225.1 17.9799 225.38 17.9799ZM220.19 9.60992C219.17 9.60992 218.35 9.92992 217.73 10.5699C217.13 11.2099 216.77 12.1299 216.65 13.3299H223.43C223.39 12.1099 223.09 11.1899 222.53 10.5699C221.97 9.92992 221.19 9.60992 220.19 9.60992ZM247.138 6.96992C248.738 6.96992 249.958 7.44992 250.798 8.40992C251.658 9.34992 252.088 10.8799 252.088 12.9999V20.3799C252.088 20.9599 251.908 21.4099 251.548 21.7299C251.208 22.0299 250.758 22.1799 250.198 22.1799C249.658 22.1799 249.208 22.0299 248.848 21.7299C248.508 21.4099 248.338 20.9599 248.338 20.3799V12.9999C248.338 11.8999 248.138 11.1199 247.738 10.6599C247.358 10.1799 246.768 9.93992 245.968 9.93992C244.988 9.93992 244.208 10.2799 243.628 10.9599C243.048 11.6199 242.758 12.5299 242.758 13.6899V20.3799C242.758 20.9599 242.578 21.4099 242.218 21.7299C241.878 22.0299 241.438 22.1799 240.898 22.1799C240.358 22.1799 239.908 22.0299 239.548 21.7299C239.188 21.4099 239.008 20.9599 239.008 20.3799V12.9999C239.008 11.8999 238.808 11.1199 238.408 10.6599C238.028 10.1799 237.438 9.93992 236.638 9.93992C235.658 9.93992 234.878 10.2799 234.298 10.9599C233.738 11.6199 233.458 12.5299 233.458 13.6899V20.3799C233.458 20.9599 233.278 21.4099 232.918 21.7299C232.558 22.0299 232.108 22.1799 231.568 22.1799C231.028 22.1799 230.578 22.0299 230.218 21.7299C229.878 21.4099 229.708 20.9599 229.708 20.3799V8.76992C229.708 8.20992 229.888 7.77992 230.248 7.47992C230.608 7.17992 231.058 7.02992 231.598 7.02992C232.118 7.02992 232.538 7.17992 232.858 7.47992C233.198 7.75992 233.368 8.16992 233.368 8.70992V9.42992C233.828 8.62992 234.438 8.01992 235.198 7.59992C235.978 7.17992 236.868 6.96992 237.868 6.96992C240.068 6.96992 241.538 7.88992 242.278 9.72992C242.718 8.88992 243.368 8.21992 244.228 7.71992C245.088 7.21992 246.058 6.96992 247.138 6.96992ZM266.129 8.10992C266.289 7.74992 266.499 7.48992 266.759 7.32992C267.039 7.14992 267.339 7.05992 267.659 7.05992C268.119 7.05992 268.529 7.21992 268.889 7.53992C269.269 7.83992 269.459 8.21992 269.459 8.67992C269.459 8.89992 269.399 9.12992 269.279 9.36992L261.089 26.5299C260.749 27.2099 260.219 27.5499 259.499 27.5499C259.039 27.5499 258.629 27.3999 258.269 27.0999C257.929 26.8199 257.759 26.4599 257.759 26.0199C257.759 25.7999 257.819 25.5499 257.939 25.2699L259.979 20.9799L254.399 9.36992C254.299 9.16992 254.249 8.93992 254.249 8.67992C254.249 8.21992 254.439 7.82992 254.819 7.50992C255.219 7.18992 255.669 7.02992 256.169 7.02992C256.509 7.02992 256.819 7.11992 257.099 7.29992C257.379 7.45992 257.599 7.71992 257.759 8.07992L261.959 17.3499L266.129 8.10992Z" fill="white"/>
<path d="M69.9681 42L69.1761 35.652L66.8961 40.008L64.5681 35.64L63.7761 42H62.576L63.7041 33.6H64.6761L66.8841 37.764L69.0681 33.6H70.0521L71.1681 42H69.9681ZM73.7681 42.12C73.2241 42.12 72.7841 41.96 72.4481 41.64C72.1201 41.32 71.9561 40.912 71.9561 40.416C71.9561 39.672 72.3081 39.14 73.0121 38.82C73.7161 38.5 74.5361 38.332 75.4721 38.316C75.4721 37.788 75.3681 37.432 75.1601 37.248C74.9601 37.056 74.6361 36.96 74.1881 36.96C73.9401 36.96 73.6921 37 73.4441 37.08C73.1961 37.152 72.9281 37.288 72.6401 37.488L72.4841 36.612C72.7241 36.428 73.0201 36.28 73.3721 36.168C73.7241 36.056 74.0921 36 74.4761 36C74.9801 36 75.3801 36.088 75.6761 36.264C75.9801 36.44 76.2001 36.732 76.3361 37.14C76.4801 37.548 76.5521 38.108 76.5521 38.82V40.02C76.5521 40.34 76.5641 40.584 76.5881 40.752C76.6201 40.912 76.6841 41.036 76.7801 41.124C76.8761 41.212 77.0241 41.256 77.2241 41.256H77.3321L77.1641 42.12H77.0801C76.7441 42.12 76.4801 42.088 76.2881 42.024C76.0961 41.96 75.9481 41.868 75.8441 41.748C75.7481 41.628 75.6561 41.464 75.5681 41.256C75.0721 41.832 74.4721 42.12 73.7681 42.12ZM73.9721 41.256C74.2601 41.256 74.5361 41.184 74.8001 41.04C75.0721 40.896 75.2961 40.704 75.4721 40.464V39.06C74.6081 39.092 73.9881 39.208 73.6121 39.408C73.2441 39.6 73.0601 39.916 73.0601 40.356C73.0601 40.66 73.1401 40.888 73.3001 41.04C73.4681 41.184 73.6921 41.256 73.9721 41.256ZM81.0697 36C82.6697 36 83.4697 36.92 83.4697 38.76V42H82.3897V38.76C82.3897 38.128 82.2697 37.672 82.0297 37.392C81.7977 37.104 81.4057 36.96 80.8537 36.96C80.5017 36.96 80.1817 37.024 79.8937 37.152C79.6057 37.28 79.3897 37.472 79.2457 37.728V42H78.1657V36.12H79.0057L79.1257 36.744C79.4377 36.464 79.7497 36.272 80.0617 36.168C80.3817 36.056 80.7177 36 81.0697 36ZM87.6768 36C88.4211 36 88.9891 36.244 89.3811 36.732C89.7731 37.22 89.9691 37.884 89.9691 38.724V42H88.8891V38.856C88.8891 38.208 88.7691 37.732 88.5291 37.428C88.2971 37.116 87.9328 36.96 87.4368 36.96C87.1328 36.96 86.8528 37.032 86.5968 37.176C86.3408 37.312 86.1248 37.508 85.9488 37.764V42H84.8568V33H85.9488V36.684C86.1808 36.46 86.4328 36.292 86.7048 36.18C86.9848 36.06 87.3088 36 87.6768 36ZM92.7411 42.12C92.1971 42.12 91.7571 41.96 91.4211 41.64C91.0931 41.32 90.9291 40.912 90.9291 40.416C90.9291 39.672 91.2811 39.14 91.9851 38.82C92.6891 38.5 93.5091 38.332 94.4451 38.316C94.4451 37.788 94.3411 37.432 94.1331 37.248C93.9331 37.056 93.6091 36.96 93.1611 36.96C92.9131 36.96 92.6651 37 92.4171 37.08C92.1691 37.152 91.9011 37.288 91.6131 37.488L91.4571 36.612C91.6971 36.428 91.9931 36.28 92.3451 36.168C92.6971 36.056 93.0651 36 93.4491 36C93.9531 36 94.3531 36.088 94.6491 36.264C94.9531 36.44 95.1731 36.732 95.3091 37.14C95.4531 37.548 95.5251 38.108 95.5251 38.82V40.02C95.5251 40.34 95.5371 40.584 95.5611 40.752C95.5931 40.912 95.6571 41.036 95.7531 41.124C95.8491 41.212 95.9971 41.256 96.1971 41.256H96.3051L96.1371 42.12H96.0531C95.7171 42.12 95.4531 42.088 95.2611 42.024C95.0691 41.96 94.9211 41.868 94.8171 41.748C94.7211 41.628 94.6291 41.464 94.5411 41.256C94.0451 41.832 93.4451 42.12 92.7411 42.12ZM92.9451 41.256C93.2331 41.256 93.5091 41.184 93.7731 41.04C94.0451 40.896 94.2691 40.704 94.4451 40.464V39.06C93.5811 39.092 92.9611 39.208 92.5851 39.408C92.2171 39.6 92.0331 39.916 92.0331 40.356C92.0331 40.66 92.1131 40.888 92.2731 41.04C92.4411 41.184 92.6651 41.256 92.9451 41.256ZM98.8061 42.12C98.3421 42.12 97.9341 42.068 97.5821 41.964C97.2381 41.852 96.9741 41.732 96.7901 41.604L96.9221 40.56C97.0821 40.704 97.3261 40.84 97.6541 40.968C97.9901 41.096 98.3581 41.16 98.7581 41.16C99.1341 41.16 99.4221 41.096 99.6221 40.968C99.8301 40.84 99.9341 40.66 99.9341 40.428C99.9341 40.156 99.8221 39.952 99.5981 39.816C99.3741 39.672 99.0941 39.552 98.7581 39.456C98.3901 39.36 98.0781 39.26 97.8221 39.156C97.5741 39.044 97.3581 38.876 97.1741 38.652C96.9981 38.428 96.9101 38.132 96.9101 37.764C96.9101 37.26 97.0901 36.84 97.4501 36.504C97.8101 36.168 98.366 36 99.118 36C99.462 36 99.7541 36.036 99.9941 36.108C100.234 36.172 100.474 36.264 100.714 36.384L100.582 37.368C100.39 37.208 100.178 37.084 99.9461 36.996C99.7141 36.9 99.4461 36.852 99.1421 36.852C98.7901 36.852 98.5101 36.92 98.3021 37.056C98.1021 37.184 98.0021 37.38 98.0021 37.644C98.0021 37.82 98.0501 37.964 98.1461 38.076C98.2421 38.18 98.3781 38.268 98.5541 38.34C98.7301 38.412 99.0021 38.504 99.3701 38.616C99.8261 38.752 100.218 38.944 100.546 39.192C100.882 39.44 101.05 39.832 101.05 40.368C101.05 40.848 100.878 41.26 100.534 41.604C100.198 41.948 99.6221 42.12 98.8061 42.12ZM103.775 42.12C103.311 42.12 102.903 42.068 102.551 41.964C102.207 41.852 101.943 41.732 101.759 41.604L101.891 40.56C102.051 40.704 102.295 40.84 102.623 40.968C102.959 41.096 103.327 41.16 103.727 41.16C104.103 41.16 104.391 41.096 104.591 40.968C104.799 40.84 104.903 40.66 104.903 40.428C104.903 40.156 104.791 39.952 104.567 39.816C104.343 39.672 104.063 39.552 103.727 39.456C103.359 39.36 103.047 39.26 102.791 39.156C102.543 39.044 102.327 38.876 102.143 38.652C101.967 38.428 101.879 38.132 101.879 37.764C101.879 37.26 102.059 36.84 102.419 36.504C102.779 36.168 103.335 36 104.087 36C104.431 36 104.723 36.036 104.963 36.108C105.203 36.172 105.443 36.264 105.683 36.384L105.551 37.368C105.359 37.208 105.147 37.084 104.915 36.996C104.683 36.9 104.415 36.852 104.111 36.852C103.759 36.852 103.479 36.92 103.271 37.056C103.071 37.184 102.971 37.38 102.971 37.644C102.971 37.82 103.019 37.964 103.115 38.076C103.211 38.18 103.347 38.268 103.523 38.34C103.699 38.412 103.971 38.504 104.339 38.616C104.795 38.752 105.187 38.944 105.515 39.192C105.851 39.44 106.019 39.832 106.019 40.368C106.019 40.848 105.847 41.26 105.503 41.604C105.167 41.948 104.591 42.12 103.775 42.12ZM109.896 42.12C109.224 42.12 108.648 41.984 108.168 41.712C107.696 41.432 107.336 41.056 107.088 40.584C106.84 40.112 106.716 39.588 106.716 39.012C106.716 38.46 106.828 37.956 107.052 37.5C107.284 37.036 107.616 36.672 108.048 36.408C108.488 36.136 109.004 36 109.596 36C110.348 36 110.956 36.22 111.42 36.66C111.892 37.1 112.128 37.708 112.128 38.484C112.128 38.684 112.112 38.876 112.08 39.06H107.82C107.892 39.82 108.124 40.36 108.516 40.68C108.908 41 109.412 41.16 110.028 41.16C110.644 41.16 111.208 41.044 111.72 40.812L111.864 41.664C111.184 41.968 110.528 42.12 109.896 42.12ZM111.012 38.316C111.012 37.892 110.892 37.56 110.652 37.32C110.412 37.08 110.052 36.96 109.572 36.96C109.108 36.96 108.744 37.076 108.48 37.308C108.216 37.532 108.028 37.868 107.916 38.316H111.012ZM115.244 42.12C114.724 42.12 114.336 41.984 114.08 41.712C113.832 41.44 113.708 41.108 113.708 40.716V36.96H112.7L112.796 36.12H113.708V34.668L114.788 34.56V36.12H116.336V36.96H114.788V40.056C114.788 40.464 114.812 40.744 114.86 40.896C114.908 41.048 115.008 41.148 115.16 41.196C115.32 41.236 115.608 41.256 116.024 41.256H116.3L116.216 42.12H115.244ZM121.059 39.972C120.699 39.972 120.391 39.844 120.135 39.588C119.879 39.332 119.751 39.024 119.751 38.664C119.751 38.304 119.879 37.996 120.135 37.74C120.391 37.484 120.699 37.356 121.059 37.356C121.419 37.356 121.727 37.484 121.983 37.74C122.239 37.996 122.367 38.304 122.367 38.664C122.367 39.024 122.239 39.332 121.983 39.588C121.727 39.844 121.419 39.972 121.059 39.972ZM128.946 42.168C128.45 42.168 127.946 42.112 127.434 42C126.922 41.896 126.51 41.772 126.198 41.628L126.354 40.416C126.754 40.608 127.206 40.776 127.71 40.92C128.214 41.064 128.714 41.136 129.21 41.136C129.77 41.136 130.202 41.036 130.506 40.836C130.818 40.628 130.974 40.32 130.974 39.912C130.974 39.608 130.894 39.356 130.734 39.156C130.582 38.948 130.354 38.776 130.05 38.64C129.754 38.496 129.338 38.344 128.802 38.184C128.258 38.024 127.806 37.852 127.446 37.668C127.086 37.484 126.794 37.232 126.57 36.912C126.354 36.592 126.246 36.188 126.246 35.7C126.246 35.02 126.506 34.472 127.026 34.056C127.554 33.64 128.294 33.432 129.246 33.432C129.758 33.432 130.242 33.488 130.698 33.6C131.162 33.712 131.566 33.848 131.91 34.008L131.79 35.22C131.342 34.956 130.91 34.764 130.494 34.644C130.078 34.524 129.646 34.464 129.198 34.464C128.678 34.464 128.262 34.56 127.95 34.752C127.646 34.944 127.494 35.24 127.494 35.64C127.494 35.912 127.562 36.136 127.698 36.312C127.842 36.488 128.046 36.64 128.31 36.768C128.574 36.888 128.942 37.02 129.414 37.164C130.358 37.452 131.062 37.796 131.526 38.196C131.99 38.588 132.222 39.132 132.222 39.828C132.222 40.564 131.946 41.14 131.394 41.556C130.842 41.964 130.026 42.168 128.946 42.168ZM134.938 41.736L132.49 36.12H133.69L135.526 40.488L137.182 36.12H138.382L134.782 44.904H133.582L134.938 41.736ZM141.648 42.12C141.048 42.12 140.528 41.988 140.088 41.724C139.648 41.452 139.312 41.084 139.08 40.62C138.848 40.156 138.732 39.636 138.732 39.06C138.732 38.484 138.848 37.964 139.08 37.5C139.312 37.036 139.648 36.672 140.088 36.408C140.528 36.136 141.048 36 141.648 36C142.24 36 142.756 36.136 143.196 36.408C143.644 36.672 143.984 37.036 144.216 37.5C144.448 37.964 144.564 38.484 144.564 39.06C144.564 39.636 144.448 40.156 144.216 40.62C143.984 41.084 143.644 41.452 143.196 41.724C142.756 41.988 142.24 42.12 141.648 42.12ZM141.648 41.16C142.224 41.16 142.668 40.976 142.98 40.608C143.3 40.24 143.46 39.724 143.46 39.06C143.46 38.396 143.3 37.88 142.98 37.512C142.668 37.144 142.224 36.96 141.648 36.96C141.072 36.96 140.624 37.144 140.304 37.512C139.992 37.88 139.836 38.396 139.836 39.06C139.836 39.724 139.992 40.24 140.304 40.608C140.624 40.976 141.072 41.16 141.648 41.16ZM147.345 42.12C146.881 42.12 146.473 42.068 146.121 41.964C145.777 41.852 145.513 41.732 145.329 41.604L145.461 40.56C145.621 40.704 145.865 40.84 146.193 40.968C146.529 41.096 146.897 41.16 147.297 41.16C147.673 41.16 147.961 41.096 148.161 40.968C148.369 40.84 148.473 40.66 148.473 40.428C148.473 40.156 148.361 39.952 148.137 39.816C147.913 39.672 147.633 39.552 147.297 39.456C146.929 39.36 146.617 39.26 146.361 39.156C146.113 39.044 145.897 38.876 145.713 38.652C145.537 38.428 145.449 38.132 145.449 37.764C145.449 37.26 145.629 36.84 145.989 36.504C146.349 36.168 146.905 36 147.657 36C148.001 36 148.293 36.036 148.533 36.108C148.773 36.172 149.013 36.264 149.253 36.384L149.121 37.368C148.929 37.208 148.717 37.084 148.485 36.996C148.253 36.9 147.985 36.852 147.681 36.852C147.329 36.852 147.049 36.92 146.841 37.056C146.641 37.184 146.541 37.38 146.541 37.644C146.541 37.82 146.589 37.964 146.685 38.076C146.781 38.18 146.917 38.268 147.093 38.34C147.269 38.412 147.541 38.504 147.909 38.616C148.365 38.752 148.757 38.944 149.085 39.192C149.421 39.44 149.589 39.832 149.589 40.368C149.589 40.848 149.417 41.26 149.073 41.604C148.737 41.948 148.161 42.12 147.345 42.12ZM152.314 42.12C151.85 42.12 151.442 42.068 151.09 41.964C150.746 41.852 150.482 41.732 150.298 41.604L150.43 40.56C150.59 40.704 150.834 40.84 151.162 40.968C151.498 41.096 151.866 41.16 152.266 41.16C152.642 41.16 152.93 41.096 153.13 40.968C153.338 40.84 153.442 40.66 153.442 40.428C153.442 40.156 153.33 39.952 153.106 39.816C152.882 39.672 152.602 39.552 152.266 39.456C151.898 39.36 151.586 39.26 151.33 39.156C151.082 39.044 150.866 38.876 150.682 38.652C150.506 38.428 150.418 38.132 150.418 37.764C150.418 37.26 150.598 36.84 150.958 36.504C151.318 36.168 151.874 36 152.626 36C152.97 36 153.262 36.036 153.502 36.108C153.742 36.172 153.982 36.264 154.222 36.384L154.09 37.368C153.898 37.208 153.686 37.084 153.454 36.996C153.222 36.9 152.954 36.852 152.65 36.852C152.298 36.852 152.018 36.92 151.81 37.056C151.61 37.184 151.51 37.38 151.51 37.644C151.51 37.82 151.558 37.964 151.654 38.076C151.75 38.18 151.886 38.268 152.062 38.34C152.238 38.412 152.51 38.504 152.878 38.616C153.334 38.752 153.726 38.944 154.054 39.192C154.39 39.44 154.558 39.832 154.558 40.368C154.558 40.848 154.386 41.26 154.042 41.604C153.706 41.948 153.13 42.12 152.314 42.12ZM158.435 42.12C157.763 42.12 157.187 41.984 156.707 41.712C156.235 41.432 155.875 41.056 155.627 40.584C155.379 40.112 155.255 39.588 155.255 39.012C155.255 38.46 155.367 37.956 155.591 37.5C155.823 37.036 156.155 36.672 156.587 36.408C157.027 36.136 157.543 36 158.135 36C158.887 36 159.495 36.22 159.959 36.66C160.431 37.1 160.667 37.708 160.667 38.484C160.667 38.684 160.651 38.876 160.619 39.06H156.359C156.431 39.82 156.663 40.36 157.055 40.68C157.447 41 157.951 41.16 158.567 41.16C159.183 41.16 159.747 41.044 160.259 40.812L160.403 41.664C159.723 41.968 159.067 42.12 158.435 42.12ZM159.551 38.316C159.551 37.892 159.431 37.56 159.191 37.32C158.951 37.08 158.591 36.96 158.111 36.96C157.647 36.96 157.283 37.076 157.019 37.308C156.755 37.532 156.567 37.868 156.455 38.316H159.551ZM163.783 42.12C163.263 42.12 162.875 41.984 162.619 41.712C162.371 41.44 162.247 41.108 162.247 40.716V36.96H161.239L161.335 36.12H162.247V34.668L163.327 34.56V36.12H164.875V36.96H163.327V40.056C163.327 40.464 163.351 40.744 163.399 40.896C163.447 41.048 163.547 41.148 163.699 41.196C163.859 41.236 164.147 41.256 164.563 41.256H164.839L164.755 42.12H163.783ZM184.774 33H185.842V44.508H184.774V33ZM211.598 42.168C211.102 42.168 210.598 42.112 210.086 42C209.574 41.896 209.162 41.772 208.85 41.628L209.006 40.416C209.406 40.608 209.858 40.776 210.362 40.92C210.866 41.064 211.366 41.136 211.862 41.136C212.422 41.136 212.854 41.036 213.158 40.836C213.47 40.628 213.626 40.32 213.626 39.912C213.626 39.608 213.546 39.356 213.386 39.156C213.234 38.948 213.006 38.776 212.702 38.64C212.406 38.496 211.99 38.344 211.454 38.184C210.91 38.024 210.458 37.852 210.098 37.668C209.738 37.484 209.446 37.232 209.222 36.912C209.006 36.592 208.898 36.188 208.898 35.7C208.898 35.02 209.158 34.472 209.678 34.056C210.206 33.64 210.946 33.432 211.898 33.432C212.41 33.432 212.894 33.488 213.35 33.6C213.814 33.712 214.218 33.848 214.562 34.008L214.442 35.22C213.994 34.956 213.562 34.764 213.146 34.644C212.73 34.524 212.298 34.464 211.85 34.464C211.33 34.464 210.914 34.56 210.602 34.752C210.298 34.944 210.146 35.24 210.146 35.64C210.146 35.912 210.214 36.136 210.35 36.312C210.494 36.488 210.698 36.64 210.962 36.768C211.226 36.888 211.594 37.02 212.066 37.164C213.01 37.452 213.714 37.796 214.178 38.196C214.642 38.588 214.874 39.132 214.874 39.828C214.874 40.564 214.598 41.14 214.046 41.556C213.494 41.964 212.678 42.168 211.598 42.168ZM215.908 33.6H216.988V34.8H215.908V33.6ZM215.908 36.12H216.988V42H215.908V36.12ZM221.355 36C222.955 36 223.755 36.92 223.755 38.76V42H222.675V38.76C222.675 38.128 222.555 37.672 222.315 37.392C222.083 37.104 221.691 36.96 221.139 36.96C220.787 36.96 220.467 37.024 220.179 37.152C219.891 37.28 219.675 37.472 219.531 37.728V42H218.451V36.12H219.291L219.411 36.744C219.723 36.464 220.035 36.272 220.347 36.168C220.667 36.056 221.003 36 221.355 36ZM227.854 42.12C227.214 42.12 226.662 41.988 226.198 41.724C225.742 41.46 225.398 41.1 225.166 40.644C224.934 40.18 224.818 39.664 224.818 39.096C224.818 38.168 225.078 37.42 225.598 36.852C226.126 36.284 226.906 36 227.938 36C228.546 36 229.082 36.116 229.546 36.348L229.378 37.296C228.89 37.072 228.402 36.96 227.914 36.96C227.274 36.96 226.782 37.144 226.438 37.512C226.094 37.872 225.922 38.384 225.922 39.048C225.922 39.712 226.086 40.232 226.414 40.608C226.75 40.984 227.242 41.172 227.89 41.172C228.41 41.172 228.91 41.052 229.39 40.812L229.534 41.676C229.358 41.796 229.114 41.9 228.802 41.988C228.498 42.076 228.182 42.12 227.854 42.12ZM233.341 42.12C232.669 42.12 232.093 41.984 231.613 41.712C231.141 41.432 230.781 41.056 230.533 40.584C230.285 40.112 230.161 39.588 230.161 39.012C230.161 38.46 230.273 37.956 230.497 37.5C230.729 37.036 231.061 36.672 231.493 36.408C231.933 36.136 232.449 36 233.041 36C233.793 36 234.401 36.22 234.865 36.66C235.337 37.1 235.573 37.708 235.573 38.484C235.573 38.684 235.557 38.876 235.525 39.06H231.265C231.337 39.82 231.569 40.36 231.961 40.68C232.353 41 232.857 41.16 233.473 41.16C234.089 41.16 234.653 41.044 235.165 40.812L235.309 41.664C234.629 41.968 233.973 42.12 233.341 42.12ZM234.457 38.316C234.457 37.892 234.337 37.56 234.097 37.32C233.857 37.08 233.497 36.96 233.017 36.96C232.553 36.96 232.189 37.076 231.925 37.308C231.661 37.532 231.473 37.868 231.361 38.316H234.457ZM241.601 38.508C242.017 37.884 242.321 37.368 242.513 36.96C242.705 36.552 242.801 36.18 242.801 35.844C242.801 35.428 242.681 35.1 242.441 34.86C242.209 34.612 241.893 34.488 241.493 34.488C240.749 34.488 240.069 34.804 239.453 35.436L239.309 34.236C239.613 33.996 239.961 33.8 240.353 33.648C240.745 33.496 241.165 33.42 241.613 33.42C242.357 33.42 242.933 33.636 243.341 34.068C243.749 34.5 243.953 35.052 243.953 35.724C243.953 36.252 243.849 36.752 243.641 37.224C243.441 37.696 243.097 38.3 242.609 39.036L241.337 40.956H244.277V41.988H239.309L241.601 38.508ZM249.106 42.168C248.378 42.168 247.746 41.98 247.21 41.604C246.682 41.228 246.274 40.704 245.986 40.032C245.706 39.36 245.566 38.592 245.566 37.728C245.566 36.872 245.714 36.12 246.01 35.472C246.314 34.824 246.734 34.324 247.27 33.972C247.806 33.612 248.418 33.432 249.106 33.432C249.81 33.432 250.43 33.612 250.966 33.972C251.502 34.324 251.914 34.824 252.202 35.472C252.498 36.12 252.646 36.872 252.646 37.728C252.646 38.592 252.506 39.36 252.226 40.032C251.946 40.704 251.538 41.228 251.002 41.604C250.466 41.98 249.834 42.168 249.106 42.168ZM249.106 41.136C249.85 41.136 250.422 40.84 250.822 40.248C251.23 39.656 251.434 38.816 251.434 37.728C251.434 36.656 251.226 35.844 250.81 35.292C250.402 34.74 249.834 34.464 249.106 34.464C248.41 34.464 247.846 34.744 247.414 35.304C246.99 35.864 246.778 36.672 246.778 37.728C246.778 38.816 246.978 39.656 247.378 40.248C247.786 40.84 248.362 41.136 249.106 41.136ZM257.485 42.168C256.757 42.168 256.125 41.98 255.589 41.604C255.061 41.228 254.653 40.704 254.365 40.032C254.085 39.36 253.945 38.592 253.945 37.728C253.945 36.872 254.093 36.12 254.389 35.472C254.693 34.824 255.113 34.324 255.649 33.972C256.185 33.612 256.797 33.432 257.485 33.432C258.189 33.432 258.809 33.612 259.345 33.972C259.881 34.324 260.293 34.824 260.581 35.472C260.877 36.12 261.025 36.872 261.025 37.728C261.025 38.592 260.885 39.36 260.605 40.032C260.325 40.704 259.917 41.228 259.381 41.604C258.845 41.98 258.213 42.168 257.485 42.168ZM257.485 41.136C258.229 41.136 258.801 40.84 259.201 40.248C259.609 39.656 259.813 38.816 259.813 37.728C259.813 36.656 259.605 35.844 259.189 35.292C258.781 34.74 258.213 34.464 257.485 34.464C256.789 34.464 256.225 34.744 255.793 35.304C255.369 35.864 255.157 36.672 255.157 37.728C255.157 38.816 255.357 39.656 255.757 40.248C256.165 40.84 256.741 41.136 257.485 41.136ZM264.796 36.696C265.38 36.696 265.884 36.812 266.308 37.044C266.732 37.276 267.056 37.596 267.28 38.004C267.504 38.412 267.616 38.876 267.616 39.396C267.616 39.956 267.484 40.444 267.22 40.86C266.964 41.276 266.608 41.6 266.152 41.832C265.704 42.056 265.196 42.168 264.628 42.168C264.196 42.168 263.772 42.112 263.356 42C262.948 41.888 262.592 41.732 262.288 41.532L262.564 40.476C262.908 40.668 263.236 40.816 263.548 40.92C263.86 41.016 264.2 41.064 264.568 41.064C265.104 41.064 265.536 40.912 265.864 40.608C266.2 40.304 266.368 39.9 266.368 39.396C266.368 38.836 266.192 38.404 265.84 38.1C265.488 37.788 265.016 37.632 264.424 37.632C263.92 37.632 263.356 37.712 262.732 37.872L263.248 33.6H267.208L267.16 34.68H264.184L263.932 36.756C264.236 36.716 264.524 36.696 264.796 36.696Z" fill="white"/>
</svg>
