<svg width="448" height="90" viewBox="0 0 448 90" fill="none" xmlns="http://www.w3.org/2000/svg">
<path fill-rule="evenodd" clip-rule="evenodd" d="M0 12V86.0813H42.1595L33.8436 78.0415H8.31586V51.6249L34.8106 25.7826L20.6929 12H0ZM8.31576 19.4662V39.9487L23.5937 25.7832L17.2118 19.4662H8.31576Z" fill="#145196"/>
<path fill-rule="evenodd" clip-rule="evenodd" d="M24.7543 12.1914L32.49 19.657H70.458V58.7076L64.593 53.1563L38.0983 78.2329L46.0274 85.8899H78.6543V12H24.7543V12.1914ZM49.7023 78.2334L64.4001 64.068L70.3952 69.6193V78.2334H49.7023Z" fill="#00B8F2"/>
<path d="M106.9 50C105.933 50 105.167 49.7333 104.6 49.2C104.067 48.6667 103.8 47.9167 103.8 46.95V17.8C103.8 16.8333 104.067 16.0833 104.6 15.55C105.167 15.0167 105.933 14.75 106.9 14.75H124.95C125.917 14.75 126.667 14.9667 127.2 15.4C127.733 15.8333 128 16.45 128 17.25C128 18.0833 127.733 18.7333 127.2 19.2C126.667 19.6333 125.917 19.85 124.95 19.85H110.1V29.55H123.95C124.917 29.55 125.667 29.7667 126.2 30.2C126.733 30.6333 127 31.2667 127 32.1C127 32.9 126.733 33.5167 126.2 33.95C125.667 34.3833 124.917 34.6 123.95 34.6H110.1V44.9H124.95C125.917 44.9 126.667 45.1333 127.2 45.6C127.733 46.0333 128 46.6667 128 47.5C128 48.3 127.733 48.9167 127.2 49.35C126.667 49.7833 125.917 50 124.95 50H106.9ZM153.893 45.4C154.493 46 154.793 46.6833 154.793 47.45C154.793 48.1833 154.51 48.85 153.943 49.45C153.377 50.0167 152.71 50.3 151.943 50.3C151.11 50.3 150.393 49.95 149.793 49.25L142.743 41.45L135.693 49.25C135.06 49.9167 134.343 50.25 133.543 50.25C132.81 50.25 132.16 49.9667 131.593 49.4C131.027 48.8333 130.743 48.1833 130.743 47.45C130.743 46.6833 131.043 46 131.643 45.4L138.943 37.45L132.043 29.95C131.443 29.35 131.143 28.6667 131.143 27.9C131.143 27.1333 131.427 26.4833 131.993 25.95C132.56 25.3833 133.21 25.1 133.943 25.1C134.743 25.1 135.46 25.4333 136.093 26.1L142.743 33.4L149.393 26.1C150.027 25.4333 150.743 25.1 151.543 25.1C152.31 25.1 152.96 25.3833 153.493 25.95C154.06 26.4833 154.343 27.1333 154.343 27.9C154.343 28.6667 154.043 29.35 153.443 29.95L146.543 37.45L153.893 45.4ZM169.666 50.4C167.233 50.4 165.083 49.8833 163.216 48.85C161.383 47.8167 159.966 46.35 158.966 44.45C157.966 42.55 157.466 40.3333 157.466 37.8C157.466 35.2667 157.983 33.0333 159.016 31.1C160.083 29.1333 161.566 27.6167 163.466 26.55C165.366 25.4833 167.55 24.95 170.016 24.95C171.316 24.95 172.616 25.1333 173.916 25.5C175.25 25.8667 176.416 26.3667 177.416 27C178.483 27.7 179.016 28.5833 179.016 29.65C179.016 30.3833 178.833 30.9833 178.466 31.45C178.133 31.8833 177.683 32.1 177.116 32.1C176.75 32.1 176.366 32.0167 175.966 31.85C175.566 31.6833 175.166 31.4833 174.766 31.25C174.033 30.8167 173.333 30.4833 172.666 30.25C172 29.9833 171.233 29.85 170.366 29.85C168.3 29.85 166.7 30.5333 165.566 31.9C164.466 33.2333 163.916 35.1667 163.916 37.7C163.916 40.2 164.466 42.1333 165.566 43.5C166.7 44.8333 168.3 45.5 170.366 45.5C171.2 45.5 171.933 45.3833 172.566 45.15C173.233 44.8833 173.966 44.5333 174.766 44.1C175.266 43.8 175.7 43.5833 176.066 43.45C176.433 43.2833 176.8 43.2 177.166 43.2C177.7 43.2 178.15 43.4333 178.516 43.9C178.883 44.3667 179.066 44.95 179.066 45.65C179.066 46.2167 178.933 46.7167 178.666 47.15C178.433 47.55 178.033 47.9167 177.466 48.25C176.433 48.9167 175.233 49.45 173.866 49.85C172.5 50.2167 171.1 50.4 169.666 50.4ZM202.58 43.3C203.147 43.3 203.597 43.5167 203.93 43.95C204.297 44.3833 204.48 44.9667 204.48 45.7C204.48 46.7333 203.864 47.6 202.63 48.3C201.497 48.9333 200.214 49.45 198.78 49.85C197.347 50.2167 195.98 50.4 194.68 50.4C190.747 50.4 187.63 49.2667 185.33 47C183.03 44.7333 181.88 41.6333 181.88 37.7C181.88 35.2 182.38 32.9833 183.38 31.05C184.38 29.1167 185.78 27.6167 187.58 26.55C189.414 25.4833 191.48 24.95 193.78 24.95C195.98 24.95 197.897 25.4333 199.53 26.4C201.164 27.3667 202.43 28.7333 203.33 30.5C204.23 32.2667 204.68 34.35 204.68 36.75C204.68 38.1833 204.047 38.9 202.78 38.9H188.03C188.23 41.2 188.88 42.9 189.98 44C191.08 45.0667 192.68 45.6 194.78 45.6C195.847 45.6 196.78 45.4667 197.58 45.2C198.414 44.9333 199.347 44.5667 200.38 44.1C201.38 43.5667 202.114 43.3 202.58 43.3ZM193.93 29.35C192.23 29.35 190.864 29.8833 189.83 30.95C188.83 32.0167 188.23 33.55 188.03 35.55H199.33C199.264 33.5167 198.764 31.9833 197.83 30.95C196.897 29.8833 195.597 29.35 193.93 29.35ZM212.893 50.3C211.993 50.3 211.243 50.05 210.643 49.55C210.076 49.0167 209.793 48.2667 209.793 47.3V17.45C209.793 16.4833 210.076 15.75 210.643 15.25C211.243 14.75 211.993 14.5 212.893 14.5C213.793 14.5 214.543 14.75 215.143 15.25C215.743 15.75 216.043 16.4833 216.043 17.45V47.3C216.043 48.2667 215.743 49.0167 215.143 49.55C214.543 50.05 213.793 50.3 212.893 50.3ZM268.563 46.15C268.763 46.5833 268.863 47.0167 268.863 47.45C268.863 48.2167 268.546 48.8667 267.913 49.4C267.313 49.9333 266.613 50.2 265.813 50.2C265.279 50.2 264.779 50.0667 264.313 49.8C263.846 49.5 263.479 49.05 263.213 48.45L260.213 41.75H242.613L239.613 48.45C239.346 49.05 238.979 49.5 238.513 49.8C238.046 50.0667 237.529 50.2 236.963 50.2C236.196 50.2 235.496 49.9333 234.863 49.4C234.229 48.8667 233.913 48.2167 233.913 47.45C233.913 47.0167 234.013 46.5833 234.213 46.15L248.013 16.5C248.313 15.8333 248.763 15.3333 249.363 15C249.996 14.6333 250.663 14.45 251.363 14.45C252.063 14.45 252.713 14.6333 253.313 15C253.946 15.3333 254.413 15.8333 254.713 16.5L268.563 46.15ZM258.013 36.75L251.413 21.9L244.813 36.75H258.013ZM284.022 50.4C281.589 50.4 279.439 49.8833 277.572 48.85C275.739 47.8167 274.322 46.35 273.322 44.45C272.322 42.55 271.822 40.3333 271.822 37.8C271.822 35.2667 272.339 33.0333 273.372 31.1C274.439 29.1333 275.922 27.6167 277.822 26.55C279.722 25.4833 281.905 24.95 284.372 24.95C285.672 24.95 286.972 25.1333 288.272 25.5C289.605 25.8667 290.772 26.3667 291.772 27C292.839 27.7 293.372 28.5833 293.372 29.65C293.372 30.3833 293.189 30.9833 292.822 31.45C292.489 31.8833 292.039 32.1 291.472 32.1C291.105 32.1 290.722 32.0167 290.322 31.85C289.922 31.6833 289.522 31.4833 289.122 31.25C288.389 30.8167 287.689 30.4833 287.022 30.25C286.355 29.9833 285.589 29.85 284.722 29.85C282.655 29.85 281.055 30.5333 279.922 31.9C278.822 33.2333 278.272 35.1667 278.272 37.7C278.272 40.2 278.822 42.1333 279.922 43.5C281.055 44.8333 282.655 45.5 284.722 45.5C285.555 45.5 286.289 45.3833 286.922 45.15C287.589 44.8833 288.322 44.5333 289.122 44.1C289.622 43.8 290.055 43.5833 290.422 43.45C290.789 43.2833 291.155 43.2 291.522 43.2C292.055 43.2 292.505 43.4333 292.872 43.9C293.239 44.3667 293.422 44.95 293.422 45.65C293.422 46.2167 293.289 46.7167 293.022 47.15C292.789 47.55 292.389 47.9167 291.822 48.25C290.789 48.9167 289.589 49.45 288.222 49.85C286.855 50.2167 285.455 50.4 284.022 50.4ZM308.186 24.95C311.586 24.95 314.103 25.8 315.736 27.5C317.403 29.1667 318.236 31.7167 318.236 35.15V47.35C318.236 48.25 317.969 48.9667 317.436 49.5C316.903 50 316.169 50.25 315.236 50.25C314.369 50.25 313.653 49.9833 313.086 49.45C312.553 48.9167 312.286 48.2167 312.286 47.35V46.25C311.719 47.55 310.819 48.5667 309.586 49.3C308.386 50.0333 306.986 50.4 305.386 50.4C303.753 50.4 302.269 50.0667 300.936 49.4C299.603 48.7333 298.553 47.8167 297.786 46.65C297.019 45.4833 296.636 44.1833 296.636 42.75C296.636 40.95 297.086 39.5333 297.986 38.5C298.919 37.4667 300.419 36.7167 302.486 36.25C304.553 35.7833 307.403 35.55 311.036 35.55H312.286V34.4C312.286 32.7667 311.936 31.5833 311.236 30.85C310.536 30.0833 309.403 29.7 307.836 29.7C306.869 29.7 305.886 29.85 304.886 30.15C303.886 30.4167 302.703 30.8167 301.336 31.35C300.469 31.7833 299.836 32 299.436 32C298.836 32 298.336 31.7833 297.936 31.35C297.569 30.9167 297.386 30.35 297.386 29.65C297.386 29.0833 297.519 28.6 297.786 28.2C298.086 27.7667 298.569 27.3667 299.236 27C300.403 26.3667 301.786 25.8667 303.386 25.5C305.019 25.1333 306.619 24.95 308.186 24.95ZM306.636 45.9C308.303 45.9 309.653 45.35 310.686 44.25C311.753 43.1167 312.286 41.6667 312.286 39.9V38.85H311.386C309.153 38.85 307.419 38.95 306.186 39.15C304.953 39.35 304.069 39.7 303.536 40.2C303.003 40.7 302.736 41.3833 302.736 42.25C302.736 43.3167 303.103 44.2 303.836 44.9C304.603 45.5667 305.536 45.9 306.636 45.9ZM344.988 14.5C345.921 14.5 346.688 14.7667 347.288 15.3C347.888 15.8333 348.188 16.5333 348.188 17.4V47.3C348.188 48.2 347.905 48.9167 347.338 49.45C346.771 49.9833 346.021 50.25 345.088 50.25C344.155 50.25 343.405 49.9833 342.838 49.45C342.271 48.9167 341.988 48.2 341.988 47.3V46.05C341.255 47.4167 340.188 48.4833 338.788 49.25C337.421 50.0167 335.855 50.4 334.088 50.4C331.988 50.4 330.105 49.8667 328.438 48.8C326.805 47.7333 325.521 46.2333 324.588 44.3C323.688 42.3333 323.238 40.0833 323.238 37.55C323.238 35.0167 323.688 32.8 324.588 30.9C325.521 29 326.805 27.5333 328.438 26.5C330.071 25.4667 331.955 24.95 334.088 24.95C335.855 24.95 337.421 25.3167 338.788 26.05C340.155 26.7833 341.205 27.8167 341.938 29.15V17.3C341.938 16.4667 342.205 15.8 342.738 15.3C343.305 14.7667 344.055 14.5 344.988 14.5ZM335.738 45.55C337.738 45.55 339.271 44.8667 340.338 43.5C341.438 42.1333 341.988 40.1833 341.988 37.65C341.988 35.1167 341.438 33.1833 340.338 31.85C339.271 30.4833 337.755 29.8 335.788 29.8C333.788 29.8 332.238 30.4667 331.138 31.8C330.038 33.1333 329.488 35.05 329.488 37.55C329.488 40.0833 330.038 42.05 331.138 43.45C332.238 44.85 333.771 45.55 335.738 45.55ZM373.967 43.3C374.534 43.3 374.984 43.5167 375.317 43.95C375.684 44.3833 375.867 44.9667 375.867 45.7C375.867 46.7333 375.251 47.6 374.017 48.3C372.884 48.9333 371.601 49.45 370.167 49.85C368.734 50.2167 367.367 50.4 366.067 50.4C362.134 50.4 359.017 49.2667 356.717 47C354.417 44.7333 353.267 41.6333 353.267 37.7C353.267 35.2 353.767 32.9833 354.767 31.05C355.767 29.1167 357.167 27.6167 358.967 26.55C360.801 25.4833 362.867 24.95 365.167 24.95C367.367 24.95 369.284 25.4333 370.917 26.4C372.551 27.3667 373.817 28.7333 374.717 30.5C375.617 32.2667 376.067 34.35 376.067 36.75C376.067 38.1833 375.434 38.9 374.167 38.9H359.417C359.617 41.2 360.267 42.9 361.367 44C362.467 45.0667 364.067 45.6 366.167 45.6C367.234 45.6 368.167 45.4667 368.967 45.2C369.801 44.9333 370.734 44.5667 371.767 44.1C372.767 43.5667 373.501 43.3 373.967 43.3ZM365.317 29.35C363.617 29.35 362.251 29.8833 361.217 30.95C360.217 32.0167 359.617 33.55 359.417 35.55H370.717C370.651 33.5167 370.151 31.9833 369.217 30.95C368.284 29.8833 366.984 29.35 365.317 29.35ZM410.23 24.95C412.896 24.95 414.93 25.75 416.33 27.35C417.763 28.9167 418.48 31.4667 418.48 35V47.3C418.48 48.2667 418.18 49.0167 417.58 49.55C417.013 50.05 416.263 50.3 415.33 50.3C414.43 50.3 413.68 50.05 413.08 49.55C412.513 49.0167 412.23 48.2667 412.23 47.3V35C412.23 33.1667 411.896 31.8667 411.23 31.1C410.596 30.3 409.613 29.9 408.28 29.9C406.646 29.9 405.346 30.4667 404.38 31.6C403.413 32.7 402.93 34.2167 402.93 36.15V47.3C402.93 48.2667 402.63 49.0167 402.03 49.55C401.463 50.05 400.73 50.3 399.83 50.3C398.93 50.3 398.18 50.05 397.58 49.55C396.98 49.0167 396.68 48.2667 396.68 47.3V35C396.68 33.1667 396.346 31.8667 395.68 31.1C395.046 30.3 394.063 29.9 392.73 29.9C391.096 29.9 389.796 30.4667 388.83 31.6C387.896 32.7 387.43 34.2167 387.43 36.15V47.3C387.43 48.2667 387.13 49.0167 386.53 49.55C385.93 50.05 385.18 50.3 384.28 50.3C383.38 50.3 382.63 50.05 382.03 49.55C381.463 49.0167 381.18 48.2667 381.18 47.3V27.95C381.18 27.0167 381.48 26.3 382.08 25.8C382.68 25.3 383.43 25.05 384.33 25.05C385.196 25.05 385.896 25.3 386.43 25.8C386.996 26.2667 387.28 26.95 387.28 27.85V29.05C388.046 27.7167 389.063 26.7 390.33 26C391.63 25.3 393.113 24.95 394.78 24.95C398.446 24.95 400.896 26.4833 402.13 29.55C402.863 28.15 403.946 27.0333 405.38 26.2C406.813 25.3667 408.43 24.95 410.23 24.95ZM441.882 26.85C442.149 26.25 442.499 25.8167 442.932 25.55C443.399 25.25 443.899 25.1 444.432 25.1C445.199 25.1 445.882 25.3667 446.482 25.9C447.115 26.4 447.432 27.0333 447.432 27.8C447.432 28.1667 447.332 28.55 447.132 28.95L433.482 57.55C432.915 58.6833 432.032 59.25 430.832 59.25C430.065 59.25 429.382 59 428.782 58.5C428.215 58.0333 427.932 57.4333 427.932 56.7C427.932 56.3333 428.032 55.9167 428.232 55.45L431.632 48.3L422.332 28.95C422.165 28.6167 422.082 28.2333 422.082 27.8C422.082 27.0333 422.399 26.3833 423.032 25.85C423.699 25.3167 424.449 25.05 425.282 25.05C425.849 25.05 426.365 25.2 426.832 25.5C427.299 25.7667 427.665 26.2 427.932 26.8L434.932 42.25L441.882 26.85Z" fill="black"/>
<path d="M116.944 84L115.558 72.891L111.568 80.514L107.494 72.87L106.108 84H104.008L105.982 69.3H107.683L111.547 76.587L115.369 69.3H117.091L119.044 84H116.944ZM123.594 84.21C122.642 84.21 121.872 83.93 121.284 83.37C120.71 82.81 120.423 82.096 120.423 81.228C120.423 79.926 121.039 78.995 122.271 78.435C123.503 77.875 124.938 77.581 126.576 77.553C126.576 76.629 126.394 76.006 126.03 75.684C125.68 75.348 125.113 75.18 124.329 75.18C123.895 75.18 123.461 75.25 123.027 75.39C122.593 75.516 122.124 75.754 121.62 76.104L121.347 74.571C121.767 74.249 122.285 73.99 122.901 73.794C123.517 73.598 124.161 73.5 124.833 73.5C125.715 73.5 126.415 73.654 126.933 73.962C127.465 74.27 127.85 74.781 128.088 75.495C128.34 76.209 128.466 77.189 128.466 78.435V80.535C128.466 81.095 128.487 81.522 128.529 81.816C128.585 82.096 128.697 82.313 128.865 82.467C129.033 82.621 129.292 82.698 129.642 82.698H129.831L129.537 84.21H129.39C128.802 84.21 128.34 84.154 128.004 84.042C127.668 83.93 127.409 83.769 127.227 83.559C127.059 83.349 126.898 83.062 126.744 82.698C125.876 83.706 124.826 84.21 123.594 84.21ZM123.951 82.698C124.455 82.698 124.938 82.572 125.4 82.32C125.876 82.068 126.268 81.732 126.576 81.312V78.855C125.064 78.911 123.979 79.114 123.321 79.464C122.677 79.8 122.355 80.353 122.355 81.123C122.355 81.655 122.495 82.054 122.775 82.32C123.069 82.572 123.461 82.698 123.951 82.698ZM136.372 73.5C139.172 73.5 140.572 75.11 140.572 78.33V84H138.682V78.33C138.682 77.224 138.472 76.426 138.052 75.936C137.646 75.432 136.96 75.18 135.994 75.18C135.378 75.18 134.818 75.292 134.314 75.516C133.81 75.74 133.432 76.076 133.18 76.524V84H131.29V73.71H132.76L132.97 74.802C133.516 74.312 134.062 73.976 134.608 73.794C135.168 73.598 135.756 73.5 136.372 73.5ZM147.934 73.5C149.236 73.5 150.23 73.927 150.916 74.781C151.602 75.635 151.945 76.797 151.945 78.267V84H150.055V78.498C150.055 77.364 149.845 76.531 149.425 75.999C149.019 75.453 148.382 75.18 147.514 75.18C146.982 75.18 146.492 75.306 146.044 75.558C145.596 75.796 145.218 76.139 144.91 76.587V84H142.999V68.25H144.91V74.697C145.316 74.305 145.757 74.011 146.233 73.815C146.723 73.605 147.29 73.5 147.934 73.5ZM156.796 84.21C155.844 84.21 155.074 83.93 154.486 83.37C153.912 82.81 153.625 82.096 153.625 81.228C153.625 79.926 154.241 78.995 155.473 78.435C156.705 77.875 158.14 77.581 159.778 77.553C159.778 76.629 159.596 76.006 159.232 75.684C158.882 75.348 158.315 75.18 157.531 75.18C157.097 75.18 156.663 75.25 156.229 75.39C155.795 75.516 155.326 75.754 154.822 76.104L154.549 74.571C154.969 74.249 155.487 73.99 156.103 73.794C156.719 73.598 157.363 73.5 158.035 73.5C158.917 73.5 159.617 73.654 160.135 73.962C160.667 74.27 161.052 74.781 161.29 75.495C161.542 76.209 161.668 77.189 161.668 78.435V80.535C161.668 81.095 161.689 81.522 161.731 81.816C161.787 82.096 161.899 82.313 162.067 82.467C162.235 82.621 162.494 82.698 162.844 82.698H163.033L162.739 84.21H162.592C162.004 84.21 161.542 84.154 161.206 84.042C160.87 83.93 160.611 83.769 160.429 83.559C160.261 83.349 160.1 83.062 159.946 82.698C159.078 83.706 158.028 84.21 156.796 84.21ZM157.153 82.698C157.657 82.698 158.14 82.572 158.602 82.32C159.078 82.068 159.47 81.732 159.778 81.312V78.855C158.266 78.911 157.181 79.114 156.523 79.464C155.879 79.8 155.557 80.353 155.557 81.123C155.557 81.655 155.697 82.054 155.977 82.32C156.271 82.572 156.663 82.698 157.153 82.698ZM167.411 84.21C166.599 84.21 165.885 84.119 165.269 83.937C164.667 83.741 164.205 83.531 163.883 83.307L164.114 81.48C164.394 81.732 164.821 81.97 165.395 82.194C165.983 82.418 166.627 82.53 167.327 82.53C167.985 82.53 168.489 82.418 168.839 82.194C169.203 81.97 169.385 81.655 169.385 81.249C169.385 80.773 169.189 80.416 168.797 80.178C168.405 79.926 167.915 79.716 167.327 79.548C166.683 79.38 166.137 79.205 165.689 79.023C165.255 78.827 164.877 78.533 164.555 78.141C164.247 77.749 164.093 77.231 164.093 76.587C164.093 75.705 164.408 74.97 165.038 74.382C165.668 73.794 166.641 73.5 167.957 73.5C168.559 73.5 169.07 73.563 169.49 73.689C169.91 73.801 170.33 73.962 170.75 74.172L170.519 75.894C170.183 75.614 169.812 75.397 169.406 75.243C169 75.075 168.531 74.991 167.999 74.991C167.383 74.991 166.893 75.11 166.529 75.348C166.179 75.572 166.004 75.915 166.004 76.377C166.004 76.685 166.088 76.937 166.256 77.133C166.424 77.315 166.662 77.469 166.97 77.595C167.278 77.721 167.754 77.882 168.398 78.078C169.196 78.316 169.882 78.652 170.456 79.086C171.044 79.52 171.338 80.206 171.338 81.144C171.338 81.984 171.037 82.705 170.435 83.307C169.847 83.909 168.839 84.21 167.411 84.21ZM176.106 84.21C175.294 84.21 174.58 84.119 173.964 83.937C173.362 83.741 172.9 83.531 172.578 83.307L172.809 81.48C173.089 81.732 173.516 81.97 174.09 82.194C174.678 82.418 175.322 82.53 176.022 82.53C176.68 82.53 177.184 82.418 177.534 82.194C177.898 81.97 178.08 81.655 178.08 81.249C178.08 80.773 177.884 80.416 177.492 80.178C177.1 79.926 176.61 79.716 176.022 79.548C175.378 79.38 174.832 79.205 174.384 79.023C173.95 78.827 173.572 78.533 173.25 78.141C172.942 77.749 172.788 77.231 172.788 76.587C172.788 75.705 173.103 74.97 173.733 74.382C174.363 73.794 175.336 73.5 176.652 73.5C177.254 73.5 177.765 73.563 178.185 73.689C178.605 73.801 179.025 73.962 179.445 74.172L179.214 75.894C178.878 75.614 178.507 75.397 178.101 75.243C177.695 75.075 177.226 74.991 176.694 74.991C176.078 74.991 175.588 75.11 175.224 75.348C174.874 75.572 174.699 75.915 174.699 76.377C174.699 76.685 174.783 76.937 174.951 77.133C175.119 77.315 175.357 77.469 175.665 77.595C175.973 77.721 176.449 77.882 177.093 78.078C177.891 78.316 178.577 78.652 179.151 79.086C179.739 79.52 180.033 80.206 180.033 81.144C180.033 81.984 179.732 82.705 179.13 83.307C178.542 83.909 177.534 84.21 176.106 84.21ZM186.818 84.21C185.642 84.21 184.634 83.972 183.794 83.496C182.968 83.006 182.338 82.348 181.904 81.522C181.47 80.696 181.253 79.779 181.253 78.771C181.253 77.805 181.449 76.923 181.841 76.125C182.247 75.313 182.828 74.676 183.584 74.214C184.354 73.738 185.257 73.5 186.293 73.5C187.609 73.5 188.673 73.885 189.485 74.655C190.311 75.425 190.724 76.489 190.724 77.847C190.724 78.197 190.696 78.533 190.64 78.855H183.185C183.311 80.185 183.717 81.13 184.403 81.69C185.089 82.25 185.971 82.53 187.049 82.53C188.127 82.53 189.114 82.327 190.01 81.921L190.262 83.412C189.072 83.944 187.924 84.21 186.818 84.21ZM188.771 77.553C188.771 76.811 188.561 76.23 188.141 75.81C187.721 75.39 187.091 75.18 186.251 75.18C185.439 75.18 184.802 75.383 184.34 75.789C183.878 76.181 183.549 76.769 183.353 77.553H188.771ZM196.178 84.21C195.268 84.21 194.589 83.972 194.141 83.496C193.707 83.02 193.49 82.439 193.49 81.753V75.18H191.726L191.894 73.71H193.49V71.169L195.38 70.98V73.71H198.089V75.18H195.38V80.598C195.38 81.312 195.422 81.802 195.506 82.068C195.59 82.334 195.765 82.509 196.031 82.593C196.311 82.663 196.815 82.698 197.543 82.698H198.026L197.879 84.21H196.178ZM206.353 80.451C205.723 80.451 205.184 80.227 204.736 79.779C204.288 79.331 204.064 78.792 204.064 78.162C204.064 77.532 204.288 76.993 204.736 76.545C205.184 76.097 205.723 75.873 206.353 75.873C206.983 75.873 207.522 76.097 207.97 76.545C208.418 76.993 208.642 77.532 208.642 78.162C208.642 78.792 208.418 79.331 207.97 79.779C207.522 80.227 206.983 80.451 206.353 80.451ZM220.155 84.294C219.287 84.294 218.405 84.196 217.509 84C216.613 83.818 215.892 83.601 215.346 83.349L215.619 81.228C216.319 81.564 217.11 81.858 217.992 82.11C218.874 82.362 219.749 82.488 220.617 82.488C221.597 82.488 222.353 82.313 222.885 81.963C223.431 81.599 223.704 81.06 223.704 80.346C223.704 79.814 223.564 79.373 223.284 79.023C223.018 78.659 222.619 78.358 222.087 78.12C221.569 77.868 220.841 77.602 219.903 77.322C218.951 77.042 218.16 76.741 217.53 76.419C216.9 76.097 216.389 75.656 215.997 75.096C215.619 74.536 215.43 73.829 215.43 72.975C215.43 71.785 215.885 70.826 216.795 70.098C217.719 69.37 219.014 69.006 220.68 69.006C221.576 69.006 222.423 69.104 223.221 69.3C224.033 69.496 224.74 69.734 225.342 70.014L225.132 72.135C224.348 71.673 223.592 71.337 222.864 71.127C222.136 70.917 221.38 70.812 220.596 70.812C219.686 70.812 218.958 70.98 218.412 71.316C217.88 71.652 217.614 72.17 217.614 72.87C217.614 73.346 217.733 73.738 217.971 74.046C218.223 74.354 218.58 74.62 219.042 74.844C219.504 75.054 220.148 75.285 220.974 75.537C222.626 76.041 223.858 76.643 224.67 77.343C225.482 78.029 225.888 78.981 225.888 80.199C225.888 81.487 225.405 82.495 224.439 83.223C223.473 83.937 222.045 84.294 220.155 84.294ZM230.642 83.538L226.358 73.71H228.458L231.671 81.354L234.569 73.71H236.669L230.369 89.082H228.269L230.642 83.538ZM242.383 84.21C241.333 84.21 240.423 83.979 239.653 83.517C238.883 83.041 238.295 82.397 237.889 81.585C237.483 80.773 237.28 79.863 237.28 78.855C237.28 77.847 237.483 76.937 237.889 76.125C238.295 75.313 238.883 74.676 239.653 74.214C240.423 73.738 241.333 73.5 242.383 73.5C243.419 73.5 244.322 73.738 245.092 74.214C245.876 74.676 246.471 75.313 246.877 76.125C247.283 76.937 247.486 77.847 247.486 78.855C247.486 79.863 247.283 80.773 246.877 81.585C246.471 82.397 245.876 83.041 245.092 83.517C244.322 83.979 243.419 84.21 242.383 84.21ZM242.383 82.53C243.391 82.53 244.168 82.208 244.714 81.564C245.274 80.92 245.554 80.017 245.554 78.855C245.554 77.693 245.274 76.79 244.714 76.146C244.168 75.502 243.391 75.18 242.383 75.18C241.375 75.18 240.591 75.502 240.031 76.146C239.485 76.79 239.212 77.693 239.212 78.855C239.212 80.017 239.485 80.92 240.031 81.564C240.591 82.208 241.375 82.53 242.383 82.53ZM252.354 84.21C251.542 84.21 250.828 84.119 250.212 83.937C249.61 83.741 249.148 83.531 248.826 83.307L249.057 81.48C249.337 81.732 249.764 81.97 250.338 82.194C250.926 82.418 251.57 82.53 252.27 82.53C252.928 82.53 253.432 82.418 253.782 82.194C254.146 81.97 254.328 81.655 254.328 81.249C254.328 80.773 254.132 80.416 253.74 80.178C253.348 79.926 252.858 79.716 252.27 79.548C251.626 79.38 251.08 79.205 250.632 79.023C250.198 78.827 249.82 78.533 249.498 78.141C249.19 77.749 249.036 77.231 249.036 76.587C249.036 75.705 249.351 74.97 249.981 74.382C250.611 73.794 251.584 73.5 252.9 73.5C253.502 73.5 254.013 73.563 254.433 73.689C254.853 73.801 255.273 73.962 255.693 74.172L255.462 75.894C255.126 75.614 254.755 75.397 254.349 75.243C253.943 75.075 253.474 74.991 252.942 74.991C252.326 74.991 251.836 75.11 251.472 75.348C251.122 75.572 250.947 75.915 250.947 76.377C250.947 76.685 251.031 76.937 251.199 77.133C251.367 77.315 251.605 77.469 251.913 77.595C252.221 77.721 252.697 77.882 253.341 78.078C254.139 78.316 254.825 78.652 255.399 79.086C255.987 79.52 256.281 80.206 256.281 81.144C256.281 81.984 255.98 82.705 255.378 83.307C254.79 83.909 253.782 84.21 252.354 84.21ZM261.05 84.21C260.238 84.21 259.524 84.119 258.908 83.937C258.306 83.741 257.844 83.531 257.522 83.307L257.753 81.48C258.033 81.732 258.46 81.97 259.034 82.194C259.622 82.418 260.266 82.53 260.966 82.53C261.624 82.53 262.128 82.418 262.478 82.194C262.842 81.97 263.024 81.655 263.024 81.249C263.024 80.773 262.828 80.416 262.436 80.178C262.044 79.926 261.554 79.716 260.966 79.548C260.322 79.38 259.776 79.205 259.328 79.023C258.894 78.827 258.516 78.533 258.194 78.141C257.886 77.749 257.732 77.231 257.732 76.587C257.732 75.705 258.047 74.97 258.677 74.382C259.307 73.794 260.28 73.5 261.596 73.5C262.198 73.5 262.709 73.563 263.129 73.689C263.549 73.801 263.969 73.962 264.389 74.172L264.158 75.894C263.822 75.614 263.451 75.397 263.045 75.243C262.639 75.075 262.17 74.991 261.638 74.991C261.022 74.991 260.532 75.11 260.168 75.348C259.818 75.572 259.643 75.915 259.643 76.377C259.643 76.685 259.727 76.937 259.895 77.133C260.063 77.315 260.301 77.469 260.609 77.595C260.917 77.721 261.393 77.882 262.037 78.078C262.835 78.316 263.521 78.652 264.095 79.086C264.683 79.52 264.977 80.206 264.977 81.144C264.977 81.984 264.676 82.705 264.074 83.307C263.486 83.909 262.478 84.21 261.05 84.21ZM271.761 84.21C270.585 84.21 269.577 83.972 268.737 83.496C267.911 83.006 267.281 82.348 266.847 81.522C266.413 80.696 266.196 79.779 266.196 78.771C266.196 77.805 266.392 76.923 266.784 76.125C267.19 75.313 267.771 74.676 268.527 74.214C269.297 73.738 270.2 73.5 271.236 73.5C272.552 73.5 273.616 73.885 274.428 74.655C275.254 75.425 275.667 76.489 275.667 77.847C275.667 78.197 275.639 78.533 275.583 78.855H268.128C268.254 80.185 268.66 81.13 269.346 81.69C270.032 82.25 270.914 82.53 271.992 82.53C273.07 82.53 274.057 82.327 274.953 81.921L275.205 83.412C274.015 83.944 272.867 84.21 271.761 84.21ZM273.714 77.553C273.714 76.811 273.504 76.23 273.084 75.81C272.664 75.39 272.034 75.18 271.194 75.18C270.382 75.18 269.745 75.383 269.283 75.789C268.821 76.181 268.492 76.769 268.296 77.553H273.714ZM281.121 84.21C280.211 84.21 279.532 83.972 279.084 83.496C278.65 83.02 278.433 82.439 278.433 81.753V75.18H276.669L276.837 73.71H278.433V71.169L280.323 70.98V73.71H283.032V75.18H280.323V80.598C280.323 81.312 280.365 81.802 280.449 82.068C280.533 82.334 280.708 82.509 280.974 82.593C281.254 82.663 281.758 82.698 282.486 82.698H282.969L282.822 84.21H281.121ZM308.42 68.25H310.289V88.389H308.42V68.25ZM341.213 84.294C340.345 84.294 339.463 84.196 338.567 84C337.671 83.818 336.95 83.601 336.404 83.349L336.677 81.228C337.377 81.564 338.168 81.858 339.05 82.11C339.932 82.362 340.807 82.488 341.675 82.488C342.655 82.488 343.411 82.313 343.943 81.963C344.489 81.599 344.762 81.06 344.762 80.346C344.762 79.814 344.622 79.373 344.342 79.023C344.076 78.659 343.677 78.358 343.145 78.12C342.627 77.868 341.899 77.602 340.961 77.322C340.009 77.042 339.218 76.741 338.588 76.419C337.958 76.097 337.447 75.656 337.055 75.096C336.677 74.536 336.488 73.829 336.488 72.975C336.488 71.785 336.943 70.826 337.853 70.098C338.777 69.37 340.072 69.006 341.738 69.006C342.634 69.006 343.481 69.104 344.279 69.3C345.091 69.496 345.798 69.734 346.4 70.014L346.19 72.135C345.406 71.673 344.65 71.337 343.922 71.127C343.194 70.917 342.438 70.812 341.654 70.812C340.744 70.812 340.016 70.98 339.47 71.316C338.938 71.652 338.672 72.17 338.672 72.87C338.672 73.346 338.791 73.738 339.029 74.046C339.281 74.354 339.638 74.62 340.1 74.844C340.562 75.054 341.206 75.285 342.032 75.537C343.684 76.041 344.916 76.643 345.728 77.343C346.54 78.029 346.946 78.981 346.946 80.199C346.946 81.487 346.463 82.495 345.497 83.223C344.531 83.937 343.103 84.294 341.213 84.294ZM348.755 69.3H350.645V71.4H348.755V69.3ZM348.755 73.71H350.645V84H348.755V73.71ZM358.287 73.5C361.087 73.5 362.487 75.11 362.487 78.33V84H360.597V78.33C360.597 77.224 360.387 76.426 359.967 75.936C359.561 75.432 358.875 75.18 357.909 75.18C357.293 75.18 356.733 75.292 356.229 75.516C355.725 75.74 355.347 76.076 355.095 76.524V84H353.205V73.71H354.675L354.885 74.802C355.431 74.312 355.977 73.976 356.523 73.794C357.083 73.598 357.671 73.5 358.287 73.5ZM369.66 84.21C368.54 84.21 367.574 83.979 366.762 83.517C365.964 83.055 365.362 82.425 364.956 81.627C364.55 80.815 364.347 79.912 364.347 78.918C364.347 77.294 364.802 75.985 365.712 74.991C366.636 73.997 368.001 73.5 369.807 73.5C370.871 73.5 371.809 73.703 372.621 74.109L372.327 75.768C371.473 75.376 370.619 75.18 369.765 75.18C368.645 75.18 367.784 75.502 367.182 76.146C366.58 76.776 366.279 77.672 366.279 78.834C366.279 79.996 366.566 80.906 367.14 81.564C367.728 82.222 368.589 82.551 369.723 82.551C370.633 82.551 371.508 82.341 372.348 81.921L372.6 83.433C372.292 83.643 371.865 83.825 371.319 83.979C370.787 84.133 370.234 84.21 369.66 84.21ZM379.263 84.21C378.087 84.21 377.079 83.972 376.239 83.496C375.413 83.006 374.783 82.348 374.349 81.522C373.915 80.696 373.698 79.779 373.698 78.771C373.698 77.805 373.894 76.923 374.286 76.125C374.692 75.313 375.273 74.676 376.029 74.214C376.799 73.738 377.702 73.5 378.738 73.5C380.054 73.5 381.118 73.885 381.93 74.655C382.756 75.425 383.169 76.489 383.169 77.847C383.169 78.197 383.141 78.533 383.085 78.855H375.63C375.756 80.185 376.162 81.13 376.848 81.69C377.534 82.25 378.416 82.53 379.494 82.53C380.572 82.53 381.559 82.327 382.455 81.921L382.707 83.412C381.517 83.944 380.369 84.21 379.263 84.21ZM381.216 77.553C381.216 76.811 381.006 76.23 380.586 75.81C380.166 75.39 379.536 75.18 378.696 75.18C377.884 75.18 377.247 75.383 376.785 75.789C376.323 76.181 375.994 76.769 375.798 77.553H381.216ZM393.718 77.889C394.446 76.797 394.978 75.894 395.314 75.18C395.65 74.466 395.818 73.815 395.818 73.227C395.818 72.499 395.608 71.925 395.188 71.505C394.782 71.071 394.229 70.854 393.529 70.854C392.227 70.854 391.037 71.407 389.959 72.513L389.707 70.413C390.239 69.993 390.848 69.65 391.534 69.384C392.22 69.118 392.955 68.985 393.739 68.985C395.041 68.985 396.049 69.363 396.763 70.119C397.477 70.875 397.834 71.841 397.834 73.017C397.834 73.941 397.652 74.816 397.288 75.642C396.938 76.468 396.336 77.525 395.482 78.813L393.256 82.173H398.401V83.979H389.707L393.718 77.889ZM406.851 84.294C405.577 84.294 404.471 83.965 403.533 83.307C402.609 82.649 401.895 81.732 401.391 80.556C400.901 79.38 400.656 78.036 400.656 76.524C400.656 75.026 400.915 73.71 401.433 72.576C401.965 71.442 402.7 70.567 403.638 69.951C404.576 69.321 405.647 69.006 406.851 69.006C408.083 69.006 409.168 69.321 410.106 69.951C411.044 70.567 411.765 71.442 412.269 72.576C412.787 73.71 413.046 75.026 413.046 76.524C413.046 78.036 412.801 79.38 412.311 80.556C411.821 81.732 411.107 82.649 410.169 83.307C409.231 83.965 408.125 84.294 406.851 84.294ZM406.851 82.488C408.153 82.488 409.154 81.97 409.854 80.934C410.568 79.898 410.925 78.428 410.925 76.524C410.925 74.648 410.561 73.227 409.833 72.261C409.119 71.295 408.125 70.812 406.851 70.812C405.633 70.812 404.646 71.302 403.89 72.282C403.148 73.262 402.777 74.676 402.777 76.524C402.777 78.428 403.127 79.898 403.827 80.934C404.541 81.97 405.549 82.488 406.851 82.488ZM421.515 84.294C420.241 84.294 419.135 83.965 418.197 83.307C417.273 82.649 416.559 81.732 416.055 80.556C415.565 79.38 415.32 78.036 415.32 76.524C415.32 75.026 415.579 73.71 416.097 72.576C416.629 71.442 417.364 70.567 418.302 69.951C419.24 69.321 420.311 69.006 421.515 69.006C422.747 69.006 423.832 69.321 424.77 69.951C425.708 70.567 426.429 71.442 426.933 72.576C427.451 73.71 427.71 75.026 427.71 76.524C427.71 78.036 427.465 79.38 426.975 80.556C426.485 81.732 425.771 82.649 424.833 83.307C423.895 83.965 422.789 84.294 421.515 84.294ZM421.515 82.488C422.817 82.488 423.818 81.97 424.518 80.934C425.232 79.898 425.589 78.428 425.589 76.524C425.589 74.648 425.225 73.227 424.497 72.261C423.783 71.295 422.789 70.812 421.515 70.812C420.297 70.812 419.31 71.302 418.554 72.282C417.812 73.262 417.441 74.676 417.441 76.524C417.441 78.428 417.791 79.898 418.491 80.934C419.205 81.97 420.213 82.488 421.515 82.488ZM434.309 74.718C435.331 74.718 436.213 74.921 436.955 75.327C437.697 75.733 438.264 76.293 438.656 77.007C439.048 77.721 439.244 78.533 439.244 79.443C439.244 80.423 439.013 81.277 438.551 82.005C438.103 82.733 437.48 83.3 436.682 83.706C435.898 84.098 435.009 84.294 434.015 84.294C433.259 84.294 432.517 84.196 431.789 84C431.075 83.804 430.452 83.531 429.92 83.181L430.403 81.333C431.005 81.669 431.579 81.928 432.125 82.11C432.671 82.278 433.266 82.362 433.91 82.362C434.848 82.362 435.604 82.096 436.178 81.564C436.766 81.032 437.06 80.325 437.06 79.443C437.06 78.463 436.752 77.707 436.136 77.175C435.52 76.629 434.694 76.356 433.658 76.356C432.776 76.356 431.789 76.496 430.697 76.776L431.6 69.3H438.53L438.446 71.19H433.238L432.797 74.823C433.329 74.753 433.833 74.718 434.309 74.718Z" fill="black"/>
</svg>
