<svg width="282" height="59" viewBox="0 0 282 59" fill="none" xmlns="http://www.w3.org/2000/svg">
<path fill-rule="evenodd" clip-rule="evenodd" d="M0 0V58.5116H33.2988L26.7307 52.1615H6.56811V31.2969L27.4944 10.8859L16.3439 0H0ZM6.56801 5.8971V22.0747L18.635 10.8865L13.5944 5.8971H6.56801Z" fill="#145196"/>
<path fill-rule="evenodd" clip-rule="evenodd" d="M19.5518 0.151193L25.6616 6.04771H55.6499V36.8911L51.0176 32.5065L30.0913 52.3127L36.3539 58.3604H62.1236V0H19.5518V0.151193ZM39.2565 52.313L50.8653 41.1247L55.6005 45.5093V52.313H39.2565Z" fill="#00B8F2"/>
<path d="M77.1398 30C76.5598 30 76.0998 29.84 75.7598 29.52C75.4398 29.2 75.2798 28.75 75.2798 28.17V10.68C75.2798 10.1 75.4398 9.65 75.7598 9.33C76.0998 9.01 76.5598 8.85 77.1398 8.85H87.9698C88.5498 8.85 88.9998 8.98 89.3198 9.24C89.6398 9.5 89.7998 9.87 89.7998 10.35C89.7998 10.85 89.6398 11.24 89.3198 11.52C88.9998 11.78 88.5498 11.91 87.9698 11.91H79.0598V17.73H87.3698C87.9498 17.73 88.3998 17.86 88.7198 18.12C89.0398 18.38 89.1998 18.76 89.1998 19.26C89.1998 19.74 89.0398 20.11 88.7198 20.37C88.3998 20.63 87.9498 20.76 87.3698 20.76H79.0598V26.94H87.9698C88.5498 26.94 88.9998 27.08 89.3198 27.36C89.6398 27.62 89.7998 28 89.7998 28.5C89.7998 28.98 89.6398 29.35 89.3198 29.61C88.9998 29.87 88.5498 30 87.9698 30H77.1398ZM105.336 27.24C105.696 27.6 105.876 28.01 105.876 28.47C105.876 28.91 105.706 29.31 105.366 29.67C105.026 30.01 104.626 30.18 104.166 30.18C103.666 30.18 103.236 29.97 102.876 29.55L98.6458 24.87L94.4158 29.55C94.0358 29.95 93.6058 30.15 93.1258 30.15C92.6858 30.15 92.2958 29.98 91.9558 29.64C91.6158 29.3 91.4458 28.91 91.4458 28.47C91.4458 28.01 91.6258 27.6 91.9858 27.24L96.3658 22.47L92.2258 17.97C91.8658 17.61 91.6858 17.2 91.6858 16.74C91.6858 16.28 91.8558 15.89 92.1958 15.57C92.5358 15.23 92.9258 15.06 93.3658 15.06C93.8458 15.06 94.2758 15.26 94.6558 15.66L98.6458 20.04L102.636 15.66C103.016 15.26 103.446 15.06 103.926 15.06C104.386 15.06 104.776 15.23 105.096 15.57C105.436 15.89 105.606 16.28 105.606 16.74C105.606 17.2 105.426 17.61 105.066 17.97L100.926 22.47L105.336 27.24ZM114.8 30.24C113.34 30.24 112.05 29.93 110.93 29.31C109.83 28.69 108.98 27.81 108.38 26.67C107.78 25.53 107.48 24.2 107.48 22.68C107.48 21.16 107.79 19.82 108.41 18.66C109.05 17.48 109.94 16.57 111.08 15.93C112.22 15.29 113.53 14.97 115.01 14.97C115.79 14.97 116.57 15.08 117.35 15.3C118.15 15.52 118.85 15.82 119.45 16.2C120.09 16.62 120.41 17.15 120.41 17.79C120.41 18.23 120.3 18.59 120.08 18.87C119.88 19.13 119.61 19.26 119.27 19.26C119.05 19.26 118.82 19.21 118.58 19.11C118.34 19.01 118.1 18.89 117.86 18.75C117.42 18.49 117 18.29 116.6 18.15C116.2 17.99 115.74 17.91 115.22 17.91C113.98 17.91 113.02 18.32 112.34 19.14C111.68 19.94 111.35 21.1 111.35 22.62C111.35 24.12 111.68 25.28 112.34 26.1C113.02 26.9 113.98 27.3 115.22 27.3C115.72 27.3 116.16 27.23 116.54 27.09C116.94 26.93 117.38 26.72 117.86 26.46C118.16 26.28 118.42 26.15 118.64 26.07C118.86 25.97 119.08 25.92 119.3 25.92C119.62 25.92 119.89 26.06 120.11 26.34C120.33 26.62 120.44 26.97 120.44 27.39C120.44 27.73 120.36 28.03 120.2 28.29C120.06 28.53 119.82 28.75 119.48 28.95C118.86 29.35 118.14 29.67 117.32 29.91C116.5 30.13 115.66 30.24 114.8 30.24ZM134.548 25.98C134.888 25.98 135.158 26.11 135.358 26.37C135.578 26.63 135.688 26.98 135.688 27.42C135.688 28.04 135.318 28.56 134.578 28.98C133.898 29.36 133.128 29.67 132.268 29.91C131.408 30.13 130.588 30.24 129.808 30.24C127.448 30.24 125.578 29.56 124.198 28.2C122.818 26.84 122.128 24.98 122.128 22.62C122.128 21.12 122.428 19.79 123.028 18.63C123.628 17.47 124.468 16.57 125.548 15.93C126.648 15.29 127.888 14.97 129.268 14.97C130.588 14.97 131.738 15.26 132.718 15.84C133.698 16.42 134.458 17.24 134.998 18.3C135.538 19.36 135.808 20.61 135.808 22.05C135.808 22.91 135.428 23.34 134.668 23.34H125.818C125.938 24.72 126.328 25.74 126.988 26.4C127.648 27.04 128.608 27.36 129.868 27.36C130.508 27.36 131.068 27.28 131.548 27.12C132.048 26.96 132.608 26.74 133.228 26.46C133.828 26.14 134.268 25.98 134.548 25.98ZM129.358 17.61C128.338 17.61 127.518 17.93 126.898 18.57C126.298 19.21 125.938 20.13 125.818 21.33H132.598C132.558 20.11 132.258 19.19 131.698 18.57C131.138 17.93 130.358 17.61 129.358 17.61ZM140.736 30.18C140.196 30.18 139.746 30.03 139.386 29.73C139.046 29.41 138.876 28.96 138.876 28.38V10.47C138.876 9.89 139.046 9.45 139.386 9.15C139.746 8.85 140.196 8.7 140.736 8.7C141.276 8.7 141.726 8.85 142.086 9.15C142.446 9.45 142.626 9.89 142.626 10.47V28.38C142.626 28.96 142.446 29.41 142.086 29.73C141.726 30.03 141.276 30.18 140.736 30.18ZM174.137 27.69C174.257 27.95 174.317 28.21 174.317 28.47C174.317 28.93 174.127 29.32 173.747 29.64C173.387 29.96 172.967 30.12 172.487 30.12C172.167 30.12 171.867 30.04 171.587 29.88C171.307 29.7 171.087 29.43 170.927 29.07L169.127 25.05H158.567L156.767 29.07C156.607 29.43 156.387 29.7 156.107 29.88C155.827 30.04 155.517 30.12 155.177 30.12C154.717 30.12 154.297 29.96 153.917 29.64C153.537 29.32 153.347 28.93 153.347 28.47C153.347 28.21 153.407 27.95 153.527 27.69L161.807 9.9C161.987 9.5 162.257 9.2 162.617 9C162.997 8.78 163.397 8.67 163.817 8.67C164.237 8.67 164.627 8.78 164.987 9C165.367 9.2 165.647 9.5 165.827 9.9L174.137 27.69ZM167.807 22.05L163.847 13.14L159.887 22.05H167.807ZM183.413 30.24C181.953 30.24 180.663 29.93 179.543 29.31C178.443 28.69 177.593 27.81 176.993 26.67C176.393 25.53 176.093 24.2 176.093 22.68C176.093 21.16 176.403 19.82 177.023 18.66C177.663 17.48 178.553 16.57 179.693 15.93C180.833 15.29 182.143 14.97 183.623 14.97C184.403 14.97 185.183 15.08 185.963 15.3C186.763 15.52 187.463 15.82 188.063 16.2C188.703 16.62 189.023 17.15 189.023 17.79C189.023 18.23 188.913 18.59 188.693 18.87C188.493 19.13 188.223 19.26 187.883 19.26C187.663 19.26 187.433 19.21 187.193 19.11C186.953 19.01 186.713 18.89 186.473 18.75C186.033 18.49 185.613 18.29 185.213 18.15C184.813 17.99 184.353 17.91 183.833 17.91C182.593 17.91 181.633 18.32 180.953 19.14C180.293 19.94 179.963 21.1 179.963 22.62C179.963 24.12 180.293 25.28 180.953 26.1C181.633 26.9 182.593 27.3 183.833 27.3C184.333 27.3 184.773 27.23 185.153 27.09C185.553 26.93 185.993 26.72 186.473 26.46C186.773 26.28 187.033 26.15 187.253 26.07C187.473 25.97 187.693 25.92 187.913 25.92C188.233 25.92 188.503 26.06 188.723 26.34C188.943 26.62 189.053 26.97 189.053 27.39C189.053 27.73 188.973 28.03 188.813 28.29C188.673 28.53 188.433 28.75 188.093 28.95C187.473 29.35 186.753 29.67 185.933 29.91C185.113 30.13 184.273 30.24 183.413 30.24ZM197.911 14.97C199.951 14.97 201.461 15.48 202.441 16.5C203.441 17.5 203.941 19.03 203.941 21.09V28.41C203.941 28.95 203.781 29.38 203.461 29.7C203.141 30 202.701 30.15 202.141 30.15C201.621 30.15 201.191 29.99 200.851 29.67C200.531 29.35 200.371 28.93 200.371 28.41V27.75C200.031 28.53 199.491 29.14 198.751 29.58C198.031 30.02 197.191 30.24 196.231 30.24C195.251 30.24 194.361 30.04 193.561 29.64C192.761 29.24 192.131 28.69 191.671 27.99C191.211 27.29 190.981 26.51 190.981 25.65C190.981 24.57 191.251 23.72 191.791 23.1C192.351 22.48 193.251 22.03 194.491 21.75C195.731 21.47 197.441 21.33 199.621 21.33H200.371V20.64C200.371 19.66 200.161 18.95 199.741 18.51C199.321 18.05 198.641 17.82 197.701 17.82C197.121 17.82 196.531 17.91 195.931 18.09C195.331 18.25 194.621 18.49 193.801 18.81C193.281 19.07 192.901 19.2 192.661 19.2C192.301 19.2 192.001 19.07 191.761 18.81C191.541 18.55 191.431 18.21 191.431 17.79C191.431 17.45 191.511 17.16 191.671 16.92C191.851 16.66 192.141 16.42 192.541 16.2C193.241 15.82 194.071 15.52 195.031 15.3C196.011 15.08 196.971 14.97 197.911 14.97ZM196.981 27.54C197.981 27.54 198.791 27.21 199.411 26.55C200.051 25.87 200.371 25 200.371 23.94V23.31H199.831C198.491 23.31 197.451 23.37 196.711 23.49C195.971 23.61 195.441 23.82 195.121 24.12C194.801 24.42 194.641 24.83 194.641 25.35C194.641 25.99 194.861 26.52 195.301 26.94C195.761 27.34 196.321 27.54 196.981 27.54ZM219.993 8.7C220.553 8.7 221.013 8.86 221.373 9.18C221.733 9.5 221.913 9.92 221.913 10.44V28.38C221.913 28.92 221.743 29.35 221.403 29.67C221.063 29.99 220.613 30.15 220.053 30.15C219.493 30.15 219.043 29.99 218.703 29.67C218.363 29.35 218.193 28.92 218.193 28.38V27.63C217.753 28.45 217.113 29.09 216.273 29.55C215.453 30.01 214.513 30.24 213.453 30.24C212.193 30.24 211.063 29.92 210.063 29.28C209.083 28.64 208.313 27.74 207.753 26.58C207.213 25.4 206.943 24.05 206.943 22.53C206.943 21.01 207.213 19.68 207.753 18.54C208.313 17.4 209.083 16.52 210.063 15.9C211.043 15.28 212.173 14.97 213.453 14.97C214.513 14.97 215.453 15.19 216.273 15.63C217.093 16.07 217.723 16.69 218.163 17.49V10.38C218.163 9.88 218.323 9.48 218.643 9.18C218.983 8.86 219.433 8.7 219.993 8.7ZM214.443 27.33C215.643 27.33 216.563 26.92 217.203 26.1C217.863 25.28 218.193 24.11 218.193 22.59C218.193 21.07 217.863 19.91 217.203 19.11C216.563 18.29 215.653 17.88 214.473 17.88C213.273 17.88 212.343 18.28 211.683 19.08C211.023 19.88 210.693 21.03 210.693 22.53C210.693 24.05 211.023 25.23 211.683 26.07C212.343 26.91 213.263 27.33 214.443 27.33ZM237.38 25.98C237.72 25.98 237.99 26.11 238.19 26.37C238.41 26.63 238.52 26.98 238.52 27.42C238.52 28.04 238.15 28.56 237.41 28.98C236.73 29.36 235.96 29.67 235.1 29.91C234.24 30.13 233.42 30.24 232.64 30.24C230.28 30.24 228.41 29.56 227.03 28.2C225.65 26.84 224.96 24.98 224.96 22.62C224.96 21.12 225.26 19.79 225.86 18.63C226.46 17.47 227.3 16.57 228.38 15.93C229.48 15.29 230.72 14.97 232.1 14.97C233.42 14.97 234.57 15.26 235.55 15.84C236.53 16.42 237.29 17.24 237.83 18.3C238.37 19.36 238.64 20.61 238.64 22.05C238.64 22.91 238.26 23.34 237.5 23.34H228.65C228.77 24.72 229.16 25.74 229.82 26.4C230.48 27.04 231.44 27.36 232.7 27.36C233.34 27.36 233.9 27.28 234.38 27.12C234.88 26.96 235.44 26.74 236.06 26.46C236.66 26.14 237.1 25.98 237.38 25.98ZM232.19 17.61C231.17 17.61 230.35 17.93 229.73 18.57C229.13 19.21 228.77 20.13 228.65 21.33H235.43C235.39 20.11 235.09 19.19 234.53 18.57C233.97 17.93 233.19 17.61 232.19 17.61ZM259.138 14.97C260.738 14.97 261.958 15.45 262.798 16.41C263.658 17.35 264.088 18.88 264.088 21V28.38C264.088 28.96 263.908 29.41 263.548 29.73C263.208 30.03 262.758 30.18 262.198 30.18C261.658 30.18 261.208 30.03 260.848 29.73C260.508 29.41 260.338 28.96 260.338 28.38V21C260.338 19.9 260.138 19.12 259.738 18.66C259.358 18.18 258.768 17.94 257.968 17.94C256.988 17.94 256.208 18.28 255.628 18.96C255.048 19.62 254.758 20.53 254.758 21.69V28.38C254.758 28.96 254.578 29.41 254.218 29.73C253.878 30.03 253.438 30.18 252.898 30.18C252.358 30.18 251.908 30.03 251.548 29.73C251.188 29.41 251.008 28.96 251.008 28.38V21C251.008 19.9 250.808 19.12 250.408 18.66C250.028 18.18 249.438 17.94 248.638 17.94C247.658 17.94 246.878 18.28 246.298 18.96C245.738 19.62 245.458 20.53 245.458 21.69V28.38C245.458 28.96 245.278 29.41 244.918 29.73C244.558 30.03 244.108 30.18 243.568 30.18C243.028 30.18 242.578 30.03 242.218 29.73C241.878 29.41 241.708 28.96 241.708 28.38V16.77C241.708 16.21 241.888 15.78 242.248 15.48C242.608 15.18 243.058 15.03 243.598 15.03C244.118 15.03 244.538 15.18 244.858 15.48C245.198 15.76 245.368 16.17 245.368 16.71V17.43C245.828 16.63 246.438 16.02 247.198 15.6C247.978 15.18 248.868 14.97 249.868 14.97C252.068 14.97 253.538 15.89 254.278 17.73C254.718 16.89 255.368 16.22 256.228 15.72C257.088 15.22 258.058 14.97 259.138 14.97ZM278.129 16.11C278.289 15.75 278.499 15.49 278.759 15.33C279.039 15.15 279.339 15.06 279.659 15.06C280.119 15.06 280.529 15.22 280.889 15.54C281.269 15.84 281.459 16.22 281.459 16.68C281.459 16.9 281.399 17.13 281.279 17.37L273.089 34.53C272.749 35.21 272.219 35.55 271.499 35.55C271.039 35.55 270.629 35.4 270.269 35.1C269.929 34.82 269.759 34.46 269.759 34.02C269.759 33.8 269.819 33.55 269.939 33.27L271.979 28.98L266.399 17.37C266.299 17.17 266.249 16.94 266.249 16.68C266.249 16.22 266.439 15.83 266.819 15.51C267.219 15.19 267.669 15.03 268.169 15.03C268.509 15.03 268.819 15.12 269.099 15.3C269.379 15.46 269.599 15.72 269.759 16.08L273.959 25.35L278.129 16.11Z" fill="white"/>
<path d="M81.968 50L81.176 43.652L78.896 48.008L76.568 43.64L75.776 50H74.576L75.704 41.6H76.676L78.884 45.764L81.068 41.6H82.052L83.168 50H81.968ZM85.768 50.12C85.224 50.12 84.784 49.96 84.448 49.64C84.12 49.32 83.956 48.912 83.956 48.416C83.956 47.672 84.308 47.14 85.012 46.82C85.716 46.5 86.536 46.332 87.472 46.316C87.472 45.788 87.368 45.432 87.16 45.248C86.96 45.056 86.636 44.96 86.188 44.96C85.94 44.96 85.692 45 85.444 45.08C85.196 45.152 84.928 45.288 84.64 45.488L84.484 44.612C84.724 44.428 85.02 44.28 85.372 44.168C85.724 44.056 86.092 44 86.476 44C86.98 44 87.38 44.088 87.676 44.264C87.98 44.44 88.2 44.732 88.336 45.14C88.48 45.548 88.552 46.108 88.552 46.82V48.02C88.552 48.34 88.564 48.584 88.588 48.752C88.62 48.912 88.684 49.036 88.78 49.124C88.876 49.212 89.024 49.256 89.224 49.256H89.332L89.164 50.12H89.08C88.744 50.12 88.48 50.088 88.288 50.024C88.096 49.96 87.948 49.868 87.844 49.748C87.748 49.628 87.656 49.464 87.568 49.256C87.072 49.832 86.472 50.12 85.768 50.12ZM85.972 49.256C86.26 49.256 86.536 49.184 86.8 49.04C87.072 48.896 87.296 48.704 87.472 48.464V47.06C86.608 47.092 85.988 47.208 85.612 47.408C85.244 47.6 85.06 47.916 85.06 48.356C85.06 48.66 85.14 48.888 85.3 49.04C85.468 49.184 85.692 49.256 85.972 49.256ZM93.0696 44C94.6696 44 95.4696 44.92 95.4696 46.76V50H94.3896V46.76C94.3896 46.128 94.2696 45.672 94.0296 45.392C93.7976 45.104 93.4056 44.96 92.8536 44.96C92.5016 44.96 92.1816 45.024 91.8936 45.152C91.6056 45.28 91.3896 45.472 91.2456 45.728V50H90.1656V44.12H91.0056L91.1256 44.744C91.4376 44.464 91.7496 44.272 92.0616 44.168C92.3816 44.056 92.7176 44 93.0696 44ZM99.6767 44C100.421 44 100.989 44.244 101.381 44.732C101.773 45.22 101.969 45.884 101.969 46.724V50H100.889V46.856C100.889 46.208 100.769 45.732 100.529 45.428C100.297 45.116 99.9327 44.96 99.4367 44.96C99.1327 44.96 98.8527 45.032 98.5967 45.176C98.3407 45.312 98.1247 45.508 97.9487 45.764V50H96.8567V41H97.9487V44.684C98.1807 44.46 98.4327 44.292 98.7047 44.18C98.9847 44.06 99.3087 44 99.6767 44ZM104.741 50.12C104.197 50.12 103.757 49.96 103.421 49.64C103.093 49.32 102.929 48.912 102.929 48.416C102.929 47.672 103.281 47.14 103.985 46.82C104.689 46.5 105.509 46.332 106.445 46.316C106.445 45.788 106.341 45.432 106.133 45.248C105.933 45.056 105.609 44.96 105.161 44.96C104.913 44.96 104.665 45 104.417 45.08C104.169 45.152 103.901 45.288 103.613 45.488L103.457 44.612C103.697 44.428 103.993 44.28 104.345 44.168C104.697 44.056 105.065 44 105.449 44C105.953 44 106.353 44.088 106.649 44.264C106.953 44.44 107.173 44.732 107.309 45.14C107.453 45.548 107.525 46.108 107.525 46.82V48.02C107.525 48.34 107.537 48.584 107.561 48.752C107.593 48.912 107.657 49.036 107.753 49.124C107.849 49.212 107.997 49.256 108.197 49.256H108.305L108.137 50.12H108.053C107.717 50.12 107.453 50.088 107.261 50.024C107.069 49.96 106.921 49.868 106.817 49.748C106.721 49.628 106.629 49.464 106.541 49.256C106.045 49.832 105.445 50.12 104.741 50.12ZM104.945 49.256C105.233 49.256 105.509 49.184 105.773 49.04C106.045 48.896 106.269 48.704 106.445 48.464V47.06C105.581 47.092 104.961 47.208 104.585 47.408C104.217 47.6 104.033 47.916 104.033 48.356C104.033 48.66 104.113 48.888 104.273 49.04C104.441 49.184 104.665 49.256 104.945 49.256ZM110.806 50.12C110.342 50.12 109.934 50.068 109.582 49.964C109.238 49.852 108.974 49.732 108.79 49.604L108.922 48.56C109.082 48.704 109.326 48.84 109.654 48.968C109.99 49.096 110.358 49.16 110.758 49.16C111.134 49.16 111.422 49.096 111.622 48.968C111.83 48.84 111.934 48.66 111.934 48.428C111.934 48.156 111.822 47.952 111.598 47.816C111.374 47.672 111.094 47.552 110.758 47.456C110.39 47.36 110.078 47.26 109.822 47.156C109.574 47.044 109.358 46.876 109.174 46.652C108.998 46.428 108.91 46.132 108.91 45.764C108.91 45.26 109.09 44.84 109.45 44.504C109.81 44.168 110.366 44 111.118 44C111.462 44 111.754 44.036 111.994 44.108C112.234 44.172 112.474 44.264 112.714 44.384L112.582 45.368C112.39 45.208 112.178 45.084 111.946 44.996C111.714 44.9 111.446 44.852 111.142 44.852C110.79 44.852 110.51 44.92 110.302 45.056C110.102 45.184 110.002 45.38 110.002 45.644C110.002 45.82 110.05 45.964 110.146 46.076C110.242 46.18 110.378 46.268 110.554 46.34C110.73 46.412 111.002 46.504 111.37 46.616C111.826 46.752 112.218 46.944 112.546 47.192C112.882 47.44 113.05 47.832 113.05 48.368C113.05 48.848 112.878 49.26 112.534 49.604C112.198 49.948 111.622 50.12 110.806 50.12ZM115.775 50.12C115.311 50.12 114.903 50.068 114.551 49.964C114.207 49.852 113.943 49.732 113.759 49.604L113.891 48.56C114.051 48.704 114.295 48.84 114.623 48.968C114.959 49.096 115.327 49.16 115.727 49.16C116.103 49.16 116.391 49.096 116.591 48.968C116.799 48.84 116.903 48.66 116.903 48.428C116.903 48.156 116.791 47.952 116.567 47.816C116.343 47.672 116.063 47.552 115.727 47.456C115.359 47.36 115.047 47.26 114.791 47.156C114.543 47.044 114.327 46.876 114.143 46.652C113.967 46.428 113.879 46.132 113.879 45.764C113.879 45.26 114.059 44.84 114.419 44.504C114.779 44.168 115.335 44 116.087 44C116.431 44 116.723 44.036 116.963 44.108C117.203 44.172 117.443 44.264 117.683 44.384L117.551 45.368C117.359 45.208 117.147 45.084 116.915 44.996C116.683 44.9 116.415 44.852 116.111 44.852C115.759 44.852 115.479 44.92 115.271 45.056C115.071 45.184 114.971 45.38 114.971 45.644C114.971 45.82 115.019 45.964 115.115 46.076C115.211 46.18 115.347 46.268 115.523 46.34C115.699 46.412 115.971 46.504 116.339 46.616C116.795 46.752 117.187 46.944 117.515 47.192C117.851 47.44 118.019 47.832 118.019 48.368C118.019 48.848 117.847 49.26 117.503 49.604C117.167 49.948 116.591 50.12 115.775 50.12ZM121.896 50.12C121.224 50.12 120.648 49.984 120.168 49.712C119.696 49.432 119.336 49.056 119.088 48.584C118.84 48.112 118.716 47.588 118.716 47.012C118.716 46.46 118.828 45.956 119.052 45.5C119.284 45.036 119.616 44.672 120.048 44.408C120.488 44.136 121.004 44 121.596 44C122.348 44 122.956 44.22 123.42 44.66C123.892 45.1 124.128 45.708 124.128 46.484C124.128 46.684 124.112 46.876 124.08 47.06H119.82C119.892 47.82 120.124 48.36 120.516 48.68C120.908 49 121.412 49.16 122.028 49.16C122.644 49.16 123.208 49.044 123.72 48.812L123.864 49.664C123.184 49.968 122.528 50.12 121.896 50.12ZM123.012 46.316C123.012 45.892 122.892 45.56 122.652 45.32C122.412 45.08 122.052 44.96 121.572 44.96C121.108 44.96 120.744 45.076 120.48 45.308C120.216 45.532 120.028 45.868 119.916 46.316H123.012ZM127.244 50.12C126.724 50.12 126.336 49.984 126.08 49.712C125.832 49.44 125.708 49.108 125.708 48.716V44.96H124.7L124.796 44.12H125.708V42.668L126.788 42.56V44.12H128.336V44.96H126.788V48.056C126.788 48.464 126.812 48.744 126.86 48.896C126.908 49.048 127.008 49.148 127.16 49.196C127.32 49.236 127.608 49.256 128.024 49.256H128.3L128.216 50.12H127.244ZM133.059 47.972C132.699 47.972 132.391 47.844 132.135 47.588C131.879 47.332 131.751 47.024 131.751 46.664C131.751 46.304 131.879 45.996 132.135 45.74C132.391 45.484 132.699 45.356 133.059 45.356C133.419 45.356 133.727 45.484 133.983 45.74C134.239 45.996 134.367 46.304 134.367 46.664C134.367 47.024 134.239 47.332 133.983 47.588C133.727 47.844 133.419 47.972 133.059 47.972ZM140.946 50.168C140.45 50.168 139.946 50.112 139.434 50C138.922 49.896 138.51 49.772 138.198 49.628L138.354 48.416C138.754 48.608 139.206 48.776 139.71 48.92C140.214 49.064 140.714 49.136 141.21 49.136C141.77 49.136 142.202 49.036 142.506 48.836C142.818 48.628 142.974 48.32 142.974 47.912C142.974 47.608 142.894 47.356 142.734 47.156C142.582 46.948 142.354 46.776 142.05 46.64C141.754 46.496 141.338 46.344 140.802 46.184C140.258 46.024 139.806 45.852 139.446 45.668C139.086 45.484 138.794 45.232 138.57 44.912C138.354 44.592 138.246 44.188 138.246 43.7C138.246 43.02 138.506 42.472 139.026 42.056C139.554 41.64 140.294 41.432 141.246 41.432C141.758 41.432 142.242 41.488 142.698 41.6C143.162 41.712 143.566 41.848 143.91 42.008L143.79 43.22C143.342 42.956 142.91 42.764 142.494 42.644C142.078 42.524 141.646 42.464 141.198 42.464C140.678 42.464 140.262 42.56 139.95 42.752C139.646 42.944 139.494 43.24 139.494 43.64C139.494 43.912 139.562 44.136 139.698 44.312C139.842 44.488 140.046 44.64 140.31 44.768C140.574 44.888 140.942 45.02 141.414 45.164C142.358 45.452 143.062 45.796 143.526 46.196C143.99 46.588 144.222 47.132 144.222 47.828C144.222 48.564 143.946 49.14 143.394 49.556C142.842 49.964 142.026 50.168 140.946 50.168ZM146.938 49.736L144.49 44.12H145.69L147.526 48.488L149.182 44.12H150.382L146.782 52.904H145.582L146.938 49.736ZM153.648 50.12C153.048 50.12 152.528 49.988 152.088 49.724C151.648 49.452 151.312 49.084 151.08 48.62C150.848 48.156 150.732 47.636 150.732 47.06C150.732 46.484 150.848 45.964 151.08 45.5C151.312 45.036 151.648 44.672 152.088 44.408C152.528 44.136 153.048 44 153.648 44C154.24 44 154.756 44.136 155.196 44.408C155.644 44.672 155.984 45.036 156.216 45.5C156.448 45.964 156.564 46.484 156.564 47.06C156.564 47.636 156.448 48.156 156.216 48.62C155.984 49.084 155.644 49.452 155.196 49.724C154.756 49.988 154.24 50.12 153.648 50.12ZM153.648 49.16C154.224 49.16 154.668 48.976 154.98 48.608C155.3 48.24 155.46 47.724 155.46 47.06C155.46 46.396 155.3 45.88 154.98 45.512C154.668 45.144 154.224 44.96 153.648 44.96C153.072 44.96 152.624 45.144 152.304 45.512C151.992 45.88 151.836 46.396 151.836 47.06C151.836 47.724 151.992 48.24 152.304 48.608C152.624 48.976 153.072 49.16 153.648 49.16ZM159.345 50.12C158.881 50.12 158.473 50.068 158.121 49.964C157.777 49.852 157.513 49.732 157.329 49.604L157.461 48.56C157.621 48.704 157.865 48.84 158.193 48.968C158.529 49.096 158.897 49.16 159.297 49.16C159.673 49.16 159.961 49.096 160.161 48.968C160.369 48.84 160.473 48.66 160.473 48.428C160.473 48.156 160.361 47.952 160.137 47.816C159.913 47.672 159.633 47.552 159.297 47.456C158.929 47.36 158.617 47.26 158.361 47.156C158.113 47.044 157.897 46.876 157.713 46.652C157.537 46.428 157.449 46.132 157.449 45.764C157.449 45.26 157.629 44.84 157.989 44.504C158.349 44.168 158.905 44 159.657 44C160.001 44 160.293 44.036 160.533 44.108C160.773 44.172 161.013 44.264 161.253 44.384L161.121 45.368C160.929 45.208 160.717 45.084 160.485 44.996C160.253 44.9 159.985 44.852 159.681 44.852C159.329 44.852 159.049 44.92 158.841 45.056C158.641 45.184 158.541 45.38 158.541 45.644C158.541 45.82 158.589 45.964 158.685 46.076C158.781 46.18 158.917 46.268 159.093 46.34C159.269 46.412 159.541 46.504 159.909 46.616C160.365 46.752 160.757 46.944 161.085 47.192C161.421 47.44 161.589 47.832 161.589 48.368C161.589 48.848 161.417 49.26 161.073 49.604C160.737 49.948 160.161 50.12 159.345 50.12ZM164.314 50.12C163.85 50.12 163.442 50.068 163.09 49.964C162.746 49.852 162.482 49.732 162.298 49.604L162.43 48.56C162.59 48.704 162.834 48.84 163.162 48.968C163.498 49.096 163.866 49.16 164.266 49.16C164.642 49.16 164.93 49.096 165.13 48.968C165.338 48.84 165.442 48.66 165.442 48.428C165.442 48.156 165.33 47.952 165.106 47.816C164.882 47.672 164.602 47.552 164.266 47.456C163.898 47.36 163.586 47.26 163.33 47.156C163.082 47.044 162.866 46.876 162.682 46.652C162.506 46.428 162.418 46.132 162.418 45.764C162.418 45.26 162.598 44.84 162.958 44.504C163.318 44.168 163.874 44 164.626 44C164.97 44 165.262 44.036 165.502 44.108C165.742 44.172 165.982 44.264 166.222 44.384L166.09 45.368C165.898 45.208 165.686 45.084 165.454 44.996C165.222 44.9 164.954 44.852 164.65 44.852C164.298 44.852 164.018 44.92 163.81 45.056C163.61 45.184 163.51 45.38 163.51 45.644C163.51 45.82 163.558 45.964 163.654 46.076C163.75 46.18 163.886 46.268 164.062 46.34C164.238 46.412 164.51 46.504 164.878 46.616C165.334 46.752 165.726 46.944 166.054 47.192C166.39 47.44 166.558 47.832 166.558 48.368C166.558 48.848 166.386 49.26 166.042 49.604C165.706 49.948 165.13 50.12 164.314 50.12ZM170.435 50.12C169.763 50.12 169.187 49.984 168.707 49.712C168.235 49.432 167.875 49.056 167.627 48.584C167.379 48.112 167.255 47.588 167.255 47.012C167.255 46.46 167.367 45.956 167.591 45.5C167.823 45.036 168.155 44.672 168.587 44.408C169.027 44.136 169.543 44 170.135 44C170.887 44 171.495 44.22 171.959 44.66C172.431 45.1 172.667 45.708 172.667 46.484C172.667 46.684 172.651 46.876 172.619 47.06H168.359C168.431 47.82 168.663 48.36 169.055 48.68C169.447 49 169.951 49.16 170.567 49.16C171.183 49.16 171.747 49.044 172.259 48.812L172.403 49.664C171.723 49.968 171.067 50.12 170.435 50.12ZM171.551 46.316C171.551 45.892 171.431 45.56 171.191 45.32C170.951 45.08 170.591 44.96 170.111 44.96C169.647 44.96 169.283 45.076 169.019 45.308C168.755 45.532 168.567 45.868 168.455 46.316H171.551ZM175.783 50.12C175.263 50.12 174.875 49.984 174.619 49.712C174.371 49.44 174.247 49.108 174.247 48.716V44.96H173.239L173.335 44.12H174.247V42.668L175.327 42.56V44.12H176.875V44.96H175.327V48.056C175.327 48.464 175.351 48.744 175.399 48.896C175.447 49.048 175.547 49.148 175.699 49.196C175.859 49.236 176.147 49.256 176.563 49.256H176.839L176.755 50.12H175.783ZM196.774 41H197.842V52.508H196.774V41ZM223.598 50.168C223.102 50.168 222.598 50.112 222.086 50C221.574 49.896 221.162 49.772 220.85 49.628L221.006 48.416C221.406 48.608 221.858 48.776 222.362 48.92C222.866 49.064 223.366 49.136 223.862 49.136C224.422 49.136 224.854 49.036 225.158 48.836C225.47 48.628 225.626 48.32 225.626 47.912C225.626 47.608 225.546 47.356 225.386 47.156C225.234 46.948 225.006 46.776 224.702 46.64C224.406 46.496 223.99 46.344 223.454 46.184C222.91 46.024 222.458 45.852 222.098 45.668C221.738 45.484 221.446 45.232 221.222 44.912C221.006 44.592 220.898 44.188 220.898 43.7C220.898 43.02 221.158 42.472 221.678 42.056C222.206 41.64 222.946 41.432 223.898 41.432C224.41 41.432 224.894 41.488 225.35 41.6C225.814 41.712 226.218 41.848 226.562 42.008L226.442 43.22C225.994 42.956 225.562 42.764 225.146 42.644C224.73 42.524 224.298 42.464 223.85 42.464C223.33 42.464 222.914 42.56 222.602 42.752C222.298 42.944 222.146 43.24 222.146 43.64C222.146 43.912 222.214 44.136 222.35 44.312C222.494 44.488 222.698 44.64 222.962 44.768C223.226 44.888 223.594 45.02 224.066 45.164C225.01 45.452 225.714 45.796 226.178 46.196C226.642 46.588 226.874 47.132 226.874 47.828C226.874 48.564 226.598 49.14 226.046 49.556C225.494 49.964 224.678 50.168 223.598 50.168ZM227.908 41.6H228.988V42.8H227.908V41.6ZM227.908 44.12H228.988V50H227.908V44.12ZM233.355 44C234.955 44 235.755 44.92 235.755 46.76V50H234.675V46.76C234.675 46.128 234.555 45.672 234.315 45.392C234.083 45.104 233.691 44.96 233.139 44.96C232.787 44.96 232.467 45.024 232.179 45.152C231.891 45.28 231.675 45.472 231.531 45.728V50H230.451V44.12H231.291L231.411 44.744C231.723 44.464 232.035 44.272 232.347 44.168C232.667 44.056 233.003 44 233.355 44ZM239.854 50.12C239.214 50.12 238.662 49.988 238.198 49.724C237.742 49.46 237.398 49.1 237.166 48.644C236.934 48.18 236.818 47.664 236.818 47.096C236.818 46.168 237.078 45.42 237.598 44.852C238.126 44.284 238.906 44 239.938 44C240.546 44 241.082 44.116 241.546 44.348L241.378 45.296C240.89 45.072 240.402 44.96 239.914 44.96C239.274 44.96 238.782 45.144 238.438 45.512C238.094 45.872 237.922 46.384 237.922 47.048C237.922 47.712 238.086 48.232 238.414 48.608C238.75 48.984 239.242 49.172 239.89 49.172C240.41 49.172 240.91 49.052 241.39 48.812L241.534 49.676C241.358 49.796 241.114 49.9 240.802 49.988C240.498 50.076 240.182 50.12 239.854 50.12ZM245.341 50.12C244.669 50.12 244.093 49.984 243.613 49.712C243.141 49.432 242.781 49.056 242.533 48.584C242.285 48.112 242.161 47.588 242.161 47.012C242.161 46.46 242.273 45.956 242.497 45.5C242.729 45.036 243.061 44.672 243.493 44.408C243.933 44.136 244.449 44 245.041 44C245.793 44 246.401 44.22 246.865 44.66C247.337 45.1 247.573 45.708 247.573 46.484C247.573 46.684 247.557 46.876 247.525 47.06H243.265C243.337 47.82 243.569 48.36 243.961 48.68C244.353 49 244.857 49.16 245.473 49.16C246.089 49.16 246.653 49.044 247.165 48.812L247.309 49.664C246.629 49.968 245.973 50.12 245.341 50.12ZM246.457 46.316C246.457 45.892 246.337 45.56 246.097 45.32C245.857 45.08 245.497 44.96 245.017 44.96C244.553 44.96 244.189 45.076 243.925 45.308C243.661 45.532 243.473 45.868 243.361 46.316H246.457ZM253.601 46.508C254.017 45.884 254.321 45.368 254.513 44.96C254.705 44.552 254.801 44.18 254.801 43.844C254.801 43.428 254.681 43.1 254.441 42.86C254.209 42.612 253.893 42.488 253.493 42.488C252.749 42.488 252.069 42.804 251.453 43.436L251.309 42.236C251.613 41.996 251.961 41.8 252.353 41.648C252.745 41.496 253.165 41.42 253.613 41.42C254.357 41.42 254.933 41.636 255.341 42.068C255.749 42.5 255.953 43.052 255.953 43.724C255.953 44.252 255.849 44.752 255.641 45.224C255.441 45.696 255.097 46.3 254.609 47.036L253.337 48.956H256.277V49.988H251.309L253.601 46.508ZM261.106 50.168C260.378 50.168 259.746 49.98 259.21 49.604C258.682 49.228 258.274 48.704 257.986 48.032C257.706 47.36 257.566 46.592 257.566 45.728C257.566 44.872 257.714 44.12 258.01 43.472C258.314 42.824 258.734 42.324 259.27 41.972C259.806 41.612 260.418 41.432 261.106 41.432C261.81 41.432 262.43 41.612 262.966 41.972C263.502 42.324 263.914 42.824 264.202 43.472C264.498 44.12 264.646 44.872 264.646 45.728C264.646 46.592 264.506 47.36 264.226 48.032C263.946 48.704 263.538 49.228 263.002 49.604C262.466 49.98 261.834 50.168 261.106 50.168ZM261.106 49.136C261.85 49.136 262.422 48.84 262.822 48.248C263.23 47.656 263.434 46.816 263.434 45.728C263.434 44.656 263.226 43.844 262.81 43.292C262.402 42.74 261.834 42.464 261.106 42.464C260.41 42.464 259.846 42.744 259.414 43.304C258.99 43.864 258.778 44.672 258.778 45.728C258.778 46.816 258.978 47.656 259.378 48.248C259.786 48.84 260.362 49.136 261.106 49.136ZM269.485 50.168C268.757 50.168 268.125 49.98 267.589 49.604C267.061 49.228 266.653 48.704 266.365 48.032C266.085 47.36 265.945 46.592 265.945 45.728C265.945 44.872 266.093 44.12 266.389 43.472C266.693 42.824 267.113 42.324 267.649 41.972C268.185 41.612 268.797 41.432 269.485 41.432C270.189 41.432 270.809 41.612 271.345 41.972C271.881 42.324 272.293 42.824 272.581 43.472C272.877 44.12 273.025 44.872 273.025 45.728C273.025 46.592 272.885 47.36 272.605 48.032C272.325 48.704 271.917 49.228 271.381 49.604C270.845 49.98 270.213 50.168 269.485 50.168ZM269.485 49.136C270.229 49.136 270.801 48.84 271.201 48.248C271.609 47.656 271.813 46.816 271.813 45.728C271.813 44.656 271.605 43.844 271.189 43.292C270.781 42.74 270.213 42.464 269.485 42.464C268.789 42.464 268.225 42.744 267.793 43.304C267.369 43.864 267.157 44.672 267.157 45.728C267.157 46.816 267.357 47.656 267.757 48.248C268.165 48.84 268.741 49.136 269.485 49.136ZM276.796 44.696C277.38 44.696 277.884 44.812 278.308 45.044C278.732 45.276 279.056 45.596 279.28 46.004C279.504 46.412 279.616 46.876 279.616 47.396C279.616 47.956 279.484 48.444 279.22 48.86C278.964 49.276 278.608 49.6 278.152 49.832C277.704 50.056 277.196 50.168 276.628 50.168C276.196 50.168 275.772 50.112 275.356 50C274.948 49.888 274.592 49.732 274.288 49.532L274.564 48.476C274.908 48.668 275.236 48.816 275.548 48.92C275.86 49.016 276.2 49.064 276.568 49.064C277.104 49.064 277.536 48.912 277.864 48.608C278.2 48.304 278.368 47.9 278.368 47.396C278.368 46.836 278.192 46.404 277.84 46.1C277.488 45.788 277.016 45.632 276.424 45.632C275.92 45.632 275.356 45.712 274.732 45.872L275.248 41.6H279.208L279.16 42.68H276.184L275.932 44.756C276.236 44.716 276.524 44.696 276.796 44.696Z" fill="white"/>
</svg>
