<svg width="48" height="57" viewBox="0 0 48 57" fill="none" xmlns="http://www.w3.org/2000/svg">
<path d="M0.25 48.9872V0.25H39.0913V48.9872H0.25Z" fill="white" stroke="black" stroke-width="0.5"/>
<path d="M11.1702 4.15002H2.7399V9.77713H11.1702V4.15002Z" fill="#272727"/>
<path d="M35.4071 15.1228H2.81006V17.0923H35.4071V15.1228Z" fill="#272727"/>
<path d="M35.4071 20.3279H2.81006V22.2974H35.4071V20.3279Z" fill="#272727"/>
<path d="M35.4071 25.5331H2.81006V27.5026H35.4071V25.5331Z" fill="#272727"/>
<path d="M35.4071 30.738H2.81006V32.7075H35.4071V30.738Z" fill="#272727"/>
<path d="M35.4071 35.9431H2.81006V37.9126H35.4071V35.9431Z" fill="#272727"/>
<path d="M47.0692 49.1667C47.0674 51.0248 46.396 52.8198 45.1784 54.2219C43.9607 55.6241 42.2786 56.5392 40.4411 56.7991C38.6035 57.059 36.734 56.6462 35.1761 55.6367C33.6182 54.6271 32.4764 53.0885 31.9607 51.3037C31.4449 49.5188 31.5898 47.6075 32.3687 45.9211C33.1476 44.2346 34.5082 42.8862 36.2005 42.1236C37.8928 41.361 39.803 41.2355 41.5803 41.7701C43.3576 42.3047 44.8826 43.4635 45.8749 45.0336C46.6553 46.2705 47.0694 47.7037 47.0692 49.1667Z" fill="#00B8F2"/>
<path d="M45.8749 45.0337L38.268 52.6486C37.7899 51.9075 35.1263 48.4635 35.1263 48.4635C35.4676 48.118 35.8319 47.7961 36.2166 47.4998L38.4253 50.4484L44.9841 43.8816C45.3167 44.2366 45.615 44.6224 45.8749 45.0337Z" fill="white"/>
</svg>
