<svg width="193" height="386" viewBox="0 0 193 386" fill="none" xmlns="http://www.w3.org/2000/svg">
<path d="M192.013 91.5103H189.897V33.5474C189.897 29.1419 189.029 24.7795 187.344 20.7094C185.658 16.6392 183.187 12.941 180.071 9.82582C176.956 6.71066 173.258 4.23957 169.188 2.55365C165.118 0.867737 160.755 4.16922e-06 156.35 0H33.5474C29.1419 -1.04227e-05 24.7796 0.867709 20.7094 2.55361C16.6393 4.23952 12.941 6.71059 9.82585 9.82574C6.71068 12.9409 4.23958 16.6391 2.55366 20.7093C0.86774 24.7794 9.03311e-06 29.1418 0 33.5473V351.537C-8.41991e-06 360.434 3.53442 368.967 9.82577 375.258C16.1171 381.549 24.65 385.084 33.5473 385.084H156.35C165.247 385.084 173.78 381.55 180.071 375.258C186.363 368.967 189.897 360.434 189.897 351.537V132.769H192.013L192.013 91.5103Z" fill="#3F3D56"/>
<path d="M157.703 8.72784H141.674C142.411 10.5351 142.692 12.496 142.493 14.4377C142.294 16.3793 141.62 18.2422 140.531 19.8622C139.443 21.4822 137.972 22.8096 136.25 23.7275C134.527 24.6454 132.605 25.1255 130.653 25.1257H60.3016C58.3498 25.1255 56.4279 24.6454 54.7053 23.7275C52.9827 22.8096 51.5123 21.4822 50.4236 19.8622C49.3349 18.2422 48.6613 16.3793 48.4621 14.4377C48.2629 12.496 48.5443 10.5352 49.2815 8.72786H34.3097C27.6652 8.72785 21.293 11.3673 16.5947 16.0656C11.8963 20.7639 9.25685 27.1362 9.25684 33.7806V351.303C9.25683 354.593 9.90484 357.851 11.1639 360.891C12.4229 363.93 14.2683 366.692 16.5946 369.018C18.921 371.345 21.6828 373.19 24.7223 374.449C27.7619 375.708 31.0196 376.356 34.3096 376.356H157.703C160.993 376.356 164.251 375.708 167.291 374.449C170.33 373.19 173.092 371.345 175.418 369.018C177.745 366.692 179.59 363.93 180.849 360.891C182.108 357.851 182.756 354.593 182.756 351.303V33.7806C182.756 30.4906 182.108 27.2329 180.849 24.1933C179.59 21.1538 177.745 18.392 175.418 16.0656C173.092 13.7393 170.33 11.8939 167.291 10.6349C164.251 9.37585 160.993 8.72784 157.703 8.72784Z" fill="white"/>
<path d="M167.059 71.1608H24.9541V313.923H167.059V71.1608Z" fill="#E6E6E6"/>
<path d="M62.0485 326.465C60.6047 327.397 58.9547 327.921 57.4651 328.74C55.9755 329.56 54.526 330.791 54.1021 332.489C53.9439 333.016 53.9702 333.583 54.1765 334.092C54.5472 334.707 55.1144 335.169 55.7807 335.4C58.8068 336.783 62.0753 337.516 65.3862 337.554C68.6971 337.593 71.9809 336.936 75.0366 335.624C76.1119 335.093 77.2223 334.64 78.3595 334.269C79.7606 333.975 81.1865 333.825 82.6163 333.821C84.1192 333.73 85.6143 333.533 87.0909 333.231C87.8331 333.146 88.5365 332.846 89.119 332.365C89.6504 331.735 89.9699 330.945 90.0299 330.114C90.708 325.522 89.6856 320.836 87.1653 316.983C86.8478 316.443 86.422 315.978 85.9163 315.621C85.2998 315.293 84.6216 315.106 83.9283 315.073C81.0637 314.714 78.0616 314.054 75.1684 313.983C73.0944 313.936 72.0517 314.949 70.585 316.417C67.5543 319.535 65.7839 324.067 62.0485 326.465Z" fill="#374785"/>
<path d="M104.267 326.03C104.267 328.917 104.605 331.976 106.307 334.281C107.085 335.277 108.027 336.125 109.091 336.785C112.689 339.143 117.456 340.009 121.248 338.011C121.861 337.728 122.385 337.275 122.761 336.703C123.334 335.677 123.03 334.398 122.709 333.267L117.221 313.7C113.674 314.26 108.461 314.655 105.31 316.505C103.024 317.843 104.267 323.448 104.267 326.03Z" fill="#374785"/>
<path d="M58.8285 205.546C58.4962 206.624 57.293 207.125 56.6342 208.033C55.8607 209.1 55.941 210.579 56.2217 211.876C56.5685 213.788 57.4414 215.557 58.7368 216.974C59.3942 217.675 60.2053 218.205 61.1022 218.519C61.9992 218.833 62.9561 218.921 63.8931 218.777C65.7379 218.418 67.3306 216.738 67.3936 214.811C67.3603 213.934 67.1781 213.071 66.855 212.259L62.9477 200.637C62.9318 200.554 62.899 200.477 62.8516 200.409C62.8042 200.341 62.7432 200.284 62.6728 200.242C62.5253 200.208 62.3709 200.236 62.2431 200.318C61.3207 200.766 59.4701 201.238 58.9316 202.222C58.393 203.206 59.218 204.479 58.8285 205.546Z" fill="#FBB3B2"/>
<path d="M57.0012 204.962C58.4278 204.733 59.6768 203.872 61.0117 203.306C62.3466 202.741 64.0195 202.522 65.1424 203.465C65.4633 203.737 65.7726 204.108 66.1909 204.102C65.6219 201.22 64.7617 198.407 63.6242 195.709C63.5842 195.58 63.5061 195.467 63.4007 195.385C63.2446 195.32 63.0699 195.32 62.9138 195.385L59.058 196.423C57.6314 196.806 57.4653 196.688 57.5741 198.132C57.6028 198.774 57.9236 204.962 57.0012 204.962Z" fill="#182144"/>
<path d="M56.5772 121.037C56.0043 121.945 56.0043 123.076 56.0043 124.143C56.0043 129.359 56.0558 134.604 56.8064 139.767C56.984 141.005 57.2074 142.242 57.322 143.492C57.4519 145.231 57.4787 146.977 57.4022 148.719L56.8293 171.41C56.7606 174.186 56.623 177.168 54.9559 179.349C54.4503 180.08 54.2129 180.971 54.2856 181.865C54.721 187.558 55.6376 193.205 56.5486 198.833C58.0153 198.152 59.6178 197.839 61.225 197.918C62.8322 197.996 64.3984 198.466 65.7955 199.287C68.6861 189.937 70.2849 180.216 70.545 170.408C70.6767 165.581 70.4762 160.725 71.1981 155.957C72.407 147.93 71.9142 139.696 71.0262 131.622C70.7455 129.064 70.1496 126.43 68.5569 124.449C67.0492 122.717 65.0412 121.527 62.8277 121.055C60.708 120.483 58.8116 121.072 56.5772 121.037Z" fill="#145196"/>
<path d="M56.5772 121.037C56.0043 121.945 56.0043 123.076 56.0043 124.143C56.0043 129.359 56.0558 134.604 56.8064 139.767C56.984 141.005 57.2074 142.242 57.322 143.492C57.4519 145.231 57.4787 146.977 57.4022 148.719L56.8293 171.41C56.7606 174.186 56.623 177.168 54.9559 179.349C54.4503 180.08 54.2129 180.971 54.2856 181.865C54.721 187.558 55.6376 193.205 56.5486 198.833C58.0153 198.152 59.6178 197.839 61.225 197.918C62.8322 197.996 64.3984 198.466 65.7955 199.287C68.6861 189.937 70.2849 180.216 70.545 170.408C70.6767 165.581 70.4762 160.725 71.1981 155.957C72.407 147.93 71.9142 139.696 71.0262 131.622C70.7455 129.064 70.1496 126.43 68.5569 124.449C67.0492 122.717 65.0412 121.527 62.8277 121.055C60.708 120.483 58.8116 121.072 56.5772 121.037Z" fill="#2C396B" style="mix-blend-mode:darken"/>
<path d="M63.5783 186.839C59.7358 207.095 61.8337 228.069 69.6054 247.096C70.2768 248.504 70.7477 250.005 71.0033 251.552C71.3184 254.439 70.0236 257.215 69.2846 260.009C67.5658 266.362 68.557 273.128 69.657 279.629C70.1153 282.34 70.587 285.049 71.0721 287.756C71.5476 290.396 72.0059 293.267 70.8143 295.659C71.8398 300.056 72.4471 304.412 73.4726 308.808C73.5814 309.156 73.6146 309.524 73.57 309.887C73.3634 310.462 72.9993 310.964 72.5216 311.331C71.7572 312.128 71.2078 313.116 70.9276 314.198C70.6473 315.28 70.6458 316.419 70.9231 317.501C73.5414 315.568 77.1909 316.246 80.1815 317.501C83.1722 318.757 86.117 320.448 89.3483 320.448C88.8785 316.547 88.4259 312.45 89.8238 308.791C90.6373 306.669 92.0697 304.665 92.0295 302.396C91.9894 300.363 90.7806 298.547 90.4884 296.538C90.3798 295.287 90.426 294.028 90.6259 292.789C91.3936 285.575 90.5228 278.291 89.6519 271.089C89.5534 269.669 89.2283 268.275 88.6894 266.963C88.2826 266.115 87.6753 265.301 87.6868 264.353C87.6868 263.25 88.5519 262.355 88.8727 261.305C89.4457 259.372 88.3915 256.744 89.9785 255.547C94.1608 252.388 92.5566 244.845 92.465 239.511C92.3924 234.91 92.2014 230.313 91.8921 225.72C94.5253 233.336 95.6019 241.43 95.0546 249.495C94.8712 252.135 94.5332 254.911 95.5358 257.351C96.3035 259.225 97.8275 260.769 98.24 262.755C98.4978 263.981 98.3145 265.248 98.3718 266.498C98.4291 267.747 98.8416 269.109 99.89 269.739C99.9702 275.421 100.463 281.497 100.549 287.179C100.493 290.083 100.723 292.986 101.236 295.842C101.494 296.751 101.636 297.69 101.66 298.636C101.531 299.822 101.226 300.981 100.755 302.072C99.7566 305.113 99.4956 308.359 99.9949 311.528C100.494 314.697 101.738 317.692 103.62 320.254C104.972 317.784 107.791 316.476 110.541 316.27C113.291 316.063 116.006 316.776 118.67 317.495C118.263 314.052 118.929 310.564 120.572 307.535C121.013 306.853 121.351 306.105 121.575 305.319C121.884 303.822 121.163 302.331 120.773 300.852C120.137 298.494 120.36 295.954 120.509 293.491C121.009 285.24 120.654 276.958 119.45 268.785C119.264 267.175 118.896 265.592 118.355 264.07C118.149 263.527 117.897 263.009 117.725 262.461C117.455 261.477 117.301 260.464 117.267 259.443L116.608 250.013C116.144 243.407 118.252 236.882 119.725 230.435C120.383 227.547 121.1 224.665 121.541 221.73C122.142 217.734 122.24 213.65 123.122 209.707C123.913 206.171 125.339 202.723 125.637 199.098C126.095 193.482 123.827 188.053 121.627 182.902C120.71 180.781 117.244 180.993 115.015 180.616C99.2082 177.946 82.5592 177.928 67.6518 183.946C66.1101 184.603 64.7216 185.589 63.5783 186.839Z" fill="#182040"/>
<path d="M74.9734 82.2333L76.7265 89.2468C77.2031 90.8552 77.4671 92.5224 77.5114 94.2033C77.5295 94.8165 77.3975 95.4244 77.1276 95.9714C76.8391 96.4206 76.4695 96.8087 76.039 97.1148C74.8416 98.0519 74.0109 100.238 72.6416 100.887C73.3463 102.148 74.3203 101.329 75.5922 101.959C77.8323 103.079 79.8833 104.688 82.3125 105.242C84.6042 105.761 87.0104 105.272 89.2849 104.653C92.5105 103.751 95.7188 102.507 98.3142 100.333C100.909 98.1579 102.388 96.2366 102.376 92.8006C99.5116 93.1483 96.9621 90.1721 95.6959 87.4964C95.2569 86.4792 94.9339 85.4133 94.7334 84.3197L93.198 77.3711C91.5251 77.7483 90.1615 78.9801 88.5631 79.6225C86.9646 80.2649 85.074 80.3238 83.2979 80.4063C80.1453 80.5538 77.01 80.9718 73.9249 81.6558C73.501 81.7442 72.9682 82.0212 73.0713 82.4455" fill="#FBB3B2"/>
<path opacity="0.1" d="M74.9734 82.2333L76.7265 89.2468C77.2031 90.8552 77.4671 92.5224 77.5114 94.2033C77.5295 94.8165 77.3975 95.4244 77.1276 95.9714C76.8391 96.4206 76.4695 96.8087 76.039 97.1148C74.8416 98.0519 74.0109 100.238 72.6416 100.887C73.3463 102.148 74.3203 101.329 75.5922 101.959C77.8323 103.079 79.8833 104.688 82.3125 105.242C84.6042 105.761 87.0104 105.272 89.2849 104.653C92.5105 103.751 95.7188 102.507 98.3142 100.333C100.909 98.1579 102.388 96.2366 102.376 92.8006C99.5116 93.1483 96.9621 90.1721 95.6959 87.4964C95.2569 86.4792 94.9339 85.4133 94.7334 84.3197L93.198 77.3711C91.5251 77.7483 90.1615 78.9801 88.5631 79.6225C86.9646 80.2649 85.074 80.3238 83.2979 80.4063C80.1453 80.5538 77.01 80.9718 73.9249 81.6558C73.501 81.7442 72.9682 82.0212 73.0713 82.4455" fill="black"/>
<path d="M82.5017 89.5C90.8804 89.5 97.6727 79.1125 97.6727 70.4933C97.6727 61.8742 90.8804 54.887 82.5017 54.887C74.1231 54.887 67.3308 61.8742 67.3308 70.4933C67.3308 79.1125 74.1231 89.5 82.5017 89.5Z" fill="#FBB3B2"/>
<path d="M86.6784 96.2187C87.4897 94.4162 88.661 92.8097 90.1159 91.5038C92.2529 89.5766 95.1748 88.0148 95.679 85.1387L100.308 90.6846C100.56 90.9417 100.755 91.2512 100.881 91.5922C100.94 91.912 100.931 92.2409 100.856 92.557C100.781 92.8731 100.641 93.1691 100.446 93.4251C99.2999 95.3052 97.4952 96.6489 95.7879 98.0104C91.8746 101.199 88.1282 104.599 84.5643 108.195C84.4073 108.382 84.1968 108.514 83.9627 108.572C83.7413 108.578 83.5233 108.514 83.3382 108.389C80.2633 106.728 77.5421 104.452 75.3345 101.694C75.1684 101.488 74.9621 101.252 74.6929 101.27C74.5305 101.3 74.3808 101.38 74.2632 101.499C72.722 102.796 71.0376 104.346 69.061 104.146C71.622 102.254 73.0715 99.0948 73.61 95.8946C73.7165 94.7993 73.9355 93.7186 74.2632 92.6707C74.433 92.1465 74.7256 91.6733 75.1153 91.293C75.505 90.9127 75.9797 90.6369 76.4976 90.4901C75.2486 92.4527 76.1023 95.2345 77.7809 96.8199C79.4119 98.244 81.3673 99.2193 83.4643 99.6547C85.4122 100.032 85.9852 97.7628 86.6784 96.2187Z" fill="#182144"/>
<path d="M66.9411 188.442C69.101 188.991 71.1464 189.922 73.2433 190.611C77.065 191.843 81.0871 192.277 85.0741 191.89C86.3013 191.863 87.4947 191.472 88.5116 190.765C88.7809 190.541 89.0273 190.275 89.3137 190.069C89.7929 189.773 90.3124 189.553 90.8549 189.415C96.1086 187.723 100.509 184.075 104.777 180.504C104.914 180.386 105.069 180.239 105.058 180.05C105.038 179.922 104.977 179.803 104.886 179.714L102.64 177.062C96.7502 178.093 90.7174 177.704 84.7418 177.551C83.515 177.495 82.2859 177.529 81.0636 177.651C79.8834 177.793 78.7204 178.099 77.5574 178.358C73.1401 179.349 68.6255 179.726 64.151 180.374C63.838 180.398 63.5343 180.495 63.263 180.657C63.0743 180.807 62.9132 180.991 62.7874 181.199L61.2176 183.468C60.6083 184.232 60.1596 185.117 59.8999 186.067C59.5333 187.835 60.301 188.425 61.7619 188.195C63.4878 187.935 65.2461 188.019 66.9411 188.442Z" fill="#24305E"/>
<path d="M84.5014 105.496C82.7488 103.648 80.762 102.052 78.5946 100.751C77.719 100.179 76.7476 99.7793 75.73 99.5724C75.218 99.4684 74.6901 99.4811 74.1833 99.6093C73.6766 99.7376 73.2033 99.9785 72.7967 100.315C72.2868 100.781 71.9659 101.429 71.4732 101.918C70.8531 102.454 70.1423 102.868 69.3763 103.138C66.7683 104.284 64.2963 105.734 62.0085 107.458C60.7615 108.356 59.6379 109.422 58.6684 110.629C56.0731 114.047 55.6835 118.697 55.7522 123.035C55.8038 126.053 58.6169 128.292 60.5533 130.549C62.3696 132.771 64.0132 135.135 65.469 137.622C66.5117 139.319 67.6003 141.158 67.4685 143.179C67.3596 144.836 66.42 146.391 66.569 148.042C66.6206 148.631 66.8039 149.173 66.8555 149.745C66.9586 150.924 66.506 152.102 66.3914 153.281C66.2367 154.949 66.7638 156.605 66.7925 158.285C66.7714 159.435 66.6292 160.579 66.3685 161.697C65.2685 167.084 63.8877 172.5 64.1685 177.999L60.9945 178.588C61.2951 178.892 61.5222 179.263 61.6572 179.673C61.7923 180.084 61.8316 180.521 61.7719 180.949C61.7122 181.378 61.5552 181.786 61.3136 182.141C61.0721 182.496 60.7528 182.787 60.3815 182.991C65.3372 184.694 70.694 183.834 75.9477 183.828C80.2962 183.828 84.6275 184.417 88.9702 184.335C93.313 184.252 97.7932 183.445 101.374 180.916C102.348 180.233 103.242 179.431 104.267 178.836C105.641 178.104 107.121 177.606 108.65 177.363C111.482 176.807 114.361 176.542 117.244 176.573C118.653 176.573 120.189 176.632 121.312 175.759C122.549 174.793 122.864 173.042 123.03 171.457C123.197 169.783 123.3 168.104 123.328 166.424C123.376 165.116 123.309 163.806 123.128 162.511C122.956 161.563 122.732 160.627 122.458 159.705L120.298 151.878C119.404 148.649 120.647 145.107 120.911 141.759C120.974 140.969 120.985 140.05 120.395 139.543C120.183 139.36 119.891 139.237 119.822 138.954C119.791 138.819 119.787 138.68 119.811 138.544C119.835 138.408 119.885 138.279 119.96 138.164C121.105 135.806 122.824 133.726 124.394 131.598C127.031 127.866 129.478 123.997 131.727 120.006C131.023 111.653 127.604 103.789 122.022 97.6806C120.876 96.4016 119.564 95.1758 117.96 94.5982C116.912 94.2688 115.825 94.0884 114.729 94.0619C110.237 93.7495 105.562 93.4725 101.649 91.1504C101.368 90.9503 101.05 90.8119 100.715 90.7438C99.85 90.6436 99.2198 91.5217 98.6584 92.2172C97.2146 93.9853 95.089 94.999 93.2213 96.3015C89.7379 98.7355 87.0166 102.083 84.5014 105.496Z" fill="#145196"/>
<path d="M132.117 122.416C133.011 125.328 132.925 128.44 133.217 131.475C133.39 133.306 133.702 135.121 134.151 136.903C134.355 137.882 134.724 138.817 135.239 139.667C135.755 140.445 136.494 141.076 136.82 141.954C136.999 142.549 137.078 143.17 137.055 143.792L137.124 147.859C137.271 150.014 136.952 152.176 136.19 154.189L133.721 161.915C132.386 166.1 131.017 170.349 128.611 173.991C128.272 174.608 127.758 175.103 127.138 175.412C126.653 175.544 126.156 175.623 125.654 175.648C124.781 175.808 123.989 176.276 123.415 176.972C122.841 177.668 122.521 178.548 122.509 179.461C121.936 178.599 121.22 177.847 120.395 177.239L115.37 173.113C113.652 171.675 111.858 170.214 109.773 169.383C112.578 168.482 115.068 166.762 116.941 164.433C118.815 162.105 119.991 159.266 120.326 156.263C120.324 155.369 120.52 154.487 120.899 153.682C121.317 152.987 122.091 152.456 122.148 151.637C122.217 150.606 121.082 149.828 121.082 148.796C121.082 148.113 121.575 147.547 121.793 146.904C121.996 146.11 121.996 145.276 121.793 144.482L121.1 140.522C121.059 140.125 120.942 139.74 120.756 139.39C120.496 139.054 120.209 138.743 119.896 138.459C118.705 137.086 119.232 134.923 119.896 133.231C121.423 129.477 123.389 125.928 125.752 122.664C126.593 121.568 127.371 120.422 128.083 119.234C128.691 118.149 128.828 116.646 129.47 115.698C130.295 117.925 131.412 120.124 132.117 122.416Z" fill="#145196"/>
<path d="M109.595 169.624C109.339 169.82 109.118 170.059 108.942 170.331C108.267 171.203 107.368 171.863 106.347 172.235C106.92 172.659 107.441 173.078 107.979 173.508C111.964 176.674 115.613 180.263 118.865 184.217C119.226 182.891 121.386 182.985 121.913 181.718C122.037 181.355 122.076 180.968 122.028 180.586C121.918 178.601 121.642 176.629 121.203 174.693C121.029 173.696 120.637 172.753 120.057 171.935C119.255 170.939 118.006 170.461 116.814 170.049C115.009 169.4 111.428 168.487 109.595 169.624Z" fill="#182144"/>
<path d="M102.434 174.257C100.715 175.565 99.208 177.204 97.2773 178.099C95.9137 178.736 94.3611 179.013 93.1694 179.962C93.8168 181.429 95.5012 182.19 97.0653 182.131C98.6308 181.972 100.131 181.407 101.425 180.486C102.451 179.838 103.654 179.084 104.771 179.537C104.943 180.433 104.198 181.276 104.198 182.184C104.198 183.091 104.932 183.751 105.653 184.229C109.091 186.51 113.514 186.321 117.61 186.056C117.845 186.065 118.077 185.994 118.269 185.855C118.358 185.749 118.425 185.625 118.468 185.492C118.51 185.358 118.526 185.217 118.516 185.077C118.567 184.146 118.59 183.221 118.596 182.29C118.712 181.539 118.617 180.77 118.322 180.072C118.028 179.375 117.547 178.778 116.934 178.353C114.711 176.387 112.314 174.641 109.773 173.137C107.252 171.634 104.697 172.524 102.434 174.257Z" fill="#FBB3B2"/>
<path d="M87.8299 63.9689C85.2861 64.2813 83.4356 66.3264 83.6934 68.5483C83.9512 70.7702 86.22 72.3026 88.7637 71.9843C91.3075 71.666 93.158 69.6268 92.9002 67.4108C92.6424 65.1948 90.3736 63.6566 87.8299 63.9689ZM88.695 71.3714C86.5408 71.6366 84.6215 70.3341 84.3981 68.4599C84.1747 66.5857 85.7502 64.853 87.8986 64.5878C90.0471 64.3226 91.9721 65.6251 92.1955 67.4992C92.4189 69.3734 90.8434 71.1062 88.695 71.3714Z" fill="#3C354C"/>
<path d="M75.432 65.5013C72.8882 65.8137 71.0376 67.8588 71.2955 70.0748C71.5533 72.2908 73.8221 73.8291 76.3658 73.5167C78.9096 73.2043 80.7602 71.1592 80.5024 68.9373C80.2446 66.7154 77.9758 65.189 75.432 65.5013ZM76.2971 72.8979C74.1429 73.1631 72.2236 71.8606 72.0059 69.9923C71.7882 68.124 73.3523 66.3854 75.5065 66.1143C77.6607 65.8432 79.58 67.1516 79.7977 69.0257C80.0154 70.8999 78.4456 72.6327 76.2971 72.8979Z" fill="#3C354C"/>
<path d="M66.225 66.6389L71.7537 67.8529L71.2094 69.3499L65.9958 67.7763L66.225 66.6389Z" fill="#3C354C"/>
<path d="M97.0424 62.8316L91.9434 65.36L92.8199 66.6802L97.5236 63.8807L97.0424 62.8316Z" fill="#3C354C"/>
<path d="M79.9924 67.4757L83.8711 66.9983L83.6705 67.9884L80.3419 68.2183L79.9924 67.4757Z" fill="#3C354C"/>
<path d="M72.4698 66.1378C72.8347 65.3303 73.03 64.4527 73.0427 63.5623C73.0563 63.0294 73.1451 62.5013 73.3063 61.9946C73.5879 61.3511 74.0163 60.787 74.5552 60.3503C76.3427 58.7943 78.9037 57.9928 81.4303 57.8808C84.1852 57.7505 86.9257 58.3598 89.3824 59.6489C90.1328 60.0106 90.8049 60.5237 91.3589 61.1577C92.161 62.1655 92.3329 63.468 93.1407 64.464C93.6921 65.0684 94.3857 65.5161 95.1545 65.7639C95.9233 66.0117 96.7413 66.0512 97.5293 65.8785C97.81 64.853 97.4434 63.7686 97.5866 62.7195C97.8124 61.8206 98.1172 60.9447 98.4975 60.1027C99.3856 57.4093 98.0908 54.2857 95.4209 52.6768C94.4871 52.0874 93.3814 51.7043 92.6824 50.9087C91.9834 50.113 91.8173 49.2879 91.336 48.4923C90.0584 46.3882 86.7527 45.404 84.2375 46.3765C83.4469 46.6829 82.7479 47.1485 81.9459 47.4786C80.4563 48.1092 78.7604 48.2212 77.1219 48.4333C75.5068 48.5869 73.9274 49.0131 72.4469 49.6946C71.0318 50.4136 69.8458 51.5688 69.5192 52.9479C69.3645 53.5844 69.3989 54.2445 69.2442 54.8751C68.4536 58.0753 63.3489 59.6312 63.0624 62.8963C62.9593 64.075 63.5838 65.2066 64.3629 66.1673C64.9015 66.8215 66.1906 68.5719 67.1015 68.8253C68.0125 69.0787 68.7057 68.1888 69.5765 67.8823C70.9515 67.4403 71.7823 67.346 72.4698 66.1378Z" fill="#CBCEDA"/>
</svg>
