<svg width="388" height="396" viewBox="0 0 388 396" fill="none" xmlns="http://www.w3.org/2000/svg">
<path d="M222.655 349.003L47.6398 348.159L30.2498 307.841L91.7413 303.428L81.024 259.223L202.647 243.64L86.1832 203.62L96.471 201.204L283.742 231.404L273.429 300.39L258.688 338.303L222.655 349.003Z" fill="#00B8F2"/>
<path d="M50.3242 331.273C50.3242 331.273 61.062 329.574 67.5046 337.075C67.5046 337.075 62.78 340.755 52.6149 335.66L50.3242 331.273Z" fill="#00B8F2"/>
<path d="M49.1995 331.106C49.1995 331.106 42.3478 339.44 45.7225 348.72C45.7225 348.72 51.3061 346.511 51.9146 335.26L49.1995 331.106Z" fill="#00B8F2"/>
<path d="M43.043 317.404C43.043 317.404 47.3381 309.615 64.5185 320.517C64.5185 320.517 62.2278 325.753 54.6397 325.329C47.0517 324.904 45.0473 321.508 43.043 317.404Z" fill="#00B8F2"/>
<path d="M41.9334 316.842C41.9334 316.842 33.0211 315.832 32.157 335.998C32.157 335.998 37.8071 337.156 41.8209 330.777C45.8348 324.399 44.1884 320.82 41.9334 316.842Z" fill="#00B8F2"/>
<path d="M36.7437 300.754C36.7437 300.754 41.7546 287.027 59.9372 296.792C59.9372 296.792 55.7853 309.387 38.6049 305.425L36.7437 300.754Z" fill="#00B8F2"/>
<path d="M31.1599 280.234C31.1599 280.234 40.6091 266.364 57.36 279.223C57.36 279.223 51.4901 292.243 32.5916 285.167L31.1599 280.234Z" fill="#00B8F2"/>
<path d="M29.1555 260.704C29.1555 260.704 40.1796 247.962 56.7669 260.704C56.7669 260.704 46.3155 271.884 29.1555 263.959V260.704Z" fill="#00B8F2"/>
<path d="M27.4375 241.735C27.4375 241.735 38.6048 228.432 54.4966 241.027C54.4966 241.027 41.8977 252.773 27.4375 244.848V241.735Z" fill="#00B8F2"/>
<path d="M28.4397 224.894C28.4397 224.894 40.2001 207.769 55.0693 219.374C55.0693 219.374 42.4704 234.093 28.4397 228.149V224.894Z" fill="#00B8F2"/>
<path d="M31.1599 205.222C31.1599 205.222 43.6157 188.239 58.0759 201.259C58.0759 201.259 43.3294 215.978 31.1599 208.335V205.222Z" fill="#00B8F2"/>
<path d="M35.3117 187.638C35.3117 187.638 50.0583 171.676 62.9231 178.035C62.9231 178.035 47.5579 194.987 34.6675 191.873L35.3117 187.638Z" fill="#00B8F2"/>
<path d="M40.466 170.969C40.466 170.969 57.4828 151.418 67.382 157.949C67.382 157.949 54.8444 173.112 39.2593 174.628L40.466 170.969Z" fill="#00B8F2"/>
<path d="M47.9058 151.636C47.9058 151.636 62.8006 135.674 73.6815 139.637C73.6815 139.637 60.9393 156.195 45.9065 156.619L47.9058 151.636Z" fill="#00B8F2"/>
<path d="M54.6397 133.551C54.6397 133.551 71.1042 118.267 78.2627 120.956C78.2627 120.956 66.3796 137.938 53.9238 136.948L54.6397 133.551Z" fill="#00B8F2"/>
<path d="M61.2256 116.852C61.2256 116.852 75.3994 98.5902 83.1357 100.005C83.1357 100.005 74.5404 116.286 61.2256 118.707V116.852Z" fill="#00B8F2"/>
<path d="M68.3739 94.3345C68.3739 94.3345 80.9012 80.339 87.6711 80.3693C87.6711 80.3693 77.7822 99.0704 67.8574 98.8986L68.3739 94.3345Z" fill="#00B8F2"/>
<path d="M72.6077 79.3433L84.7107 50.1898C84.7107 50.1898 85.314 76.5432 71.0686 84.7514L72.6077 79.3433Z" fill="#00B8F2"/>
<path d="M77.5215 47.1925C77.5215 47.1925 79.5259 22.8457 78.2374 20.8644C78.2374 20.8644 86.8889 41.1071 77.4397 57.9482L77.5215 47.1925Z" fill="#00B8F2"/>
<path d="M36.2731 300.431C36.2731 300.431 23.7252 292.743 15.6003 311.551C15.6003 311.551 26.7676 318.879 37.7508 305.228L36.2731 300.431Z" fill="#00B8F2"/>
<path d="M30.756 279.45C30.756 279.45 15.3652 272.511 7.8999 292.147C7.8999 292.147 19.7881 300.234 32.157 284.414L30.756 279.45Z" fill="#00B8F2"/>
<path d="M28.4397 261.871C28.4397 261.871 17.4156 249.129 0.828369 261.871C0.828369 261.871 11.2798 273.052 28.4397 265.126V261.871Z" fill="#00B8F2"/>
<path d="M27.0591 241.735C27.0591 241.735 15.8919 228.432 0 241.027C0 241.027 12.599 252.773 27.0591 244.848V241.735Z" fill="#00B8F2"/>
<path d="M28.4398 225.379C28.4398 225.379 20.6063 206.198 3.57935 214.446C3.57935 214.446 12.7831 231.454 27.7444 228.563L28.4398 225.379Z" fill="#00B8F2"/>
<path d="M32.1468 205.126C32.1468 205.126 24.3594 185.611 7.09204 194.658C7.09204 194.658 17.6662 212.546 31.3798 208.138L32.1468 205.126Z" fill="#00B8F2"/>
<path d="M36.9736 187.734C36.9736 187.734 33.9056 166.339 19.5886 164.423C19.5886 164.423 22.6259 186.986 35.0459 191.59L36.9736 187.734Z" fill="#00B8F2"/>
<path d="M40.829 171.009C40.829 171.009 39.6325 145.232 27.7954 144.332C27.7954 144.332 28.1942 163.898 39.4944 174.658L40.829 171.009Z" fill="#00B8F2"/>
<path d="M49.1328 150.913C49.1328 150.913 45.6046 129.477 34.3044 126.859C34.3044 126.859 35.7055 147.618 48.013 156.175L49.1328 150.913Z" fill="#00B8F2"/>
<path d="M55.9795 133.728C55.9795 133.728 55.8619 111.398 48.959 108.118C48.959 108.118 44.6793 128.335 53.9802 136.579L55.9795 133.728Z" fill="#00B8F2"/>
<path d="M61.7524 116.599C61.7524 116.599 60.786 93.6067 53.6377 90.3668C53.6377 90.3668 51.1936 108.562 60.6837 118.105L61.7524 116.599Z" fill="#00B8F2"/>
<path d="M69.371 96.1692C69.371 96.1692 69.3301 77.4681 64.2271 73.0809C64.2271 73.0809 59.1548 93.5662 66.707 99.9297L69.371 96.1692Z" fill="#00B8F2"/>
<path d="M72.0094 78.4234L67.0445 47.2987C67.0445 47.2987 60.3002 72.803 72.2446 84.0439L72.0094 78.4234Z" fill="#00B8F2"/>
<path d="M72.9758 47.4857C72.9758 47.4857 60.2337 26.5607 60.4944 24.2357C60.4944 24.2357 61.8494 46.1665 77.8794 57.089L72.9758 47.4857Z" fill="#00B8F2"/>
<path d="M74.4689 41.3042C74.4689 41.3042 62.4427 11.5846 57.0022 9.17871C57.0022 9.17871 74.1826 17.8116 75.4711 40.4551L74.4689 41.3042Z" fill="#00B8F2"/>
<path d="M67.7961 99.0755L66.9729 98.8278C77.1226 66.111 79.6537 45.2516 74.1058 40.0204L74.6938 39.4037C80.5791 44.9231 78.1913 65.555 67.7961 99.0755Z" fill="#444053"/>
<path d="M39.8473 175.679L38.6304 175.25C39.7093 172.252 40.87 169.21 42.0869 166.212C52.6815 140.112 61.7012 115.831 67.4842 97.1902L68.5427 96.6848C62.7494 115.361 53.8882 140.572 43.2834 166.708C42.0716 169.649 40.916 172.677 39.8473 175.679Z" fill="#444053"/>
<path d="M65.4543 355.756C65.2907 355.579 48.8415 337.267 37.3725 306.006C30.6524 287.704 26.9125 268.464 26.2922 249.003C25.5047 224.676 30.6691 197.514 39.515 172.839L40.4762 173.951C20.6165 229.331 28.5062 276.787 38.973 305.364C50.3192 336.342 66.5843 354.452 66.7428 354.634L65.4543 355.756Z" fill="#444053"/>
<path d="M322.506 316.878C322.506 316.878 310.914 330.863 320.118 352.006L227.569 391.682L218.687 393.522L214.596 375.832L217.332 353.507V341.306L322.506 316.878Z" fill="#D5D6DB"/>
<path d="M30.2498 307.841L158.346 284.757L328.079 311.485L222.655 349.003L30.2498 307.841Z" fill="#00B8F2"/>
<path d="M30.2498 307.841L158.346 284.757L328.079 311.485L222.655 349.003L30.2498 307.841Z" fill="#00B8F2"/>
<path d="M30.2498 307.836C30.2498 307.836 18.2695 330.272 32.0752 350.995L222.031 391.682C222.031 391.682 210.24 373.81 222.64 349.003L30.2498 307.836Z" fill="#00B8F2"/>
<path opacity="0.1" d="M30.2498 307.836C30.2498 307.836 18.2695 330.272 32.0752 350.995L222.031 391.682C222.031 391.682 210.24 373.81 222.64 349.003L30.2498 307.836Z" fill="black"/>
<path opacity="0.1" d="M35.9101 315.614C35.9101 315.614 29.0635 332.031 35.9101 342.655V315.614Z" fill="black"/>
<path d="M222.031 391.682L328.079 346.951C328.079 346.951 334.01 348.215 330.176 352.511C326.341 356.807 224.076 395.978 224.076 395.978L32.0752 350.995L222.031 391.682Z" fill="#00B8F2"/>
<path opacity="0.1" d="M222.031 391.682L328.079 346.951C328.079 346.951 334.01 348.215 330.176 352.511C326.341 356.807 224.076 395.978 224.076 395.978L32.0752 350.995L222.031 391.682Z" fill="black"/>
<path opacity="0.1" d="M213.339 353.522C213.339 353.522 203.112 365.652 213.339 383.848V353.522Z" fill="black"/>
<path opacity="0.1" d="M262.848 353.317L216.978 368.444L217.14 368.923L263.01 353.796L262.848 353.317Z" fill="black"/>
<path opacity="0.1" d="M272.036 351.811L216.964 372.512L217.146 372.985L272.218 352.284L272.036 351.811Z" fill="black"/>
<path opacity="0.1" d="M280.474 351.739L217.271 377.311L217.465 377.779L280.667 352.207L280.474 351.739Z" fill="black"/>
<path opacity="0.1" d="M289.649 349.549L218.009 381.538L218.219 381.999L289.86 350.01L289.649 349.549Z" fill="black"/>
<path opacity="0.1" d="M297.358 349.56L218.576 383.598L218.781 384.062L297.562 350.023L297.358 349.56Z" fill="black"/>
<path opacity="0.1" d="M314.218 346.729L219.764 387.055L219.967 387.519L314.421 347.193L314.218 346.729Z" fill="black"/>
<path opacity="0.3" d="M77.8384 310.307L167.831 291.606L222.655 301.967L148.912 325.47L77.8384 310.307Z" fill="white"/>
<path d="M328.079 311.485C328.079 311.485 332.732 313.34 330.002 316.206C327.271 319.071 222.64 349.003 222.64 349.003L328.079 311.485Z" fill="#00B8F2"/>
<path d="M373.275 268.265C373.275 268.265 361.688 282.245 370.892 303.393L278.343 343.069L269.461 344.919L265.371 327.229L268.147 304.909V292.693L373.275 268.265Z" fill="#D5D6DB"/>
<path d="M81.0239 259.223L209.115 236.145L378.853 262.872L273.429 300.391L81.0239 259.223Z" fill="#3A3768"/>
<path d="M81.0036 259.223C81.0036 259.223 69.0182 281.659 82.8239 302.382L272.78 343.07C272.78 343.07 260.994 325.182 273.409 300.385L81.0036 259.223Z" fill="#3A3768"/>
<path opacity="0.1" d="M81.0036 259.223C81.0036 259.223 69.0182 281.659 82.8239 302.382L272.78 343.07C272.78 343.07 260.994 325.182 273.409 300.385L213.339 287.532L81.0036 259.223Z" fill="black"/>
<path opacity="0.1" d="M86.6791 267.001C86.6791 267.001 79.8376 283.413 86.6791 294.042V267.001Z" fill="black"/>
<path d="M272.8 343.069L378.853 298.338C378.853 298.338 384.78 299.602 380.945 303.898C377.11 308.194 274.845 347.366 274.845 347.366L82.8442 302.382L272.8 343.069Z" fill="#3A3768"/>
<path opacity="0.1" d="M272.8 343.069L378.853 298.338C378.853 298.338 384.78 299.602 380.945 303.898C377.11 308.194 274.845 347.366 274.845 347.366L82.8442 302.382L272.8 343.069Z" fill="black"/>
<path opacity="0.1" d="M264.108 304.909C264.108 304.909 253.881 317.04 264.108 335.235V304.909Z" fill="black"/>
<path opacity="0.1" d="M313.622 304.709L267.751 319.837L267.913 320.316L313.783 305.189L313.622 304.709Z" fill="black"/>
<path opacity="0.1" d="M322.815 303.202L267.743 323.902L267.925 324.375L322.997 303.674L322.815 303.202Z" fill="black"/>
<path opacity="0.1" d="M331.246 303.122L268.043 328.694L268.237 329.162L331.439 303.59L331.246 303.122Z" fill="black"/>
<path opacity="0.1" d="M340.427 300.933L268.787 332.923L268.997 333.383L340.637 301.394L340.427 300.933Z" fill="black"/>
<path opacity="0.1" d="M348.128 300.937L269.347 334.976L269.551 335.439L348.333 301.4L348.128 300.937Z" fill="black"/>
<path opacity="0.1" d="M364.993 298.107L270.539 338.433L270.741 338.897L365.196 298.571L364.993 298.107Z" fill="black"/>
<path opacity="0.45" d="M128.613 261.694L218.605 242.993L273.429 253.355L199.686 276.857L128.613 261.694Z" fill="white"/>
<path d="M378.853 262.872C378.853 262.872 383.501 264.727 380.776 267.588C378.051 270.448 273.429 300.385 273.429 300.385L378.853 262.872Z" fill="#3A3768"/>
<path d="M378.081 212.652C378.081 212.652 366.49 237.757 375.693 258.899L283.144 287.456L274.283 289.311L270.192 271.621L272.928 249.296V237.08L378.081 212.652Z" fill="#D5D6DB"/>
<path d="M85.8457 203.615L213.942 180.531L383.68 207.259L278.251 244.777L85.8457 203.615Z" fill="#00B8F2"/>
<path d="M85.8458 203.61C85.8458 203.61 73.8451 226.046 87.6508 246.769L277.607 287.456C277.607 287.456 265.816 269.569 278.23 244.777L85.8458 203.61Z" fill="#00B8F2"/>
<path opacity="0.1" d="M85.8458 203.61C85.8458 203.61 73.8451 226.046 87.6508 246.769L277.607 287.456C277.607 287.456 265.816 269.569 278.23 244.777L85.8458 203.61Z" fill="black"/>
<path opacity="0.1" d="M91.5061 211.388C91.5061 211.388 84.6595 227.805 91.5061 238.429V211.388Z" fill="black"/>
<path d="M277.627 287.456L383.675 253.845C383.675 253.845 389.606 255.108 385.772 259.405C381.937 263.701 279.672 291.753 279.672 291.753L87.6711 246.769L277.627 287.456Z" fill="#00B8F2"/>
<path opacity="0.1" d="M277.627 287.456L383.675 253.845C383.675 253.845 389.606 255.108 385.772 259.405C381.937 263.701 279.672 291.753 279.672 291.753L87.6711 246.769L277.627 287.456Z" fill="black"/>
<path opacity="0.1" d="M268.935 249.296C268.935 249.296 258.708 261.426 268.935 279.622V249.296Z" fill="black"/>
<path opacity="0.1" d="M318.45 249.095L272.58 264.223L272.741 264.702L318.612 249.575L318.45 249.095Z" fill="black"/>
<path opacity="0.1" d="M327.64 247.59L272.568 268.291L272.75 268.763L327.822 248.063L327.64 247.59Z" fill="black"/>
<path opacity="0.1" d="M336.066 247.513L272.863 273.085L273.057 273.553L336.26 247.981L336.066 247.513Z" fill="black"/>
<path opacity="0.1" d="M345.254 245.32L273.614 277.309L273.825 277.77L345.465 245.78L345.254 245.32Z" fill="black"/>
<path opacity="0.1" d="M352.958 245.329L274.176 279.367L274.381 279.831L353.163 245.792L352.958 245.329Z" fill="black"/>
<path opacity="0.1" d="M369.821 242.501L275.367 282.828L275.569 283.292L370.024 242.965L369.821 242.501Z" fill="black"/>
<path opacity="0.3" d="M133.435 206.081L223.427 187.38L278.251 197.742L204.508 221.244L133.435 206.081Z" fill="white"/>
<path d="M383.675 207.259C383.675 207.259 388.328 209.114 385.598 211.98C382.867 214.846 278.251 244.777 278.251 244.777L383.675 207.259Z" fill="#00B8F2"/>
<path d="M158.724 53.8289C158.724 53.8289 139.294 52.6714 141.564 66.1463C141.564 66.1463 141.109 68.527 143.293 69.6086C143.293 69.6086 143.328 68.5977 145.287 68.9465C145.986 69.0651 146.697 69.0991 147.404 69.0476C148.357 68.983 149.263 68.6141 149.986 67.9962C149.986 67.9962 155.452 65.7622 157.579 56.9272C157.579 56.9272 159.154 55.0015 159.113 54.5062L155.82 55.8911C155.82 55.8911 156.94 58.2312 156.06 60.1772C156.06 60.1772 155.953 55.977 155.319 56.073C155.191 56.073 153.616 56.8868 153.616 56.8868C153.616 56.8868 155.544 60.9656 154.087 63.9275C154.087 63.9275 154.639 58.9035 153.013 57.1799L150.702 58.5143C150.702 58.5143 152.957 62.7246 151.428 66.1615C151.428 66.1615 151.821 60.8898 150.216 58.8378L148.12 60.4552C148.12 60.4552 150.242 64.6048 148.948 67.4554C148.948 67.4554 148.779 61.3194 147.67 60.8544C147.67 60.8544 145.834 62.4516 145.558 63.1087C145.558 63.1087 147.01 66.1413 146.105 67.7132C146.105 67.7132 145.558 63.6242 145.082 63.604C145.082 63.604 143.257 66.3131 143.068 68.1529C143.156 66.4377 143.697 64.7753 144.637 63.3311C143.585 63.5278 142.615 64.0251 141.846 64.7615C141.846 64.7615 142.127 62.8459 145.093 62.6791C145.093 62.6791 146.601 60.6219 147.005 60.5006C147.005 60.5006 144.055 60.253 142.27 61.0364C142.27 61.0364 143.845 59.232 147.542 60.0255L149.587 58.3576C149.587 58.3576 145.711 57.8522 144.065 58.4132C144.065 58.4132 145.962 56.816 150.144 57.9785L152.399 56.6492C152.399 56.6492 149.091 55.9467 147.122 56.1994C147.122 56.1994 149.198 55.0925 153.059 56.2904L154.664 55.5777C154.664 55.5777 152.246 55.1076 151.535 55.0318C150.824 54.956 150.789 54.764 150.789 54.764C152.324 54.5147 153.899 54.6897 155.339 55.2694C155.339 55.2694 158.791 54.0412 158.724 53.8289Z" fill="#00B8F2"/>
<path opacity="0.1" d="M351.344 127.025C351.344 127.025 331.914 125.867 334.185 139.342C334.185 139.342 333.729 141.723 335.913 142.805C335.913 142.805 335.949 141.794 337.907 142.142C338.606 142.258 339.317 142.292 340.024 142.244C340.968 142.175 341.865 141.806 342.58 141.192C342.58 141.192 348.051 138.958 350.173 130.123C350.173 130.123 351.748 128.197 351.707 127.702L348.425 129.087C348.425 129.087 349.545 131.427 348.665 133.373C348.665 133.373 348.558 129.173 347.929 129.269C347.801 129.269 346.221 130.083 346.221 130.083C346.221 130.083 348.149 134.162 346.696 137.123C346.696 137.123 347.249 132.099 345.618 130.376L343.306 131.71C343.306 131.71 345.561 135.921 344.033 139.358C344.033 139.358 344.426 134.086 342.821 132.034L340.729 133.651C340.729 133.651 342.846 137.801 341.553 140.651C341.553 140.651 341.384 134.515 340.274 134.05C340.274 134.05 338.444 135.648 338.163 136.305C338.163 136.305 339.615 139.337 338.715 140.909C338.715 140.909 338.163 136.82 337.692 136.8C337.692 136.8 335.867 139.509 335.678 141.349C335.766 139.633 336.309 137.97 337.252 136.527C336.199 136.724 335.227 137.221 334.456 137.957C334.456 137.957 334.742 136.042 337.702 135.875C337.702 135.875 339.211 133.818 339.615 133.692C339.615 133.692 336.67 133.449 334.88 134.232C334.88 134.232 336.455 132.428 340.152 133.222L342.197 131.554C342.197 131.554 338.316 131.048 336.675 131.609C336.675 131.609 338.567 130.012 342.754 131.174L345.004 129.845C345.004 129.845 341.696 129.143 339.727 129.395C339.727 129.395 341.803 128.288 345.664 129.486L347.274 128.774C347.274 128.774 344.851 128.304 344.14 128.228C343.429 128.152 343.393 127.96 343.393 127.96C344.928 127.708 346.504 127.883 347.944 128.465C347.944 128.465 351.406 127.237 351.344 127.025Z" fill="#00B8F2"/>
<path opacity="0.1" d="M189 135.896C189 135.896 182.294 122.075 173.757 128.887C173.757 128.887 171.914 129.499 172.003 131.419C172.003 131.419 172.712 131.053 173.218 132.535C173.407 133.058 173.657 133.558 173.963 134.024C174.378 134.656 174.987 135.136 175.701 135.393C175.701 135.393 179.374 138.284 186.376 136.311C186.376 136.311 188.332 136.645 188.652 136.412L186.416 134.693C186.416 134.693 185.201 136.371 183.509 136.52C183.509 136.52 186.408 134.817 186.096 134.423C186.032 134.342 184.881 133.565 184.881 133.565C184.881 133.565 182.771 136.476 180.139 136.625C180.139 136.625 183.865 135.055 184.44 133.263L182.618 132.192C182.618 132.192 180.54 135.381 177.547 135.663C177.547 135.663 181.386 133.887 182.2 131.987L180.265 131.182C180.265 131.182 178.179 134.25 175.684 134.471C175.684 134.471 179.912 131.971 179.807 131.025C179.807 131.025 177.981 130.389 177.414 130.449C177.414 130.449 175.867 132.619 174.409 132.619C174.409 132.619 177.053 130.65 176.891 130.332C176.891 130.332 174.291 130.131 172.922 130.735C174.156 130.126 175.528 129.848 176.903 129.93C176.358 129.283 175.634 128.809 174.822 128.565C174.822 128.565 176.272 128.017 177.531 129.986C177.531 129.986 179.556 130.224 179.795 130.453C179.795 130.453 178.827 128.335 177.592 127.414C177.592 127.414 179.463 127.788 180.317 130.634L182.281 131.407C182.281 131.407 181.152 128.541 180.111 127.635C180.111 127.635 181.957 128.315 182.763 131.661L184.561 132.692C184.561 132.692 183.78 130.143 182.84 128.891C182.84 128.891 184.416 129.89 185.068 133.006L186.189 133.835C186.189 133.835 185.582 131.987 185.38 131.472C185.177 130.956 185.278 130.852 185.278 130.852C186.049 131.808 186.537 132.958 186.688 134.173C186.688 134.173 188.854 136.017 189 135.896Z" fill="#00B8F2"/>
<path opacity="0.1" d="M378.532 88.0883C378.532 88.0883 385.156 75.9876 375.716 73.231C375.716 73.231 374.309 72.1946 372.947 73.2528C372.947 73.2528 373.584 73.5898 372.764 74.7256C372.478 75.1372 372.242 75.5824 372.061 76.0516C371.815 76.6824 371.782 77.379 371.966 78.0354C371.966 78.0354 371.767 82.2415 376.857 86.3732C376.857 86.3732 377.636 87.9845 377.976 88.102L378.078 85.5717C378.078 85.5717 376.212 85.5497 375.223 84.3835C375.223 84.3835 377.982 85.6304 378.108 85.1963C378.134 85.1068 378.103 83.8571 378.103 83.8571C378.103 83.8571 374.874 83.8158 373.39 81.9519C373.39 81.9519 376.484 83.884 378.093 83.3806L377.906 81.4669C377.906 81.4669 374.493 81.5914 372.721 79.5331C372.721 79.5331 376.026 81.4372 377.844 81.0542L377.422 79.2085C377.422 79.2085 374.085 79.2656 372.628 77.5446C372.628 77.5446 376.66 79.3582 377.295 78.7923C377.295 78.7923 376.814 77.1186 376.471 76.7346C376.471 76.7346 374.078 76.7185 373.316 75.6421C373.316 75.6421 376.138 76.5715 376.287 76.2873C376.287 76.2873 375.078 74.2687 373.92 73.571C375.01 74.163 375.929 75.0297 376.586 76.0845C376.776 75.349 376.747 74.5712 376.502 73.8473C376.502 73.8473 377.658 74.6309 376.874 76.5789C376.874 76.5789 377.753 78.195 377.709 78.4899C377.709 78.4899 378.758 76.6773 378.787 75.2868C378.787 75.2868 379.485 76.8606 377.835 78.9739L378.296 80.8237C378.296 80.8237 379.808 78.5036 379.928 77.2676C379.928 77.2676 380.393 78.98 378.362 81.305L378.547 83.1662C378.547 83.1662 380 81.2686 380.43 79.9255C380.43 79.9255 380.523 81.6061 378.579 83.6988L378.557 84.9547C378.557 84.9547 379.595 83.5523 379.865 83.1331C380.134 82.7138 380.263 82.7392 380.263 82.7392C379.963 83.8008 379.375 84.7551 378.564 85.4959C378.564 85.4959 378.373 88.0627 378.532 88.0883Z" fill="#00B8F2"/>
<path opacity="0.4" d="M120 188.228C120 188.228 114.878 178.553 108.342 183.32C108.342 183.32 106.937 183.748 107.002 185.092C107.002 185.092 107.547 184.839 107.931 185.873C108.074 186.241 108.265 186.592 108.5 186.918C108.816 187.359 109.281 187.695 109.825 187.873C109.825 187.873 112.635 189.899 117.985 188.518C117.985 188.518 119.477 188.752 119.725 188.586L118.016 187.383C118.016 187.383 117.088 188.561 115.794 188.665C115.794 188.665 118.007 187.47 117.769 187.194C117.719 187.138 116.84 186.594 116.84 186.594C116.84 186.594 115.231 188.631 113.216 188.738C113.216 188.738 116.067 187.636 116.506 186.386L115.11 185.636C115.11 185.636 113.526 187.867 111.236 188.065C111.236 188.065 114.17 186.819 114.795 185.49L113.312 184.926C113.312 184.926 111.719 187.073 109.815 187.228C109.815 187.228 113.046 185.478 112.966 184.816C112.966 184.816 111.57 184.368 111.137 184.413C111.137 184.413 109.955 185.929 108.837 185.929C108.837 185.929 110.861 184.551 110.738 184.329C110.738 184.329 108.751 184.188 107.702 184.611C108.645 184.184 109.695 183.99 110.747 184.047C110.331 183.594 109.778 183.261 109.156 183.092C109.156 183.092 110.264 182.706 111.226 184.087C111.226 184.087 112.774 184.253 112.956 184.413C112.956 184.413 112.217 182.931 111.273 182.283C111.273 182.283 112.703 182.548 113.356 184.551L114.857 185.092C114.857 185.092 113.993 183.084 113.198 182.453C113.198 182.453 114.609 182.926 115.222 185.27L116.599 185.988C116.599 185.988 115.999 184.208 115.281 183.329C115.281 183.329 116.487 184.027 116.986 186.211L117.843 186.774C117.843 186.774 117.379 185.481 117.224 185.121C117.069 184.76 117.147 184.69 117.147 184.69C117.735 185.358 118.107 186.163 118.221 187.014C118.221 187.014 119.904 188.313 120 188.228Z" fill="#00B8F2"/>
<path opacity="0.6" d="M122.418 96C122.418 96 105.922 104.69 114.445 114.926C114.445 114.926 115.247 117.148 117.565 116.992C117.565 116.992 117.103 116.13 118.872 115.442C119.501 115.194 120.099 114.87 120.654 114.478C121.403 113.949 121.963 113.187 122.248 112.305C122.248 112.305 125.621 107.702 123.007 99.1855C123.007 99.1855 123.346 96.7775 123.05 96.3865L121.046 99.1899C121.046 99.1899 123.116 100.607 123.355 102.691C123.355 102.691 121.177 99.1944 120.741 99.5809C120.645 99.6609 119.747 101.114 119.747 101.114C119.747 101.114 123.338 103.597 123.604 106.823C123.604 106.823 121.582 102.304 119.399 101.66L118.148 103.935C118.148 103.935 122.07 106.369 122.506 110.03C122.506 110.03 120.227 105.388 117.9 104.45L116.981 106.854C116.981 106.854 120.763 109.306 121.111 112.354C121.111 112.354 117.948 107.258 116.811 107.418C116.811 107.418 116.096 109.675 116.192 110.372C116.192 110.372 118.863 112.194 118.911 113.984C118.911 113.984 116.445 110.808 116.066 111.017C116.066 111.017 115.909 114.211 116.667 115.873C116.667 115.873 115.36 113.5 115.573 111.017C114.809 111.706 114.259 112.608 113.992 113.611C113.992 113.611 113.281 111.856 115.621 110.239C115.621 110.239 115.843 107.756 116.114 107.449C116.114 107.449 113.582 108.711 112.506 110.257C112.506 110.257 112.902 107.951 116.336 106.805L117.207 104.37C117.207 104.37 113.774 105.854 112.715 107.16C112.715 107.16 113.478 104.872 117.477 103.775L118.663 101.553C118.663 101.553 115.613 102.602 114.122 103.775C114.122 103.775 115.277 101.807 119.029 100.9L119.991 99.5009C119.991 99.5009 117.778 100.305 117.159 100.594C116.541 100.883 116.419 100.74 116.419 100.74C117.55 99.765 118.924 99.1283 120.388 98.9011C120.388 98.9011 122.571 96.1511 122.418 96Z" fill="#00B8F2"/>
<path d="M365.574 190.696C362.23 181.714 343.823 180.87 335.836 183.16C330.16 184.792 318.195 186.632 311.804 187.557L311.39 187.168C312.218 186.925 312.238 186.329 312.136 185.444C312.077 184.279 312.094 183.11 312.187 181.947C316.104 183.15 319.591 180.304 319.591 180.304C324.193 178.282 322.956 169.629 323.835 167.264C324.495 165.495 325.205 155.073 325.522 149.877H325.589L325.625 148.133C325.671 147.38 325.691 146.94 325.691 146.94C325.691 146.94 326.141 134.234 327.021 131.661C327.839 129.296 328.503 117.377 328.606 115.487C328.606 115.325 328.606 115.239 328.606 115.239L328.539 114.138C328.585 113.334 328.606 112.439 328.601 111.499C328.601 107.178 328.146 101.734 328.089 100.855C328.089 100.728 328.089 100.577 328.089 100.395C328.125 98.5499 327.89 89.3105 319.939 85.818C317.009 84.524 313.486 82.9825 310.075 81.4813C309.196 73.9756 307.186 66.5103 307.36 58.949C307.36 57.8118 307.463 56.6745 307.575 55.5424C307.575 55.8709 307.539 56.2045 307.534 56.5532C307.534 57.2861 307.534 58.024 307.534 58.7569C307.836 49.3002 311.451 39.793 311.113 30.5385C311.083 31.4432 311.016 32.353 310.929 33.2628C311.106 30.1325 310.774 26.9945 309.948 23.9678C309.641 22.9013 309.227 21.7995 308.342 21.0868C307.506 20.5129 306.547 20.1375 305.54 19.99C303.12 19.3778 300.662 18.9253 298.182 18.6354C297.805 17.4951 297.246 16.4217 296.525 15.4563C291.341 8.42059 283.661 1.8095 274.579 0.293189C270.024 -0.464965 264.783 0.16683 261.684 3.38645C261.36 3.66929 261.056 3.97323 260.774 4.29624C259.107 6.26238 258.391 8.84516 256.683 10.8063C256.571 10.9377 256.443 11.059 256.32 11.1853C252.976 14.1421 247.766 14.7588 244.048 17.4123C243.393 17.8886 242.78 18.4178 242.213 18.9943C240.715 20.4615 239.372 22.0754 238.204 23.8111C236.532 26.1361 234.814 28.5572 234.282 31.332C233.214 36.8918 237.043 42.1635 237.754 47.7587C239.339 60.2783 225.324 71.3878 227.978 83.7406C228.686 86.7753 230.249 89.5495 232.488 91.7417C227.021 96.6343 222.368 101.38 222.368 101.38V101.663H221.504L221.591 102.674H221.504L221.98 108.158L221.504 116.144C221.504 116.144 221.504 116.23 221.504 116.392V116.432V116.65C221.504 116.65 221.504 116.735 221.504 116.897H221.535C221.694 119.824 222.322 130.347 223.069 132.566C223.948 135.138 224.393 147.845 224.393 147.845C224.393 147.845 225.365 165.803 226.254 168.179C227.144 170.554 225.881 179.182 230.498 181.219C231.849 182.243 233.449 182.898 235.136 183.119C234.901 185.01 235.049 186.379 235.811 186.809C236.137 186.999 236.507 187.103 236.885 187.112C236.572 187.572 236.293 188.053 236.051 188.553C234.219 188.364 232.418 187.944 230.693 187.304C225.733 185.283 209.274 180.734 204.493 183.933C199.712 187.133 188.207 190.034 193.52 202.912C198.832 215.791 201.307 216.114 201.307 216.114C202.942 217.288 204.377 218.713 205.556 220.335C207.152 222.705 222.016 228.128 225.733 228.128C227.313 228.104 228.893 228.182 230.463 228.361C230.463 228.361 226.428 231.859 226.965 233.89C227.502 235.922 225.738 252.187 225.738 252.187C225.738 252.187 229.829 256.261 231.577 250.918L231.639 250.999C231.966 251.439 233.735 253.425 237.064 250.918C238.426 249.897 239.873 248.991 241.39 248.209L257.506 245.955C259.187 245.851 260.872 245.839 262.553 245.92C265.11 246.127 267.62 244.631 269.2 243.473C272.539 244.727 276.292 246.097 278.077 246.597C281.697 247.608 298.335 252.02 302.227 250.641C303.035 250.323 303.755 249.816 304.323 249.165L308.035 249.281L306.297 249.625C306.297 249.625 309.682 249.68 314.284 249.741L314.089 249.852L319.862 249.801C328.309 249.877 337.799 249.903 339.047 249.625C341 249.195 351.15 249.498 354.141 249.625H354.975C354.975 249.625 366.126 247.426 361.525 236.241C357.986 227.648 347.11 225.151 342.284 224.464C343.644 224.196 344.815 223.989 345.592 223.868C348.961 223.362 355.506 220.33 356.038 219.293C356.57 218.257 362.056 215.25 363.473 213.536C364.889 211.823 368.934 199.677 365.574 190.696ZM273.204 215.831L272.657 216.008L272.289 216.129L271.583 216.817C271.021 216.443 270.417 216.048 269.788 215.644C270.898 215.71 272.038 215.776 273.204 215.831Z" fill="url(#paint0_linear)"/>
<path d="M305.806 162.538C305.806 162.538 313.629 182.755 318.078 180.734C322.526 178.712 321.319 170.12 322.168 167.764C323.017 165.409 323.958 147.547 323.958 147.547C323.958 147.547 324.387 134.911 325.236 132.353C326.024 130.003 326.663 118.151 326.77 116.286C326.77 116.124 326.77 116.038 326.77 116.038L325.926 101.38L321.151 100.203L310.075 104.246L308.541 112.904L307.943 116.286L307.688 117.726L305.806 162.538Z" fill="#ECBCB4"/>
<path opacity="0.1" d="M308.383 159.152C308.383 159.152 315.848 165.191 318.098 165.722C320.348 166.253 321.729 170.964 321.729 170.964" fill="black"/>
<path d="M244.627 163.422C244.627 163.422 236.803 183.64 232.355 181.618C227.906 179.596 229.113 171.004 228.264 168.649C227.415 166.293 226.475 148.431 226.475 148.431C226.475 148.431 226.045 135.795 225.196 133.238C224.409 130.888 223.77 119.035 223.662 117.17C223.662 117.008 223.662 116.922 223.662 116.922L224.511 102.265L229.287 101.087L240.362 105.131L241.896 113.789L242.494 117.17L242.75 118.611L244.627 163.422Z" fill="#BE6F72"/>
<path d="M295.569 55.2289H278.108V82.1333H295.569V55.2289Z" fill="#3E373A"/>
<path opacity="0.1" d="M295.569 55.2289H278.108V82.1333H295.569V55.2289Z" fill="black"/>
<path d="M241.558 183.559C241.558 183.559 235.591 190.044 237.805 191.221C240.019 192.399 254.341 214.471 254.341 214.471C254.341 214.471 301.383 220.198 310.254 211.606C319.126 203.013 318.947 187.663 318.947 187.663C318.947 187.663 311.819 189.179 311.042 188.356C310.265 187.532 305.995 183.559 305.995 183.559C305.995 183.559 245.649 179.94 241.558 183.559Z" fill="#4B4B5B"/>
<path opacity="0.02" d="M241.558 183.559C241.558 183.559 235.591 190.044 237.805 191.221C240.019 192.399 254.341 214.471 254.341 214.471C254.341 214.471 301.383 220.198 310.254 211.606C319.126 203.013 318.947 187.663 318.947 187.663C318.947 187.663 311.819 189.179 311.042 188.356C310.265 187.532 305.995 183.559 305.995 183.559C305.995 183.559 245.649 179.94 241.558 183.559Z" fill="black"/>
<path d="M326.244 101.593L310.904 113.723L306.266 114.057L304.564 114.178L275.965 116.25L246.309 114.107L241.896 113.789L236.271 113.384L224.511 102.265C224.511 102.265 232.835 93.45 240.127 87.501C243 85.1507 245.716 83.2503 247.694 82.5022L248.032 82.386C249.276 81.9062 250.388 81.1404 251.274 80.152C257.031 74.2839 262.354 59.8031 262.354 59.8031C262.354 59.8031 287.751 46.8337 284.683 63.8466C281.615 80.8596 296.101 76.6544 296.101 76.6544L300.877 78.8075L302.764 79.6617L307.575 81.8401L318.431 86.7631C326.949 90.6398 326.244 101.593 326.244 101.593Z" fill="#ECBCB4"/>
<path opacity="0.1" d="M274.774 73.6572C287.388 73.6572 297.615 63.5487 297.615 51.0793C297.615 38.61 287.388 28.5015 274.774 28.5015C262.159 28.5015 251.933 38.61 251.933 51.0793C251.933 63.5487 262.159 73.6572 274.774 73.6572Z" fill="black"/>
<path opacity="0.1" d="M326.279 117.676H223.662C223.662 117.514 223.662 117.428 223.662 117.428L224.511 102.77C224.511 102.77 232.835 93.9555 240.127 88.0065L304.553 85.4793L307.55 82.3557L318.405 87.2787C326.929 91.1503 326.244 102.103 326.244 102.103C326.244 102.103 327.409 114.795 326.279 117.676Z" fill="black"/>
<path d="M326.279 117.17H223.662C223.662 117.008 223.662 116.922 223.662 116.922L224.511 102.265C224.511 102.265 232.835 93.45 240.127 87.501L304.553 84.9739L307.55 81.8503L318.405 86.7732C326.929 90.6449 326.244 101.598 326.244 101.598C326.244 101.598 327.409 114.289 326.279 117.17Z" fill="#E7C7CA"/>
<path opacity="0.1" d="M258.325 76.068C258.325 76.068 274.513 96.4573 296.075 75.6485C317.638 54.8397 298.463 122.063 298.463 122.063L251.933 127.521L258.325 76.068Z" fill="black"/>
<path d="M258.325 77.0789C258.325 77.0789 274.513 97.4682 296.075 76.6594C317.638 55.8506 298.463 123.074 298.463 123.074L251.933 128.532L258.325 77.0789Z" fill="#E7C7CA"/>
<path opacity="0.1" d="M302.738 80.6574L304.451 106.48L306.287 115.072L307.688 121.643C307.688 121.643 311.267 172.187 310.244 174.714C309.222 177.241 310.756 179.263 310.97 180.607C311.185 181.952 310.756 185.328 310.924 186.844C311.093 188.361 310.924 189.033 307.008 188.492C303.091 187.951 297.63 187.011 297.63 187.011C297.63 187.011 283.824 188.022 279.054 186.339C274.283 184.656 265.248 184.651 265.248 184.651C265.248 184.651 251.611 184.989 247.183 184.484C242.755 183.979 240.362 189.877 237.468 188.189C234.574 186.501 240.873 170.165 242.919 165.444C244.964 160.723 240.193 148.765 240.193 148.765L246.329 115.118L247.694 107.491V83.5131L248.032 83.3969C249.276 82.9171 250.388 82.1513 251.274 81.1628L252.808 105.292L300.872 106.98V79.8234" fill="black"/>
<path d="M302.738 79.6465L304.451 105.469L306.287 114.062L307.688 120.632C307.688 120.632 311.267 171.176 310.244 173.703C309.222 176.23 310.756 178.252 310.97 179.596C311.185 180.941 310.756 184.317 310.924 185.833C311.093 187.35 310.924 188.022 307.008 187.481C303.091 186.94 297.63 186 297.63 186C297.63 186 283.824 187.011 279.054 185.328C274.283 183.645 265.248 183.64 265.248 183.64C265.248 183.64 251.611 183.979 247.183 183.473C242.755 182.968 240.362 188.866 237.468 187.178C234.574 185.49 240.873 169.154 242.919 164.433C244.964 159.713 240.193 147.754 240.193 147.754L246.329 114.107L247.694 106.48V82.5022L248.032 82.386C249.276 81.9062 250.388 81.1404 251.274 80.152L252.808 104.281L300.872 105.97V78.8126" fill="#E7C7CA"/>
<path opacity="0.1" d="M308.265 25.757C307.974 24.7007 307.57 23.6039 306.731 22.8963C305.931 22.3279 305.006 21.9539 304.032 21.8045C301.699 21.1983 299.328 20.7491 296.935 20.4601C296.593 19.3377 296.075 18.2753 295.401 17.3112C290.39 10.316 282.975 3.72003 274.252 2.229C269.686 1.44557 264.394 2.14813 261.469 5.70639C259.864 7.66243 259.173 10.2553 257.553 12.176C254.428 15.9061 248.789 16.366 244.851 19.2521C242.75 20.7684 241.226 22.967 239.738 25.1C238.127 27.4098 236.471 29.8157 235.959 32.5754C234.937 38.0897 238.623 43.3462 239.304 48.911C240.837 61.3599 227.339 72.4037 229.89 84.6858C231.378 91.8478 238.071 96.892 244.994 99.4495C247.434 100.354 250.22 101.254 251.36 103.569C251.872 104.58 251.959 105.747 252.439 106.768C254.055 110.175 259.368 110.306 262.221 107.825C265.074 105.343 265.974 101.33 266.312 97.5845C267.682 81.2286 261.055 65.0698 261.827 48.6735C262.057 43.7151 263.469 38.0896 267.963 35.8455C274.012 32.8129 281.288 37.8673 287.946 36.9019C291.096 44.4791 291.765 52.8417 289.858 60.814C288.799 65.1759 286.969 69.4064 286.836 73.9048C286.637 80.7535 290.374 87.0108 293.606 93.0659C294.299 94.1982 294.763 95.4531 294.971 96.7606C295.022 98.0872 294.772 99.4083 294.24 100.627C292.414 105.484 289.265 109.993 288.907 115.164C288.802 115.767 288.94 116.387 289.29 116.892C289.651 117.229 290.115 117.436 290.61 117.478C296.132 118.413 300.908 113.576 303.602 108.719C306.607 103.354 308.357 97.3927 308.726 91.2716C309.283 80.9809 305.55 70.857 305.78 60.5563C306.046 48.8453 311.4 37.0535 308.265 25.757Z" fill="black"/>
<path d="M308.777 25.2516C308.485 24.1952 308.081 23.0984 307.243 22.3908C306.442 21.8225 305.517 21.4485 304.543 21.2991C302.211 20.6929 299.84 20.2437 297.446 19.9546C297.104 18.8323 296.586 17.7698 295.912 16.8058C290.901 9.81053 283.487 3.2146 274.764 1.72357C270.197 0.940141 264.905 1.6427 261.981 5.20096C260.375 7.157 259.685 9.74988 258.064 11.6705C254.94 15.4007 249.3 15.8606 245.363 18.7466C243.261 20.2629 241.737 22.4616 240.249 24.5945C238.639 26.9044 236.982 29.3102 236.471 32.0699C235.448 37.5842 239.135 42.8407 239.815 48.4056C241.349 60.8545 227.85 71.8982 230.401 84.1803C231.889 91.3424 238.582 96.3866 245.506 98.9441C247.945 99.8488 250.731 100.749 251.872 103.063C252.383 104.074 252.47 105.242 252.951 106.263C254.566 109.669 259.879 109.801 262.732 107.319C265.585 104.837 266.485 100.824 266.823 97.079C268.193 80.7232 261.566 64.5644 262.338 48.168C262.569 43.2097 263.98 37.5842 268.474 35.3401C274.523 32.3075 281.799 37.3618 288.457 36.3964C291.607 43.9736 292.276 52.3362 290.369 60.3086C289.311 64.6705 287.48 68.901 287.347 73.3994C287.148 80.248 290.886 86.5053 294.117 92.5605C294.81 93.6927 295.274 94.9477 295.482 96.2552C295.533 97.5818 295.283 98.9029 294.751 100.122C292.926 104.979 289.776 109.487 289.418 114.658C289.313 115.262 289.451 115.882 289.802 116.387C290.162 116.724 290.627 116.93 291.121 116.973C296.643 117.908 301.419 113.071 304.113 108.214C307.118 102.849 308.868 96.8872 309.237 90.7662C309.794 80.4755 306.062 70.3516 306.292 60.0508C306.558 48.3399 311.911 36.5481 308.777 25.2516Z" fill="#3E373A"/>
<path d="M297.482 249.043L317.766 249.685L314.856 234.815L299.317 236.276L297.482 249.043Z" fill="#C3C7D9"/>
<path d="M360.333 213.799C358.968 215.482 353.686 218.515 353.175 219.526C352.664 220.537 346.359 223.569 343.117 224.075C339.875 224.58 329.654 226.774 327.778 227.952C326.433 228.801 315.639 231.49 308.547 232.981C306.626 233.43 304.682 233.776 302.723 234.017C299.655 234.184 266.082 222.897 266.082 222.897L272.555 216.326L272.913 216.205C274.743 215.594 283.201 212.768 287.894 211.424C293.182 209.907 299.317 203.675 299.317 203.675C299.317 203.675 308.347 200.643 309.544 200.304C310.74 199.966 306.476 188.512 306.476 188.512C306.476 188.512 326.075 185.823 333.745 183.544C341.414 181.264 359.142 182.109 362.379 191.04C365.615 199.971 361.719 212.116 360.333 213.799Z" fill="#4B4B5B"/>
<path d="M271.021 242.27C271.021 242.27 267.104 246.314 263.182 245.98C259.26 245.647 245.547 246.991 245.547 246.991C243.062 247.971 240.734 249.304 238.639 250.949C235.433 253.446 233.73 251.454 233.413 251.03L233.357 250.949C231.649 256.261 227.732 252.212 227.732 252.212C227.732 252.212 229.435 236.038 228.914 234.017C228.392 231.995 232.283 228.523 232.283 228.523L236.885 227.365L248.543 224.413L265.248 230.14L271.021 242.27Z" fill="white"/>
<path opacity="0.1" d="M236.865 227.365L233.413 251.03L233.357 250.949C231.649 256.261 227.732 252.212 227.732 252.212C227.732 252.212 229.435 236.038 228.914 234.017C228.392 231.995 232.283 228.523 232.283 228.523L236.865 227.365Z" fill="black"/>
<path opacity="0.1" d="M260.989 160.051C260.989 160.051 270.019 163.084 277.862 160.051H260.989Z" fill="black"/>
<path opacity="0.1" d="M291.816 165.783C291.816 165.783 295.564 167.633 298.463 165.783H291.816Z" fill="black"/>
<path opacity="0.1" d="M291.816 170.17C291.816 170.17 298.121 171.004 299.317 169.321L291.816 170.17Z" fill="black"/>
<path opacity="0.1" d="M289.771 179.596C289.771 179.596 301.613 178.08 304.553 176.058L289.771 179.596Z" fill="black"/>
<path opacity="0.1" d="M253.636 176.058C253.636 176.058 260.283 179.763 265.227 179.596L253.636 176.058Z" fill="black"/>
<path opacity="0.1" d="M308.541 232.981C306.62 233.43 304.676 233.776 302.717 234.017C299.65 234.183 266.076 222.897 266.076 222.897L272.549 216.326L272.907 216.205C273.93 216.918 274.769 217.529 275.367 217.994C278.184 220.188 280.904 217.322 281.927 217.322C282.95 217.322 291.811 224.565 291.811 224.565C291.811 224.565 299.992 226.42 301.357 228.103C302.723 229.786 307.493 229.453 308.342 230.63C308.598 230.994 308.628 231.889 308.541 232.981Z" fill="black"/>
<path d="M245.547 189.2C245.547 189.2 237.274 189.67 232.503 187.683C227.732 185.697 211.881 181.113 207.279 184.332C202.678 187.552 191.597 190.398 196.71 203.205C201.824 216.013 204.212 216.347 204.212 216.347C205.794 217.519 207.175 218.936 208.302 220.542C209.836 222.902 224.153 228.29 227.732 228.29C231.312 228.29 237.616 228.29 246.477 234.355C255.339 240.421 263.351 241.098 263.351 241.098C263.351 241.098 274.6 245.647 278.103 246.658C281.605 247.669 297.61 252.046 301.363 250.701C305.116 249.357 307.499 240.926 307.499 240.926C307.499 240.926 309.201 233.344 308.347 232.167C307.493 230.989 302.723 231.323 301.363 229.64C300.003 227.957 291.816 226.102 291.816 226.102C291.816 226.102 282.976 218.854 281.953 218.854C280.93 218.854 278.21 221.714 275.393 219.526C269.78 215.417 263.884 211.701 257.747 208.406C251.274 205.035 245.547 189.2 245.547 189.2Z" fill="#4B4B5B"/>
<path opacity="0.1" d="M228.914 194.087C230.387 193.79 231.909 193.832 233.363 194.212C234.817 194.592 236.162 195.298 237.294 196.276C241.385 199.647 255.149 206.415 255.149 206.415" fill="black"/>
<path opacity="0.1" d="M331.188 193.875C331.188 193.875 312.949 196.604 309.544 200.309L331.188 193.875Z" fill="black"/>
<path d="M352.152 249.685H351.349C348.465 249.584 338.694 249.281 336.812 249.685C334.598 250.191 305.279 249.685 305.279 249.685L311.011 248.508C311.011 248.508 308.884 241.138 310.234 240.527C310.234 240.527 302.564 235.533 308.347 232.162C314.13 228.79 320.363 230.211 320.363 230.211L334.88 225.348L337.666 224.413C337.666 224.413 354.029 225.257 358.457 236.377C362.885 247.497 352.152 249.685 352.152 249.685Z" fill="white"/>
<path opacity="0.1" d="M352.152 249.685H351.35C356.11 245.803 366.878 233.986 334.88 225.374L337.667 224.439C337.667 224.439 354.029 225.283 358.457 236.402C362.885 247.522 352.152 249.685 352.152 249.685Z" fill="black"/>
<path d="M322.071 236.584C322.565 236.584 322.966 236.188 322.966 235.7C322.966 235.211 322.565 234.815 322.071 234.815C321.577 234.815 321.176 235.211 321.176 235.7C321.176 236.188 321.577 236.584 322.071 236.584Z" fill="#4B4B5B"/>
<path d="M316.871 238.045C317.365 238.045 317.766 237.649 317.766 237.161C317.766 236.672 317.365 236.276 316.871 236.276C316.377 236.276 315.976 236.672 315.976 237.161C315.976 237.649 316.377 238.045 316.871 238.045Z" fill="#4B4B5B"/>
<g opacity="0.1">
<path opacity="0.1" d="M291.535 50.2454C291.733 44.6861 290.733 39.1486 288.6 34.0007C281.953 34.9813 274.672 29.9118 268.618 32.9444C264.138 35.1885 262.732 40.814 262.482 45.7723C262.42 47.0814 262.41 48.3905 262.436 49.6996C262.436 49.2346 262.436 48.7645 262.482 48.2995C262.717 43.3412 264.123 37.7157 268.618 35.4715C274.672 32.4389 281.943 37.4933 288.6 36.5279C290.406 40.8883 291.401 45.5355 291.535 50.2454Z" fill="black"/>
<path opacity="0.1" d="M240.025 49.3204C240.112 48.2191 240.09 47.1119 239.958 46.0149C239.416 41.567 236.957 37.3163 236.512 32.9797C235.939 38.2109 239.309 43.235 239.958 48.542C240.025 48.815 240.025 49.0576 240.025 49.3204Z" fill="black"/>
<path opacity="0.1" d="M266.966 94.6782C266.649 98.4286 265.754 102.437 262.876 104.923C259.997 107.41 254.694 107.274 253.094 103.867C252.583 102.856 252.506 101.679 252.01 100.668C250.875 98.3527 248.083 97.4531 245.644 96.5483C238.716 93.9858 232.033 88.9668 230.545 81.7846C230.412 81.1339 230.321 80.4755 230.274 79.8134C230.148 81.3179 230.239 82.8325 230.545 84.3117C232.033 91.4738 238.726 96.513 245.644 99.0755C248.083 99.9802 250.875 100.88 252.01 103.195C252.521 104.206 252.608 105.373 253.094 106.394C254.705 109.801 260.017 109.932 262.876 107.451C265.734 104.969 266.624 100.956 266.966 97.2054C267.122 95.2315 267.175 93.2509 267.125 91.2716C267.125 92.4189 267.058 93.5511 266.966 94.6782Z" fill="black"/>
<path opacity="0.1" d="M306.46 57.6551C306.46 58.388 306.46 59.1158 306.46 59.8436C306.747 50.4425 310.234 40.9909 309.891 31.7869C309.626 40.2984 306.655 49.002 306.46 57.6551Z" fill="black"/>
<path opacity="0.1" d="M295.488 95.684C295.613 95.0843 295.653 94.4701 295.605 93.8594C295.399 92.5514 294.935 91.296 294.24 90.1647C291.284 84.6049 287.915 78.9137 287.516 72.7423C287.516 73.0051 287.48 73.2477 287.475 73.5308C287.271 80.3744 291.008 86.6367 294.24 92.6919C294.789 93.6297 295.209 94.636 295.488 95.684Z" fill="black"/>
<path opacity="0.1" d="M309.401 88.3704C309.019 94.4938 307.256 100.455 304.242 105.818C301.542 110.675 296.771 115.512 291.244 114.577C290.749 114.535 290.283 114.326 289.925 113.986C289.821 113.87 289.739 113.736 289.684 113.592C289.623 113.986 289.572 114.385 289.541 114.789C289.435 115.391 289.573 116.01 289.925 116.513C290.283 116.853 290.749 117.062 291.244 117.104C296.771 118.039 301.542 113.202 304.242 108.345C307.256 102.982 309.019 97.021 309.401 90.8975C309.462 89.7148 309.467 88.5372 309.431 87.3595C309.421 87.6981 309.421 88.0317 309.401 88.3704Z" fill="black"/>
</g>
<path opacity="0.1" d="M310.234 240.527C310.234 240.527 323.176 245.894 331.71 234.017" stroke="black" stroke-miterlimit="10"/>
<path opacity="0.1" d="M312.78 249.908C312.78 249.908 323.349 243.114 336.812 249.685" stroke="black" stroke-miterlimit="10"/>
<path opacity="0.1" d="M242.034 248.366C242.034 248.366 246.472 238.47 258.325 246.016" stroke="black" stroke-miterlimit="10"/>
<path opacity="0.1" d="M227.646 102.012L236.696 93.9251C236.696 93.9251 271.788 91.6506 273.24 103.442C273.24 103.442 285.681 89.4621 311.845 92.5756L322.915 101.289L292.317 114.562L262.584 124.757L240.684 115.067L227.646 102.012Z" fill="black"/>
<path d="M227.646 102.518L236.696 94.4305C236.696 94.4305 271.788 92.1561 273.24 103.948C273.24 103.948 285.681 89.9675 311.845 93.081L322.915 101.795L292.317 115.067L262.584 125.262L240.684 115.573L227.646 102.518Z" fill="#D5D6DB"/>
<path opacity="0.1" d="M223.642 103.528L227.645 150.873L270.085 152.98L268.244 105.838L268.209 105.045L223.642 103.528Z" fill="black"/>
<path d="M223.642 102.518L227.645 149.862L270.085 151.969L268.244 104.827L268.209 104.034L223.642 102.518Z" fill="#00B8F2"/>
<path opacity="0.1" d="M324.858 102.518L281.079 109.007V156.564L323.861 150.453L324.858 102.518Z" fill="black"/>
<path d="M324.858 101.507L281.079 107.996V155.553L323.861 149.442L324.858 101.507Z" fill="#00B8F2"/>
<path opacity="0.3" d="M314.534 113.111L290.885 115.709L291.402 123.675L314.519 121.178L314.534 113.111Z" fill="white"/>
<path d="M229.946 175.214L232.355 181.618C232.355 181.618 235.934 184.651 239.851 183.134C243.767 181.618 247.183 180.865 248.886 179.389C250.588 177.913 252.976 170.499 252.976 170.499C252.976 170.499 255.364 162.412 257.747 160.39C260.13 158.368 266.439 130.514 257.747 133.238C249.054 135.962 242.407 161.234 242.407 161.234C242.407 161.234 240.873 163.084 238.659 163.256C236.445 163.428 232.012 162.917 231.158 164.772C230.304 166.627 227.39 171.509 229.946 175.214Z" fill="#ECBCB4"/>
<path opacity="0.1" d="M281.079 109.002C278.837 109.501 276.509 109.475 274.279 108.926C272.05 108.377 269.981 107.319 268.239 105.838L270.085 152.975C270.085 152.975 274.431 157.625 281.079 156.564V109.002Z" fill="black"/>
<path d="M281.079 107.991C278.837 108.491 276.509 108.465 274.279 107.915C272.05 107.366 269.981 106.308 268.239 104.827L270.085 151.964C270.085 151.964 274.431 156.614 281.079 155.553V107.991Z" fill="#00B8F2"/>
<path opacity="0.1" d="M281.079 107.991C278.837 108.491 276.509 108.465 274.279 107.915C272.05 107.366 269.981 106.308 268.239 104.827L270.085 151.964C270.085 151.964 274.431 156.614 281.079 155.553V107.991Z" fill="black"/>
<path opacity="0.1" d="M282.101 102.679C282.101 102.679 299.91 97.2963 304.553 98.0545L282.101 102.679Z" fill="black"/>
<path opacity="0.1" d="M262.18 100.329C262.18 100.329 244.918 96.2855 242.034 97.4328L262.18 100.329Z" fill="black"/>
<path opacity="0.1" d="M293.33 103.351C293.33 103.351 305.239 99.0351 309.544 101.087L293.33 103.351Z" fill="black"/>
<path opacity="0.1" d="M287.332 211.631C289.177 210.261 291.142 209.055 293.202 208.027C296.27 206.566 301.894 202.776 301.894 202.776" fill="black"/>
<path opacity="0.1" d="M242.034 160.051C242.034 160.051 234.564 166.091 232.319 166.622C230.074 167.153 228.688 171.863 228.688 171.863" fill="black"/>
<path d="M320.466 174.315L318.083 180.734C318.083 180.734 314.504 183.766 310.582 182.25C306.66 180.734 303.254 179.981 301.547 178.505C299.839 177.029 297.456 169.614 297.456 169.614C297.456 169.614 295.073 161.527 292.685 159.505C290.298 157.484 283.993 129.629 292.685 132.353C301.378 135.078 308.025 160.349 308.025 160.349C308.025 160.349 309.559 162.199 311.773 162.371C313.987 162.543 318.42 162.033 319.274 163.887C320.128 165.742 323.022 170.625 320.466 174.315Z" fill="#ECBCB4"/>
<path opacity="0.1" d="M316.288 162.508C316.288 162.508 321.171 165.611 321.151 169.321L316.288 162.508Z" fill="black"/>
<path d="M274.856 72.5503C287.47 72.5503 297.696 62.4418 297.696 49.9725C297.696 37.5031 287.47 27.3947 274.856 27.3947C262.241 27.3947 252.015 37.5031 252.015 49.9725C252.015 62.4418 262.241 72.5503 274.856 72.5503Z" fill="#ECBCB4"/>
<path d="M260.513 43.9122C263.284 43.4826 265.713 41.8905 268.362 40.9757C274.288 38.9185 280.843 40.3287 286.841 42.1836C289.142 42.8963 291.479 43.7 293.892 43.7C296.306 43.7 298.867 42.7245 300.1 40.6673C301.235 38.777 301.015 36.3206 300.059 34.3342C299.102 32.3479 297.502 30.7507 295.886 29.2445C290.569 24.2811 283.972 19.6412 276.676 20.1467C273.741 20.3539 270.934 21.39 268.234 22.5374C264.835 23.9854 261.526 25.6327 258.325 27.4704C255.865 28.8806 251.309 30.7659 249.893 33.3436C246.672 39.151 255.502 44.6906 260.513 43.9122Z" fill="#3E373A"/>
<path opacity="0.1" d="M300.1 38.5446C298.867 40.6017 296.306 41.5772 293.892 41.5772C291.479 41.5772 289.142 40.8038 286.836 40.0912C280.838 38.2362 274.288 36.821 268.357 38.8832C265.713 39.798 263.279 41.4104 260.508 41.8147C256.469 42.4415 249.965 38.9641 249.259 34.5415C248.466 39.6515 256.008 44.0285 260.508 43.331C263.279 42.9014 265.713 41.3093 268.357 40.3995C274.288 38.3373 280.838 39.7525 286.836 41.6075C289.142 42.3202 291.474 43.1238 293.892 43.0935C296.311 43.0631 298.867 42.123 300.1 40.0609C300.738 38.939 300.99 37.6419 300.816 36.3661C300.736 37.1342 300.492 37.8767 300.1 38.5446Z" fill="black"/>
<defs>
<linearGradient id="paint0_linear" x1="279.509" y1="253.688" x2="279.509" y2="3.47234e-05" gradientUnits="userSpaceOnUse">
<stop stop-color="#808080" stop-opacity="0.25"/>
<stop offset="0.54" stop-color="#808080" stop-opacity="0.12"/>
<stop offset="1" stop-color="#808080" stop-opacity="0.1"/>
</linearGradient>
</defs>
</svg>
