<svg width="225" height="406" viewBox="0 0 225 406" fill="none" xmlns="http://www.w3.org/2000/svg">
<path opacity="0.3" d="M27.1274 175.808C27.1274 175.808 16.9451 195.888 4.68849 185.644C4.68849 185.644 2.0221 184.694 2.20664 181.878C2.20664 181.878 3.2327 182.431 4.03446 180.277C4.32529 179.513 4.70554 178.786 5.16724 178.112C5.78953 177.198 6.69193 176.511 7.73845 176.155C7.73845 176.155 13.1811 172.024 23.3366 175.117C23.3366 175.117 26.1994 174.687 26.6597 175.042L23.3477 177.496C23.3477 177.496 21.6397 174.997 19.1629 174.728C19.1629 174.728 23.341 177.316 22.8736 177.886C22.7772 178 21.0554 179.108 21.0554 179.108C21.0554 179.108 18.069 174.772 14.2309 174.478C14.2309 174.478 19.6195 176.895 20.4064 179.533L17.7141 181.05C17.7141 181.05 14.7792 176.315 10.4237 175.82C10.4237 175.82 15.972 178.539 17.104 181.352L14.257 182.487C14.257 182.487 11.3066 177.925 7.67818 177.529C7.67818 177.529 13.766 181.319 13.5858 182.702C13.5858 182.702 10.9047 183.589 10.0837 183.489C10.0837 183.489 7.91478 180.255 5.76152 180.223C5.76152 180.223 9.56333 183.186 9.31862 183.65C9.31862 183.65 5.52018 183.869 3.5369 182.966C3.5369 182.966 6.36862 184.517 9.32398 184.245C9.32398 184.245 7.99263 185.828 6.24945 186.188C6.24945 186.188 8.34549 187.036 10.2429 184.181C10.2429 184.181 13.1962 183.891 13.5591 183.561C13.5591 183.561 12.0846 186.641 10.2358 187.968C10.2358 187.968 12.9718 187.462 14.3051 183.293L17.2041 182.233C17.2041 182.233 15.4693 186.411 13.9244 187.706C13.9244 187.706 16.6391 186.763 17.9071 181.902L20.5643 180.438C20.5643 180.438 19.3454 184.15 17.9357 185.963C17.9357 185.963 20.2703 184.547 21.3095 179.993L22.969 178.809C22.969 178.809 22.0287 181.501 21.6863 182.238C21.3438 182.975 21.5231 183.142 21.5231 183.142C22.6727 181.76 23.4173 180.088 23.6745 178.309C23.6745 178.309 26.9398 175.605 27.1274 175.808Z" fill="#145196"/>
<path opacity="0.4" d="M92.7611 34.5482C92.7611 34.5482 55.4906 38.6962 58.5715 12.2679C58.5715 12.2679 57.4601 7.6861 61.5516 5.37215C61.5516 5.37215 61.7186 7.30613 65.4505 6.45701C66.7805 6.16453 68.1405 6.0305 69.502 6.05767C71.343 6.09042 73.1235 6.72069 74.5751 7.85349C74.5751 7.85349 85.2995 11.664 90.2636 28.6355C90.2636 28.6355 93.476 32.2315 93.402 33.1967L86.9591 30.8233C86.9591 30.8233 88.8814 26.162 86.9948 22.4659C86.9948 22.4659 87.204 30.6496 85.9824 30.5193C85.7352 30.4892 82.6196 29.1022 82.6196 29.1022C82.6196 29.1022 85.9339 20.9826 82.8399 15.3667C82.8399 15.3667 84.3927 25.0806 81.4353 28.5858L76.8636 26.2202C76.8636 26.2202 80.7806 17.8083 77.4937 11.2884C77.4937 11.2884 78.7718 21.5003 75.886 25.646L71.7062 22.7155C71.7062 22.7155 75.3673 14.4403 72.6058 9.02409C72.6058 9.02409 72.8846 20.9655 70.7928 21.9775C70.7928 21.9775 67.1101 19.0515 66.4993 17.8168C66.4993 17.8168 69.024 11.8428 67.1026 8.81374C67.1026 8.81374 66.4466 16.815 65.5761 16.8982C65.5761 16.8982 61.8029 11.8064 61.2507 8.21861C61.2507 8.21861 61.676 13.5793 64.7519 17.449C64.7519 17.449 61.3323 17.0388 59.238 14.9398C59.238 14.9398 59.9712 18.6335 65.6807 18.6703C65.6807 18.6703 68.7813 22.5199 69.5725 22.7241C69.5725 22.7241 63.935 23.4823 60.398 22.1183C60.398 22.1183 63.6019 25.4673 70.6265 23.5188L74.7497 26.59C74.7497 26.59 67.3465 27.987 64.1319 27.0172C64.1319 27.0172 67.9242 29.9382 75.8527 27.2673L80.3194 29.6317C80.3194 29.6317 74.035 31.323 70.222 31.0144C70.222 31.0144 74.3261 32.974 81.62 30.2635L84.7844 31.4944C84.7844 31.4944 80.1749 32.6428 78.8355 32.8387C77.496 33.0346 77.4278 33.4362 77.4278 33.4362C80.4018 33.7765 83.412 33.2867 86.1247 32.0211C86.1247 32.0211 92.8724 34.1016 92.7611 34.5482Z" fill="#145196"/>
<path d="M163.8 294.013C163.8 294.013 181.596 281.766 187.223 296.024C187.223 296.024 189.034 298.048 187.586 300.336C187.586 300.336 186.975 299.4 185.311 300.846C184.715 301.357 184.061 301.795 183.362 302.151C182.418 302.636 181.343 302.8 180.298 302.62C180.298 302.62 173.815 303.603 166.677 296.336C166.677 296.336 164.068 295.384 163.842 294.874L167.76 294.326C167.76 294.326 168.052 297.216 170.015 298.579C170.015 298.579 167.683 294.481 168.338 294.215C168.472 294.163 170.431 294.019 170.431 294.019C170.431 294.019 170.958 299.044 174.057 301.054C174.057 301.054 170.625 296.544 171.173 293.959L174.138 293.916C174.138 293.916 174.438 299.253 177.881 301.67C177.881 301.67 174.454 296.832 174.791 293.942L177.711 294.293C177.711 294.293 178.103 299.491 180.979 301.49C180.979 301.49 177.588 295.502 178.375 294.419C178.375 294.419 181.041 294.903 181.687 295.363C181.687 295.363 182.031 299.084 183.831 300.099C183.831 300.099 181.987 295.858 182.406 295.579C182.406 295.579 185.707 297.138 186.964 298.809C186.964 298.809 185.289 296.203 182.675 295.075C182.675 295.075 184.523 294.353 186.157 294.849C186.157 294.849 184.78 293.173 181.871 294.707C181.871 294.707 179.249 293.596 178.792 293.708C178.792 293.708 181.448 291.789 183.615 291.519C183.615 291.519 181.077 290.691 178.04 293.591L175.111 293.154C175.111 293.154 178.49 290.43 180.386 290.048C180.386 290.048 177.666 289.596 174.367 293.11L171.455 293.124C171.455 293.124 174.186 290.556 176.206 289.675C176.206 289.675 173.589 289.797 170.623 293.158L168.681 293.394C168.681 293.394 170.709 291.556 171.336 291.092C171.963 290.628 171.888 290.406 171.888 290.406C170.286 291.042 168.891 292.11 167.858 293.491C167.858 293.491 163.865 294.27 163.8 294.013Z" fill="#145196"/>
<path opacity="0.5" d="M62.5005 218.289C62.5005 218.289 76.0451 214.288 73.562 222.699C73.562 222.699 73.7234 224.047 72.1362 225.054C72.1362 225.054 72.1789 224.466 70.7977 225.001C70.3214 225.184 69.8297 225.325 69.3286 225.421C68.7508 225.555 68.1445 225.489 67.6093 225.233C67.6093 225.233 63.9721 224.833 63.0871 219.937C63.0871 219.937 62.1258 219.058 62.2029 218.753L64.3824 219.019C64.3824 219.019 63.4531 220.602 63.9313 221.611C63.9313 221.611 64.2845 219.093 64.7187 219.042C64.8067 219.032 65.8457 219.234 65.8457 219.234C65.8457 219.234 64.2387 221.989 65.0496 223.507C65.0496 223.507 65.0008 220.611 66.2501 219.303L67.7607 219.703C67.7607 219.703 65.9207 222.594 66.7505 224.378C66.7505 224.378 66.8291 221.31 68.0758 219.815L69.4211 220.412C69.4211 220.412 67.6788 223.243 68.3836 224.72C68.3836 224.72 68.9081 221.04 69.7091 220.573C69.7091 220.573 70.8717 221.213 71.0213 221.555C71.0213 221.555 69.8167 223.596 70.3326 224.39C70.3326 224.39 70.9866 221.862 71.3023 221.773C71.3023 221.773 72.3848 223.076 72.3934 224.148C72.3934 224.148 72.5232 222.517 71.6257 221.544C71.6257 221.544 72.8271 221.422 73.4642 221.92C73.4642 221.92 73.396 220.829 71.3565 221.234C71.3565 221.234 70.4504 220.267 70.1782 220.26C70.1782 220.26 72.2334 219.614 73.417 219.777C73.417 219.777 72.4501 218.969 69.8339 220.087L68.5133 219.446C68.5133 219.446 71.2327 218.475 72.3319 218.539C72.3319 218.539 71.1283 217.91 68.1522 219.315L66.6837 218.905C66.6837 218.905 69.0194 217.924 70.3678 217.74C70.3678 217.74 69.0017 217.435 66.2523 218.804L65.189 218.652C65.189 218.652 66.8982 217.959 67.3934 217.795C67.8886 217.631 67.9345 217.505 67.9345 217.505C66.8087 217.634 65.7229 218 64.7485 218.579C64.7485 218.579 62.4464 218.425 62.5005 218.289Z" fill="#145196"/>
<path opacity="0.2" d="M214.698 188.093C214.698 188.093 207.911 195.407 205.429 189.264C205.429 189.264 204.671 188.478 205.205 187.284C205.205 187.284 205.463 187.667 206.093 186.842C206.311 186.558 206.56 186.295 206.836 186.057C207.143 185.768 207.566 185.594 208.035 185.564C208.035 185.564 210.573 184.522 213.52 187.27C213.52 187.27 214.566 187.478 214.665 187.697L213.131 188.305C213.131 188.305 212.962 186.984 212.164 186.523C212.164 186.523 213.158 188.223 212.903 188.41C212.851 188.447 212.084 188.69 212.084 188.69C212.084 188.69 211.782 186.396 210.523 185.734C210.523 185.734 211.96 187.529 211.789 188.79L210.622 189.077C210.622 189.077 210.404 186.615 209.004 185.793C209.004 185.793 210.442 187.741 210.364 189.118L209.208 189.223C209.208 189.223 208.956 186.833 207.785 186.16C207.785 186.16 209.234 188.648 208.944 189.225C208.944 189.225 207.884 189.238 207.621 189.077C207.621 189.077 207.407 187.372 206.69 187.059C206.69 187.059 207.495 188.872 207.335 189.04C207.335 189.04 206.005 188.61 205.479 187.942C205.479 187.942 206.187 189.009 207.237 189.298C207.237 189.298 206.522 189.801 205.87 189.716C205.87 189.716 206.443 190.374 207.561 189.397C207.561 189.397 208.615 189.68 208.793 189.587C208.793 189.587 207.783 190.721 206.941 191.04C206.941 191.04 207.956 191.202 209.099 189.573L210.262 189.505C210.262 189.505 208.98 191.079 208.241 191.429C208.241 191.429 209.322 191.395 210.558 189.459L211.703 189.193C211.703 189.193 210.674 190.637 209.894 191.231C209.894 191.231 210.923 190.937 212.03 189.103L212.789 188.821C212.789 188.821 212.024 189.861 211.785 190.14C211.545 190.419 211.577 190.514 211.577 190.514C212.239 190.033 212.762 189.418 213.109 188.71C213.109 188.71 214.667 187.989 214.698 188.093Z" fill="#145196"/>
<path d="M94.2273 180.96C94.2273 180.96 71.2387 180.982 74.8917 165.089C74.8917 165.089 74.5238 162.22 77.1688 161.085C77.1688 161.085 77.1391 162.277 79.4718 162.013C80.3013 161.924 81.1383 161.933 81.9658 162.04C83.0856 162.182 84.1282 162.686 84.9344 163.476C84.9344 163.476 91.2171 166.515 93.0967 177.19C93.0967 177.19 94.8115 179.596 94.706 180.181L90.9363 178.303C90.9363 178.303 92.4232 175.591 91.5223 173.214C91.5223 173.214 91.0979 178.208 90.3642 178.047C90.2127 178.014 88.412 176.962 88.412 176.962C88.412 176.962 90.9679 172.211 89.47 168.608C89.47 168.608 89.7647 174.631 87.7225 176.568L85.0974 174.818C85.0974 174.818 88.0488 169.96 86.5093 165.775C86.5093 165.775 86.6004 172.082 84.565 174.416L82.2127 172.345C82.2127 172.345 84.9846 167.531 83.6768 164.031C83.6768 164.031 83.0469 171.329 81.7035 171.802C81.7035 171.802 79.6603 169.776 79.3951 168.956C79.3951 168.956 81.3138 165.467 80.3668 163.51C80.3668 163.51 79.4296 168.343 78.8938 168.33C78.8938 168.33 76.9371 164.976 76.8434 162.753C76.8434 162.753 76.7403 166.049 78.3521 168.611C78.3521 168.611 76.2949 168.132 75.1642 166.712C75.1642 166.712 75.3637 169.016 78.838 169.419C78.838 169.419 80.4696 171.974 80.936 172.15C80.936 172.15 77.4507 172.232 75.4056 171.177C75.4056 171.177 77.1138 173.452 81.5395 172.717L83.8566 174.853C83.8566 174.853 79.2537 175.205 77.3588 174.397C77.3588 174.397 79.489 176.42 84.4848 175.339L87.0266 177.101C87.0266 177.101 83.0829 177.707 80.7824 177.264C80.7824 177.264 83.1492 178.73 87.7749 177.571L89.6203 178.534C89.6203 178.534 86.7353 178.926 85.8962 178.964C85.0572 179.002 84.9927 179.228 84.9927 179.228C86.7819 179.637 88.6496 179.541 90.3873 178.95C90.3873 178.95 94.3079 180.71 94.2273 180.96Z" fill="#145196"/>
<path opacity="0.2" d="M95.9072 156.317C95.9072 156.317 91.3297 138.577 104.323 138.244C104.323 138.244 106.464 137.391 107.865 139.208C107.865 139.208 106.939 139.421 107.605 141.169C107.838 141.792 107.997 142.44 108.079 143.1C108.192 143.992 108.009 144.897 107.559 145.676C107.559 145.676 106.46 151.129 98.5928 154.697C98.5928 154.697 97.0758 156.498 96.6033 156.533L97.3052 153.25C97.3052 153.25 99.6936 153.86 101.349 152.693C101.349 152.693 97.4102 153.356 97.3897 152.758C97.3851 152.634 97.8396 151.036 97.8396 151.036C97.8396 151.036 102.014 152.066 104.498 150.195C104.498 150.195 99.9069 151.618 98.007 150.425L98.8372 148.052C98.8372 148.052 103.173 149.366 106.097 147.348C106.097 147.348 101.247 148.669 99.0414 147.561L100.174 145.335C100.174 145.335 104.439 146.519 106.882 144.815C106.882 144.815 101.123 145.777 100.492 144.834C100.492 144.834 101.65 142.855 102.231 142.487C102.231 142.487 105.305 143.276 106.628 142.157C106.628 142.157 102.711 142.392 102.615 141.976C102.615 141.976 104.815 139.801 106.513 139.287C106.513 139.287 103.948 139.862 102.29 141.614C102.29 141.614 102.252 139.931 103.124 138.776C103.124 138.776 101.385 139.388 101.763 142.149C101.763 142.149 100.114 143.916 100.071 144.31C100.071 144.31 99.3161 141.637 99.7251 139.849C99.7251 139.849 98.3074 141.618 99.7533 144.889L98.564 147.101C98.564 147.101 97.3792 143.618 97.6272 141.995C97.6272 141.995 96.4875 144.041 98.3135 147.682L97.4574 149.994C97.4574 149.994 96.2071 147.07 96.0928 145.206C96.0928 145.206 95.431 147.324 97.2434 150.665L96.8657 152.28C96.8657 152.28 95.9911 150.131 95.7951 149.491C95.5992 148.851 95.4121 148.846 95.4121 148.846C95.4514 150.308 95.8963 151.731 96.6972 152.955C96.6972 152.955 96.116 156.33 95.9072 156.317Z" fill="#145196"/>
<path opacity="0.2" d="M223.115 322.636C223.115 322.636 218.365 334.341 211.033 329.19C211.033 329.19 209.497 328.783 209.467 327.202C209.467 327.202 210.067 327.464 210.416 326.222C210.543 325.782 210.721 325.357 210.946 324.958C211.251 324.418 211.723 323.992 212.292 323.745C212.292 323.745 215.14 321.177 220.962 322.431C220.962 322.431 222.542 322.057 222.818 322.231L221.081 323.761C221.081 323.761 220.009 322.443 218.613 322.409C218.613 322.409 221.067 323.659 220.832 323.999C220.784 324.069 219.876 324.768 219.876 324.768C219.876 324.768 217.987 322.483 215.843 322.499C215.843 322.499 218.97 323.597 219.533 325.037L218.098 326.011C218.098 326.011 216.237 323.503 213.789 323.42C213.789 323.42 217.017 324.679 217.784 326.199L216.242 326.967C216.242 326.967 214.366 324.559 212.314 324.5C212.314 324.5 215.898 326.332 215.86 327.114C215.86 327.114 214.406 327.734 213.934 327.699C213.934 327.699 212.555 326 211.363 326.077C211.363 326.077 213.629 327.555 213.511 327.825C213.511 327.825 211.399 328.126 210.248 327.713C210.248 327.713 211.905 328.448 213.542 328.159C213.542 328.159 212.872 329.106 211.915 329.388C211.915 329.388 213.129 329.763 214.054 328.078C214.054 328.078 215.693 327.777 215.878 327.576C215.878 327.576 215.199 329.367 214.238 330.189C214.238 330.189 215.75 329.791 216.292 327.387L217.859 326.65C217.859 326.65 217.085 329.065 216.281 329.862C216.281 329.862 217.752 329.197 218.236 326.431L219.66 325.502C219.66 325.502 219.152 327.635 218.45 328.714C218.45 328.714 219.686 327.813 220.054 325.218L220.926 324.479C220.926 324.479 220.528 326.028 220.374 326.463C220.219 326.898 220.321 326.978 220.321 326.978C220.9 326.152 221.237 325.181 221.297 324.174C221.297 324.174 223.004 322.544 223.115 322.636Z" fill="#145196"/>
<path opacity="0.7" d="M174.504 389.961C174.504 389.961 191.575 388.211 189.438 401.508C189.438 401.508 189.814 403.832 187.891 404.96C187.891 404.96 187.869 403.983 186.148 404.374C185.535 404.51 184.912 404.565 184.294 404.54C183.456 404.507 182.663 404.171 182.036 403.584C182.036 403.584 177.264 401.565 175.479 392.963C175.479 392.963 174.117 391.123 174.162 390.63L177.027 391.887C177.027 391.887 176.023 394.22 176.78 396.102C176.78 396.102 176.896 391.973 177.461 392.054C177.575 392.077 178.951 392.796 178.951 392.796C178.951 392.796 177.221 396.857 178.471 399.719C178.471 399.719 178.029 394.807 179.476 393.065L181.491 394.303C181.491 394.303 179.475 398.505 180.785 401.83C180.785 401.83 180.486 396.672 181.915 394.608L183.732 396.124C183.732 396.124 181.829 400.262 182.942 403.021C182.942 403.021 183.146 396.995 184.127 396.503C184.127 396.503 185.715 398.018 185.956 398.648C185.956 398.648 184.639 401.648 185.431 403.182C185.431 403.182 185.954 399.154 186.35 399.122C186.35 399.122 187.927 401.723 188.077 403.538C188.077 403.538 188.031 400.831 186.74 398.853C186.74 398.853 188.284 399.092 189.179 400.169C189.179 400.169 188.947 398.301 186.354 398.23C186.354 398.23 185.051 396.258 184.697 396.151C184.697 396.151 187.265 395.814 188.842 396.53C188.842 396.53 187.482 394.806 184.229 395.73L182.428 394.172C182.428 394.172 185.833 393.538 187.269 394.053C187.269 394.053 185.629 392.528 181.959 393.819L180.001 392.585C180.001 392.585 182.902 391.793 184.629 391.98C184.629 391.98 182.817 390.958 179.424 392.257L178.019 391.605C178.019 391.605 180.148 391.068 180.773 390.962C181.398 390.857 181.427 390.695 181.427 390.695C180.084 390.496 178.701 390.715 177.432 391.327C177.432 391.327 174.451 390.17 174.504 389.961Z" fill="#145196"/>
</svg>
