<svg width="362" height="215" viewBox="0 0 362 215" fill="none" xmlns="http://www.w3.org/2000/svg">
<path d="M2.2998 115.299L1.76987 98.952C2.08688 98.7059 2.40863 98.4788 2.71617 98.2517C2.58545 93.3777 2.86403 88.5013 3.54893 83.6739C5.68758 67.3265 19.5746 66.9716 23.4923 70.3452C24.0115 70.7932 24.5779 71.1835 25.1814 71.5092C24.8266 69.1765 24.3866 66.8391 24.0695 64.5302C22.3567 52.0768 25.0158 38.0668 34.6776 30.0184C38.7231 26.6543 43.6675 24.5866 48.1104 21.7714C56.0688 16.7512 62.357 9.33695 70.4053 4.44929C78.4537 -0.438368 89.7572 -2.26947 96.7788 4.01399C99.4995 6.44599 101.255 9.81957 104.046 12.1664C109.251 16.5383 117.366 16.827 121.908 21.7099C122.135 21.9559 122.353 22.2067 122.561 22.4717C126.346 27.3262 125.31 34.2106 124.103 40.2338C122.651 47.4825 123.252 53.2928 117.034 55.3747C117.011 55.6633 116.992 55.9519 116.959 56.2358C116.453 60.6825 114.981 64.9649 112.647 68.7833C110.313 72.6018 107.173 75.8639 103.446 78.3415L104.453 78.7011C107.141 79.6474 109.559 80.5653 111.106 81.1946C116.784 83.5083 128.736 86.5223 128.736 86.5223C128.736 86.5223 129.019 89.929 128.967 94.9538C132.951 99.2832 139.599 106.891 141.553 111.401C144.392 117.977 160.432 136.814 164.705 139.657C168.977 142.501 173.609 145.874 173.609 145.874C173.609 145.874 180.375 149.608 183.579 149.962C185.798 150.209 192.663 148.893 192.663 148.893C192.663 148.893 220.082 115.299 218.303 141.077C216.524 166.854 194.622 167.729 194.622 167.729L172.54 167.375C172.54 167.375 160.607 168.974 155.265 164.536C150.704 160.75 127.065 139.984 119.471 130.563C119.296 130.757 119.121 130.947 118.937 131.131C118.937 131.131 115.913 127.223 115.554 131.131C115.194 135.039 117.517 136.809 116.268 138.228C115.019 139.648 111.281 144.625 111.106 146.579C110.931 148.534 116.088 156.516 107.368 162.572C107.231 162.667 107.084 162.757 106.923 162.846C105.367 166.39 100.417 169.859 100.417 169.859L73.7079 169.504L23.3125 173.412C23.3125 173.412 21.8126 172.092 19.7828 169.934C17.0716 172.423 13.3101 174.557 9.0706 173.246C9.0706 173.246 3.01427 165.964 2.83446 161.167C2.83446 161.167 6.75217 151.037 8.5123 148.018C10.2724 144.999 7.26317 138.422 7.26317 138.422C7.26317 138.422 5.12926 132.025 3.88014 132.025C2.63103 132.025 3.52528 127.767 3.52528 127.767C3.99751 127.071 4.293 126.27 4.38615 125.434C4.47932 124.598 4.36736 123.752 4.05994 122.969C3.01428 120.277 2.2998 115.299 2.2998 115.299Z" fill="url(#paint0_linear)"/>
<path d="M32.5102 111.618L34.4028 113.833L42.0489 122.737L52.0372 123.343L68.025 124.327C68.025 124.327 89.5818 98.3512 85.5317 92.697C84.0602 90.6577 83.8188 87.9655 84.1122 85.4246C84.1501 85.0745 84.2021 84.7244 84.2636 84.379C84.7482 81.6905 85.595 79.0802 86.7808 76.6193L86.2508 76.378L85.9102 76.2218L67.0598 67.6199L62.3945 65.4907C62.1622 66.7766 61.7312 68.0185 61.117 69.1718C61.0271 69.3516 60.9277 69.5314 60.8236 69.7018C54.3935 80.3477 33.7735 73.6147 33.7735 73.6147L32.5102 111.618Z" fill="#F8C9D1"/>
<path d="M4.63708 98.3274C4.77903 104.772 5.82943 107.554 5.82943 107.554L32.5104 111.618L33.5088 104.691L37.4596 77.3384L33.7501 73.6289C32.2681 73.9485 30.7325 73.9236 29.2617 73.5561C27.7908 73.1886 26.424 72.4883 25.2665 71.5091C21.3819 68.1498 7.59902 68.5046 5.4793 84.7574C4.85666 89.253 4.57511 93.7893 4.63708 98.3274Z" fill="#F8C9D1"/>
<path d="M60.5353 205.889C61.0369 206.282 61.5337 206.674 62.0447 207.062C64.6044 209.035 67.1973 210.966 69.8422 212.811C70.4715 213.251 71.1103 213.691 71.7348 214.122H97.5736H213.657H222.67L267.326 212.523L303.239 212.22L312.229 211.747L357.083 209.381C358.727 203.983 359.962 198.47 360.779 192.887C360.963 191.628 361.129 190.365 361.252 189.102L312.248 191.817L303.258 192.324L222.689 196.819L213.676 197.32L97.5926 203.802L88.6595 204.304H88.5838L60.5353 205.889Z" fill="#145196"/>
<path d="M0 170.644C9.84631 173.483 19.3992 177.141 28.3891 182.322C29.1036 182.733 29.8086 183.154 30.5231 183.585C31.2375 184.015 31.9426 184.446 32.6286 184.891C33.3147 185.335 34.0055 185.776 34.6868 186.225L35.7372 186.935L36.764 187.635C37.7765 188.331 38.7749 189.054 39.7732 189.755L39.811 189.783C40.4687 190.256 41.1217 190.729 41.7746 191.203C45.4605 193.933 49.0659 196.791 52.6571 199.658C53.4142 200.263 54.1728 200.868 54.933 201.47L58.4343 204.247C59.1204 204.792 59.8159 205.331 60.5067 205.87C61.0083 206.263 61.5051 206.656 62.0161 207.044L88.5126 205.78H88.5883L97.5214 205.364L213.657 199.861L222.67 199.431L303.239 195.603L312.228 195.172L360.779 192.887C360.963 191.628 361.129 190.365 361.252 189.102C361.498 186.935 361.681 184.758 361.801 182.572L312.233 165.066L303.243 161.881L295.077 158.995L280.196 159.771L245.803 161.536L222.656 162.752L213.642 163.225L207.884 163.528L206.507 163.604L158.047 166.135L157.536 166.168L135.913 167.294H135.667H135.525L133.363 167.403L125.991 167.791L116.774 168.264L113.736 168.425L113.164 168.458L108.868 168.681L107.642 168.742L103.54 168.96L101.908 169.05H101.855H101.515L97.6776 169.253L91.7348 169.565H91.7064L89.8611 169.66H89.6624L88.5599 169.721L85.8535 169.863L83.4878 169.986H83.4641L80.8097 170.124H80.7671L78.7562 170.232L77.2137 170.313L71.7393 170.602L70.7552 170.654H70.4146L69.9414 170.682L68.3374 170.767L67.6182 170.805L62.035 171.094H61.524L53.2817 171.023H53.2249L21.888 170.767H21.2871H20.6531H18.7889L8.70126 170.687H7.19669L0 170.644Z" fill="#145196"/>
<path d="M211.494 171.292L208.58 186.797L129.336 185.605C129.336 185.605 123.375 187.327 123.507 182.558C123.507 182.558 111.446 171.159 50.3577 184.412L73.8118 165.993L137.924 169.437L212.266 167.45L211.494 171.292Z" fill="#F76C6C"/>
<path d="M210.037 167.583L207.255 184.413C207.255 184.413 139.121 182.425 128.409 184.28L136.504 168.907C136.504 168.907 177.702 165.065 210.037 167.583Z" fill="white"/>
<path opacity="0.1" d="M210.037 167.583L207.255 184.413C207.255 184.413 139.121 182.425 128.409 184.28L136.504 168.907C136.504 168.907 177.702 165.065 210.037 167.583Z" fill="black"/>
<path d="M209.02 167.521L206.275 183.173C206.275 183.173 139.007 181.328 128.409 183.05L136.391 168.756C136.391 168.756 177.091 165.179 209.02 167.521Z" fill="white"/>
<path opacity="0.1" d="M207.785 168.004L205.112 182.643C205.112 182.643 139.32 180.916 128.934 182.53L136.741 169.154C136.741 169.154 176.552 165.794 207.785 168.004Z" fill="black"/>
<path d="M207.255 167.469L204.567 182.137C204.567 182.137 138.776 180.41 128.39 182.023L136.216 168.633C136.216 168.633 176.022 165.278 207.255 167.469Z" fill="white"/>
<path d="M253.804 127.663C253.804 127.663 250.359 132.162 255.389 138.961C260.418 145.761 264.572 151.495 262.893 155.735C262.893 155.735 255.322 143.111 249.124 142.96C242.926 142.808 247.004 135.252 253.804 127.663Z" fill="#F76C6C"/>
<path opacity="0.1" d="M253.804 127.663C253.501 128.099 253.263 128.577 253.099 129.082C247.071 136.179 243.858 142.804 249.654 142.945C255.053 143.097 261.525 152.749 263.077 155.191C263.024 155.374 262.962 155.558 262.893 155.744C262.893 155.744 255.322 143.121 249.124 142.969C242.926 142.818 247.004 135.252 253.804 127.663Z" fill="black"/>
<path d="M247.402 133.402C247.402 134.983 247.582 136.27 247.799 136.27C248.017 136.27 248.197 134.983 248.197 133.402C248.197 131.822 247.974 132.56 247.757 132.56C247.539 132.56 247.402 131.817 247.402 133.402Z" fill="#FFD037"/>
<path d="M245.207 135.29C246.598 136.052 247.809 136.511 247.913 136.317C248.017 136.123 246.967 135.371 245.585 134.595C244.203 133.819 244.743 134.387 244.639 134.595C244.535 134.803 243.815 134.533 245.207 135.29Z" fill="#FFD037"/>
<path d="M271.987 127.663C271.987 127.663 275.431 132.162 270.397 138.961C265.363 145.761 261.218 151.495 262.893 155.735C262.893 155.735 270.487 143.111 276.666 142.96C282.846 142.808 278.786 135.252 271.987 127.663Z" fill="#F76C6C"/>
<path opacity="0.1" d="M271.987 127.663C272.287 128.1 272.524 128.578 272.692 129.082C278.72 136.179 281.933 142.804 276.136 142.945C270.738 143.097 264.26 152.749 262.708 155.191C262.759 155.374 262.82 155.558 262.893 155.744C262.893 155.744 270.487 143.121 276.666 142.969C282.846 142.818 278.786 135.252 271.987 127.663Z" fill="#F76C6C"/>
<path d="M278.389 133.402C278.389 134.983 278.209 136.27 277.991 136.27C277.774 136.27 277.594 134.983 277.594 133.402C277.594 131.822 277.816 132.56 278.034 132.56C278.251 132.56 278.389 131.817 278.389 133.402Z" fill="#FFD037"/>
<path d="M280.584 135.29C279.193 136.052 277.977 136.511 277.873 136.317C277.769 136.123 278.819 135.371 280.201 134.595C281.582 133.819 281.043 134.387 281.147 134.595C281.251 134.803 281.975 134.533 280.584 135.29Z" fill="#FFD037"/>
<path d="M244.383 149.664L244.554 151.084L244.795 153.066L244.894 153.894L245.136 155.881L245.24 156.71L245.486 158.697L248.239 181.276C248.486 183.291 251.779 184.862 255.753 184.862H270.052C274.026 184.862 277.315 183.291 277.561 181.276L280.319 158.697L280.561 156.71L280.66 155.881L280.906 153.894L281.005 153.066L281.247 151.084L281.422 149.664C281.559 148.524 279.78 147.563 277.528 147.563H248.258C246.011 147.563 244.227 148.524 244.383 149.664Z" fill="#24305E"/>
<path d="M244.539 151.07L244.78 153.057H281.005L281.246 151.07H244.539Z" fill="#374785"/>
<path d="M244.88 153.885L245.122 155.872H280.66L280.906 153.885H244.88Z" fill="#374785"/>
<path d="M245.226 156.7L245.467 158.683H280.319L280.561 156.7H245.226Z" fill="#374785"/>
<path d="M200.716 147.838C200.716 147.838 209.905 139.004 209.55 150.488C209.195 161.971 200.716 147.838 200.716 147.838Z" fill="#EE8E9E"/>
<path d="M118.203 127.696C118.406 128.585 119.395 130.062 120.938 131.912C128.906 141.507 151.574 161.451 156.017 165.151C161.316 169.57 173.155 167.989 173.155 167.989L195.062 168.344C195.062 168.344 216.794 167.46 218.563 141.848C220.333 116.236 193.122 149.622 193.122 149.622C193.122 149.622 186.308 150.928 184.108 150.682C180.929 150.331 174.215 146.622 174.215 146.622C174.215 146.622 169.62 143.263 165.381 140.438C161.141 137.613 145.239 118.881 142.409 112.342C140.616 108.192 134.839 101.407 130.85 97.0071C128.56 94.4758 126.862 92.7488 126.862 92.7488C126.862 92.7488 116.968 122.217 118.203 127.696Z" fill="#F8C9D1"/>
<path opacity="0.1" d="M118.203 127.696C118.406 128.585 119.395 130.062 120.938 131.912C128.981 123.721 130.661 107.379 130.85 96.9881C128.56 94.4567 126.862 92.7297 126.862 92.7297C126.862 92.7297 116.968 122.217 118.203 127.696Z" fill="black"/>
<path opacity="0.1" d="M34.4075 113.833L42.0489 122.737L52.0372 123.343L68.025 124.327C68.025 124.327 89.5818 98.351 85.5317 92.6968C84.0602 90.6576 83.8188 87.9653 84.1122 85.4245C84.1501 85.0744 84.2021 84.7242 84.2636 84.3788C84.7482 81.6904 85.595 79.0801 86.7808 76.6191L86.2508 76.3778L85.9102 76.2217C85.0689 78.5655 84.4881 80.9948 84.1784 83.4656C84.1264 83.8016 84.0791 84.1517 84.0317 84.5113C83.8661 85.7888 83.7147 87.2083 83.5586 88.7697C82.3284 103.068 73.3338 108.448 69.2741 110.161C67.9688 110.711 66.6928 111.329 65.4511 112.011C61.5454 114.165 57.0413 114.979 52.6286 114.329C42.6073 113.014 34.4359 105.732 34.4359 105.732L34.3933 112.9L34.4075 113.833Z" fill="black"/>
<path d="M34.1001 169.395C34.1001 169.395 99.8257 169.215 108.489 163.211C117.153 157.206 112.019 149.253 112.199 147.308C112.378 145.363 116.083 140.419 117.318 139C118.553 137.58 116.258 135.82 116.613 131.935C116.968 128.051 119.968 131.935 119.968 131.935C132.341 119.387 129.691 87.5868 129.691 87.5868C129.691 87.5868 117.862 84.5871 112.184 82.2828C110.647 81.6583 108.253 80.7687 105.56 79.8082L104.562 79.4486C97.6208 76.9646 89.369 74.1588 89.369 74.1588C89.369 74.1588 87.7839 73.0374 86.1894 76.3921C85.4608 77.9345 84.7274 80.4186 84.1407 84.3883C84.0886 84.7243 84.0413 85.0744 83.994 85.434C83.8284 86.7115 83.677 88.131 83.5209 89.6924C82.2907 103.991 73.296 109.371 69.2364 111.084C67.9311 111.634 66.655 112.252 65.4133 112.934C61.5076 115.088 57.0036 115.902 52.5909 115.252C42.5695 113.937 34.3982 106.655 34.3982 106.655L34.3556 113.823L34.2326 135.361L34.1001 169.395Z" fill="#00B8F2"/>
<path d="M36.9295 141.479L37.9894 148.193C37.9894 148.193 64.1405 154.727 74.3843 156.672C84.6281 158.616 106.72 156.142 108.309 160.381C109.899 164.621 101.595 170.455 101.595 170.455L75.0987 170.1L25.096 173.989C25.096 173.989 6.01375 157.202 12.1979 145.538C18.382 133.875 36.9295 141.479 36.9295 141.479Z" fill="#F8C9D1"/>
<path opacity="0.1" d="M90.8169 88.4714C90.8169 88.4714 102.835 98.3651 100.535 103.139C98.2359 107.913 90.8169 88.4714 90.8169 88.4714Z" fill="black"/>
<path opacity="0.1" d="M105.66 106.314C105.66 106.314 117.853 127.341 117.143 128.931C116.433 130.52 113.079 136.175 113.259 131.935C113.438 127.696 105.66 106.314 105.66 106.314Z" fill="black"/>
<path opacity="0.1" d="M100.71 110.028C100.71 110.028 103.549 123.102 106.365 128.581C109.18 134.06 100.71 110.028 100.71 110.028Z" fill="black"/>
<path opacity="0.1" d="M60.8 69.7159C63.1365 74.0001 66.4647 77.6627 70.5065 80.3972C74.5482 83.1318 79.1859 84.8589 84.0318 85.434H84.0885C91.7113 86.3292 99.3915 84.3188 105.598 79.8035C98.5008 77.2391 89.4068 74.1541 89.4068 74.1541C89.4068 74.1541 87.8217 73.0327 86.2272 76.3874L62.3709 65.5049C62.1029 66.9911 61.5709 68.4173 60.8 69.7159Z" fill="black"/>
<path d="M57.0715 54.0167C57.0627 59.3378 58.4495 64.5682 61.0933 69.186C62.3563 71.388 63.8867 73.4254 65.6498 75.2518C70.5685 80.3729 77.1228 83.6133 84.1784 84.412H84.2399C85.3677 84.5412 86.502 84.606 87.6372 84.606C95.1474 84.6062 102.395 81.8414 107.997 76.8391C113.598 71.8368 117.162 64.9473 118.009 57.4849C118.14 56.3399 118.205 55.1882 118.203 54.0356C118.203 45.9291 114.983 38.1546 109.25 32.4224C103.518 26.6903 95.7437 23.47 87.6372 23.47C79.5307 23.47 71.7562 26.6903 66.024 32.4224C60.2918 38.1546 57.0715 45.9291 57.0715 54.0356V54.0167Z" fill="#F8C9D1"/>
<path opacity="0.1" d="M37.2798 111.855L34.4409 107.596C34.4409 107.596 18.8931 89.0439 3.68597 100.882L4.2159 117.14C4.2159 117.14 4.92566 122.084 5.98552 124.71C6.28994 125.489 6.40074 126.331 6.30844 127.162C6.21614 127.994 5.9235 128.791 5.45559 129.484C5.45559 129.484 4.57079 133.743 5.80572 133.743C7.04065 133.743 9.16509 140.102 9.16509 140.102C9.16509 140.102 12.1696 146.641 10.4 149.645C8.63042 152.65 4.74586 162.718 4.74586 162.718C4.74586 162.718 10.93 159.009 12.6996 152.825C12.6996 152.825 27.7174 141.162 39.3806 148.566L37.2798 111.855Z" fill="black"/>
<path opacity="0.1" d="M4.63715 98.3272C4.77909 104.772 5.8295 107.554 5.8295 107.554L32.5106 111.618L33.5089 104.691C30.017 101.048 17.3176 89.4651 4.63715 98.3272Z" fill="black"/>
<path d="M37.2798 110.908L34.4409 106.65C34.4409 106.65 18.8931 88.0976 3.68597 99.9359L4.2159 116.193C4.2159 116.193 4.92566 121.138 5.98552 123.764C6.28994 124.543 6.40075 125.385 6.30844 126.216C6.21614 127.048 5.9235 127.844 5.45559 128.538C5.45559 128.538 4.57079 132.796 5.80572 132.796C7.04065 132.796 9.16509 139.156 9.16509 139.156C9.16509 139.156 12.1696 145.694 10.4 148.699C8.63042 151.704 4.74586 161.772 4.74586 161.772C4.74586 161.772 10.93 158.063 12.6996 151.879C12.6996 151.879 27.7174 140.215 39.3806 147.62L37.2798 110.908Z" fill="#00B8F2"/>
<path opacity="0.1" d="M12.1931 98.895C12.1931 98.895 37.8096 114.623 36.5747 128.415C36.5747 128.415 22.2618 103.134 12.1931 98.895Z" fill="black"/>
<path opacity="0.1" d="M34.4125 113.837L34.2895 135.375C39.1346 135.593 43.7005 134.964 47.3106 131.827C49.8231 129.641 51.2851 126.622 52.0422 123.357C52.6054 120.727 52.8123 118.032 52.6572 115.347C52.6598 115.32 52.6598 115.293 52.6572 115.266C52.3592 109.319 50.9917 103.371 51.7109 97.4615C52.4301 91.5519 56.0119 85.3157 61.8601 84.0713C63.0146 83.8206 64.311 83.7307 65.1343 82.8837C66.0427 81.9374 66.0002 80.4659 65.9008 79.1553L65.7304 76.9457C65.6879 76.3779 65.6689 75.8148 65.6689 75.2518C65.6724 70.2283 67.4198 65.3618 70.6128 61.4836C73.8058 57.6055 78.2462 54.9562 83.1756 53.9883L83.3648 53.9552C85.0114 53.624 86.7242 53.2975 88.3708 53.676C91.5031 54.4 93.5281 57.4376 96.4144 58.8807C101.95 61.6439 111.181 58.6205 116.978 57.6694C117.356 57.6079 117.716 57.5369 118.061 57.4565C118.193 56.3115 118.257 55.1598 118.255 54.0072C118.253 49.3256 117.175 44.7071 115.106 40.5079C113.036 36.3087 110.029 32.641 106.317 29.7879C102.606 26.9347 98.2883 24.9723 93.698 24.052C89.1078 23.1317 84.3675 23.2781 79.8428 24.4799C75.3181 25.6818 71.1299 27.9069 67.6014 30.9837C64.0728 34.0605 61.2982 37.9067 59.4915 42.2256C57.6849 46.5446 56.8944 51.2208 57.1812 55.8936C57.468 60.5664 58.8243 65.1109 61.1456 69.1765C61.0557 69.3563 60.9563 69.5361 60.8522 69.7064C54.4221 80.3524 33.8021 73.6194 33.8021 73.6194L32.5625 111.609L34.4125 113.837Z" fill="black"/>
<path d="M95.3023 58.3555C92.435 56.9077 90.4099 53.87 87.2587 53.1508C85.6169 52.7723 83.9041 53.0988 82.248 53.4253L82.0588 53.4631C76.8471 54.4944 72.1947 57.4013 68.983 61.6333C65.7713 65.8653 64.2234 71.1283 64.6325 76.4252L64.8029 78.6348C64.907 79.9407 64.9496 81.4217 64.0317 82.3585C63.2131 83.2055 61.9167 83.3048 60.7622 83.5414C54.914 84.7906 51.3322 90.9936 50.613 96.9364C49.8939 102.879 51.2849 108.846 51.5593 114.817C51.8338 120.788 50.7361 127.379 46.2222 131.301C39.1249 137.452 28.337 133.951 18.945 133.388C23.0992 133.388 26.2126 129.101 26.4397 124.956C26.6668 120.812 24.8215 116.866 23.0567 113.128C21.2918 109.39 19.5222 105.368 19.9149 101.233C20.4543 95.5548 24.9303 91.0078 26.6432 85.5429C28.6399 79.1837 26.7141 72.3561 25.8104 65.7462C24.1118 53.3685 26.7567 39.4342 36.338 31.4332C40.3504 28.088 45.257 26.0298 49.6667 23.2287C57.5684 18.218 63.7998 10.8699 71.7866 5.99647C79.7734 1.123 90.9872 -0.684429 97.9567 5.56118C100.654 7.97899 102.395 11.3336 105.168 13.6663C110.585 18.2322 119.196 18.3174 123.54 23.9195C127.278 28.7409 126.265 35.5874 125.068 41.5728C123.474 49.5549 124.373 55.7674 115.842 57.1868C110.069 58.1 100.843 61.1235 95.3023 58.3555Z" fill="#272727"/>
<path opacity="0.1" d="M25.011 129.574C31.8481 130.412 38.6237 130.842 43.6012 126.527C48.1151 122.605 49.227 116.018 48.9384 110.043C48.6497 104.067 47.2681 98.0954 47.9921 92.1574C48.716 86.2193 52.293 80.0163 58.1412 78.7672C59.2957 78.5211 60.5874 78.4312 61.4106 77.5843C62.3238 76.638 62.286 75.1617 62.1819 73.8558L62.0116 71.6462C61.6026 66.3499 63.1507 61.0875 66.3624 56.8563C69.5742 52.6251 74.2265 49.7191 79.4378 48.6889L79.627 48.651C81.283 48.3245 82.9959 47.9981 84.6377 48.3766C87.77 49.1005 89.7951 52.1618 92.6813 53.5813C98.2219 56.3492 107.444 53.3258 113.249 52.3747C121.766 50.9789 120.876 44.757 122.476 36.7607C123.37 32.2941 124.16 27.345 122.949 23.115C123.176 23.3563 123.394 23.5881 123.602 23.8768C127.34 28.6982 126.327 35.5447 125.13 41.5301C123.536 49.5121 124.435 55.7246 115.904 57.1441C110.103 58.0904 100.876 61.1186 95.3357 58.3506C92.4684 56.9028 90.4433 53.8652 87.2921 53.146C85.6502 52.7674 83.9374 53.0939 82.2814 53.4204L82.0921 53.4582C76.8805 54.4895 72.2281 57.3965 69.0164 61.6284C65.8047 65.8604 64.2568 71.1234 64.6659 76.4203L64.8363 78.6299C64.9404 79.9358 64.983 81.4168 64.0651 82.3536C63.2465 83.2006 61.9501 83.3 60.7956 83.5365C54.9474 84.7856 51.3656 90.9887 50.6464 96.9315C49.9272 102.874 51.3136 108.841 51.5927 114.812C51.8719 120.783 50.7695 127.374 46.2556 131.297C39.1583 137.448 28.3704 133.946 18.9784 133.383C21.5286 133.397 23.672 131.779 25.011 129.574Z" fill="black"/>
<path d="M217.035 145.359L187.865 134.476C187.176 134.219 186.412 134.246 185.742 134.551C185.072 134.856 184.551 135.415 184.293 136.104C184.035 136.793 184.062 137.557 184.368 138.227C184.673 138.897 185.231 139.418 185.921 139.676L215.09 150.559L221.345 149.934L217.035 145.359Z" fill="#145196"/>
<path opacity="0.1" d="M185.173 135.214C184.916 135.904 184.943 136.668 185.249 137.338C185.555 138.008 186.115 138.529 186.805 138.787L215.994 149.707L220.688 149.234L221.364 149.953L215.109 150.577L185.939 139.695C185.25 139.437 184.691 138.915 184.386 138.246C184.081 137.576 184.054 136.812 184.312 136.123C184.527 135.548 184.926 135.06 185.447 134.736C185.342 134.887 185.251 135.047 185.173 135.214Z" fill="white"/>
<path d="M217.03 145.359L215.09 150.559L220.219 150.043L221.341 149.93L219.808 148.302L217.03 145.359Z" fill="#EFC8C4"/>
<path d="M219.812 148.288C219.693 148.377 219.59 148.488 219.51 148.614C219.462 148.69 219.436 148.778 219.436 148.867C219.436 148.957 219.462 149.045 219.51 149.12C219.59 149.204 219.685 149.273 219.789 149.324C219.906 149.402 220.004 149.506 220.076 149.627C220.148 149.748 220.192 149.884 220.205 150.024L221.331 149.915L219.812 148.288Z" fill="#404040"/>
<path d="M125.447 178.569C125.447 178.569 100.181 173.265 57.7862 179.989L74.3938 167.8L104.609 161.616L125.986 167.294L125.447 178.569Z" fill="white"/>
<path opacity="0.1" d="M125.447 178.569C125.447 178.569 100.181 173.265 57.7862 179.989L74.3938 167.8L104.609 161.616L125.986 167.294L125.447 178.569Z" fill="black"/>
<path d="M128.409 184.304C128.409 184.304 115.686 149.887 50.3385 184.412L73.7927 169.319C73.7927 169.319 129.98 153.795 136.471 171.685L128.409 184.304Z" fill="white"/>
<path opacity="0.1" d="M128.409 184.28C128.409 184.28 115.686 147.483 50.3386 184.942L73.7928 168.571C73.7928 168.571 129.999 150.005 136.504 169.437L128.409 184.28Z" fill="black"/>
<path d="M128.409 184.295C128.409 184.295 115.686 146.953 50.3385 184.413L73.7927 168.042C73.7927 168.042 129.98 150.005 136.471 169.461L128.409 184.295Z" fill="white"/>
<path opacity="0.1" d="M128.409 184.304C128.409 184.304 115.686 142.804 50.3387 184.943L73.8117 166.523C73.8117 166.523 129.999 147.597 136.49 169.437L128.409 184.304Z" fill="black"/>
<path d="M128.409 184.28C128.409 184.28 115.686 142.274 50.3387 184.413L73.8117 165.993C73.8117 165.993 129.999 147.067 136.49 168.908L128.409 184.28Z" fill="white"/>
<defs>
<linearGradient id="paint0_linear" x1="110.079" y1="173.634" x2="110.079" y2="-0.0172645" gradientUnits="userSpaceOnUse">
<stop stop-color="#808080" stop-opacity="0.25"/>
<stop offset="0.54" stop-color="#808080" stop-opacity="0.12"/>
<stop offset="1" stop-color="#808080" stop-opacity="0.1"/>
</linearGradient>
</defs>
</svg>
