<svg width="132" height="563" viewBox="0 0 132 563" fill="none" xmlns="http://www.w3.org/2000/svg">
<path opacity="0.4" d="M128.952 427.802C128.952 427.802 128.116 398.232 107.807 403.526C107.807 403.526 104.103 403.163 102.742 406.611C102.742 406.611 104.278 406.529 104.02 409.538C103.938 410.61 103.983 411.687 104.154 412.748C104.377 414.183 105.064 415.505 106.109 416.513C106.109 416.513 110.26 424.479 124.089 426.467C124.089 426.467 127.25 428.585 127.998 428.419L125.437 423.647C125.437 423.647 122.009 425.662 118.914 424.59C118.914 424.59 125.326 423.857 125.086 422.918C125.043 422.725 123.62 420.451 123.62 420.451C123.62 420.451 117.59 423.945 112.86 422.145C112.86 422.145 120.617 422.303 123.036 419.604L120.723 416.29C120.723 416.29 114.581 420.275 109.116 418.433C109.116 418.433 117.234 418.306 120.161 415.604L117.381 412.652C117.381 412.652 111.32 416.424 106.789 414.856C106.789 414.856 116.156 413.765 116.716 412.023C116.716 412.023 114.029 409.471 112.983 409.133C112.983 409.133 108.567 411.738 106.017 410.592C106.017 410.592 112.194 409.202 112.164 408.515C112.164 408.515 107.775 406.128 104.911 406.09C104.911 406.09 109.144 405.859 112.503 407.812C112.503 407.812 111.809 405.187 109.936 403.778C109.936 403.778 112.904 403.953 113.564 408.384C113.564 408.384 116.906 410.384 117.153 410.974C117.153 410.974 117.127 406.49 115.691 403.897C115.691 403.897 118.669 405.999 117.91 411.733L120.707 414.632C120.707 414.632 120.989 408.696 119.885 406.286C119.885 406.286 122.582 408.931 121.364 415.418L123.697 418.642C123.697 418.642 124.332 413.551 123.679 410.606C123.679 410.606 125.654 413.596 124.333 419.592L125.646 421.929C125.646 421.929 126.036 418.204 126.078 417.119C126.12 416.035 126.39 415.955 126.39 415.955C126.988 418.249 126.936 420.664 126.241 422.93C126.241 422.93 128.636 427.92 128.952 427.802Z" fill="#00B8F2"/>
<path opacity="0.4" d="M57.3013 434.943C57.3013 434.943 70.3187 428.118 63.5246 420.207C63.5246 420.207 62.8787 418.474 61.0423 418.619C61.0423 418.619 61.4141 419.287 60.0144 419.828C59.5183 420.025 59.0471 420.28 58.6108 420.588C58.0191 421.001 57.5787 421.596 57.3569 422.282C57.3569 422.282 54.7064 425.873 56.8364 432.48C56.8364 432.48 56.5805 434.353 56.8175 434.651L58.3892 432.467C58.3892 432.467 56.7416 431.376 56.5452 429.761C56.5452 429.761 58.2713 432.463 58.638 432.151C58.7148 432.09 59.4195 430.959 59.4195 430.959C59.4195 430.959 56.5441 429.029 56.3159 426.525C56.3159 426.525 57.9375 430.022 59.6703 430.513L60.6448 428.757C60.6448 428.757 57.5258 426.885 57.1555 424.043C57.1555 424.043 58.9835 427.64 60.8285 428.357L61.5398 426.472C61.5398 426.472 58.5333 424.589 58.245 422.224C58.245 422.224 60.7758 426.168 61.6752 426.038C61.6752 426.038 62.2283 424.281 62.1512 423.741C62.1512 423.741 60.0246 422.338 59.9797 420.949C59.9797 420.949 61.9479 423.404 62.2483 423.24C62.2483 423.24 62.3562 420.76 61.7479 419.473C61.7479 419.473 62.7748 421.313 62.636 423.238C62.636 423.238 63.6561 422.356 63.8766 421.212C63.8766 421.212 64.4461 422.575 62.6122 423.837C62.6122 423.837 62.4487 425.765 62.2388 426.004C62.2388 426.004 64.2348 425.014 65.0789 423.807C65.0789 423.807 64.7906 425.595 62.0652 426.507L61.3815 428.388C61.3815 428.388 64.0929 427.219 64.9279 426.2C64.9279 426.2 64.3357 427.982 61.1737 428.853L60.2438 430.598C60.2438 430.598 62.6549 429.771 63.8269 428.837C63.8269 428.837 62.9232 430.371 59.9586 431.089L59.2016 432.185C59.2016 432.185 60.9495 431.546 61.4429 431.329C61.9363 431.111 62.0308 431.214 62.0308 431.214C61.1372 431.981 60.0479 432.485 58.8845 432.669C58.8845 432.669 57.1795 434.827 57.3013 434.943Z" fill="#00B8F2"/>
<path d="M56.3509 106.796C56.3509 106.796 71.4328 111.661 72.3912 100.459C72.3912 100.459 73.2367 98.6534 71.7386 97.3494C71.7386 97.3494 71.5055 98.1397 70.0319 97.4714C69.5055 97.2383 68.9534 97.0684 68.3871 96.965C67.6228 96.8212 66.8324 96.9315 66.1366 97.279C66.1366 97.279 61.3712 97.9511 57.8948 104.579C57.8948 104.579 56.2602 105.796 56.2097 106.204L59.0779 105.764C59.0779 105.764 58.6729 103.673 59.7681 102.301C59.7681 102.301 58.9915 105.671 59.5084 105.717C59.6139 105.73 61.0165 105.418 61.0165 105.418C61.0165 105.418 60.3303 101.748 62.0852 99.6816C62.0852 99.6816 60.6182 103.57 61.5488 105.275L63.6358 104.699C63.6358 104.699 62.7215 100.885 64.6289 98.454C64.6289 98.454 63.2414 102.577 64.0829 104.538L66.0707 103.662C66.0707 103.662 65.2495 99.9264 66.8516 97.919C66.8516 97.919 65.7277 102.844 66.5069 103.438C66.5069 103.438 68.2763 102.538 68.6342 102.07C68.6342 102.07 68.108 99.3743 69.1429 98.2912C69.1429 98.2912 68.74 101.659 69.0925 101.767C69.0925 101.767 71.083 99.9773 71.6138 98.5375C71.6138 98.5375 70.9737 100.717 69.3872 102.064C69.3872 102.064 70.8364 102.183 71.883 101.489C71.883 101.489 71.264 102.956 68.9085 102.497C68.9085 102.497 67.301 103.828 66.9586 103.846C66.9586 103.846 69.2275 104.635 70.7937 104.374C70.7937 104.374 69.1999 105.502 66.44 104.093L64.4761 104.987C64.4761 104.987 67.4233 106.191 68.8379 106.065C68.8379 106.065 67.0199 106.954 63.9615 105.178L61.9162 105.78C61.9162 105.78 64.3738 107.011 65.9774 107.208C65.9774 107.208 64.1144 107.671 61.3229 105.932L59.9079 106.177C59.9079 106.177 61.7194 107.04 62.2595 107.255C62.7996 107.47 62.7916 107.621 62.7916 107.621C61.5263 107.512 60.316 107.054 59.2959 106.298C59.2959 106.298 56.3477 106.615 56.3509 106.796Z" fill="#00B8F2"/>
<path opacity="0.3" d="M0.26263 69.794C0.26263 69.794 12.3348 80.0602 17.5072 70.0771C17.5072 70.0771 18.9791 68.7329 18.0942 66.9549C18.0942 66.9549 17.5764 67.5959 16.4707 66.4144C16.0736 65.9977 15.6285 65.6294 15.1449 65.3172C14.4938 64.8918 13.7213 64.6912 12.9455 64.746C12.9455 64.746 8.28571 63.5433 2.53746 68.3366C2.53746 68.3366 0.561413 68.8356 0.35885 69.1928L3.17709 69.8839C3.17709 69.8839 3.60321 67.7968 5.13978 66.949C5.13978 66.949 3.13305 69.7645 3.59269 70.0055C3.68541 70.0574 5.10043 70.3062 5.10043 70.3062C5.10043 70.3062 5.871 66.653 8.28308 65.4153C8.28308 65.4153 5.43961 68.4467 5.64717 70.3773L7.79559 70.6441C7.79559 70.6441 8.41046 66.7705 11.103 65.2547C11.103 65.2547 8.24342 68.5325 8.27029 70.6664L10.442 70.6178C10.442 70.6178 11.1128 66.8524 13.3612 65.611C13.3612 65.611 10.438 69.7313 10.9305 70.5783C10.9305 70.5783 12.9099 70.4233 13.4195 70.1283C13.4195 70.1283 13.9651 67.4363 15.3356 66.8316C15.3356 66.8316 13.6745 69.7892 13.9589 70.0237C13.9589 70.0237 16.4828 69.1318 17.5242 68.0048C17.5242 68.0048 16.0989 69.7731 14.1177 70.4105C14.1177 70.4105 15.4111 71.0749 16.6434 70.8345C16.6434 70.8345 15.51 71.9535 13.5094 70.628C13.5094 70.628 11.5153 71.2417 11.1917 71.1282C11.1917 71.1282 12.986 72.7253 14.5331 73.0829C14.5331 73.0829 12.6288 73.5153 10.6181 71.1576L8.46164 71.2321C8.46164 71.2321 10.7237 73.4722 12.0791 73.8966C12.0791 73.8966 10.0592 74.0223 7.913 71.2117L5.79309 70.9852C5.79309 70.9852 7.59259 73.0627 8.99883 73.8583C8.99883 73.8583 7.1004 73.573 5.18692 70.8981L3.78591 70.5828C3.78591 70.5828 5.12939 72.0732 5.54599 72.4788C5.96258 72.8844 5.89751 73.0205 5.89751 73.0205C4.77002 72.4362 3.82713 71.55 3.17411 70.4608C3.17411 70.4608 0.328905 69.6257 0.26263 69.794Z" fill="#00B8F2"/>
<path d="M60.5864 251.204C60.5864 251.204 86.5119 265.449 92.226 245.254C92.226 245.254 94.4134 242.244 92.1283 239.324C92.1283 239.324 91.4218 240.69 88.9569 238.945C88.0744 238.332 87.1225 237.825 86.121 237.436C84.7708 236.902 83.2831 236.825 81.8849 237.216C81.8849 237.216 72.913 236.764 64.1995 247.685C64.1995 247.685 60.7732 249.339 60.5368 250.068L65.9494 250.275C65.9494 250.275 65.9459 246.299 68.4377 244.172C68.4377 244.172 65.8241 250.073 66.755 250.341C66.944 250.402 69.6248 250.326 69.6248 250.326C69.6248 250.326 69.6637 243.356 73.6103 240.189C73.6103 240.189 69.5477 246.798 70.6513 250.251L74.68 249.933C74.68 249.933 74.3515 242.619 78.7065 238.837C78.7065 238.837 74.7069 245.903 75.5564 249.796L79.5093 248.892C79.5093 248.892 79.3238 241.755 82.9694 238.642C82.9694 238.642 79.1695 247.273 80.3878 248.637C80.3878 248.637 83.9492 247.611 84.7704 246.88C84.7704 246.88 84.7583 241.753 87.0378 240.133C87.0378 240.133 85.1095 246.165 85.7176 246.487C85.7176 246.487 89.9982 243.909 91.4798 241.458C91.4798 241.458 89.5367 245.226 86.1529 247.134C86.1529 247.134 88.7672 247.864 90.9305 246.962C90.9305 246.962 89.2776 249.434 85.1222 247.76C85.1222 247.76 81.7059 249.631 81.0716 249.544C81.0716 249.544 84.9516 251.792 87.9149 251.865C87.9149 251.865 84.5949 253.37 80.0338 249.813L76.1184 250.758C76.1184 250.758 81.095 254.006 83.7326 254.274C83.7326 254.274 80.0862 255.261 75.1075 250.927L71.1461 251.308C71.1461 251.308 75.2159 254.432 78.0857 255.359C78.0857 255.359 74.5073 255.549 70.005 251.376L67.3249 251.325C67.3249 251.325 70.3405 253.546 71.2544 254.131C72.1683 254.717 72.1004 254.99 72.1004 254.99C69.8195 254.345 67.763 253.078 66.1604 251.331C66.1604 251.331 60.6444 250.871 60.5864 251.204Z" fill="#00B8F2"/>
<path opacity="0.4" d="M48.4581 536.496C48.4581 536.496 40.2273 557.955 56.376 560.224C56.376 560.224 58.9238 561.59 60.9301 559.523C60.9301 559.523 59.8038 559.123 60.8876 557.042C61.2664 556.298 61.556 555.512 61.7502 554.7C62.0185 553.604 61.9209 552.45 61.4723 551.415C61.4723 551.415 60.8735 544.461 51.5476 538.906C51.5476 538.906 49.9132 536.443 49.3269 536.338L49.7388 540.526C49.7388 540.526 52.7993 540.104 54.6992 541.798C54.6992 541.798 49.8809 540.408 49.7726 541.153C49.7462 541.305 50.0873 543.361 50.0873 543.361C50.0873 543.361 55.4563 542.655 58.3112 545.359C58.3112 545.359 52.7946 542.929 50.2533 544.143L50.923 547.211C50.923 547.211 56.5186 546.186 59.8891 549.14C59.8891 549.14 54.0276 546.806 51.1212 547.871L52.2335 550.818C52.2335 550.818 57.708 549.923 60.4892 552.401C60.4892 552.401 53.4445 550.386 52.5229 551.468C52.5229 551.468 53.6882 554.101 54.3372 554.656C54.3372 554.656 58.2829 554.106 59.7702 555.69C59.7702 555.69 54.9239 554.842 54.7401 555.344C54.7401 555.344 57.1758 558.367 59.2192 559.249C59.2192 559.249 56.1135 558.151 54.2874 555.747C54.2874 555.747 54.0014 557.837 54.9238 559.407C54.9238 559.407 52.8471 558.395 53.697 555.02C53.697 555.02 51.8969 552.587 51.8964 552.09C51.8964 552.09 50.5756 555.314 50.8315 557.603C50.8315 557.603 49.3227 555.206 51.5799 551.319L50.4394 548.405C50.4394 548.405 48.4642 552.579 48.5364 554.637C48.5364 554.637 47.3916 551.934 50.203 547.645L49.4919 544.635C49.4919 544.635 47.5165 548.098 47.1053 550.405C47.1053 550.405 46.5813 547.67 49.3192 543.764L49.0758 541.696C49.0758 541.696 47.6839 544.251 47.3296 545.017C46.9754 545.782 46.7579 545.758 46.7579 545.758C47.0142 543.934 47.7725 542.218 48.948 540.8C48.948 540.8 48.7203 536.505 48.4581 536.496Z" fill="#00B8F2"/>
<path opacity="0.6" d="M101.022 1.40892C101.022 1.40892 104.54 23.3143 119.123 17.3896C119.123 17.3896 121.912 17.2969 122.587 14.5994C122.587 14.5994 121.453 14.811 121.35 12.5479C121.306 11.7432 121.167 10.9465 120.936 10.1744C120.63 9.12952 119.99 8.21365 119.114 7.56661C119.114 7.56661 115.247 2.04944 104.769 1.9257C104.769 1.9257 102.212 0.660276 101.671 0.85636L104.043 4.15447C104.043 4.15447 106.395 2.32006 108.801 2.81464C108.801 2.81464 104.105 3.98735 104.375 4.66183C104.427 4.8014 105.707 6.35284 105.707 6.35284C105.707 6.35284 109.849 3.16437 113.542 4.03992C113.542 4.03992 107.759 4.68169 106.224 6.92566L108.269 9.16311C108.269 9.16311 112.445 5.59837 116.69 6.4328C116.69 6.4328 110.665 7.32225 108.754 9.61842L111.11 11.5413C111.11 11.5413 115.248 8.1427 118.77 8.86533C118.77 8.86533 111.912 10.5938 111.666 11.9434C111.666 11.9434 113.914 13.5781 114.725 13.7274C114.725 13.7274 117.753 11.3576 119.762 11.96C119.762 11.96 115.305 13.5983 115.394 14.1065C115.394 14.1065 118.892 15.4518 121.025 15.1989C121.025 15.1989 117.9 15.7855 115.211 14.6626C115.211 14.6626 115.984 16.5459 117.515 17.4104C117.515 17.4104 115.291 17.5711 114.366 14.3411C114.366 14.3411 111.685 13.1813 111.444 12.7662C111.444 12.7662 111.902 16.0979 113.224 17.8853C113.224 17.8853 110.803 16.6142 110.807 12.2761L108.443 10.3947C108.443 10.3947 108.815 14.8361 109.872 16.5202C109.872 16.5202 107.607 14.8176 107.878 9.87412L105.827 7.70549C105.827 7.70549 105.854 11.5533 106.627 13.6788C106.627 13.6788 104.866 11.649 105.261 7.06155L104.056 5.45214C104.056 5.45214 104.131 8.26026 104.206 9.07083C104.28 9.88139 104.087 9.96709 104.087 9.96709C103.418 8.31991 103.22 6.5192 103.516 4.766C103.516 4.766 101.246 1.28995 101.022 1.40892Z" fill="#00B8F2"/>
<path opacity="0.3" d="M5.65801 392.522C5.65801 392.522 12.3652 415.533 27.2043 407.227C27.2043 407.227 30.1818 406.753 30.5433 403.771C30.5433 403.771 29.3559 404.15 28.9423 401.738C28.7874 400.881 28.5317 400.046 28.1806 399.249C27.712 398.17 26.9032 397.274 25.8776 396.698C25.8776 396.698 20.9925 391.302 9.74393 392.574C9.74393 392.574 6.83278 391.56 6.27975 391.843L9.26454 395.06C9.26454 395.06 11.5392 392.778 14.1854 392.986C14.1854 392.986 9.30822 394.873 9.6883 395.56C9.76221 395.702 11.3425 397.194 11.3425 397.194C11.3425 397.194 15.3552 393.22 19.4317 393.664C19.4317 393.664 13.318 395.127 11.974 397.738L14.4657 399.863C14.4657 399.863 18.4651 395.482 23.1272 395.807C23.1272 395.807 16.7882 397.568 15.0468 400.286L17.8302 402.031C17.8302 402.031 21.8103 397.833 25.6831 398.136C25.6831 398.136 18.5628 400.908 18.4802 402.388C18.4802 402.388 21.1094 403.839 21.9984 403.89C21.9984 403.89 24.9273 400.944 27.1615 401.32C27.1615 401.32 22.6026 403.674 22.7668 404.207C22.7668 404.207 26.6968 405.18 28.9498 404.623C28.9498 404.623 25.6783 405.671 22.6455 404.828C22.6455 404.828 23.7265 406.743 25.4831 407.465C25.4831 407.465 23.1205 407.935 21.6963 404.596C21.6963 404.596 18.6668 403.712 18.3526 403.3C18.3526 403.3 19.2902 406.81 20.9469 408.549C20.9469 408.549 18.1818 407.511 17.6036 402.86L14.8178 401.16C14.8178 401.16 15.8113 405.871 17.1703 407.535C17.1703 407.535 14.5143 406.013 14.1417 400.678L11.6525 398.628C11.6525 398.628 12.1971 402.749 13.3114 404.924C13.3114 404.924 11.1508 402.984 10.9594 398.013L9.452 396.45C9.452 396.45 9.90903 399.45 10.0978 400.309C10.2865 401.168 10.0911 401.285 10.0911 401.285C9.15313 399.609 8.69943 397.705 8.78073 395.786C8.78073 395.786 5.88179 392.364 5.65801 392.522Z" fill="#00B8F2"/>
</svg>
